ISO-10303-21;
HEADER;
/* Generated by software containing ST-Developer
 * from STEP Tools, Inc. (www.steptools.com) 
 */

FILE_DESCRIPTION(
/* description */ (''),
/* implementation_level */ '2;1');

FILE_NAME(
/* name */ 'BATI.step',
/* time_stamp */ '2026-01-02T13:14:25+01:00',
/* author */ (''),
/* organization */ (''),
/* preprocessor_version */ 'ST-DEVELOPER v20.1',
/* originating_system */ 'Autodesk Translation Framework v14.21.0.0',
/* authorisation */ '');

FILE_SCHEMA (('AUTOMOTIVE_DESIGN { 1 0 10303 214 3 1 1 }'));
ENDSEC;

DATA;
#10=MECHANICAL_DESIGN_GEOMETRIC_PRESENTATION_REPRESENTATION('',(#13),#873);
#11=SHAPE_REPRESENTATION_RELATIONSHIP('SRR','None',#880,#12);
#12=ADVANCED_BREP_SHAPE_REPRESENTATION('',(#14),#872);
#13=STYLED_ITEM('',(#889),#14);
#14=MANIFOLD_SOLID_BREP('Corps1',#397);
#15=SPHERICAL_SURFACE('',#433,20.);
#16=LINE('',#681,#38);
#17=LINE('',#685,#39);
#18=LINE('',#689,#40);
#19=LINE('',#694,#41);
#20=LINE('',#734,#42);
#21=LINE('',#779,#43);
#22=LINE('',#786,#44);
#23=LINE('',#788,#45);
#24=LINE('',#790,#46);
#25=LINE('',#791,#47);
#26=LINE('',#800,#48);
#27=LINE('',#844,#49);
#28=LINE('',#847,#50);
#29=LINE('',#849,#51);
#30=LINE('',#850,#52);
#31=LINE('',#853,#53);
#32=LINE('',#854,#54);
#33=LINE('',#857,#55);
#34=LINE('',#858,#56);
#35=LINE('',#860,#57);
#36=LINE('',#864,#58);
#37=LINE('',#869,#59);
#38=VECTOR('',#469,11.);
#39=VECTOR('',#474,1.2645);
#40=VECTOR('',#479,1.2645);
#41=VECTOR('',#484,4.5);
#42=VECTOR('',#487,4.5);
#43=VECTOR('',#496,20.);
#44=VECTOR('',#503,10.);
#45=VECTOR('',#504,10.);
#46=VECTOR('',#505,10.);
#47=VECTOR('',#506,10.);
#48=VECTOR('',#517,102.5);
#49=VECTOR('',#526,11.);
#50=VECTOR('',#529,10.);
#51=VECTOR('',#530,10.);
#52=VECTOR('',#531,10.);
#53=VECTOR('',#534,10.);
#54=VECTOR('',#535,10.);
#55=VECTOR('',#538,10.);
#56=VECTOR('',#539,10.);
#57=VECTOR('',#542,10.);
#58=VECTOR('',#547,1.2645);
#59=VECTOR('',#554,1.2645);
#60=CYLINDRICAL_SURFACE('',#417,11.);
#61=CYLINDRICAL_SURFACE('',#419,1.2645);
#62=CYLINDRICAL_SURFACE('',#421,1.2645);
#63=CYLINDRICAL_SURFACE('',#423,4.5);
#64=CYLINDRICAL_SURFACE('',#425,4.5);
#65=CYLINDRICAL_SURFACE('',#428,20.);
#66=CYLINDRICAL_SURFACE('',#436,102.5);
#67=CYLINDRICAL_SURFACE('',#440,11.);
#68=CYLINDRICAL_SURFACE('',#446,1.2645);
#69=CYLINDRICAL_SURFACE('',#450,1.2645);
#70=FACE_BOUND('',#136,.T.);
#71=FACE_BOUND('',#143,.T.);
#72=FACE_BOUND('',#146,.T.);
#73=FACE_BOUND('',#147,.T.);
#74=FACE_BOUND('',#148,.T.);
#75=FACE_BOUND('',#151,.T.);
#76=FACE_BOUND('',#152,.T.);
#77=FACE_BOUND('',#157,.T.);
#78=FACE_BOUND('',#158,.T.);
#79=FACE_BOUND('',#161,.T.);
#80=FACE_BOUND('',#162,.T.);
#81=FACE_BOUND('',#165,.T.);
#82=FACE_BOUND('',#166,.T.);
#83=FACE_BOUND('',#167,.T.);
#84=CIRCLE('',#415,11.);
#85=CIRCLE('',#416,4.5);
#86=CIRCLE('',#418,11.);
#87=CIRCLE('',#420,1.2645);
#88=CIRCLE('',#422,1.2645);
#89=CIRCLE('',#424,4.5);
#90=CIRCLE('',#427,11.);
#91=CIRCLE('',#429,20.);
#92=CIRCLE('',#430,20.);
#93=CIRCLE('',#431,20.);
#94=CIRCLE('',#434,11.659223816361);
#95=CIRCLE('',#435,20.);
#96=CIRCLE('',#437,102.5);
#97=CIRCLE('',#438,102.5);
#98=CIRCLE('',#441,11.);
#99=CIRCLE('',#447,1.2645);
#100=CIRCLE('',#449,1.2645);
#101=PLANE('',#414);
#102=PLANE('',#426);
#103=PLANE('',#432);
#104=PLANE('',#442);
#105=PLANE('',#443);
#106=PLANE('',#444);
#107=PLANE('',#445);
#108=PLANE('',#448);
#109=FACE_OUTER_BOUND('',#132,.T.);
#110=FACE_OUTER_BOUND('',#133,.T.);
#111=FACE_OUTER_BOUND('',#134,.T.);
#112=FACE_OUTER_BOUND('',#135,.T.);
#113=FACE_OUTER_BOUND('',#137,.T.);
#114=FACE_OUTER_BOUND('',#138,.T.);
#115=FACE_OUTER_BOUND('',#139,.T.);
#116=FACE_OUTER_BOUND('',#140,.T.);
#117=FACE_OUTER_BOUND('',#141,.T.);
#118=FACE_OUTER_BOUND('',#142,.T.);
#119=FACE_OUTER_BOUND('',#144,.T.);
#120=FACE_OUTER_BOUND('',#145,.T.);
#121=FACE_OUTER_BOUND('',#149,.T.);
#122=FACE_OUTER_BOUND('',#150,.T.);
#123=FACE_OUTER_BOUND('',#153,.T.);
#124=FACE_OUTER_BOUND('',#154,.T.);
#125=FACE_OUTER_BOUND('',#155,.T.);
#126=FACE_OUTER_BOUND('',#156,.T.);
#127=FACE_OUTER_BOUND('',#159,.T.);
#128=FACE_OUTER_BOUND('',#160,.T.);
#129=FACE_OUTER_BOUND('',#163,.T.);
#130=FACE_OUTER_BOUND('',#164,.T.);
#131=FACE_OUTER_BOUND('',#168,.T.);
#132=EDGE_LOOP('',(#268,#269));
#133=EDGE_LOOP('',(#270,#271));
#134=EDGE_LOOP('',(#272,#273));
#135=EDGE_LOOP('',(#274));
#136=EDGE_LOOP('',(#275));
#137=EDGE_LOOP('',(#276,#277,#278,#279));
#138=EDGE_LOOP('',(#280,#281,#282,#283,#284));
#139=EDGE_LOOP('',(#285,#286,#287,#288,#289));
#140=EDGE_LOOP('',(#290,#291,#292,#293,#294));
#141=EDGE_LOOP('',(#295,#296,#297,#298,#299));
#142=EDGE_LOOP('',(#300));
#143=EDGE_LOOP('',(#301));
#144=EDGE_LOOP('',(#302,#303,#304,#305,#306));
#145=EDGE_LOOP('',(#307,#308,#309,#310));
#146=EDGE_LOOP('',(#311));
#147=EDGE_LOOP('',(#312));
#148=EDGE_LOOP('',(#313));
#149=EDGE_LOOP('',(#314,#315,#316,#317,#318));
#150=EDGE_LOOP('',(#319,#320,#321,#322));
#151=EDGE_LOOP('',(#323,#324));
#152=EDGE_LOOP('',(#325,#326));
#153=EDGE_LOOP('',(#327,#328));
#154=EDGE_LOOP('',(#329,#330,#331,#332));
#155=EDGE_LOOP('',(#333,#334,#335,#336));
#156=EDGE_LOOP('',(#337,#338,#339,#340));
#157=EDGE_LOOP('',(#341));
#158=EDGE_LOOP('',(#342));
#159=EDGE_LOOP('',(#343,#344,#345,#346));
#160=EDGE_LOOP('',(#347,#348,#349,#350));
#161=EDGE_LOOP('',(#351));
#162=EDGE_LOOP('',(#352));
#163=EDGE_LOOP('',(#353,#354,#355,#356,#357));
#164=EDGE_LOOP('',(#358,#359,#360,#361));
#165=EDGE_LOOP('',(#362));
#166=EDGE_LOOP('',(#363));
#167=EDGE_LOOP('',(#364));
#168=EDGE_LOOP('',(#365,#366,#367,#368,#369));
#169=B_SPLINE_CURVE_WITH_KNOTS('',3,(#559,#560,#561,#562,#563,#564,#565,
#566,#567,#568),.UNSPECIFIED.,.F.,.F.,(4,2,2,2,4),(0.61063082871031,0.662334023806428,
0.714037218902545,0.770551906213649,0.827066593524753),.UNSPECIFIED.);
#170=B_SPLINE_CURVE_WITH_KNOTS('',3,(#569,#570,#571,#572,#573,#574,#575,
#576,#577,#578,#579,#580,#581,#582,#583,#584,#585,#586,#587,#588,#589,#590,
#591,#592,#593,#594),.UNSPECIFIED.,.F.,.F.,(4,2,2,2,2,2,2,2,2,2,2,2,4),
(0.,0.0535790674941988,0.107158134988398,0.152127833468166,0.197097531947934,
0.242067230427702,0.28703692890747,0.340615996401669,0.394195063895868,
0.450709751206971,0.507224438518074,0.558927633614192,0.61063082871031),
 .UNSPECIFIED.);
#171=B_SPLINE_CURVE_WITH_KNOTS('',3,(#598,#599,#600,#601,#602,#603,#604,
#605,#606,#607,#608,#609,#610,#611,#612,#613,#614,#615,#616,#617,#618,#619,
#620,#621,#622,#623),.UNSPECIFIED.,.F.,.F.,(4,2,2,2,2,2,2,2,2,2,2,2,4),
(0.197097531947934,0.242067230427702,0.28703692890747,0.340615996401669,
0.394195063895868,0.450709751206971,0.507224438518074,0.558927633614192,
0.61063082871031,0.662334023806428,0.714037218902545,0.770551906213649,
0.827066593524753),.UNSPECIFIED.);
#172=B_SPLINE_CURVE_WITH_KNOTS('',3,(#624,#625,#626,#627,#628,#629,#630,
#631,#632,#633),.UNSPECIFIED.,.F.,.F.,(4,2,2,2,4),(0.,0.0535790674941988,
0.107158134988398,0.152127833468166,0.197097531947934),.UNSPECIFIED.);
#173=B_SPLINE_CURVE_WITH_KNOTS('',3,(#637,#638,#639,#640,#641,#642,#643,
#644,#645,#646,#647,#648,#649,#650,#651,#652,#653,#654,#655,#656,#657,#658,
#659,#660,#661,#662),.UNSPECIFIED.,.F.,.F.,(4,2,2,2,2,2,2,2,2,2,2,2,4),
(0.197097531947934,0.242067230427702,0.28703692890747,0.340615996401669,
0.394195063895868,0.450709751206971,0.507224438518074,0.558927633614192,
0.61063082871031,0.662334023806428,0.714037218902545,0.770551906213649,
0.827066593524753),.UNSPECIFIED.);
#174=B_SPLINE_CURVE_WITH_KNOTS('',3,(#663,#664,#665,#666,#667,#668,#669,
#670,#671,#672),.UNSPECIFIED.,.F.,.F.,(4,2,2,2,4),(0.,0.0535790674941988,
0.107158134988398,0.152127833468166,0.197097531947934),.UNSPECIFIED.);
#175=B_SPLINE_CURVE_WITH_KNOTS('',3,(#696,#697,#698,#699,#700,#701,#702,
#703,#704,#705),.UNSPECIFIED.,.F.,.F.,(4,2,2,2,4),(0.,0.169532393417496,
0.339064786834992,0.508597158976924,0.678129531118857),.UNSPECIFIED.);
#176=B_SPLINE_CURVE_WITH_KNOTS('',3,(#706,#707,#708,#709,#710,#711,#712,
#713,#714,#715,#716,#717,#718,#719,#720,#721,#722,#723,#724,#725,#726,#727,
#728,#729,#730,#731),.UNSPECIFIED.,.F.,.F.,(4,2,2,2,2,2,2,2,2,2,2,2,4),
(0.678129531118857,0.84766190326079,1.01719427540272,1.18672666882022,1.35625906223771,
1.52579145565521,1.69532384907271,1.86485622121464,2.03438859335657,2.2039209654985,
2.37345333764044,2.54298573105793,2.71251812447543),.UNSPECIFIED.);
#177=B_SPLINE_CURVE_WITH_KNOTS('',3,(#736,#737,#738,#739,#740,#741,#742,
#743,#744,#745,#746,#747,#748,#749,#750,#751,#752,#753,#754,#755,#756,#757,
#758,#759,#760,#761),.UNSPECIFIED.,.F.,.F.,(4,2,2,2,2,2,2,2,2,2,2,2,4),
(0.,0.169532393417496,0.339064786834992,0.508597158976924,0.678129531118857,
0.84766190326079,1.01719427540272,1.18672666882022,1.35625906223771,1.52579145565521,
1.69532384907271,1.86485622121464,2.03438859335657),.UNSPECIFIED.);
#178=B_SPLINE_CURVE_WITH_KNOTS('',3,(#762,#763,#764,#765,#766,#767,#768,
#769,#770,#771),.UNSPECIFIED.,.F.,.F.,(4,2,2,2,4),(2.03438859335657,2.2039209654985,
2.37345333764044,2.54298573105793,2.71251812447543),.UNSPECIFIED.);
#179=B_SPLINE_CURVE_WITH_KNOTS('',3,(#805,#806,#807,#808,#809,#810,#811,
#812,#813,#814),.UNSPECIFIED.,.F.,.F.,(4,2,2,2,4),(0.61063082871031,0.662334023806428,
0.714037218902545,0.770551906213649,0.827066593524753),.UNSPECIFIED.);
#180=B_SPLINE_CURVE_WITH_KNOTS('',3,(#815,#816,#817,#818,#819,#820,#821,
#822,#823,#824,#825,#826,#827,#828,#829,#830,#831,#832,#833,#834,#835,#836,
#837,#838,#839,#840),.UNSPECIFIED.,.F.,.F.,(4,2,2,2,2,2,2,2,2,2,2,2,4),
(0.,0.0535790674941988,0.107158134988398,0.152127833468166,0.197097531947934,
0.242067230427702,0.28703692890747,0.340615996401669,0.394195063895868,
0.450709751206971,0.507224438518074,0.558927633614192,0.61063082871031),
 .UNSPECIFIED.);
#181=VERTEX_POINT('',#557);
#182=VERTEX_POINT('',#558);
#183=VERTEX_POINT('',#596);
#184=VERTEX_POINT('',#597);
#185=VERTEX_POINT('',#635);
#186=VERTEX_POINT('',#636);
#187=VERTEX_POINT('',#674);
#188=VERTEX_POINT('',#676);
#189=VERTEX_POINT('',#679);
#190=VERTEX_POINT('',#683);
#191=VERTEX_POINT('',#687);
#192=VERTEX_POINT('',#691);
#193=VERTEX_POINT('',#693);
#194=VERTEX_POINT('',#695);
#195=VERTEX_POINT('',#733);
#196=VERTEX_POINT('',#735);
#197=VERTEX_POINT('',#773);
#198=VERTEX_POINT('',#776);
#199=VERTEX_POINT('',#778);
#200=VERTEX_POINT('',#780);
#201=VERTEX_POINT('',#784);
#202=VERTEX_POINT('',#785);
#203=VERTEX_POINT('',#787);
#204=VERTEX_POINT('',#789);
#205=VERTEX_POINT('',#793);
#206=VERTEX_POINT('',#797);
#207=VERTEX_POINT('',#799);
#208=VERTEX_POINT('',#803);
#209=VERTEX_POINT('',#804);
#210=VERTEX_POINT('',#842);
#211=VERTEX_POINT('',#846);
#212=VERTEX_POINT('',#848);
#213=VERTEX_POINT('',#852);
#214=VERTEX_POINT('',#856);
#215=VERTEX_POINT('',#862);
#216=VERTEX_POINT('',#866);
#217=EDGE_CURVE('',#181,#182,#169,.F.);
#218=EDGE_CURVE('',#182,#181,#170,.F.);
#219=EDGE_CURVE('',#183,#184,#171,.F.);
#220=EDGE_CURVE('',#184,#183,#172,.F.);
#221=EDGE_CURVE('',#185,#186,#173,.F.);
#222=EDGE_CURVE('',#186,#185,#174,.F.);
#223=EDGE_CURVE('',#187,#187,#84,.T.);
#224=EDGE_CURVE('',#188,#188,#85,.T.);
#225=EDGE_CURVE('',#189,#189,#86,.T.);
#226=EDGE_CURVE('',#189,#187,#16,.T.);
#227=EDGE_CURVE('',#190,#190,#87,.T.);
#228=EDGE_CURVE('',#190,#184,#17,.T.);
#229=EDGE_CURVE('',#191,#191,#88,.T.);
#230=EDGE_CURVE('',#191,#186,#18,.T.);
#231=EDGE_CURVE('',#192,#192,#89,.T.);
#232=EDGE_CURVE('',#192,#193,#19,.T.);
#233=EDGE_CURVE('',#194,#193,#175,.T.);
#234=EDGE_CURVE('',#193,#194,#176,.T.);
#235=EDGE_CURVE('',#188,#195,#20,.T.);
#236=EDGE_CURVE('',#196,#195,#177,.T.);
#237=EDGE_CURVE('',#195,#196,#178,.T.);
#238=EDGE_CURVE('',#197,#197,#90,.T.);
#239=EDGE_CURVE('',#198,#198,#91,.T.);
#240=EDGE_CURVE('',#198,#199,#21,.T.);
#241=EDGE_CURVE('',#199,#200,#92,.T.);
#242=EDGE_CURVE('',#200,#199,#93,.T.);
#243=EDGE_CURVE('',#201,#202,#22,.T.);
#244=EDGE_CURVE('',#203,#202,#23,.T.);
#245=EDGE_CURVE('',#203,#204,#24,.T.);
#246=EDGE_CURVE('',#201,#204,#25,.T.);
#247=EDGE_CURVE('',#205,#205,#94,.T.);
#248=EDGE_CURVE('',#205,#200,#95,.T.);
#249=EDGE_CURVE('',#206,#206,#96,.T.);
#250=EDGE_CURVE('',#206,#207,#26,.T.);
#251=EDGE_CURVE('',#207,#207,#97,.T.);
#252=EDGE_CURVE('',#208,#209,#179,.F.);
#253=EDGE_CURVE('',#209,#208,#180,.F.);
#254=EDGE_CURVE('',#210,#210,#98,.T.);
#255=EDGE_CURVE('',#210,#197,#27,.T.);
#256=EDGE_CURVE('',#211,#201,#28,.T.);
#257=EDGE_CURVE('',#212,#211,#29,.T.);
#258=EDGE_CURVE('',#202,#212,#30,.T.);
#259=EDGE_CURVE('',#212,#213,#31,.T.);
#260=EDGE_CURVE('',#213,#203,#32,.T.);
#261=EDGE_CURVE('',#214,#213,#33,.T.);
#262=EDGE_CURVE('',#204,#214,#34,.T.);
#263=EDGE_CURVE('',#214,#211,#35,.T.);
#264=EDGE_CURVE('',#215,#215,#99,.T.);
#265=EDGE_CURVE('',#215,#209,#36,.T.);
#266=EDGE_CURVE('',#216,#216,#100,.T.);
#267=EDGE_CURVE('',#216,#182,#37,.T.);
#268=ORIENTED_EDGE('',*,*,#217,.F.);
#269=ORIENTED_EDGE('',*,*,#218,.F.);
#270=ORIENTED_EDGE('',*,*,#219,.F.);
#271=ORIENTED_EDGE('',*,*,#220,.F.);
#272=ORIENTED_EDGE('',*,*,#221,.F.);
#273=ORIENTED_EDGE('',*,*,#222,.F.);
#274=ORIENTED_EDGE('',*,*,#223,.F.);
#275=ORIENTED_EDGE('',*,*,#224,.T.);
#276=ORIENTED_EDGE('',*,*,#225,.F.);
#277=ORIENTED_EDGE('',*,*,#226,.T.);
#278=ORIENTED_EDGE('',*,*,#223,.T.);
#279=ORIENTED_EDGE('',*,*,#226,.F.);
#280=ORIENTED_EDGE('',*,*,#227,.F.);
#281=ORIENTED_EDGE('',*,*,#228,.T.);
#282=ORIENTED_EDGE('',*,*,#220,.T.);
#283=ORIENTED_EDGE('',*,*,#219,.T.);
#284=ORIENTED_EDGE('',*,*,#228,.F.);
#285=ORIENTED_EDGE('',*,*,#229,.F.);
#286=ORIENTED_EDGE('',*,*,#230,.T.);
#287=ORIENTED_EDGE('',*,*,#222,.T.);
#288=ORIENTED_EDGE('',*,*,#221,.T.);
#289=ORIENTED_EDGE('',*,*,#230,.F.);
#290=ORIENTED_EDGE('',*,*,#231,.F.);
#291=ORIENTED_EDGE('',*,*,#232,.T.);
#292=ORIENTED_EDGE('',*,*,#233,.F.);
#293=ORIENTED_EDGE('',*,*,#234,.F.);
#294=ORIENTED_EDGE('',*,*,#232,.F.);
#295=ORIENTED_EDGE('',*,*,#224,.F.);
#296=ORIENTED_EDGE('',*,*,#235,.T.);
#297=ORIENTED_EDGE('',*,*,#236,.F.);
#298=ORIENTED_EDGE('',*,*,#237,.F.);
#299=ORIENTED_EDGE('',*,*,#235,.F.);
#300=ORIENTED_EDGE('',*,*,#238,.F.);
#301=ORIENTED_EDGE('',*,*,#231,.T.);
#302=ORIENTED_EDGE('',*,*,#239,.F.);
#303=ORIENTED_EDGE('',*,*,#240,.T.);
#304=ORIENTED_EDGE('',*,*,#241,.T.);
#305=ORIENTED_EDGE('',*,*,#242,.T.);
#306=ORIENTED_EDGE('',*,*,#240,.F.);
#307=ORIENTED_EDGE('',*,*,#243,.T.);
#308=ORIENTED_EDGE('',*,*,#244,.F.);
#309=ORIENTED_EDGE('',*,*,#245,.T.);
#310=ORIENTED_EDGE('',*,*,#246,.F.);
#311=ORIENTED_EDGE('',*,*,#229,.T.);
#312=ORIENTED_EDGE('',*,*,#227,.T.);
#313=ORIENTED_EDGE('',*,*,#225,.T.);
#314=ORIENTED_EDGE('',*,*,#247,.F.);
#315=ORIENTED_EDGE('',*,*,#248,.T.);
#316=ORIENTED_EDGE('',*,*,#241,.F.);
#317=ORIENTED_EDGE('',*,*,#242,.F.);
#318=ORIENTED_EDGE('',*,*,#248,.F.);
#319=ORIENTED_EDGE('',*,*,#249,.F.);
#320=ORIENTED_EDGE('',*,*,#250,.T.);
#321=ORIENTED_EDGE('',*,*,#251,.F.);
#322=ORIENTED_EDGE('',*,*,#250,.F.);
#323=ORIENTED_EDGE('',*,*,#236,.T.);
#324=ORIENTED_EDGE('',*,*,#237,.T.);
#325=ORIENTED_EDGE('',*,*,#233,.T.);
#326=ORIENTED_EDGE('',*,*,#234,.T.);
#327=ORIENTED_EDGE('',*,*,#252,.F.);
#328=ORIENTED_EDGE('',*,*,#253,.F.);
#329=ORIENTED_EDGE('',*,*,#254,.F.);
#330=ORIENTED_EDGE('',*,*,#255,.T.);
#331=ORIENTED_EDGE('',*,*,#238,.T.);
#332=ORIENTED_EDGE('',*,*,#255,.F.);
#333=ORIENTED_EDGE('',*,*,#256,.F.);
#334=ORIENTED_EDGE('',*,*,#257,.F.);
#335=ORIENTED_EDGE('',*,*,#258,.F.);
#336=ORIENTED_EDGE('',*,*,#243,.F.);
#337=ORIENTED_EDGE('',*,*,#259,.T.);
#338=ORIENTED_EDGE('',*,*,#260,.T.);
#339=ORIENTED_EDGE('',*,*,#244,.T.);
#340=ORIENTED_EDGE('',*,*,#258,.T.);
#341=ORIENTED_EDGE('',*,*,#239,.T.);
#342=ORIENTED_EDGE('',*,*,#249,.T.);
#343=ORIENTED_EDGE('',*,*,#245,.F.);
#344=ORIENTED_EDGE('',*,*,#260,.F.);
#345=ORIENTED_EDGE('',*,*,#261,.F.);
#346=ORIENTED_EDGE('',*,*,#262,.F.);
#347=ORIENTED_EDGE('',*,*,#256,.T.);
#348=ORIENTED_EDGE('',*,*,#246,.T.);
#349=ORIENTED_EDGE('',*,*,#262,.T.);
#350=ORIENTED_EDGE('',*,*,#263,.T.);
#351=ORIENTED_EDGE('',*,*,#251,.T.);
#352=ORIENTED_EDGE('',*,*,#247,.T.);
#353=ORIENTED_EDGE('',*,*,#264,.F.);
#354=ORIENTED_EDGE('',*,*,#265,.T.);
#355=ORIENTED_EDGE('',*,*,#253,.T.);
#356=ORIENTED_EDGE('',*,*,#252,.T.);
#357=ORIENTED_EDGE('',*,*,#265,.F.);
#358=ORIENTED_EDGE('',*,*,#263,.F.);
#359=ORIENTED_EDGE('',*,*,#261,.T.);
#360=ORIENTED_EDGE('',*,*,#259,.F.);
#361=ORIENTED_EDGE('',*,*,#257,.T.);
#362=ORIENTED_EDGE('',*,*,#264,.T.);
#363=ORIENTED_EDGE('',*,*,#266,.T.);
#364=ORIENTED_EDGE('',*,*,#254,.T.);
#365=ORIENTED_EDGE('',*,*,#266,.F.);
#366=ORIENTED_EDGE('',*,*,#267,.T.);
#367=ORIENTED_EDGE('',*,*,#218,.T.);
#368=ORIENTED_EDGE('',*,*,#217,.T.);
#369=ORIENTED_EDGE('',*,*,#267,.F.);
#370=CONICAL_SURFACE('',#411,0.63225,1.02974425867665);
#371=CONICAL_SURFACE('',#412,0.63225,1.02974425867665);
#372=CONICAL_SURFACE('',#413,0.63225,1.02974425867665);
#373=CONICAL_SURFACE('',#439,0.63225,1.02974425867665);
#374=ADVANCED_FACE('',(#109),#370,.F.);
#375=ADVANCED_FACE('',(#110),#371,.F.);
#376=ADVANCED_FACE('',(#111),#372,.F.);
#377=ADVANCED_FACE('',(#112,#70),#101,.T.);
#378=ADVANCED_FACE('',(#113),#60,.F.);
#379=ADVANCED_FACE('',(#114),#61,.F.);
#380=ADVANCED_FACE('',(#115),#62,.F.);
#381=ADVANCED_FACE('',(#116),#63,.F.);
#382=ADVANCED_FACE('',(#117),#64,.F.);
#383=ADVANCED_FACE('',(#118,#71),#102,.T.);
#384=ADVANCED_FACE('',(#119),#65,.F.);
#385=ADVANCED_FACE('',(#120,#72,#73,#74),#103,.T.);
#386=ADVANCED_FACE('',(#121),#15,.F.);
#387=ADVANCED_FACE('',(#122,#75,#76),#66,.F.);
#388=ADVANCED_FACE('',(#123),#373,.F.);
#389=ADVANCED_FACE('',(#124),#67,.F.);
#390=ADVANCED_FACE('',(#125),#104,.F.);
#391=ADVANCED_FACE('',(#126,#77,#78),#105,.T.);
#392=ADVANCED_FACE('',(#127),#106,.F.);
#393=ADVANCED_FACE('',(#128,#79,#80),#107,.F.);
#394=ADVANCED_FACE('',(#129),#68,.F.);
#395=ADVANCED_FACE('',(#130,#81,#82,#83),#108,.T.);
#396=ADVANCED_FACE('',(#131),#69,.F.);
#397=CLOSED_SHELL('',(#374,#375,#376,#377,#378,#379,#380,#381,#382,#383,
#384,#385,#386,#387,#388,#389,#390,#391,#392,#393,#394,#395,#396));
#398=DERIVED_UNIT_ELEMENT(#400,1.);
#399=DERIVED_UNIT_ELEMENT(#875,-3.);
#400=(
MASS_UNIT()
NAMED_UNIT(*)
SI_UNIT(.KILO.,.GRAM.)
);
#401=DERIVED_UNIT((#398,#399));
#402=MEASURE_REPRESENTATION_ITEM('density measure',
POSITIVE_RATIO_MEASURE(7850.),#401);
#403=PROPERTY_DEFINITION_REPRESENTATION(#408,#405);
#404=PROPERTY_DEFINITION_REPRESENTATION(#409,#406);
#405=REPRESENTATION('material name',(#407),#872);
#406=REPRESENTATION('density',(#402),#872);
#407=DESCRIPTIVE_REPRESENTATION_ITEM('Acier','Acier');
#408=PROPERTY_DEFINITION('material property','material name',#882);
#409=PROPERTY_DEFINITION('material property','density of part',#882);
#410=AXIS2_PLACEMENT_3D('',#555,#451,#452);
#411=AXIS2_PLACEMENT_3D('',#556,#453,#454);
#412=AXIS2_PLACEMENT_3D('',#595,#455,#456);
#413=AXIS2_PLACEMENT_3D('',#634,#457,#458);
#414=AXIS2_PLACEMENT_3D('',#673,#459,#460);
#415=AXIS2_PLACEMENT_3D('',#675,#461,#462);
#416=AXIS2_PLACEMENT_3D('',#677,#463,#464);
#417=AXIS2_PLACEMENT_3D('',#678,#465,#466);
#418=AXIS2_PLACEMENT_3D('',#680,#467,#468);
#419=AXIS2_PLACEMENT_3D('',#682,#470,#471);
#420=AXIS2_PLACEMENT_3D('',#684,#472,#473);
#421=AXIS2_PLACEMENT_3D('',#686,#475,#476);
#422=AXIS2_PLACEMENT_3D('',#688,#477,#478);
#423=AXIS2_PLACEMENT_3D('',#690,#480,#481);
#424=AXIS2_PLACEMENT_3D('',#692,#482,#483);
#425=AXIS2_PLACEMENT_3D('',#732,#485,#486);
#426=AXIS2_PLACEMENT_3D('',#772,#488,#489);
#427=AXIS2_PLACEMENT_3D('',#774,#490,#491);
#428=AXIS2_PLACEMENT_3D('',#775,#492,#493);
#429=AXIS2_PLACEMENT_3D('',#777,#494,#495);
#430=AXIS2_PLACEMENT_3D('',#781,#497,#498);
#431=AXIS2_PLACEMENT_3D('',#782,#499,#500);
#432=AXIS2_PLACEMENT_3D('',#783,#501,#502);
#433=AXIS2_PLACEMENT_3D('',#792,#507,#508);
#434=AXIS2_PLACEMENT_3D('',#794,#509,#510);
#435=AXIS2_PLACEMENT_3D('',#795,#511,#512);
#436=AXIS2_PLACEMENT_3D('',#796,#513,#514);
#437=AXIS2_PLACEMENT_3D('',#798,#515,#516);
#438=AXIS2_PLACEMENT_3D('',#801,#518,#519);
#439=AXIS2_PLACEMENT_3D('',#802,#520,#521);
#440=AXIS2_PLACEMENT_3D('',#841,#522,#523);
#441=AXIS2_PLACEMENT_3D('',#843,#524,#525);
#442=AXIS2_PLACEMENT_3D('',#845,#527,#528);
#443=AXIS2_PLACEMENT_3D('',#851,#532,#533);
#444=AXIS2_PLACEMENT_3D('',#855,#536,#537);
#445=AXIS2_PLACEMENT_3D('',#859,#540,#541);
#446=AXIS2_PLACEMENT_3D('',#861,#543,#544);
#447=AXIS2_PLACEMENT_3D('',#863,#545,#546);
#448=AXIS2_PLACEMENT_3D('',#865,#548,#549);
#449=AXIS2_PLACEMENT_3D('',#867,#550,#551);
#450=AXIS2_PLACEMENT_3D('',#868,#552,#553);
#451=DIRECTION('axis',(0.,0.,1.));
#452=DIRECTION('refdir',(1.,0.,0.));
#453=DIRECTION('center_axis',(0.,-1.,0.));
#454=DIRECTION('ref_axis',(-1.22464679914735E-16,0.,1.));
#455=DIRECTION('center_axis',(0.,1.,0.));
#456=DIRECTION('ref_axis',(0.,0.,1.));
#457=DIRECTION('center_axis',(0.,1.,0.));
#458=DIRECTION('ref_axis',(0.,0.,1.));
#459=DIRECTION('center_axis',(0.,1.,0.));
#460=DIRECTION('ref_axis',(-1.,0.,0.));
#461=DIRECTION('center_axis',(0.,-1.,0.));
#462=DIRECTION('ref_axis',(-1.,0.,0.));
#463=DIRECTION('center_axis',(0.,-1.,0.));
#464=DIRECTION('ref_axis',(0.,0.,1.));
#465=DIRECTION('center_axis',(0.,-1.,0.));
#466=DIRECTION('ref_axis',(-1.,0.,0.));
#467=DIRECTION('center_axis',(0.,-1.,0.));
#468=DIRECTION('ref_axis',(-1.,0.,0.));
#469=DIRECTION('',(0.,-1.,0.));
#470=DIRECTION('center_axis',(0.,-1.,0.));
#471=DIRECTION('ref_axis',(0.,0.,1.));
#472=DIRECTION('center_axis',(0.,-1.,0.));
#473=DIRECTION('ref_axis',(0.,0.,1.));
#474=DIRECTION('',(0.,-1.,0.));
#475=DIRECTION('center_axis',(0.,-1.,0.));
#476=DIRECTION('ref_axis',(0.,0.,1.));
#477=DIRECTION('center_axis',(0.,-1.,0.));
#478=DIRECTION('ref_axis',(0.,0.,1.));
#479=DIRECTION('',(0.,-1.,0.));
#480=DIRECTION('center_axis',(0.,1.,0.));
#481=DIRECTION('ref_axis',(0.,0.,-1.));
#482=DIRECTION('center_axis',(0.,1.,0.));
#483=DIRECTION('ref_axis',(0.,0.,-1.));
#484=DIRECTION('',(0.,1.,0.));
#485=DIRECTION('center_axis',(0.,-1.,0.));
#486=DIRECTION('ref_axis',(0.,0.,1.));
#487=DIRECTION('',(0.,-1.,0.));
#488=DIRECTION('center_axis',(0.,-1.,0.));
#489=DIRECTION('ref_axis',(0.,0.,1.));
#490=DIRECTION('center_axis',(0.,1.,-2.22044604925031E-16));
#491=DIRECTION('ref_axis',(-1.,0.,0.));
#492=DIRECTION('center_axis',(0.,0.,-1.));
#493=DIRECTION('ref_axis',(-1.,0.,0.));
#494=DIRECTION('center_axis',(0.,0.,-1.));
#495=DIRECTION('ref_axis',(-1.,0.,0.));
#496=DIRECTION('',(0.,0.,-1.));
#497=DIRECTION('center_axis',(0.,0.,-1.));
#498=DIRECTION('ref_axis',(-1.,0.,0.));
#499=DIRECTION('center_axis',(0.,0.,-1.));
#500=DIRECTION('ref_axis',(-1.,0.,0.));
#501=DIRECTION('center_axis',(0.,1.,0.));
#502=DIRECTION('ref_axis',(-1.,0.,0.));
#503=DIRECTION('',(0.,0.,1.));
#504=DIRECTION('',(-1.,0.,0.));
#505=DIRECTION('',(0.,0.,-1.));
#506=DIRECTION('',(1.,0.,0.));
#507=DIRECTION('center_axis',(0.,0.,1.));
#508=DIRECTION('ref_axis',(1.,0.,0.));
#509=DIRECTION('center_axis',(0.,0.,1.));
#510=DIRECTION('ref_axis',(0.,-1.,0.));
#511=DIRECTION('center_axis',(0.,1.,0.));
#512=DIRECTION('ref_axis',(-1.,0.,0.));
#513=DIRECTION('center_axis',(0.,0.,-1.));
#514=DIRECTION('ref_axis',(-1.,0.,0.));
#515=DIRECTION('center_axis',(0.,0.,-1.));
#516=DIRECTION('ref_axis',(-1.,0.,0.));
#517=DIRECTION('',(0.,0.,-1.));
#518=DIRECTION('center_axis',(0.,0.,1.));
#519=DIRECTION('ref_axis',(-1.,0.,0.));
#520=DIRECTION('center_axis',(0.,-1.,0.));
#521=DIRECTION('ref_axis',(-1.01064309961486E-15,0.,1.));
#522=DIRECTION('center_axis',(0.,1.,0.));
#523=DIRECTION('ref_axis',(-1.,0.,0.));
#524=DIRECTION('center_axis',(0.,1.,0.));
#525=DIRECTION('ref_axis',(-1.,0.,0.));
#526=DIRECTION('',(0.,1.,0.));
#527=DIRECTION('center_axis',(1.,0.,0.));
#528=DIRECTION('ref_axis',(0.,0.,-1.));
#529=DIRECTION('',(0.,1.,0.));
#530=DIRECTION('',(0.,0.,-1.));
#531=DIRECTION('',(0.,-1.,0.));
#532=DIRECTION('center_axis',(0.,0.,1.));
#533=DIRECTION('ref_axis',(1.,0.,0.));
#534=DIRECTION('',(1.,0.,0.));
#535=DIRECTION('',(0.,1.,0.));
#536=DIRECTION('center_axis',(-1.,-2.368475785867E-16,0.));
#537=DIRECTION('ref_axis',(0.,0.,1.));
#538=DIRECTION('',(0.,0.,1.));
#539=DIRECTION('',(0.,-1.,0.));
#540=DIRECTION('center_axis',(0.,0.,1.));
#541=DIRECTION('ref_axis',(1.,0.,0.));
#542=DIRECTION('',(-1.,0.,0.));
#543=DIRECTION('center_axis',(0.,1.,0.));
#544=DIRECTION('ref_axis',(0.,0.,-1.));
#545=DIRECTION('center_axis',(0.,1.,0.));
#546=DIRECTION('ref_axis',(0.,0.,-1.));
#547=DIRECTION('',(0.,1.,0.));
#548=DIRECTION('center_axis',(0.,-1.,0.));
#549=DIRECTION('ref_axis',(1.,0.,0.));
#550=DIRECTION('center_axis',(0.,1.,0.));
#551=DIRECTION('ref_axis',(0.,0.,-1.));
#552=DIRECTION('center_axis',(0.,1.,0.));
#553=DIRECTION('ref_axis',(0.,0.,-1.));
#554=DIRECTION('',(0.,1.,0.));
#555=CARTESIAN_POINT('',(0.,0.,0.));
#556=CARTESIAN_POINT('Origin',(142.5,-128.62010587362,7.5));
#557=CARTESIAN_POINT('',(141.238805357162,-138.727786592374,24.9086308428571));
#558=CARTESIAN_POINT('',(142.5,-139.515060832982,26.2645));
#559=CARTESIAN_POINT('Ctrl Pts',(142.5,-139.515060832982,26.2645));
#560=CARTESIAN_POINT('Ctrl Pts',(142.327656016346,-139.515060832982,26.2645));
#561=CARTESIAN_POINT('Ctrl Pts',(142.147292683957,-139.494144590802,26.2270794689817));
#562=CARTESIAN_POINT('Ctrl Pts',(141.824699696029,-139.4132789661,26.0835570955159));
#563=CARTESIAN_POINT('Ctrl Pts',(141.682392270508,-139.353340783751,25.9776238051009));
#564=CARTESIAN_POINT('Ctrl Pts',(141.455778143385,-139.213999026178,25.7339983605405));
#565=CARTESIAN_POINT('Ctrl Pts',(141.361422090952,-139.123687232486,25.5774526578018));
#566=CARTESIAN_POINT('Ctrl Pts',(141.247142025505,-138.92910988215,25.2452717279479));
#567=CARTESIAN_POINT('Ctrl Pts',(141.22713762491,-138.824810644896,25.0696838926031));
#568=CARTESIAN_POINT('Ctrl Pts',(141.238805357162,-138.727786592374,24.9086308428571));
#569=CARTESIAN_POINT('Ctrl Pts',(141.238805357162,-138.727786592374,24.9086308428571));
#570=CARTESIAN_POINT('Ctrl Pts',(141.249867016415,-138.635802393115,24.7559435922848));
#571=CARTESIAN_POINT('Ctrl Pts',(141.291052552678,-138.536604779325,24.5934938816318));
#572=CARTESIAN_POINT('Ctrl Pts',(141.437876570127,-138.351044316188,24.2938165521565));
#573=CARTESIAN_POINT('Ctrl Pts',(141.543565704719,-138.264730085261,24.1565836500491));
#574=CARTESIAN_POINT('Ctrl Pts',(141.77174227152,-138.138105602927,23.9570561022356));
#575=CARTESIAN_POINT('Ctrl Pts',(141.902654019044,-138.085345030771,23.8747851613545));
#576=CARTESIAN_POINT('Ctrl Pts',(142.191769584174,-138.013930591973,23.763907491096));
#577=CARTESIAN_POINT('Ctrl Pts',(142.350101005067,-137.995484327462,23.7355));
#578=CARTESIAN_POINT('Ctrl Pts',(142.649898994933,-137.995484327462,23.7355));
#579=CARTESIAN_POINT('Ctrl Pts',(142.808230415826,-138.013930591973,23.763907491096));
#580=CARTESIAN_POINT('Ctrl Pts',(143.097345980956,-138.085345030771,23.8747851613545));
#581=CARTESIAN_POINT('Ctrl Pts',(143.22825772848,-138.138105602927,23.9570561022356));
#582=CARTESIAN_POINT('Ctrl Pts',(143.456434295281,-138.264730085261,24.1565836500491));
#583=CARTESIAN_POINT('Ctrl Pts',(143.562123429873,-138.351044316188,24.2938165521565));
#584=CARTESIAN_POINT('Ctrl Pts',(143.708947447322,-138.536604779325,24.5934938816318));
#585=CARTESIAN_POINT('Ctrl Pts',(143.750132983585,-138.635802393115,24.7559435922848));
#586=CARTESIAN_POINT('Ctrl Pts',(143.77286237509,-138.824810644896,25.0696838926031));
#587=CARTESIAN_POINT('Ctrl Pts',(143.752857974495,-138.92910988215,25.245271727948));
#588=CARTESIAN_POINT('Ctrl Pts',(143.638577909048,-139.123687232486,25.5774526578018));
#589=CARTESIAN_POINT('Ctrl Pts',(143.544221856615,-139.213999026178,25.7339983605405));
#590=CARTESIAN_POINT('Ctrl Pts',(143.317607729492,-139.353340783751,25.9776238051009));
#591=CARTESIAN_POINT('Ctrl Pts',(143.175300303971,-139.4132789661,26.0835570955159));
#592=CARTESIAN_POINT('Ctrl Pts',(142.852707316043,-139.494144590802,26.2270794689817));
#593=CARTESIAN_POINT('Ctrl Pts',(142.672343983654,-139.515060832982,26.2645));
#594=CARTESIAN_POINT('Ctrl Pts',(142.5,-139.515060832982,26.2645));
#595=CARTESIAN_POINT('Origin',(142.500001005828,128.62010587362,7.50000011175871));
#596=CARTESIAN_POINT('',(143.761195648666,138.727786592374,24.9086309546158));
#597=CARTESIAN_POINT('',(142.500001005828,137.995484327462,23.7355001117587));
#598=CARTESIAN_POINT('Ctrl Pts',(142.500001005828,137.995484327462,23.7355001117587));
#599=CARTESIAN_POINT('Ctrl Pts',(142.350102010896,137.995484327462,23.7355001117587));
#600=CARTESIAN_POINT('Ctrl Pts',(142.191770590002,138.013930591973,23.7639076028547));
#601=CARTESIAN_POINT('Ctrl Pts',(141.902655024872,138.085345030771,23.8747852731132));
#602=CARTESIAN_POINT('Ctrl Pts',(141.771743277348,138.138105602927,23.9570562139943));
#603=CARTESIAN_POINT('Ctrl Pts',(141.543566710547,138.264730085261,24.1565837618078));
#604=CARTESIAN_POINT('Ctrl Pts',(141.437877575955,138.351044316188,24.2938166639152));
#605=CARTESIAN_POINT('Ctrl Pts',(141.291053558506,138.536604779325,24.5934939933905));
#606=CARTESIAN_POINT('Ctrl Pts',(141.249868022244,138.635802393115,24.7559437040435));
#607=CARTESIAN_POINT('Ctrl Pts',(141.227138630738,138.824810644896,25.0696840043618));
#608=CARTESIAN_POINT('Ctrl Pts',(141.247143031334,138.92910988215,25.2452718397067));
#609=CARTESIAN_POINT('Ctrl Pts',(141.361423096781,139.123687232486,25.5774527695606));
#610=CARTESIAN_POINT('Ctrl Pts',(141.455779149214,139.213999026178,25.7339984722992));
#611=CARTESIAN_POINT('Ctrl Pts',(141.682393276336,139.353340783751,25.9776239168596));
#612=CARTESIAN_POINT('Ctrl Pts',(141.824700701857,139.4132789661,26.0835572072746));
#613=CARTESIAN_POINT('Ctrl Pts',(142.147293689785,139.494144590802,26.2270795807404));
#614=CARTESIAN_POINT('Ctrl Pts',(142.327657022175,139.515060832982,26.2645001117587));
#615=CARTESIAN_POINT('Ctrl Pts',(142.672344989482,139.515060832982,26.2645001117587));
#616=CARTESIAN_POINT('Ctrl Pts',(142.852708321871,139.494144590802,26.2270795807405));
#617=CARTESIAN_POINT('Ctrl Pts',(143.175301309799,139.4132789661,26.0835572072746));
#618=CARTESIAN_POINT('Ctrl Pts',(143.31760873532,139.353340783751,25.9776239168596));
#619=CARTESIAN_POINT('Ctrl Pts',(143.544222862443,139.213999026178,25.7339984722992));
#620=CARTESIAN_POINT('Ctrl Pts',(143.638578914876,139.123687232486,25.5774527695606));
#621=CARTESIAN_POINT('Ctrl Pts',(143.752858980323,138.92910988215,25.2452718397067));
#622=CARTESIAN_POINT('Ctrl Pts',(143.772863380918,138.824810644896,25.0696840043618));
#623=CARTESIAN_POINT('Ctrl Pts',(143.761195648666,138.727786592374,24.9086309546158));
#624=CARTESIAN_POINT('Ctrl Pts',(143.761195648666,138.727786592374,24.9086309546158));
#625=CARTESIAN_POINT('Ctrl Pts',(143.750133989413,138.635802393115,24.7559437040435));
#626=CARTESIAN_POINT('Ctrl Pts',(143.708948453151,138.536604779325,24.5934939933905));
#627=CARTESIAN_POINT('Ctrl Pts',(143.562124435701,138.351044316188,24.2938166639152));
#628=CARTESIAN_POINT('Ctrl Pts',(143.45643530111,138.264730085261,24.1565837618078));
#629=CARTESIAN_POINT('Ctrl Pts',(143.228258734309,138.138105602927,23.9570562139943));
#630=CARTESIAN_POINT('Ctrl Pts',(143.097346986784,138.085345030771,23.8747852731132));
#631=CARTESIAN_POINT('Ctrl Pts',(142.808231421655,138.013930591973,23.7639076028547));
#632=CARTESIAN_POINT('Ctrl Pts',(142.649900000761,137.995484327462,23.7355001117587));
#633=CARTESIAN_POINT('Ctrl Pts',(142.500001005828,137.995484327462,23.7355001117587));
#634=CARTESIAN_POINT('Origin',(-142.500001005828,128.620107885277,7.5));
#635=CARTESIAN_POINT('',(-141.23880636299,138.72778860403,24.9086308428571));
#636=CARTESIAN_POINT('',(-142.500001005828,137.995486339118,23.7355));
#637=CARTESIAN_POINT('Ctrl Pts',(-142.500001005828,137.995486339118,23.7355));
#638=CARTESIAN_POINT('Ctrl Pts',(-142.649900000761,137.995486339118,23.7355));
#639=CARTESIAN_POINT('Ctrl Pts',(-142.808231421655,138.01393260363,23.763907491096));
#640=CARTESIAN_POINT('Ctrl Pts',(-143.097346986784,138.085347042428,23.8747851613545));
#641=CARTESIAN_POINT('Ctrl Pts',(-143.228258734309,138.138107614584,23.9570561022356));
#642=CARTESIAN_POINT('Ctrl Pts',(-143.45643530111,138.264732096918,24.1565836500491));
#643=CARTESIAN_POINT('Ctrl Pts',(-143.562124435701,138.351046327845,24.2938165521565));
#644=CARTESIAN_POINT('Ctrl Pts',(-143.708948453151,138.536606790982,24.5934938816318));
#645=CARTESIAN_POINT('Ctrl Pts',(-143.750133989413,138.635804404771,24.7559435922848));
#646=CARTESIAN_POINT('Ctrl Pts',(-143.772863380919,138.824812656553,25.0696838926031));
#647=CARTESIAN_POINT('Ctrl Pts',(-143.752858980323,138.929111893807,25.245271727948));
#648=CARTESIAN_POINT('Ctrl Pts',(-143.638578914876,139.123689244143,25.5774526578018));
#649=CARTESIAN_POINT('Ctrl Pts',(-143.544222862443,139.214001037835,25.7339983605405));
#650=CARTESIAN_POINT('Ctrl Pts',(-143.31760873532,139.353342795408,25.9776238051009));
#651=CARTESIAN_POINT('Ctrl Pts',(-143.175301309799,139.413280977757,26.0835570955159));
#652=CARTESIAN_POINT('Ctrl Pts',(-142.852708321871,139.494146602459,26.2270794689817));
#653=CARTESIAN_POINT('Ctrl Pts',(-142.672344989482,139.515062844639,26.2645));
#654=CARTESIAN_POINT('Ctrl Pts',(-142.327657022175,139.515062844639,26.2645));
#655=CARTESIAN_POINT('Ctrl Pts',(-142.147293689786,139.494146602459,26.2270794689817));
#656=CARTESIAN_POINT('Ctrl Pts',(-141.824700701857,139.413280977757,26.0835570955159));
#657=CARTESIAN_POINT('Ctrl Pts',(-141.682393276336,139.353342795408,25.9776238051009));
#658=CARTESIAN_POINT('Ctrl Pts',(-141.455779149214,139.214001037835,25.7339983605405));
#659=CARTESIAN_POINT('Ctrl Pts',(-141.361423096781,139.123689244143,25.5774526578018));
#660=CARTESIAN_POINT('Ctrl Pts',(-141.247143031334,138.929111893807,25.2452717279479));
#661=CARTESIAN_POINT('Ctrl Pts',(-141.227138630738,138.824812656553,25.0696838926031));
#662=CARTESIAN_POINT('Ctrl Pts',(-141.23880636299,138.72778860403,24.9086308428571));
#663=CARTESIAN_POINT('Ctrl Pts',(-141.23880636299,138.72778860403,24.9086308428571));
#664=CARTESIAN_POINT('Ctrl Pts',(-141.249868022244,138.635804404771,24.7559435922848));
#665=CARTESIAN_POINT('Ctrl Pts',(-141.291053558506,138.536606790982,24.5934938816318));
#666=CARTESIAN_POINT('Ctrl Pts',(-141.437877575955,138.351046327845,24.2938165521565));
#667=CARTESIAN_POINT('Ctrl Pts',(-141.543566710547,138.264732096918,24.1565836500491));
#668=CARTESIAN_POINT('Ctrl Pts',(-141.771743277348,138.138107614584,23.9570561022356));
#669=CARTESIAN_POINT('Ctrl Pts',(-141.902655024873,138.085347042428,23.8747851613545));
#670=CARTESIAN_POINT('Ctrl Pts',(-142.191770590002,138.01393260363,23.763907491096));
#671=CARTESIAN_POINT('Ctrl Pts',(-142.350102010896,137.995486339118,23.7355));
#672=CARTESIAN_POINT('Ctrl Pts',(-142.500001005828,137.995486339118,23.7355));
#673=CARTESIAN_POINT('Origin',(0.,142.,17.5));
#674=CARTESIAN_POINT('',(11.,142.,17.5));
#675=CARTESIAN_POINT('Origin',(0.,142.,17.5));
#676=CARTESIAN_POINT('',(1.22292158039178E-16,142.,13.));
#677=CARTESIAN_POINT('Origin',(-4.28798901577131E-16,142.,17.5));
#678=CARTESIAN_POINT('Origin',(0.,150.,17.5));
#679=CARTESIAN_POINT('',(11.,150.,17.5));
#680=CARTESIAN_POINT('Origin',(0.,150.,17.5));
#681=CARTESIAN_POINT('',(11.,150.,17.5));
#682=CARTESIAN_POINT('Origin',(142.500001005828,132.,25.0000001117587));
#683=CARTESIAN_POINT('',(142.500001005828,150.,23.7355001117587));
#684=CARTESIAN_POINT('Origin',(142.500001005828,150.,25.0000001117587));
#685=CARTESIAN_POINT('',(142.500001005828,132.,23.7355001117587));
#686=CARTESIAN_POINT('Origin',(-142.500001005828,132.000002011657,25.));
#687=CARTESIAN_POINT('',(-142.500001005828,150.000002011657,23.7355));
#688=CARTESIAN_POINT('Origin',(-142.500001005828,150.000002011657,25.));
#689=CARTESIAN_POINT('',(-142.500001005828,132.000002011657,23.7355));
#690=CARTESIAN_POINT('Origin',(0.,-114.5,17.5));
#691=CARTESIAN_POINT('',(5.51091059616309E-16,-142.,22.));
#692=CARTESIAN_POINT('Origin',(0.,-142.,17.5));
#693=CARTESIAN_POINT('',(6.91879164042588E-16,-102.5,22.));
#694=CARTESIAN_POINT('',(5.51091059616309E-16,-114.5,22.));
#695=CARTESIAN_POINT('',(4.5,-102.401171868295,17.5));
#696=CARTESIAN_POINT('Ctrl Pts',(4.5,-102.401171868295,17.5));
#697=CARTESIAN_POINT('Ctrl Pts',(4.5,-102.401171868295,18.0651079780583));
#698=CARTESIAN_POINT('Ctrl Pts',(4.38704817238791,-102.406330986506,18.6678334950471));
#699=CARTESIAN_POINT('Ctrl Pts',(3.92778410531316,-102.424974150657,19.7765190121305));
#700=CARTESIAN_POINT('Ctrl Pts',(3.58147586787101,-102.438190051846,20.2824851628079));
#701=CARTESIAN_POINT('Ctrl Pts',(2.78248521294281,-102.463005648331,21.0814758177361));
#702=CARTESIAN_POINT('Ctrl Pts',(2.27651903905019,-102.4762159907,21.4277840919174));
#703=CARTESIAN_POINT('Ctrl Pts',(1.1678334504086,-102.494846444778,21.8870481931235));
#704=CARTESIAN_POINT('Ctrl Pts',(0.565107907139776,-102.5,22.));
#705=CARTESIAN_POINT('Ctrl Pts',(8.32667268468867E-16,-102.5,22.));
#706=CARTESIAN_POINT('Ctrl Pts',(8.32667268468867E-16,-102.5,22.));
#707=CARTESIAN_POINT('Ctrl Pts',(-0.565107907139774,-102.5,22.));
#708=CARTESIAN_POINT('Ctrl Pts',(-1.1678334504086,-102.494846444778,21.8870481931235));
#709=CARTESIAN_POINT('Ctrl Pts',(-2.27651903905019,-102.4762159907,21.4277840919174));
#710=CARTESIAN_POINT('Ctrl Pts',(-2.78248521294281,-102.463005648331,21.0814758177361));
#711=CARTESIAN_POINT('Ctrl Pts',(-3.58147586787101,-102.438190051846,20.2824851628079));
#712=CARTESIAN_POINT('Ctrl Pts',(-3.92778410531316,-102.424974150657,19.7765190121305));
#713=CARTESIAN_POINT('Ctrl Pts',(-4.38704817238791,-102.406330986506,18.6678334950471));
#714=CARTESIAN_POINT('Ctrl Pts',(-4.5,-102.401171868295,18.0651079780583));
#715=CARTESIAN_POINT('Ctrl Pts',(-4.5,-102.401171868295,16.9348920219417));
#716=CARTESIAN_POINT('Ctrl Pts',(-4.3870481723879,-102.406330986506,16.3321665049529));
#717=CARTESIAN_POINT('Ctrl Pts',(-3.92778410531315,-102.424974150657,15.2234809878695));
#718=CARTESIAN_POINT('Ctrl Pts',(-3.58147586787101,-102.438190051846,14.7175148371921));
#719=CARTESIAN_POINT('Ctrl Pts',(-2.78248521294281,-102.463005648331,13.9185241822639));
#720=CARTESIAN_POINT('Ctrl Pts',(-2.27651903905018,-102.4762159907,13.5722159080826));
#721=CARTESIAN_POINT('Ctrl Pts',(-1.1678334504086,-102.494846444778,13.1129518068765));
#722=CARTESIAN_POINT('Ctrl Pts',(-0.565107907139776,-102.5,13.));
#723=CARTESIAN_POINT('Ctrl Pts',(0.565107907139774,-102.5,13.));
#724=CARTESIAN_POINT('Ctrl Pts',(1.1678334504086,-102.494846444778,13.1129518068765));
#725=CARTESIAN_POINT('Ctrl Pts',(2.27651903905018,-102.4762159907,13.5722159080826));
#726=CARTESIAN_POINT('Ctrl Pts',(2.78248521294281,-102.463005648331,13.9185241822639));
#727=CARTESIAN_POINT('Ctrl Pts',(3.58147586787101,-102.438190051846,14.7175148371921));
#728=CARTESIAN_POINT('Ctrl Pts',(3.92778410531315,-102.424974150657,15.2234809878695));
#729=CARTESIAN_POINT('Ctrl Pts',(4.3870481723879,-102.406330986506,16.3321665049529));
#730=CARTESIAN_POINT('Ctrl Pts',(4.5,-102.401171868295,16.9348920219417));
#731=CARTESIAN_POINT('Ctrl Pts',(4.5,-102.401171868295,17.5));
#732=CARTESIAN_POINT('Origin',(-4.28798901577131E-16,114.5,17.5));
#733=CARTESIAN_POINT('',(2.69312896136806E-16,102.5,13.));
#734=CARTESIAN_POINT('',(1.22292158039178E-16,114.5,13.));
#735=CARTESIAN_POINT('',(-4.5,102.401171868295,17.5));
#736=CARTESIAN_POINT('Ctrl Pts',(-4.5,102.401171868295,17.5));
#737=CARTESIAN_POINT('Ctrl Pts',(-4.5,102.401171868295,18.0651079780583));
#738=CARTESIAN_POINT('Ctrl Pts',(-4.38704817238791,102.406330986506,18.6678334950471));
#739=CARTESIAN_POINT('Ctrl Pts',(-3.92778410531316,102.424974150657,19.7765190121305));
#740=CARTESIAN_POINT('Ctrl Pts',(-3.58147586787102,102.438190051846,20.2824851628079));
#741=CARTESIAN_POINT('Ctrl Pts',(-2.78248521294281,102.463005648331,21.0814758177361));
#742=CARTESIAN_POINT('Ctrl Pts',(-2.27651903905019,102.4762159907,21.4277840919174));
#743=CARTESIAN_POINT('Ctrl Pts',(-1.1678334504086,102.494846444778,21.8870481931235));
#744=CARTESIAN_POINT('Ctrl Pts',(-0.565107907139776,102.5,22.));
#745=CARTESIAN_POINT('Ctrl Pts',(0.565107907139775,102.5,22.));
#746=CARTESIAN_POINT('Ctrl Pts',(1.1678334504086,102.494846444778,21.8870481931235));
#747=CARTESIAN_POINT('Ctrl Pts',(2.27651903905019,102.4762159907,21.4277840919174));
#748=CARTESIAN_POINT('Ctrl Pts',(2.78248521294281,102.463005648331,21.0814758177361));
#749=CARTESIAN_POINT('Ctrl Pts',(3.58147586787101,102.438190051846,20.2824851628079));
#750=CARTESIAN_POINT('Ctrl Pts',(3.92778410531315,102.424974150657,19.7765190121305));
#751=CARTESIAN_POINT('Ctrl Pts',(4.38704817238791,102.406330986506,18.6678334950471));
#752=CARTESIAN_POINT('Ctrl Pts',(4.5,102.401171868295,18.0651079780583));
#753=CARTESIAN_POINT('Ctrl Pts',(4.5,102.401171868295,16.9348920219417));
#754=CARTESIAN_POINT('Ctrl Pts',(4.3870481723879,102.406330986506,16.3321665049529));
#755=CARTESIAN_POINT('Ctrl Pts',(3.92778410531316,102.424974150657,15.2234809878695));
#756=CARTESIAN_POINT('Ctrl Pts',(3.58147586787101,102.438190051846,14.7175148371921));
#757=CARTESIAN_POINT('Ctrl Pts',(2.78248521294281,102.463005648331,13.9185241822639));
#758=CARTESIAN_POINT('Ctrl Pts',(2.27651903905018,102.4762159907,13.5722159080826));
#759=CARTESIAN_POINT('Ctrl Pts',(1.1678334504086,102.494846444778,13.1129518068765));
#760=CARTESIAN_POINT('Ctrl Pts',(0.565107907139775,102.5,13.));
#761=CARTESIAN_POINT('Ctrl Pts',(-1.38777878078145E-16,102.5,13.));
#762=CARTESIAN_POINT('Ctrl Pts',(4.16333634234434E-16,102.5,13.));
#763=CARTESIAN_POINT('Ctrl Pts',(-0.565107907139775,102.5,13.));
#764=CARTESIAN_POINT('Ctrl Pts',(-1.1678334504086,102.494846444778,13.1129518068765));
#765=CARTESIAN_POINT('Ctrl Pts',(-2.27651903905018,102.4762159907,13.5722159080826));
#766=CARTESIAN_POINT('Ctrl Pts',(-2.78248521294281,102.463005648331,13.9185241822639));
#767=CARTESIAN_POINT('Ctrl Pts',(-3.58147586787101,102.438190051846,14.7175148371921));
#768=CARTESIAN_POINT('Ctrl Pts',(-3.92778410531316,102.424974150657,15.2234809878695));
#769=CARTESIAN_POINT('Ctrl Pts',(-4.38704817238791,102.406330986506,16.3321665049529));
#770=CARTESIAN_POINT('Ctrl Pts',(-4.5,102.401171868295,16.9348920219417));
#771=CARTESIAN_POINT('Ctrl Pts',(-4.5,102.401171868295,17.5));
#772=CARTESIAN_POINT('Origin',(0.,-142.,17.5));
#773=CARTESIAN_POINT('',(11.,-142.,17.5));
#774=CARTESIAN_POINT('Origin',(0.,-142.,17.5));
#775=CARTESIAN_POINT('Origin',(100.,-100.,35.));
#776=CARTESIAN_POINT('',(120.,-100.,35.));
#777=CARTESIAN_POINT('Origin',(100.,-100.,35.));
#778=CARTESIAN_POINT('',(120.,-100.,16.25));
#779=CARTESIAN_POINT('',(120.,-100.,35.));
#780=CARTESIAN_POINT('',(80.,-100.,16.25));
#781=CARTESIAN_POINT('Origin',(100.,-100.,16.25));
#782=CARTESIAN_POINT('Origin',(100.,-100.,16.25));
#783=CARTESIAN_POINT('Origin',(150.,150.,0.));
#784=CARTESIAN_POINT('',(-150.,150.000002011657,0.));
#785=CARTESIAN_POINT('',(-150.,150.,35.));
#786=CARTESIAN_POINT('',(-150.,150.,17.5));
#787=CARTESIAN_POINT('',(150.,150.,35.));
#788=CARTESIAN_POINT('',(-150.,150.,35.));
#789=CARTESIAN_POINT('',(150.,150.,0.));
#790=CARTESIAN_POINT('',(150.,150.,0.));
#791=CARTESIAN_POINT('',(-150.,150.,0.));
#792=CARTESIAN_POINT('Origin',(100.,-100.,16.25));
#793=CARTESIAN_POINT('',(88.340776183639,-100.,0.));
#794=CARTESIAN_POINT('Origin',(100.,-100.,0.));
#795=CARTESIAN_POINT('Origin',(100.,-100.,16.25));
#796=CARTESIAN_POINT('Origin',(0.,0.,35.));
#797=CARTESIAN_POINT('',(102.5,1.25526296912604E-14,35.));
#798=CARTESIAN_POINT('Origin',(0.,0.,35.));
#799=CARTESIAN_POINT('',(102.5,1.25526296912604E-14,0.));
#800=CARTESIAN_POINT('',(102.5,-1.25526296912604E-14,35.));
#801=CARTESIAN_POINT('Origin',(0.,0.,0.));
#802=CARTESIAN_POINT('Origin',(-142.500001005828,-128.620107885277,7.5));
#803=CARTESIAN_POINT('',(-143.761195648666,-138.72778860403,24.9086308428571));
#804=CARTESIAN_POINT('',(-142.500001005828,-139.515062844639,26.2645));
#805=CARTESIAN_POINT('Ctrl Pts',(-142.500001005828,-139.515062844639,26.2645));
#806=CARTESIAN_POINT('Ctrl Pts',(-142.672344989482,-139.515062844639,26.2645));
#807=CARTESIAN_POINT('Ctrl Pts',(-142.852708321871,-139.494146602459,26.2270794689817));
#808=CARTESIAN_POINT('Ctrl Pts',(-143.175301309799,-139.413280977757,26.0835570955159));
#809=CARTESIAN_POINT('Ctrl Pts',(-143.31760873532,-139.353342795408,25.9776238051009));
#810=CARTESIAN_POINT('Ctrl Pts',(-143.544222862443,-139.214001037835,25.7339983605405));
#811=CARTESIAN_POINT('Ctrl Pts',(-143.638578914876,-139.123689244143,25.5774526578018));
#812=CARTESIAN_POINT('Ctrl Pts',(-143.752858980323,-138.929111893807,25.245271727948));
#813=CARTESIAN_POINT('Ctrl Pts',(-143.772863380919,-138.824812656553,25.0696838926031));
#814=CARTESIAN_POINT('Ctrl Pts',(-143.761195648666,-138.72778860403,24.9086308428571));
#815=CARTESIAN_POINT('Ctrl Pts',(-143.761195648666,-138.72778860403,24.9086308428571));
#816=CARTESIAN_POINT('Ctrl Pts',(-143.750133989413,-138.635804404771,24.7559435922848));
#817=CARTESIAN_POINT('Ctrl Pts',(-143.708948453151,-138.536606790982,24.5934938816318));
#818=CARTESIAN_POINT('Ctrl Pts',(-143.562124435701,-138.351046327845,24.2938165521565));
#819=CARTESIAN_POINT('Ctrl Pts',(-143.45643530111,-138.264732096918,24.1565836500491));
#820=CARTESIAN_POINT('Ctrl Pts',(-143.228258734309,-138.138107614584,23.9570561022356));
#821=CARTESIAN_POINT('Ctrl Pts',(-143.097346986784,-138.085347042428,23.8747851613545));
#822=CARTESIAN_POINT('Ctrl Pts',(-142.808231421655,-138.01393260363,23.763907491096));
#823=CARTESIAN_POINT('Ctrl Pts',(-142.649900000761,-137.995486339118,23.7355));
#824=CARTESIAN_POINT('Ctrl Pts',(-142.350102010896,-137.995486339118,23.7355));
#825=CARTESIAN_POINT('Ctrl Pts',(-142.191770590002,-138.01393260363,23.763907491096));
#826=CARTESIAN_POINT('Ctrl Pts',(-141.902655024873,-138.085347042428,23.8747851613545));
#827=CARTESIAN_POINT('Ctrl Pts',(-141.771743277348,-138.138107614584,23.9570561022356));
#828=CARTESIAN_POINT('Ctrl Pts',(-141.543566710547,-138.264732096918,24.1565836500491));
#829=CARTESIAN_POINT('Ctrl Pts',(-141.437877575955,-138.351046327845,24.2938165521565));
#830=CARTESIAN_POINT('Ctrl Pts',(-141.291053558506,-138.536606790982,24.5934938816318));
#831=CARTESIAN_POINT('Ctrl Pts',(-141.249868022244,-138.635804404771,24.7559435922848));
#832=CARTESIAN_POINT('Ctrl Pts',(-141.227138630738,-138.824812656553,25.0696838926031));
#833=CARTESIAN_POINT('Ctrl Pts',(-141.247143031334,-138.929111893807,25.245271727948));
#834=CARTESIAN_POINT('Ctrl Pts',(-141.361423096781,-139.123689244143,25.5774526578018));
#835=CARTESIAN_POINT('Ctrl Pts',(-141.455779149214,-139.214001037835,25.7339983605405));
#836=CARTESIAN_POINT('Ctrl Pts',(-141.682393276336,-139.353342795408,25.9776238051009));
#837=CARTESIAN_POINT('Ctrl Pts',(-141.824700701857,-139.413280977757,26.0835570955159));
#838=CARTESIAN_POINT('Ctrl Pts',(-142.147293689786,-139.494146602459,26.2270794689817));
#839=CARTESIAN_POINT('Ctrl Pts',(-142.327657022175,-139.515062844639,26.2645));
#840=CARTESIAN_POINT('Ctrl Pts',(-142.500001005828,-139.515062844639,26.2645));
#841=CARTESIAN_POINT('Origin',(0.,-150.,17.5));
#842=CARTESIAN_POINT('',(11.,-150.,17.5));
#843=CARTESIAN_POINT('Origin',(0.,-150.,17.5));
#844=CARTESIAN_POINT('',(11.,-150.,17.5));
#845=CARTESIAN_POINT('Origin',(-150.,-150.,35.));
#846=CARTESIAN_POINT('',(-150.,-150.000002011657,0.));
#847=CARTESIAN_POINT('',(-150.,135.000002011657,0.));
#848=CARTESIAN_POINT('',(-150.,-150.,35.));
#849=CARTESIAN_POINT('',(-150.,-150.000002011657,17.5));
#850=CARTESIAN_POINT('',(-150.,-150.,35.));
#851=CARTESIAN_POINT('Origin',(0.,0.,35.));
#852=CARTESIAN_POINT('',(150.,-150.,35.));
#853=CARTESIAN_POINT('',(150.,-150.,35.));
#854=CARTESIAN_POINT('',(150.,150.,35.));
#855=CARTESIAN_POINT('Origin',(150.,-150.,0.));
#856=CARTESIAN_POINT('',(150.,-150.,0.));
#857=CARTESIAN_POINT('',(150.,-150.,0.));
#858=CARTESIAN_POINT('',(150.,150.,0.));
#859=CARTESIAN_POINT('Origin',(0.,0.,0.));
#860=CARTESIAN_POINT('',(150.,-150.,0.));
#861=CARTESIAN_POINT('Origin',(-142.500001005828,-132.000002011657,25.));
#862=CARTESIAN_POINT('',(-142.500001005828,-150.000002011657,26.2645));
#863=CARTESIAN_POINT('Origin',(-142.500001005828,-150.000002011657,25.));
#864=CARTESIAN_POINT('',(-142.500001005828,-132.000002011657,26.2645));
#865=CARTESIAN_POINT('Origin',(-150.,-150.,0.));
#866=CARTESIAN_POINT('',(142.5,-150.,26.2645));
#867=CARTESIAN_POINT('Origin',(142.5,-150.,25.));
#868=CARTESIAN_POINT('Origin',(142.5,-132.,25.));
#869=CARTESIAN_POINT('',(142.5,-132.,26.2645));
#870=UNCERTAINTY_MEASURE_WITH_UNIT(LENGTH_MEASURE(0.01),#874,
'DISTANCE_ACCURACY_VALUE',
'Maximum model space distance between geometric entities at asserted c
onnectivities');
#871=UNCERTAINTY_MEASURE_WITH_UNIT(LENGTH_MEASURE(0.01),#874,
'DISTANCE_ACCURACY_VALUE',
'Maximum model space distance between geometric entities at asserted c
onnectivities');
#872=(
GEOMETRIC_REPRESENTATION_CONTEXT(3)
GLOBAL_UNCERTAINTY_ASSIGNED_CONTEXT((#870))
GLOBAL_UNIT_ASSIGNED_CONTEXT((#874,#876,#877))
REPRESENTATION_CONTEXT('','3D')
);
#873=(
GEOMETRIC_REPRESENTATION_CONTEXT(3)
GLOBAL_UNCERTAINTY_ASSIGNED_CONTEXT((#871))
GLOBAL_UNIT_ASSIGNED_CONTEXT((#874,#876,#877))
REPRESENTATION_CONTEXT('','3D')
);
#874=(
LENGTH_UNIT()
NAMED_UNIT(*)
SI_UNIT(.MILLI.,.METRE.)
);
#875=(
LENGTH_UNIT()
NAMED_UNIT(*)
SI_UNIT($,.METRE.)
);
#876=(
NAMED_UNIT(*)
PLANE_ANGLE_UNIT()
SI_UNIT($,.RADIAN.)
);
#877=(
NAMED_UNIT(*)
SI_UNIT($,.STERADIAN.)
SOLID_ANGLE_UNIT()
);
#878=SHAPE_DEFINITION_REPRESENTATION(#879,#880);
#879=PRODUCT_DEFINITION_SHAPE('',$,#882);
#880=SHAPE_REPRESENTATION('',(#410),#872);
#881=PRODUCT_DEFINITION_CONTEXT('part definition',#886,'design');
#882=PRODUCT_DEFINITION('BATI','BATI v24',#883,#881);
#883=PRODUCT_DEFINITION_FORMATION('',$,#888);
#884=PRODUCT_RELATED_PRODUCT_CATEGORY('BATI v24','BATI v24',(#888));
#885=APPLICATION_PROTOCOL_DEFINITION('international standard',
'automotive_design',2009,#886);
#886=APPLICATION_CONTEXT(
'Core Data for Automotive Mechanical Design Process');
#887=PRODUCT_CONTEXT('part definition',#886,'mechanical');
#888=PRODUCT('BATI','BATI v24',$,(#887));
#889=PRESENTATION_STYLE_ASSIGNMENT((#890));
#890=SURFACE_STYLE_USAGE(.BOTH.,#891);
#891=SURFACE_SIDE_STYLE('',(#892));
#892=SURFACE_STYLE_FILL_AREA(#893);
#893=FILL_AREA_STYLE('Acier - Satin\X\E9',(#894));
#894=FILL_AREA_STYLE_COLOUR('Acier - Satin\X\E9',#895);
#895=COLOUR_RGB('Acier - Satin\X\E9',0.627450980392157,0.627450980392157,
0.627450980392157);
ENDSEC;
END-ISO-10303-21;
