ISO-10303-21;
HEADER;
/* Generated by software containing ST-Developer
 * from STEP Tools, Inc. (www.steptools.com) 
 */

FILE_DESCRIPTION(
/* description */ (''),
/* implementation_level */ '2;1');

FILE_NAME(
/* name */ 'BRASPOURGLISSIERE1.step',
/* time_stamp */ '2026-01-26T21:14:35+01:00',
/* author */ (''),
/* organization */ (''),
/* preprocessor_version */ 'ST-DEVELOPER v20.1',
/* originating_system */ 'Autodesk Translation Framework v14.24.0.0',
/* authorisation */ '');

FILE_SCHEMA (('AUTOMOTIVE_DESIGN { 1 0 10303 214 3 1 1 }'));
ENDSEC;

DATA;
#10=MECHANICAL_DESIGN_GEOMETRIC_PRESENTATION_REPRESENTATION('',(#13),#174);
#11=SHAPE_REPRESENTATION_RELATIONSHIP('SRR','None',#181,#12);
#12=ADVANCED_BREP_SHAPE_REPRESENTATION('',(#14),#173);
#13=STYLED_ITEM('',(#190),#14);
#14=MANIFOLD_SOLID_BREP('Corps1',#92);
#15=SPHERICAL_SURFACE('',#115,17.);
#16=CYLINDRICAL_SURFACE('',#111,1.2645);
#17=CYLINDRICAL_SURFACE('',#113,4.);
#18=LINE('',#157,#21);
#19=LINE('',#161,#22);
#20=LINE('',#165,#23);
#21=VECTOR('',#130,0.63225);
#22=VECTOR('',#135,1.2645);
#23=VECTOR('',#140,4.);
#24=CONICAL_SURFACE('',#109,0.63225,1.02974425867665);
#25=FACE_BOUND('',#35,.T.);
#26=FACE_BOUND('',#40,.T.);
#27=FACE_BOUND('',#42,.T.);
#28=FACE_OUTER_BOUND('',#34,.T.);
#29=FACE_OUTER_BOUND('',#36,.T.);
#30=FACE_OUTER_BOUND('',#37,.T.);
#31=FACE_OUTER_BOUND('',#38,.T.);
#32=FACE_OUTER_BOUND('',#39,.T.);
#33=FACE_OUTER_BOUND('',#41,.T.);
#34=EDGE_LOOP('',(#66));
#35=EDGE_LOOP('',(#67));
#36=EDGE_LOOP('',(#68,#69,#70));
#37=EDGE_LOOP('',(#71,#72,#73,#74));
#38=EDGE_LOOP('',(#75,#76,#77,#78));
#39=EDGE_LOOP('',(#79,#80));
#40=EDGE_LOOP('',(#81));
#41=EDGE_LOOP('',(#82));
#42=EDGE_LOOP('',(#83));
#43=CIRCLE('',#107,12.6111062163476);
#44=CIRCLE('',#108,4.);
#45=CIRCLE('',#110,1.2645);
#46=CIRCLE('',#112,1.2645);
#47=CIRCLE('',#114,4.);
#48=CIRCLE('',#116,17.);
#49=VERTEX_POINT('',#149);
#50=VERTEX_POINT('',#151);
#51=VERTEX_POINT('',#154);
#52=VERTEX_POINT('',#156);
#53=VERTEX_POINT('',#159);
#54=VERTEX_POINT('',#163);
#55=VERTEX_POINT('',#167);
#56=VERTEX_POINT('',#168);
#57=EDGE_CURVE('',#49,#49,#43,.T.);
#58=EDGE_CURVE('',#50,#50,#44,.T.);
#59=EDGE_CURVE('',#51,#51,#45,.T.);
#60=EDGE_CURVE('',#51,#52,#18,.T.);
#61=EDGE_CURVE('',#53,#53,#46,.T.);
#62=EDGE_CURVE('',#53,#51,#19,.T.);
#63=EDGE_CURVE('',#54,#54,#47,.T.);
#64=EDGE_CURVE('',#54,#50,#20,.T.);
#65=EDGE_CURVE('',#55,#56,#48,.T.);
#66=ORIENTED_EDGE('',*,*,#57,.F.);
#67=ORIENTED_EDGE('',*,*,#58,.F.);
#68=ORIENTED_EDGE('',*,*,#59,.F.);
#69=ORIENTED_EDGE('',*,*,#60,.T.);
#70=ORIENTED_EDGE('',*,*,#60,.F.);
#71=ORIENTED_EDGE('',*,*,#61,.F.);
#72=ORIENTED_EDGE('',*,*,#62,.T.);
#73=ORIENTED_EDGE('',*,*,#59,.T.);
#74=ORIENTED_EDGE('',*,*,#62,.F.);
#75=ORIENTED_EDGE('',*,*,#63,.F.);
#76=ORIENTED_EDGE('',*,*,#64,.T.);
#77=ORIENTED_EDGE('',*,*,#58,.T.);
#78=ORIENTED_EDGE('',*,*,#64,.F.);
#79=ORIENTED_EDGE('',*,*,#65,.T.);
#80=ORIENTED_EDGE('',*,*,#65,.F.);
#81=ORIENTED_EDGE('',*,*,#57,.T.);
#82=ORIENTED_EDGE('',*,*,#63,.T.);
#83=ORIENTED_EDGE('',*,*,#61,.T.);
#84=PLANE('',#106);
#85=PLANE('',#117);
#86=ADVANCED_FACE('',(#28,#25),#84,.T.);
#87=ADVANCED_FACE('',(#29),#24,.F.);
#88=ADVANCED_FACE('',(#30),#16,.F.);
#89=ADVANCED_FACE('',(#31),#17,.T.);
#90=ADVANCED_FACE('',(#32,#26),#15,.T.);
#91=ADVANCED_FACE('',(#33,#27),#85,.T.);
#92=CLOSED_SHELL('',(#86,#87,#88,#89,#90,#91));
#93=DERIVED_UNIT_ELEMENT(#95,1.);
#94=DERIVED_UNIT_ELEMENT(#176,-3.);
#95=(
MASS_UNIT()
NAMED_UNIT(*)
SI_UNIT(.KILO.,.GRAM.)
);
#96=DERIVED_UNIT((#93,#94));
#97=MEASURE_REPRESENTATION_ITEM('density measure',
POSITIVE_RATIO_MEASURE(7850.),#96);
#98=PROPERTY_DEFINITION_REPRESENTATION(#103,#100);
#99=PROPERTY_DEFINITION_REPRESENTATION(#104,#101);
#100=REPRESENTATION('material name',(#102),#173);
#101=REPRESENTATION('density',(#97),#173);
#102=DESCRIPTIVE_REPRESENTATION_ITEM('Acier','Acier');
#103=PROPERTY_DEFINITION('material property','material name',#183);
#104=PROPERTY_DEFINITION('material property','density of part',#183);
#105=AXIS2_PLACEMENT_3D('',#147,#118,#119);
#106=AXIS2_PLACEMENT_3D('',#148,#120,#121);
#107=AXIS2_PLACEMENT_3D('',#150,#122,#123);
#108=AXIS2_PLACEMENT_3D('',#152,#124,#125);
#109=AXIS2_PLACEMENT_3D('',#153,#126,#127);
#110=AXIS2_PLACEMENT_3D('',#155,#128,#129);
#111=AXIS2_PLACEMENT_3D('',#158,#131,#132);
#112=AXIS2_PLACEMENT_3D('',#160,#133,#134);
#113=AXIS2_PLACEMENT_3D('',#162,#136,#137);
#114=AXIS2_PLACEMENT_3D('',#164,#138,#139);
#115=AXIS2_PLACEMENT_3D('',#166,#141,#142);
#116=AXIS2_PLACEMENT_3D('',#169,#143,#144);
#117=AXIS2_PLACEMENT_3D('',#170,#145,#146);
#118=DIRECTION('axis',(0.,0.,1.));
#119=DIRECTION('refdir',(1.,0.,0.));
#120=DIRECTION('center_axis',(1.,0.,0.));
#121=DIRECTION('ref_axis',(0.,1.,0.));
#122=DIRECTION('center_axis',(-1.,0.,0.));
#123=DIRECTION('ref_axis',(0.,0.,-1.));
#124=DIRECTION('center_axis',(1.,0.,0.));
#125=DIRECTION('ref_axis',(0.,1.,0.));
#126=DIRECTION('center_axis',(1.,0.,-2.22044604925031E-16));
#127=DIRECTION('ref_axis',(0.,1.,0.));
#128=DIRECTION('center_axis',(-1.,0.,2.22044604925031E-16));
#129=DIRECTION('ref_axis',(0.,1.,0.));
#130=DIRECTION('',(-0.515038074910054,0.857167300702112,9.38870675088973E-18));
#131=DIRECTION('center_axis',(-1.,0.,2.22044604925031E-16));
#132=DIRECTION('ref_axis',(0.,1.,0.));
#133=DIRECTION('center_axis',(-1.,0.,2.22044604925031E-16));
#134=DIRECTION('ref_axis',(0.,1.,0.));
#135=DIRECTION('',(-1.,0.,2.22044604925031E-16));
#136=DIRECTION('center_axis',(1.,0.,-2.22044604925031E-16));
#137=DIRECTION('ref_axis',(-2.22044604925031E-16,0.,-1.));
#138=DIRECTION('center_axis',(1.,0.,-2.22044604925031E-16));
#139=DIRECTION('ref_axis',(-2.22044604925031E-16,0.,-1.));
#140=DIRECTION('',(-1.,0.,2.22044604925031E-16));
#141=DIRECTION('center_axis',(6.12323399573677E-17,0.,1.));
#142=DIRECTION('ref_axis',(1.,0.,0.));
#143=DIRECTION('center_axis',(1.22464679914735E-16,-1.,0.));
#144=DIRECTION('ref_axis',(-1.,-1.22464679914735E-16,0.));
#145=DIRECTION('center_axis',(1.,0.,-2.22044604925031E-16));
#146=DIRECTION('ref_axis',(-2.22044604925031E-16,0.,-1.));
#147=CARTESIAN_POINT('',(0.,0.,0.));
#148=CARTESIAN_POINT('Origin',(11.4,0.208640097023807,0.));
#149=CARTESIAN_POINT('',(11.4,1.54441508615573E-15,12.6111062163476));
#150=CARTESIAN_POINT('Origin',(11.4,0.,0.));
#151=CARTESIAN_POINT('',(11.4,0.208640097023806,4.));
#152=CARTESIAN_POINT('Origin',(11.4,0.208640097023807,1.55926873300774E-16));
#153=CARTESIAN_POINT('Origin',(23.6201058736198,0.208640097023807,-5.08879020369455E-15));
#154=CARTESIAN_POINT('',(24.,-1.05585990297619,-5.01828705714779E-15));
#155=CARTESIAN_POINT('Origin',(24.,0.208640097023807,-5.17314364489998E-15));
#156=CARTESIAN_POINT('',(23.2402117472397,0.208640097023807,-5.00443676248912E-15));
#157=CARTESIAN_POINT('',(23.6201058736198,-0.423609902976193,-5.01136190981846E-15));
#158=CARTESIAN_POINT('Origin',(27.,0.208640097023807,-5.83927745967507E-15));
#159=CARTESIAN_POINT('',(30.,-1.05585990297619,-6.35055468669798E-15));
#160=CARTESIAN_POINT('Origin',(30.,0.208640097023807,-6.50541127445016E-15));
#161=CARTESIAN_POINT('',(27.,-1.05585990297619,-5.68442087192289E-15));
#162=CARTESIAN_POINT('Origin',(15.,0.208640097023807,-3.33066907387547E-15));
#163=CARTESIAN_POINT('',(30.,0.208640097023806,3.99999999999999));
#164=CARTESIAN_POINT('Origin',(30.,0.208640097023807,-6.66133814775094E-15));
#165=CARTESIAN_POINT('',(15.,0.208640097023806,4.));
#166=CARTESIAN_POINT('Origin',(0.,0.,0.));
#167=CARTESIAN_POINT('',(-1.04094977927525E-15,-1.27479581526258E-31,17.));
#168=CARTESIAN_POINT('',(-1.04094977927525E-15,-1.27479581526258E-31,-17.));
#169=CARTESIAN_POINT('Origin',(0.,0.,0.));
#170=CARTESIAN_POINT('Origin',(30.,0.208640097023807,-6.66133814775094E-15));
#171=UNCERTAINTY_MEASURE_WITH_UNIT(LENGTH_MEASURE(0.01),#175,
'DISTANCE_ACCURACY_VALUE',
'Maximum model space distance between geometric entities at asserted c
onnectivities');
#172=UNCERTAINTY_MEASURE_WITH_UNIT(LENGTH_MEASURE(0.01),#175,
'DISTANCE_ACCURACY_VALUE',
'Maximum model space distance between geometric entities at asserted c
onnectivities');
#173=(
GEOMETRIC_REPRESENTATION_CONTEXT(3)
GLOBAL_UNCERTAINTY_ASSIGNED_CONTEXT((#171))
GLOBAL_UNIT_ASSIGNED_CONTEXT((#175,#177,#178))
REPRESENTATION_CONTEXT('','3D')
);
#174=(
GEOMETRIC_REPRESENTATION_CONTEXT(3)
GLOBAL_UNCERTAINTY_ASSIGNED_CONTEXT((#172))
GLOBAL_UNIT_ASSIGNED_CONTEXT((#175,#177,#178))
REPRESENTATION_CONTEXT('','3D')
);
#175=(
LENGTH_UNIT()
NAMED_UNIT(*)
SI_UNIT(.MILLI.,.METRE.)
);
#176=(
LENGTH_UNIT()
NAMED_UNIT(*)
SI_UNIT($,.METRE.)
);
#177=(
NAMED_UNIT(*)
PLANE_ANGLE_UNIT()
SI_UNIT($,.RADIAN.)
);
#178=(
NAMED_UNIT(*)
SI_UNIT($,.STERADIAN.)
SOLID_ANGLE_UNIT()
);
#179=SHAPE_DEFINITION_REPRESENTATION(#180,#181);
#180=PRODUCT_DEFINITION_SHAPE('',$,#183);
#181=SHAPE_REPRESENTATION('',(#105),#173);
#182=PRODUCT_DEFINITION_CONTEXT('part definition',#187,'design');
#183=PRODUCT_DEFINITION('BRASPOURGLISSIERE1','BRASPOURGLISSIERE1 v6',#184,
#182);
#184=PRODUCT_DEFINITION_FORMATION('',$,#189);
#185=PRODUCT_RELATED_PRODUCT_CATEGORY('BRASPOURGLISSIERE1 v6',
'BRASPOURGLISSIERE1 v6',(#189));
#186=APPLICATION_PROTOCOL_DEFINITION('international standard',
'automotive_design',2009,#187);
#187=APPLICATION_CONTEXT(
'Core Data for Automotive Mechanical Design Process');
#188=PRODUCT_CONTEXT('part definition',#187,'mechanical');
#189=PRODUCT('BRASPOURGLISSIERE1','BRASPOURGLISSIERE1 v6',$,(#188));
#190=PRESENTATION_STYLE_ASSIGNMENT((#191));
#191=SURFACE_STYLE_USAGE(.BOTH.,#192);
#192=SURFACE_SIDE_STYLE('',(#193));
#193=SURFACE_STYLE_FILL_AREA(#194);
#194=FILL_AREA_STYLE('Acier - Satin\X\E9',(#195));
#195=FILL_AREA_STYLE_COLOUR('Acier - Satin\X\E9',#196);
#196=COLOUR_RGB('Acier - Satin\X\E9',0.627450980392157,0.627450980392157,
0.627450980392157);
ENDSEC;
END-ISO-10303-21;
