ISO-10303-21;
HEADER;
/* Generated by software containing ST-Developer
 * from STEP Tools, Inc. (www.steptools.com) 
 */

FILE_DESCRIPTION(
/* description */ (''),
/* implementation_level */ '2;1');

FILE_NAME(
/* name */ 'BRAS.step',
/* time_stamp */ '2026-01-26T20:40:09+01:00',
/* author */ (''),
/* organization */ (''),
/* preprocessor_version */ 'ST-DEVELOPER v20.1',
/* originating_system */ 'Autodesk Translation Framework v14.24.0.0',
/* authorisation */ '');

FILE_SCHEMA (('AUTOMOTIVE_DESIGN { 1 0 10303 214 3 1 1 }'));
ENDSEC;

DATA;
#10=MECHANICAL_DESIGN_GEOMETRIC_PRESENTATION_REPRESENTATION('',(#13),#723);
#11=SHAPE_REPRESENTATION_RELATIONSHIP('SRR','None',#730,#12);
#12=ADVANCED_BREP_SHAPE_REPRESENTATION('',(#437),#722);
#13=STYLED_ITEM('',(#739),#437);
#14=ORIENTED_CLOSED_SHELL('',*,#436,.F.);
#15=SPHERICAL_SURFACE('',#456,17.);
#16=LINE('',#610,#62);
#17=LINE('',#617,#63);
#18=LINE('',#619,#64);
#19=LINE('',#621,#65);
#20=LINE('',#622,#66);
#21=LINE('',#625,#67);
#22=LINE('',#627,#68);
#23=LINE('',#629,#69);
#24=LINE('',#631,#70);
#25=LINE('',#632,#71);
#26=LINE('',#635,#72);
#27=LINE('',#637,#73);
#28=LINE('',#639,#74);
#29=LINE('',#640,#75);
#30=LINE('',#644,#76);
#31=LINE('',#645,#77);
#32=LINE('',#646,#78);
#33=LINE('',#649,#79);
#34=LINE('',#651,#80);
#35=LINE('',#653,#81);
#36=LINE('',#654,#82);
#37=LINE('',#657,#83);
#38=LINE('',#659,#84);
#39=LINE('',#660,#85);
#40=LINE('',#663,#86);
#41=LINE('',#664,#87);
#42=LINE('',#665,#88);
#43=LINE('',#668,#89);
#44=LINE('',#669,#90);
#45=LINE('',#671,#91);
#46=LINE('',#676,#92);
#47=LINE('',#682,#93);
#48=LINE('',#689,#94);
#49=LINE('',#692,#95);
#50=LINE('',#697,#96);
#51=LINE('',#699,#97);
#52=LINE('',#701,#98);
#53=LINE('',#702,#99);
#54=LINE('',#706,#100);
#55=LINE('',#708,#101);
#56=LINE('',#710,#102);
#57=LINE('',#711,#103);
#58=LINE('',#713,#104);
#59=LINE('',#714,#105);
#60=LINE('',#716,#106);
#61=LINE('',#718,#107);
#62=VECTOR('',#497,2.5);
#63=VECTOR('',#504,10.);
#64=VECTOR('',#505,10.);
#65=VECTOR('',#506,10.);
#66=VECTOR('',#507,10.);
#67=VECTOR('',#510,10.);
#68=VECTOR('',#511,10.);
#69=VECTOR('',#512,10.);
#70=VECTOR('',#513,10.);
#71=VECTOR('',#514,10.);
#72=VECTOR('',#517,10.);
#73=VECTOR('',#518,10.);
#74=VECTOR('',#519,10.);
#75=VECTOR('',#520,10.);
#76=VECTOR('',#523,10.);
#77=VECTOR('',#524,10.);
#78=VECTOR('',#525,10.);
#79=VECTOR('',#528,10.);
#80=VECTOR('',#529,10.);
#81=VECTOR('',#530,10.);
#82=VECTOR('',#531,10.);
#83=VECTOR('',#534,10.);
#84=VECTOR('',#535,10.);
#85=VECTOR('',#536,10.);
#86=VECTOR('',#539,10.);
#87=VECTOR('',#540,10.);
#88=VECTOR('',#541,10.);
#89=VECTOR('',#544,10.);
#90=VECTOR('',#545,10.);
#91=VECTOR('',#548,10.);
#92=VECTOR('',#553,1.5);
#93=VECTOR('',#560,1.5);
#94=VECTOR('',#569,1.5);
#95=VECTOR('',#574,10.);
#96=VECTOR('',#579,10.);
#97=VECTOR('',#580,10.);
#98=VECTOR('',#581,10.);
#99=VECTOR('',#582,10.);
#100=VECTOR('',#585,10.);
#101=VECTOR('',#586,10.);
#102=VECTOR('',#587,10.);
#103=VECTOR('',#588,10.);
#104=VECTOR('',#591,10.);
#105=VECTOR('',#592,10.);
#106=VECTOR('',#595,10.);
#107=VECTOR('',#598,10.);
#108=CYLINDRICAL_SURFACE('',#454,4.);
#109=CYLINDRICAL_SURFACE('',#467,1.5);
#110=CYLINDRICAL_SURFACE('',#470,1.5);
#111=CYLINDRICAL_SURFACE('',#475,1.5);
#112=FACE_BOUND('',#145,.T.);
#113=FACE_BOUND('',#160,.T.);
#114=FACE_BOUND('',#161,.T.);
#115=FACE_BOUND('',#162,.T.);
#116=FACE_BOUND('',#165,.T.);
#117=FACE_BOUND('',#167,.T.);
#118=FACE_BOUND('',#168,.T.);
#119=FACE_BOUND('',#169,.T.);
#120=FACE_OUTER_BOUND('',#144,.T.);
#121=FACE_OUTER_BOUND('',#146,.T.);
#122=FACE_OUTER_BOUND('',#147,.T.);
#123=FACE_OUTER_BOUND('',#148,.T.);
#124=FACE_OUTER_BOUND('',#149,.T.);
#125=FACE_OUTER_BOUND('',#150,.T.);
#126=FACE_OUTER_BOUND('',#151,.T.);
#127=FACE_OUTER_BOUND('',#152,.T.);
#128=FACE_OUTER_BOUND('',#153,.T.);
#129=FACE_OUTER_BOUND('',#154,.T.);
#130=FACE_OUTER_BOUND('',#155,.T.);
#131=FACE_OUTER_BOUND('',#156,.T.);
#132=FACE_OUTER_BOUND('',#157,.T.);
#133=FACE_OUTER_BOUND('',#158,.T.);
#134=FACE_OUTER_BOUND('',#159,.T.);
#135=FACE_OUTER_BOUND('',#163,.T.);
#136=FACE_OUTER_BOUND('',#164,.T.);
#137=FACE_OUTER_BOUND('',#166,.T.);
#138=FACE_OUTER_BOUND('',#170,.T.);
#139=FACE_OUTER_BOUND('',#171,.T.);
#140=FACE_OUTER_BOUND('',#172,.T.);
#141=FACE_OUTER_BOUND('',#173,.T.);
#142=FACE_OUTER_BOUND('',#174,.T.);
#143=FACE_OUTER_BOUND('',#175,.T.);
#144=EDGE_LOOP('',(#280));
#145=EDGE_LOOP('',(#281));
#146=EDGE_LOOP('',(#282,#283,#284,#285));
#147=EDGE_LOOP('',(#286,#287,#288));
#148=EDGE_LOOP('',(#289,#290,#291,#292));
#149=EDGE_LOOP('',(#293,#294,#295,#296,#297,#298));
#150=EDGE_LOOP('',(#299,#300,#301,#302,#303,#304));
#151=EDGE_LOOP('',(#305,#306,#307,#308));
#152=EDGE_LOOP('',(#309,#310,#311,#312,#313,#314));
#153=EDGE_LOOP('',(#315,#316,#317,#318));
#154=EDGE_LOOP('',(#319,#320,#321,#322,#323,#324));
#155=EDGE_LOOP('',(#325,#326,#327,#328));
#156=EDGE_LOOP('',(#329,#330,#331,#332));
#157=EDGE_LOOP('',(#333,#334,#335,#336));
#158=EDGE_LOOP('',(#337,#338,#339,#340));
#159=EDGE_LOOP('',(#341,#342,#343,#344));
#160=EDGE_LOOP('',(#345));
#161=EDGE_LOOP('',(#346));
#162=EDGE_LOOP('',(#347));
#163=EDGE_LOOP('',(#348,#349,#350,#351));
#164=EDGE_LOOP('',(#352,#353,#354,#355,#356,#357,#358,#359));
#165=EDGE_LOOP('',(#360));
#166=EDGE_LOOP('',(#361,#362,#363,#364));
#167=EDGE_LOOP('',(#365));
#168=EDGE_LOOP('',(#366));
#169=EDGE_LOOP('',(#367));
#170=EDGE_LOOP('',(#368,#369,#370,#371));
#171=EDGE_LOOP('',(#372,#373,#374,#375));
#172=EDGE_LOOP('',(#376,#377,#378,#379));
#173=EDGE_LOOP('',(#380,#381,#382,#383));
#174=EDGE_LOOP('',(#384,#385,#386,#387));
#175=EDGE_LOOP('',(#388,#389,#390,#391));
#176=CIRCLE('',#452,12.6111062163476);
#177=CIRCLE('',#453,4.);
#178=CIRCLE('',#455,4.);
#179=CIRCLE('',#457,17.);
#180=CIRCLE('',#468,1.5);
#181=CIRCLE('',#469,1.5);
#182=CIRCLE('',#471,1.5);
#183=CIRCLE('',#472,1.5);
#184=CIRCLE('',#474,1.5);
#185=CIRCLE('',#476,1.5);
#186=VERTEX_POINT('',#603);
#187=VERTEX_POINT('',#605);
#188=VERTEX_POINT('',#608);
#189=VERTEX_POINT('',#612);
#190=VERTEX_POINT('',#615);
#191=VERTEX_POINT('',#616);
#192=VERTEX_POINT('',#618);
#193=VERTEX_POINT('',#620);
#194=VERTEX_POINT('',#624);
#195=VERTEX_POINT('',#626);
#196=VERTEX_POINT('',#628);
#197=VERTEX_POINT('',#630);
#198=VERTEX_POINT('',#634);
#199=VERTEX_POINT('',#636);
#200=VERTEX_POINT('',#638);
#201=VERTEX_POINT('',#642);
#202=VERTEX_POINT('',#643);
#203=VERTEX_POINT('',#648);
#204=VERTEX_POINT('',#650);
#205=VERTEX_POINT('',#652);
#206=VERTEX_POINT('',#656);
#207=VERTEX_POINT('',#658);
#208=VERTEX_POINT('',#662);
#209=VERTEX_POINT('',#667);
#210=VERTEX_POINT('',#673);
#211=VERTEX_POINT('',#675);
#212=VERTEX_POINT('',#679);
#213=VERTEX_POINT('',#681);
#214=VERTEX_POINT('',#685);
#215=VERTEX_POINT('',#688);
#216=VERTEX_POINT('',#695);
#217=VERTEX_POINT('',#696);
#218=VERTEX_POINT('',#698);
#219=VERTEX_POINT('',#700);
#220=VERTEX_POINT('',#704);
#221=VERTEX_POINT('',#705);
#222=VERTEX_POINT('',#707);
#223=VERTEX_POINT('',#709);
#224=EDGE_CURVE('',#186,#186,#176,.T.);
#225=EDGE_CURVE('',#187,#187,#177,.T.);
#226=EDGE_CURVE('',#188,#188,#178,.F.);
#227=EDGE_CURVE('',#188,#187,#16,.T.);
#228=EDGE_CURVE('',#189,#186,#179,.T.);
#229=EDGE_CURVE('',#190,#191,#17,.T.);
#230=EDGE_CURVE('',#191,#192,#18,.T.);
#231=EDGE_CURVE('',#192,#193,#19,.T.);
#232=EDGE_CURVE('',#193,#190,#20,.T.);
#233=EDGE_CURVE('',#194,#193,#21,.F.);
#234=EDGE_CURVE('',#194,#195,#22,.T.);
#235=EDGE_CURVE('',#195,#196,#23,.T.);
#236=EDGE_CURVE('',#197,#196,#24,.T.);
#237=EDGE_CURVE('',#190,#197,#25,.F.);
#238=EDGE_CURVE('',#192,#198,#26,.F.);
#239=EDGE_CURVE('',#199,#198,#27,.T.);
#240=EDGE_CURVE('',#199,#200,#28,.F.);
#241=EDGE_CURVE('',#200,#194,#29,.F.);
#242=EDGE_CURVE('',#201,#202,#30,.T.);
#243=EDGE_CURVE('',#202,#199,#31,.T.);
#244=EDGE_CURVE('',#198,#201,#32,.T.);
#245=EDGE_CURVE('',#203,#202,#33,.F.);
#246=EDGE_CURVE('',#204,#203,#34,.T.);
#247=EDGE_CURVE('',#204,#205,#35,.T.);
#248=EDGE_CURVE('',#205,#200,#36,.T.);
#249=EDGE_CURVE('',#203,#206,#37,.T.);
#250=EDGE_CURVE('',#206,#207,#38,.T.);
#251=EDGE_CURVE('',#207,#204,#39,.T.);
#252=EDGE_CURVE('',#208,#207,#40,.T.);
#253=EDGE_CURVE('',#196,#208,#41,.T.);
#254=EDGE_CURVE('',#195,#205,#42,.T.);
#255=EDGE_CURVE('',#209,#206,#43,.F.);
#256=EDGE_CURVE('',#208,#209,#44,.T.);
#257=EDGE_CURVE('',#209,#197,#45,.T.);
#258=EDGE_CURVE('',#210,#210,#180,.T.);
#259=EDGE_CURVE('',#210,#211,#46,.T.);
#260=EDGE_CURVE('',#211,#211,#181,.T.);
#261=EDGE_CURVE('',#212,#212,#182,.T.);
#262=EDGE_CURVE('',#212,#213,#47,.T.);
#263=EDGE_CURVE('',#213,#213,#183,.T.);
#264=EDGE_CURVE('',#214,#214,#184,.T.);
#265=EDGE_CURVE('',#214,#215,#48,.T.);
#266=EDGE_CURVE('',#215,#215,#185,.T.);
#267=EDGE_CURVE('',#201,#191,#49,.F.);
#268=EDGE_CURVE('',#216,#217,#50,.T.);
#269=EDGE_CURVE('',#218,#216,#51,.T.);
#270=EDGE_CURVE('',#219,#218,#52,.T.);
#271=EDGE_CURVE('',#217,#219,#53,.T.);
#272=EDGE_CURVE('',#220,#221,#54,.T.);
#273=EDGE_CURVE('',#222,#220,#55,.T.);
#274=EDGE_CURVE('',#223,#222,#56,.T.);
#275=EDGE_CURVE('',#221,#223,#57,.T.);
#276=EDGE_CURVE('',#218,#223,#58,.T.);
#277=EDGE_CURVE('',#216,#221,#59,.T.);
#278=EDGE_CURVE('',#219,#222,#60,.T.);
#279=EDGE_CURVE('',#217,#220,#61,.T.);
#280=ORIENTED_EDGE('',*,*,#224,.F.);
#281=ORIENTED_EDGE('',*,*,#225,.F.);
#282=ORIENTED_EDGE('',*,*,#226,.F.);
#283=ORIENTED_EDGE('',*,*,#227,.T.);
#284=ORIENTED_EDGE('',*,*,#225,.T.);
#285=ORIENTED_EDGE('',*,*,#227,.F.);
#286=ORIENTED_EDGE('',*,*,#224,.T.);
#287=ORIENTED_EDGE('',*,*,#228,.F.);
#288=ORIENTED_EDGE('',*,*,#228,.T.);
#289=ORIENTED_EDGE('',*,*,#229,.T.);
#290=ORIENTED_EDGE('',*,*,#230,.T.);
#291=ORIENTED_EDGE('',*,*,#231,.T.);
#292=ORIENTED_EDGE('',*,*,#232,.T.);
#293=ORIENTED_EDGE('',*,*,#232,.F.);
#294=ORIENTED_EDGE('',*,*,#233,.F.);
#295=ORIENTED_EDGE('',*,*,#234,.T.);
#296=ORIENTED_EDGE('',*,*,#235,.T.);
#297=ORIENTED_EDGE('',*,*,#236,.F.);
#298=ORIENTED_EDGE('',*,*,#237,.F.);
#299=ORIENTED_EDGE('',*,*,#231,.F.);
#300=ORIENTED_EDGE('',*,*,#238,.T.);
#301=ORIENTED_EDGE('',*,*,#239,.F.);
#302=ORIENTED_EDGE('',*,*,#240,.T.);
#303=ORIENTED_EDGE('',*,*,#241,.T.);
#304=ORIENTED_EDGE('',*,*,#233,.T.);
#305=ORIENTED_EDGE('',*,*,#242,.T.);
#306=ORIENTED_EDGE('',*,*,#243,.T.);
#307=ORIENTED_EDGE('',*,*,#239,.T.);
#308=ORIENTED_EDGE('',*,*,#244,.T.);
#309=ORIENTED_EDGE('',*,*,#243,.F.);
#310=ORIENTED_EDGE('',*,*,#245,.F.);
#311=ORIENTED_EDGE('',*,*,#246,.F.);
#312=ORIENTED_EDGE('',*,*,#247,.T.);
#313=ORIENTED_EDGE('',*,*,#248,.T.);
#314=ORIENTED_EDGE('',*,*,#240,.F.);
#315=ORIENTED_EDGE('',*,*,#249,.T.);
#316=ORIENTED_EDGE('',*,*,#250,.T.);
#317=ORIENTED_EDGE('',*,*,#251,.T.);
#318=ORIENTED_EDGE('',*,*,#246,.T.);
#319=ORIENTED_EDGE('',*,*,#251,.F.);
#320=ORIENTED_EDGE('',*,*,#252,.F.);
#321=ORIENTED_EDGE('',*,*,#253,.F.);
#322=ORIENTED_EDGE('',*,*,#235,.F.);
#323=ORIENTED_EDGE('',*,*,#254,.T.);
#324=ORIENTED_EDGE('',*,*,#247,.F.);
#325=ORIENTED_EDGE('',*,*,#250,.F.);
#326=ORIENTED_EDGE('',*,*,#255,.F.);
#327=ORIENTED_EDGE('',*,*,#256,.F.);
#328=ORIENTED_EDGE('',*,*,#252,.T.);
#329=ORIENTED_EDGE('',*,*,#257,.T.);
#330=ORIENTED_EDGE('',*,*,#236,.T.);
#331=ORIENTED_EDGE('',*,*,#253,.T.);
#332=ORIENTED_EDGE('',*,*,#256,.T.);
#333=ORIENTED_EDGE('',*,*,#258,.F.);
#334=ORIENTED_EDGE('',*,*,#259,.T.);
#335=ORIENTED_EDGE('',*,*,#260,.F.);
#336=ORIENTED_EDGE('',*,*,#259,.F.);
#337=ORIENTED_EDGE('',*,*,#261,.F.);
#338=ORIENTED_EDGE('',*,*,#262,.T.);
#339=ORIENTED_EDGE('',*,*,#263,.F.);
#340=ORIENTED_EDGE('',*,*,#262,.F.);
#341=ORIENTED_EDGE('',*,*,#234,.F.);
#342=ORIENTED_EDGE('',*,*,#241,.F.);
#343=ORIENTED_EDGE('',*,*,#248,.F.);
#344=ORIENTED_EDGE('',*,*,#254,.F.);
#345=ORIENTED_EDGE('',*,*,#258,.T.);
#346=ORIENTED_EDGE('',*,*,#261,.T.);
#347=ORIENTED_EDGE('',*,*,#264,.F.);
#348=ORIENTED_EDGE('',*,*,#264,.T.);
#349=ORIENTED_EDGE('',*,*,#265,.T.);
#350=ORIENTED_EDGE('',*,*,#266,.F.);
#351=ORIENTED_EDGE('',*,*,#265,.F.);
#352=ORIENTED_EDGE('',*,*,#229,.F.);
#353=ORIENTED_EDGE('',*,*,#237,.T.);
#354=ORIENTED_EDGE('',*,*,#257,.F.);
#355=ORIENTED_EDGE('',*,*,#255,.T.);
#356=ORIENTED_EDGE('',*,*,#249,.F.);
#357=ORIENTED_EDGE('',*,*,#245,.T.);
#358=ORIENTED_EDGE('',*,*,#242,.F.);
#359=ORIENTED_EDGE('',*,*,#267,.T.);
#360=ORIENTED_EDGE('',*,*,#226,.T.);
#361=ORIENTED_EDGE('',*,*,#230,.F.);
#362=ORIENTED_EDGE('',*,*,#267,.F.);
#363=ORIENTED_EDGE('',*,*,#244,.F.);
#364=ORIENTED_EDGE('',*,*,#238,.F.);
#365=ORIENTED_EDGE('',*,*,#260,.T.);
#366=ORIENTED_EDGE('',*,*,#263,.T.);
#367=ORIENTED_EDGE('',*,*,#266,.T.);
#368=ORIENTED_EDGE('',*,*,#268,.F.);
#369=ORIENTED_EDGE('',*,*,#269,.F.);
#370=ORIENTED_EDGE('',*,*,#270,.F.);
#371=ORIENTED_EDGE('',*,*,#271,.F.);
#372=ORIENTED_EDGE('',*,*,#272,.F.);
#373=ORIENTED_EDGE('',*,*,#273,.F.);
#374=ORIENTED_EDGE('',*,*,#274,.F.);
#375=ORIENTED_EDGE('',*,*,#275,.F.);
#376=ORIENTED_EDGE('',*,*,#276,.F.);
#377=ORIENTED_EDGE('',*,*,#269,.T.);
#378=ORIENTED_EDGE('',*,*,#277,.T.);
#379=ORIENTED_EDGE('',*,*,#275,.T.);
#380=ORIENTED_EDGE('',*,*,#278,.F.);
#381=ORIENTED_EDGE('',*,*,#270,.T.);
#382=ORIENTED_EDGE('',*,*,#276,.T.);
#383=ORIENTED_EDGE('',*,*,#274,.T.);
#384=ORIENTED_EDGE('',*,*,#279,.F.);
#385=ORIENTED_EDGE('',*,*,#271,.T.);
#386=ORIENTED_EDGE('',*,*,#278,.T.);
#387=ORIENTED_EDGE('',*,*,#273,.T.);
#388=ORIENTED_EDGE('',*,*,#277,.F.);
#389=ORIENTED_EDGE('',*,*,#268,.T.);
#390=ORIENTED_EDGE('',*,*,#279,.T.);
#391=ORIENTED_EDGE('',*,*,#272,.T.);
#392=PLANE('',#451);
#393=PLANE('',#458);
#394=PLANE('',#459);
#395=PLANE('',#460);
#396=PLANE('',#461);
#397=PLANE('',#462);
#398=PLANE('',#463);
#399=PLANE('',#464);
#400=PLANE('',#465);
#401=PLANE('',#466);
#402=PLANE('',#473);
#403=PLANE('',#477);
#404=PLANE('',#478);
#405=PLANE('',#479);
#406=PLANE('',#480);
#407=PLANE('',#481);
#408=PLANE('',#482);
#409=PLANE('',#483);
#410=PLANE('',#484);
#411=ADVANCED_FACE('',(#120,#112),#392,.F.);
#412=ADVANCED_FACE('',(#121),#108,.T.);
#413=ADVANCED_FACE('',(#122),#15,.T.);
#414=ADVANCED_FACE('',(#123),#393,.T.);
#415=ADVANCED_FACE('',(#124),#394,.F.);
#416=ADVANCED_FACE('',(#125),#395,.T.);
#417=ADVANCED_FACE('',(#126),#396,.T.);
#418=ADVANCED_FACE('',(#127),#397,.F.);
#419=ADVANCED_FACE('',(#128),#398,.T.);
#420=ADVANCED_FACE('',(#129),#399,.F.);
#421=ADVANCED_FACE('',(#130),#400,.F.);
#422=ADVANCED_FACE('',(#131),#401,.T.);
#423=ADVANCED_FACE('',(#132),#109,.F.);
#424=ADVANCED_FACE('',(#133),#110,.F.);
#425=ADVANCED_FACE('',(#134,#113,#114,#115),#402,.F.);
#426=ADVANCED_FACE('',(#135),#111,.F.);
#427=ADVANCED_FACE('',(#136,#116),#403,.F.);
#428=ADVANCED_FACE('',(#137,#117,#118,#119),#404,.F.);
#429=ADVANCED_FACE('',(#138),#405,.F.);
#430=ADVANCED_FACE('',(#139),#406,.T.);
#431=ADVANCED_FACE('',(#140),#407,.T.);
#432=ADVANCED_FACE('',(#141),#408,.T.);
#433=ADVANCED_FACE('',(#142),#409,.T.);
#434=ADVANCED_FACE('',(#143),#410,.T.);
#435=CLOSED_SHELL('',(#411,#412,#413,#414,#415,#416,#417,#418,#419,#420,
#421,#422,#423,#424,#425,#426,#427,#428));
#436=CLOSED_SHELL('',(#429,#430,#431,#432,#433,#434));
#437=BREP_WITH_VOIDS('Corps1',#435,(#14));
#438=DERIVED_UNIT_ELEMENT(#440,1.);
#439=DERIVED_UNIT_ELEMENT(#725,-3.);
#440=(
MASS_UNIT()
NAMED_UNIT(*)
SI_UNIT(.KILO.,.GRAM.)
);
#441=DERIVED_UNIT((#438,#439));
#442=MEASURE_REPRESENTATION_ITEM('density measure',
POSITIVE_RATIO_MEASURE(7850.),#441);
#443=PROPERTY_DEFINITION_REPRESENTATION(#448,#445);
#444=PROPERTY_DEFINITION_REPRESENTATION(#449,#446);
#445=REPRESENTATION('material name',(#447),#722);
#446=REPRESENTATION('density',(#442),#722);
#447=DESCRIPTIVE_REPRESENTATION_ITEM('Acier','Acier');
#448=PROPERTY_DEFINITION('material property','material name',#732);
#449=PROPERTY_DEFINITION('material property','density of part',#732);
#450=AXIS2_PLACEMENT_3D('',#601,#485,#486);
#451=AXIS2_PLACEMENT_3D('',#602,#487,#488);
#452=AXIS2_PLACEMENT_3D('',#604,#489,#490);
#453=AXIS2_PLACEMENT_3D('',#606,#491,#492);
#454=AXIS2_PLACEMENT_3D('',#607,#493,#494);
#455=AXIS2_PLACEMENT_3D('',#609,#495,#496);
#456=AXIS2_PLACEMENT_3D('',#611,#498,#499);
#457=AXIS2_PLACEMENT_3D('',#613,#500,#501);
#458=AXIS2_PLACEMENT_3D('',#614,#502,#503);
#459=AXIS2_PLACEMENT_3D('',#623,#508,#509);
#460=AXIS2_PLACEMENT_3D('',#633,#515,#516);
#461=AXIS2_PLACEMENT_3D('',#641,#521,#522);
#462=AXIS2_PLACEMENT_3D('',#647,#526,#527);
#463=AXIS2_PLACEMENT_3D('',#655,#532,#533);
#464=AXIS2_PLACEMENT_3D('',#661,#537,#538);
#465=AXIS2_PLACEMENT_3D('',#666,#542,#543);
#466=AXIS2_PLACEMENT_3D('',#670,#546,#547);
#467=AXIS2_PLACEMENT_3D('',#672,#549,#550);
#468=AXIS2_PLACEMENT_3D('',#674,#551,#552);
#469=AXIS2_PLACEMENT_3D('',#677,#554,#555);
#470=AXIS2_PLACEMENT_3D('',#678,#556,#557);
#471=AXIS2_PLACEMENT_3D('',#680,#558,#559);
#472=AXIS2_PLACEMENT_3D('',#683,#561,#562);
#473=AXIS2_PLACEMENT_3D('',#684,#563,#564);
#474=AXIS2_PLACEMENT_3D('',#686,#565,#566);
#475=AXIS2_PLACEMENT_3D('',#687,#567,#568);
#476=AXIS2_PLACEMENT_3D('',#690,#570,#571);
#477=AXIS2_PLACEMENT_3D('',#691,#572,#573);
#478=AXIS2_PLACEMENT_3D('',#693,#575,#576);
#479=AXIS2_PLACEMENT_3D('',#694,#577,#578);
#480=AXIS2_PLACEMENT_3D('',#703,#583,#584);
#481=AXIS2_PLACEMENT_3D('',#712,#589,#590);
#482=AXIS2_PLACEMENT_3D('',#715,#593,#594);
#483=AXIS2_PLACEMENT_3D('',#717,#596,#597);
#484=AXIS2_PLACEMENT_3D('',#719,#599,#600);
#485=DIRECTION('axis',(0.,0.,1.));
#486=DIRECTION('refdir',(1.,0.,0.));
#487=DIRECTION('center_axis',(0.,0.,1.));
#488=DIRECTION('ref_axis',(-1.,0.,0.));
#489=DIRECTION('center_axis',(0.,0.,1.));
#490=DIRECTION('ref_axis',(0.,1.,0.));
#491=DIRECTION('center_axis',(0.,0.,-1.));
#492=DIRECTION('ref_axis',(-1.,0.,0.));
#493=DIRECTION('center_axis',(0.,0.,-1.));
#494=DIRECTION('ref_axis',(1.,0.,0.));
#495=DIRECTION('center_axis',(0.,0.,1.));
#496=DIRECTION('ref_axis',(1.,0.,0.));
#497=DIRECTION('',(0.,0.,1.));
#498=DIRECTION('center_axis',(6.12323399573677E-17,0.,1.));
#499=DIRECTION('ref_axis',(1.,0.,0.));
#500=DIRECTION('center_axis',(1.22464679914735E-16,-1.,0.));
#501=DIRECTION('ref_axis',(-1.,-1.22464679914735E-16,0.));
#502=DIRECTION('center_axis',(-0.707106781186548,-0.707106781186548,0.));
#503=DIRECTION('ref_axis',(0.,0.,1.));
#504=DIRECTION('',(-0.707106781186548,0.707106781186548,0.));
#505=DIRECTION('',(0.,0.,-1.));
#506=DIRECTION('',(0.707106781186548,-0.707106781186548,0.));
#507=DIRECTION('',(0.,0.,1.));
#508=DIRECTION('center_axis',(0.,1.,0.));
#509=DIRECTION('ref_axis',(0.,0.,1.));
#510=DIRECTION('',(1.,0.,0.));
#511=DIRECTION('',(0.,0.,1.));
#512=DIRECTION('',(1.,0.,0.));
#513=DIRECTION('',(0.,0.,-1.));
#514=DIRECTION('',(-1.,0.,0.));
#515=DIRECTION('center_axis',(0.,0.,-1.));
#516=DIRECTION('ref_axis',(0.,1.,0.));
#517=DIRECTION('',(0.,-1.,0.));
#518=DIRECTION('',(-0.707106781186548,-0.707106781186548,0.));
#519=DIRECTION('',(-1.,0.,0.));
#520=DIRECTION('',(0.,1.,0.));
#521=DIRECTION('center_axis',(-0.707106781186548,0.707106781186548,0.));
#522=DIRECTION('ref_axis',(0.,0.,1.));
#523=DIRECTION('',(0.707106781186548,0.707106781186548,0.));
#524=DIRECTION('',(0.,0.,-1.));
#525=DIRECTION('',(0.,0.,1.));
#526=DIRECTION('center_axis',(0.,-1.,0.));
#527=DIRECTION('ref_axis',(0.,0.,-1.));
#528=DIRECTION('',(1.,0.,0.));
#529=DIRECTION('',(0.,0.,1.));
#530=DIRECTION('',(-1.,0.,0.));
#531=DIRECTION('',(0.,0.,-1.));
#532=DIRECTION('center_axis',(0.707106781186548,0.707106781186548,0.));
#533=DIRECTION('ref_axis',(0.,0.,-1.));
#534=DIRECTION('',(0.707106781186548,-0.707106781186548,0.));
#535=DIRECTION('',(0.,0.,-1.));
#536=DIRECTION('',(-0.707106781186548,0.707106781186548,0.));
#537=DIRECTION('center_axis',(0.,0.,1.));
#538=DIRECTION('ref_axis',(1.,0.,0.));
#539=DIRECTION('',(0.,1.,0.));
#540=DIRECTION('',(0.707106781186548,0.707106781186548,0.));
#541=DIRECTION('',(0.,1.,0.));
#542=DIRECTION('center_axis',(-1.,0.,0.));
#543=DIRECTION('ref_axis',(0.,0.,1.));
#544=DIRECTION('',(0.,-1.,0.));
#545=DIRECTION('',(0.,0.,1.));
#546=DIRECTION('center_axis',(0.707106781186548,-0.707106781186548,0.));
#547=DIRECTION('ref_axis',(0.,0.,-1.));
#548=DIRECTION('',(-0.707106781186548,-0.707106781186548,0.));
#549=DIRECTION('center_axis',(-1.,0.,0.));
#550=DIRECTION('ref_axis',(0.,1.,0.));
#551=DIRECTION('center_axis',(-1.,0.,0.));
#552=DIRECTION('ref_axis',(0.,1.,0.));
#553=DIRECTION('',(-1.,0.,0.));
#554=DIRECTION('center_axis',(1.,0.,0.));
#555=DIRECTION('ref_axis',(0.,1.,0.));
#556=DIRECTION('center_axis',(-1.,0.,0.));
#557=DIRECTION('ref_axis',(0.,1.,0.));
#558=DIRECTION('center_axis',(-1.,0.,0.));
#559=DIRECTION('ref_axis',(0.,1.,0.));
#560=DIRECTION('',(-1.,0.,0.));
#561=DIRECTION('center_axis',(1.,0.,0.));
#562=DIRECTION('ref_axis',(0.,1.,0.));
#563=DIRECTION('center_axis',(-1.,0.,0.));
#564=DIRECTION('ref_axis',(0.,0.,1.));
#565=DIRECTION('center_axis',(1.,0.,0.));
#566=DIRECTION('ref_axis',(0.,1.,0.));
#567=DIRECTION('center_axis',(-1.,0.,0.));
#568=DIRECTION('ref_axis',(0.,1.,0.));
#569=DIRECTION('',(-1.,0.,0.));
#570=DIRECTION('center_axis',(1.,0.,0.));
#571=DIRECTION('ref_axis',(0.,1.,0.));
#572=DIRECTION('center_axis',(0.,0.,-1.));
#573=DIRECTION('ref_axis',(0.,1.,0.));
#574=DIRECTION('',(0.,1.,0.));
#575=DIRECTION('center_axis',(1.,0.,0.));
#576=DIRECTION('ref_axis',(0.,0.,-1.));
#577=DIRECTION('center_axis',(0.,0.,1.));
#578=DIRECTION('ref_axis',(0.,1.,0.));
#579=DIRECTION('',(-1.,0.,0.));
#580=DIRECTION('',(0.,1.,0.));
#581=DIRECTION('',(1.,0.,0.));
#582=DIRECTION('',(0.,-1.,0.));
#583=DIRECTION('center_axis',(0.,0.,1.));
#584=DIRECTION('ref_axis',(0.,1.,0.));
#585=DIRECTION('',(1.,0.,0.));
#586=DIRECTION('',(0.,1.,0.));
#587=DIRECTION('',(-1.,0.,0.));
#588=DIRECTION('',(0.,-1.,0.));
#589=DIRECTION('center_axis',(-1.,0.,0.));
#590=DIRECTION('ref_axis',(0.,0.,1.));
#591=DIRECTION('',(0.,0.,-1.));
#592=DIRECTION('',(0.,0.,-1.));
#593=DIRECTION('center_axis',(0.,1.,0.));
#594=DIRECTION('ref_axis',(0.,0.,-1.));
#595=DIRECTION('',(0.,0.,-1.));
#596=DIRECTION('center_axis',(1.,0.,0.));
#597=DIRECTION('ref_axis',(0.,0.,-1.));
#598=DIRECTION('',(0.,0.,-1.));
#599=DIRECTION('center_axis',(0.,-1.,0.));
#600=DIRECTION('ref_axis',(0.,0.,1.));
#601=CARTESIAN_POINT('',(0.,0.,0.));
#602=CARTESIAN_POINT('Origin',(0.,0.,-11.4));
#603=CARTESIAN_POINT('',(-12.6111062163476,-1.54441508615573E-15,-11.4));
#604=CARTESIAN_POINT('Origin',(0.,0.,-11.4));
#605=CARTESIAN_POINT('',(-4.,4.89858719658941E-16,-11.4));
#606=CARTESIAN_POINT('Origin',(0.,0.,-11.4));
#607=CARTESIAN_POINT('Origin',(0.,0.,0.));
#608=CARTESIAN_POINT('',(-4.,4.89858719658941E-16,-30.));
#609=CARTESIAN_POINT('Origin',(0.,0.,-30.));
#610=CARTESIAN_POINT('',(-4.,4.89858719658941E-16,0.));
#611=CARTESIAN_POINT('Origin',(0.,0.,0.));
#612=CARTESIAN_POINT('',(-1.04094977927525E-15,-1.27479581526258E-31,17.));
#613=CARTESIAN_POINT('Origin',(0.,0.,0.));
#614=CARTESIAN_POINT('Origin',(-4.75000007450581,-4.75000007450581,-124.375));
#615=CARTESIAN_POINT('',(-2.00000007450581,-7.50000007450581,-30.));
#616=CARTESIAN_POINT('',(-7.50000007450581,-2.00000007450581,-30.));
#617=CARTESIAN_POINT('',(-4.75000007450581,-4.75000007450581,-30.));
#618=CARTESIAN_POINT('',(-7.50000007450581,-2.00000007450581,-227.443));
#619=CARTESIAN_POINT('',(-7.50000007450581,-2.00000007450581,-124.375));
#620=CARTESIAN_POINT('',(-2.00000007450581,-7.50000007450581,-227.443));
#621=CARTESIAN_POINT('',(-4.75000007450581,-4.75000007450581,-227.443));
#622=CARTESIAN_POINT('',(-2.00000007450581,-7.50000007450581,-124.375));
#623=CARTESIAN_POINT('Origin',(-7.45058059692383E-8,-7.50000007450581,-124.375));
#624=CARTESIAN_POINT('',(-7.45058059692383E-8,-7.50000007450581,-227.443));
#625=CARTESIAN_POINT('',(-7.45058059692383E-8,-7.50000007450581,-227.443));
#626=CARTESIAN_POINT('',(-7.45058059692383E-8,-7.50000007450581,-157.443));
#627=CARTESIAN_POINT('',(-7.45058059692383E-8,-7.50000007450581,-170.909));
#628=CARTESIAN_POINT('',(1.99999992549419,-7.50000007450581,-157.443));
#629=CARTESIAN_POINT('',(-7.45058059692383E-8,-7.50000007450581,-157.443));
#630=CARTESIAN_POINT('',(1.99999992549419,-7.50000007450581,-30.));
#631=CARTESIAN_POINT('',(1.99999992549419,-7.50000007450581,-124.375));
#632=CARTESIAN_POINT('',(-7.45058059692383E-8,-7.50000007450581,-30.));
#633=CARTESIAN_POINT('Origin',(-7.45058059692383E-8,-7.45058059692383E-8,
-227.443));
#634=CARTESIAN_POINT('',(-7.50000007450581,1.99999992549419,-227.443));
#635=CARTESIAN_POINT('',(-7.50000007450581,-7.45058059692383E-8,-227.443));
#636=CARTESIAN_POINT('',(-2.00000007450581,7.49999992549419,-227.443));
#637=CARTESIAN_POINT('',(-4.75000007450581,4.74999992549419,-227.443));
#638=CARTESIAN_POINT('',(-7.45058059692383E-8,7.49999992549419,-227.443));
#639=CARTESIAN_POINT('',(-7.45058059692383E-8,7.49999992549419,-227.443));
#640=CARTESIAN_POINT('',(-7.45058059692383E-8,-2.50000007450581,-227.443));
#641=CARTESIAN_POINT('Origin',(-4.75000007450581,4.74999992549419,-124.375));
#642=CARTESIAN_POINT('',(-7.50000007450581,1.99999992549419,-30.));
#643=CARTESIAN_POINT('',(-2.00000007450581,7.49999992549419,-30.));
#644=CARTESIAN_POINT('',(-4.75000007450581,4.74999992549419,-30.));
#645=CARTESIAN_POINT('',(-2.00000007450581,7.49999992549419,-124.375));
#646=CARTESIAN_POINT('',(-7.50000007450581,1.99999992549419,-124.375));
#647=CARTESIAN_POINT('Origin',(-7.45058059692383E-8,7.49999992549419,-124.375));
#648=CARTESIAN_POINT('',(1.99999992549419,7.49999992549419,-30.));
#649=CARTESIAN_POINT('',(-7.45058059692383E-8,7.49999992549419,-30.));
#650=CARTESIAN_POINT('',(1.99999992549419,7.49999992549419,-157.443));
#651=CARTESIAN_POINT('',(1.99999992549419,7.49999992549419,-124.375));
#652=CARTESIAN_POINT('',(-7.45058059692383E-8,7.49999992549419,-157.443));
#653=CARTESIAN_POINT('',(-7.45058059692383E-8,7.49999992549419,-157.443));
#654=CARTESIAN_POINT('',(-7.45058059692383E-8,7.49999992549419,-170.909));
#655=CARTESIAN_POINT('Origin',(4.74999992549419,4.74999992549419,-124.375));
#656=CARTESIAN_POINT('',(7.49999992549419,1.99999992549419,-30.));
#657=CARTESIAN_POINT('',(4.74999992549419,4.74999992549419,-30.));
#658=CARTESIAN_POINT('',(7.49999992549419,1.99999992549419,-157.443));
#659=CARTESIAN_POINT('',(7.49999992549419,1.99999992549419,-124.375));
#660=CARTESIAN_POINT('',(5.99999992549419,3.49999992549419,-157.443));
#661=CARTESIAN_POINT('Origin',(-7.45058059692383E-8,-5.00000007450581,-157.443));
#662=CARTESIAN_POINT('',(7.49999992549419,-2.00000007450581,-157.443));
#663=CARTESIAN_POINT('',(7.49999992549419,-2.50000007450581,-157.443));
#664=CARTESIAN_POINT('',(3.49999992549419,-6.00000007450581,-157.443));
#665=CARTESIAN_POINT('',(-7.45058059692383E-8,-5.00000007450581,-157.443));
#666=CARTESIAN_POINT('Origin',(7.49999992549419,-7.45058059692383E-8,-124.375));
#667=CARTESIAN_POINT('',(7.49999992549419,-2.00000007450581,-30.));
#668=CARTESIAN_POINT('',(7.49999992549419,-7.45058059692383E-8,-30.));
#669=CARTESIAN_POINT('',(7.49999992549419,-2.00000007450581,-124.375));
#670=CARTESIAN_POINT('Origin',(4.74999992549419,-4.75000007450581,-124.375));
#671=CARTESIAN_POINT('',(4.74999992549419,-4.75000007450581,-30.));
#672=CARTESIAN_POINT('Origin',(-5.00000007450581,-0.00587165355682373,-219.561905944824));
#673=CARTESIAN_POINT('',(-7.45058059692383E-8,-1.50587165355682,-219.561905944824));
#674=CARTESIAN_POINT('Origin',(-7.45058059692383E-8,-0.00587165355682373,
-219.561905944824));
#675=CARTESIAN_POINT('',(-7.50000007450581,-1.50587165355682,-219.561905944824));
#676=CARTESIAN_POINT('',(-5.00000007450581,-1.50587165355682,-219.561905944824));
#677=CARTESIAN_POINT('Origin',(-7.50000007450581,-0.00587165355682373,-219.561905944824));
#678=CARTESIAN_POINT('Origin',(-5.00000007450581,-0.00587165355682373,-191.085905944824));
#679=CARTESIAN_POINT('',(-7.45058059692383E-8,-1.50587165355682,-191.085905944824));
#680=CARTESIAN_POINT('Origin',(-7.45058059692383E-8,-0.00587165355682373,
-191.085905944824));
#681=CARTESIAN_POINT('',(-7.50000007450581,-1.50587165355682,-191.085905944824));
#682=CARTESIAN_POINT('',(-5.00000007450581,-1.50587165355682,-191.085905944824));
#683=CARTESIAN_POINT('Origin',(-7.50000007450581,-0.00587165355682373,-191.085905944824));
#684=CARTESIAN_POINT('Origin',(-7.45058059692383E-8,-5.00000007450581,-217.443));
#685=CARTESIAN_POINT('',(-7.45058059692383E-8,-1.50587165355682,-205.323905944824));
#686=CARTESIAN_POINT('Origin',(-7.45058059692383E-8,-0.00587165355682373,
-205.323905944824));
#687=CARTESIAN_POINT('Origin',(-7.45058059692383E-8,-0.00587165355682373,
-205.323905944824));
#688=CARTESIAN_POINT('',(-7.50000007450581,-1.50587165355682,-205.323905944824));
#689=CARTESIAN_POINT('',(-7.45058059692383E-8,-1.50587165355682,-205.323905944824));
#690=CARTESIAN_POINT('Origin',(-7.50000007450581,-0.00587165355682373,-205.323905944824));
#691=CARTESIAN_POINT('Origin',(-7.45058059692383E-8,-7.45058059692383E-8,
-30.));
#692=CARTESIAN_POINT('',(-7.50000007450581,-7.45058059692383E-8,-30.));
#693=CARTESIAN_POINT('Origin',(-7.50000007450581,-7.45058059692383E-8,-124.375));
#694=CARTESIAN_POINT('Origin',(7.45058059692383E-8,8.94069662749075E-8,
1.));
#695=CARTESIAN_POINT('',(5.00000007450581,5.00000008940697,1.));
#696=CARTESIAN_POINT('',(-4.99999992549419,5.00000008940697,1.));
#697=CARTESIAN_POINT('',(7.45058059692383E-8,5.00000008940697,1.));
#698=CARTESIAN_POINT('',(5.00000007450581,-4.99999991059303,1.));
#699=CARTESIAN_POINT('',(5.00000007450581,8.94069662749075E-8,1.));
#700=CARTESIAN_POINT('',(-4.99999992549419,-4.99999991059303,1.));
#701=CARTESIAN_POINT('',(7.45058059692383E-8,-4.99999991059303,1.));
#702=CARTESIAN_POINT('',(-4.99999992549419,8.94069662749075E-8,1.));
#703=CARTESIAN_POINT('Origin',(7.45058059692383E-8,8.94069662749075E-8,
0.));
#704=CARTESIAN_POINT('',(-4.99999992549419,5.00000008940697,0.));
#705=CARTESIAN_POINT('',(5.00000007450581,5.00000008940697,0.));
#706=CARTESIAN_POINT('',(7.45058059692383E-8,5.00000008940697,0.));
#707=CARTESIAN_POINT('',(-4.99999992549419,-4.99999991059303,0.));
#708=CARTESIAN_POINT('',(-4.99999992549419,8.94069662749075E-8,0.));
#709=CARTESIAN_POINT('',(5.00000007450581,-4.99999991059303,0.));
#710=CARTESIAN_POINT('',(7.45058059692383E-8,-4.99999991059303,0.));
#711=CARTESIAN_POINT('',(5.00000007450581,8.94069662749075E-8,0.));
#712=CARTESIAN_POINT('Origin',(5.00000007450581,8.94069662749075E-8,0.5));
#713=CARTESIAN_POINT('',(5.00000007450581,-4.99999991059303,0.5));
#714=CARTESIAN_POINT('',(5.00000007450581,5.00000008940697,0.5));
#715=CARTESIAN_POINT('Origin',(7.45058059692383E-8,-4.99999991059303,0.5));
#716=CARTESIAN_POINT('',(-4.99999992549419,-4.99999991059303,0.5));
#717=CARTESIAN_POINT('Origin',(-4.99999992549419,8.94069662749075E-8,0.5));
#718=CARTESIAN_POINT('',(-4.99999992549419,5.00000008940697,0.5));
#719=CARTESIAN_POINT('Origin',(7.45058059692383E-8,5.00000008940697,0.5));
#720=UNCERTAINTY_MEASURE_WITH_UNIT(LENGTH_MEASURE(0.01),#724,
'DISTANCE_ACCURACY_VALUE',
'Maximum model space distance between geometric entities at asserted c
onnectivities');
#721=UNCERTAINTY_MEASURE_WITH_UNIT(LENGTH_MEASURE(0.01),#724,
'DISTANCE_ACCURACY_VALUE',
'Maximum model space distance between geometric entities at asserted c
onnectivities');
#722=(
GEOMETRIC_REPRESENTATION_CONTEXT(3)
GLOBAL_UNCERTAINTY_ASSIGNED_CONTEXT((#720))
GLOBAL_UNIT_ASSIGNED_CONTEXT((#724,#726,#727))
REPRESENTATION_CONTEXT('','3D')
);
#723=(
GEOMETRIC_REPRESENTATION_CONTEXT(3)
GLOBAL_UNCERTAINTY_ASSIGNED_CONTEXT((#721))
GLOBAL_UNIT_ASSIGNED_CONTEXT((#724,#726,#727))
REPRESENTATION_CONTEXT('','3D')
);
#724=(
LENGTH_UNIT()
NAMED_UNIT(*)
SI_UNIT(.MILLI.,.METRE.)
);
#725=(
LENGTH_UNIT()
NAMED_UNIT(*)
SI_UNIT($,.METRE.)
);
#726=(
NAMED_UNIT(*)
PLANE_ANGLE_UNIT()
SI_UNIT($,.RADIAN.)
);
#727=(
NAMED_UNIT(*)
SI_UNIT($,.STERADIAN.)
SOLID_ANGLE_UNIT()
);
#728=SHAPE_DEFINITION_REPRESENTATION(#729,#730);
#729=PRODUCT_DEFINITION_SHAPE('',$,#732);
#730=SHAPE_REPRESENTATION('',(#450),#722);
#731=PRODUCT_DEFINITION_CONTEXT('part definition',#736,'design');
#732=PRODUCT_DEFINITION('BRAS','BRAS v20',#733,#731);
#733=PRODUCT_DEFINITION_FORMATION('',$,#738);
#734=PRODUCT_RELATED_PRODUCT_CATEGORY('BRAS v20','BRAS v20',(#738));
#735=APPLICATION_PROTOCOL_DEFINITION('international standard',
'automotive_design',2009,#736);
#736=APPLICATION_CONTEXT(
'Core Data for Automotive Mechanical Design Process');
#737=PRODUCT_CONTEXT('part definition',#736,'mechanical');
#738=PRODUCT('BRAS','BRAS v20',$,(#737));
#739=PRESENTATION_STYLE_ASSIGNMENT((#740));
#740=SURFACE_STYLE_USAGE(.BOTH.,#741);
#741=SURFACE_SIDE_STYLE('',(#742));
#742=SURFACE_STYLE_FILL_AREA(#743);
#743=FILL_AREA_STYLE('Acier - Satin\X\E9',(#744));
#744=FILL_AREA_STYLE_COLOUR('Acier - Satin\X\E9',#745);
#745=COLOUR_RGB('Acier - Satin\X\E9',0.627450980392157,0.627450980392157,
0.627450980392157);
ENDSEC;
END-ISO-10303-21;
