ISO-10303-21;
HEADER;
/* Generated by software containing ST-Developer
 * from STEP Tools, Inc. (www.steptools.com) 
 */

FILE_DESCRIPTION(
/* description */ (''),
/* implementation_level */ '2;1');

FILE_NAME(
/* name */ 'BRASPOURGLISSIERE.step',
/* time_stamp */ '2025-12-26T16:06:24+01:00',
/* author */ (''),
/* organization */ (''),
/* preprocessor_version */ 'ST-DEVELOPER v20.1',
/* originating_system */ 'Autodesk Translation Framework v14.21.0.0',
/* authorisation */ '');

FILE_SCHEMA (('AUTOMOTIVE_DESIGN { 1 0 10303 214 3 1 1 }'));
ENDSEC;

DATA;
#10=MECHANICAL_DESIGN_GEOMETRIC_PRESENTATION_REPRESENTATION('',(#13),#183);
#11=SHAPE_REPRESENTATION_RELATIONSHIP('SRR','None',#190,#12);
#12=ADVANCED_BREP_SHAPE_REPRESENTATION('',(#14),#182);
#13=STYLED_ITEM('',(#199),#14);
#14=MANIFOLD_SOLID_BREP('Corps1',#80);
#15=SPHERICAL_SURFACE('',#101,20.);
#16=FACE_BOUND('',#31,.T.);
#17=FACE_BOUND('',#33,.T.);
#18=B_SPLINE_CURVE_WITH_KNOTS('',3,(#139,#140,#141,#142,#143,#144,#145,
#146,#147,#148,#149,#150,#151,#152,#153,#154,#155,#156),.UNSPECIFIED.,.F.,
 .F.,(4,2,2,2,2,2,2,2,4),(0.,0.150683653621639,0.301367307243278,0.452041536967395,
0.602715766691512,0.753389996415629,0.904064226139746,1.05474787976139,
1.20543153338302),.UNSPECIFIED.);
#19=B_SPLINE_CURVE_WITH_KNOTS('',3,(#157,#158,#159,#160,#161,#162,#163,
#164,#165,#166,#167,#168,#169,#170,#171,#172,#173,#174),.UNSPECIFIED.,.F.,
 .F.,(4,2,2,2,2,2,2,2,4),(1.20543153338302,1.35611521583287,1.50679889828271,
1.65747313087057,1.80814736345843,1.95882159604628,2.10949582863414,2.26017951108398,
2.41086319353383),.UNSPECIFIED.);
#20=PLANE('',#97);
#21=PLANE('',#100);
#22=FACE_OUTER_BOUND('',#27,.T.);
#23=FACE_OUTER_BOUND('',#28,.T.);
#24=FACE_OUTER_BOUND('',#29,.T.);
#25=FACE_OUTER_BOUND('',#30,.T.);
#26=FACE_OUTER_BOUND('',#32,.T.);
#27=EDGE_LOOP('',(#57,#58,#59,#60));
#28=EDGE_LOOP('',(#61));
#29=EDGE_LOOP('',(#62,#63,#64,#65,#66));
#30=EDGE_LOOP('',(#67));
#31=EDGE_LOOP('',(#68));
#32=EDGE_LOOP('',(#69,#70));
#33=EDGE_LOOP('',(#71,#72));
#34=LINE('',#130,#36);
#35=LINE('',#137,#37);
#36=VECTOR('',#109,1.5);
#37=VECTOR('',#118,4.);
#38=CIRCLE('',#95,1.4635);
#39=CIRCLE('',#96,1.4635);
#40=CIRCLE('',#99,4.);
#41=CIRCLE('',#102,20.);
#42=VERTEX_POINT('',#127);
#43=VERTEX_POINT('',#129);
#44=VERTEX_POINT('',#134);
#45=VERTEX_POINT('',#136);
#46=VERTEX_POINT('',#138);
#47=VERTEX_POINT('',#177);
#48=VERTEX_POINT('',#178);
#49=EDGE_CURVE('',#42,#42,#38,.F.);
#50=EDGE_CURVE('',#42,#43,#34,.T.);
#51=EDGE_CURVE('',#43,#43,#39,.T.);
#52=EDGE_CURVE('',#44,#44,#40,.T.);
#53=EDGE_CURVE('',#44,#45,#35,.T.);
#54=EDGE_CURVE('',#46,#45,#18,.T.);
#55=EDGE_CURVE('',#45,#46,#19,.T.);
#56=EDGE_CURVE('',#47,#48,#41,.T.);
#57=ORIENTED_EDGE('',*,*,#49,.F.);
#58=ORIENTED_EDGE('',*,*,#50,.T.);
#59=ORIENTED_EDGE('',*,*,#51,.F.);
#60=ORIENTED_EDGE('',*,*,#50,.F.);
#61=ORIENTED_EDGE('',*,*,#49,.T.);
#62=ORIENTED_EDGE('',*,*,#52,.F.);
#63=ORIENTED_EDGE('',*,*,#53,.T.);
#64=ORIENTED_EDGE('',*,*,#54,.F.);
#65=ORIENTED_EDGE('',*,*,#55,.F.);
#66=ORIENTED_EDGE('',*,*,#53,.F.);
#67=ORIENTED_EDGE('',*,*,#52,.T.);
#68=ORIENTED_EDGE('',*,*,#51,.T.);
#69=ORIENTED_EDGE('',*,*,#56,.T.);
#70=ORIENTED_EDGE('',*,*,#56,.F.);
#71=ORIENTED_EDGE('',*,*,#54,.T.);
#72=ORIENTED_EDGE('',*,*,#55,.T.);
#73=CYLINDRICAL_SURFACE('',#94,1.4635);
#74=CYLINDRICAL_SURFACE('',#98,4.);
#75=ADVANCED_FACE('',(#22),#73,.T.);
#76=ADVANCED_FACE('',(#23),#20,.T.);
#77=ADVANCED_FACE('',(#24),#74,.T.);
#78=ADVANCED_FACE('',(#25,#16),#21,.T.);
#79=ADVANCED_FACE('',(#26,#17),#15,.T.);
#80=CLOSED_SHELL('',(#75,#76,#77,#78,#79));
#81=DERIVED_UNIT_ELEMENT(#83,1.);
#82=DERIVED_UNIT_ELEMENT(#185,-3.);
#83=(
MASS_UNIT()
NAMED_UNIT(*)
SI_UNIT(.KILO.,.GRAM.)
);
#84=DERIVED_UNIT((#81,#82));
#85=MEASURE_REPRESENTATION_ITEM('density measure',
POSITIVE_RATIO_MEASURE(7850.),#84);
#86=PROPERTY_DEFINITION_REPRESENTATION(#91,#88);
#87=PROPERTY_DEFINITION_REPRESENTATION(#92,#89);
#88=REPRESENTATION('material name',(#90),#182);
#89=REPRESENTATION('density',(#85),#182);
#90=DESCRIPTIVE_REPRESENTATION_ITEM('Acier','Acier');
#91=PROPERTY_DEFINITION('material property','material name',#192);
#92=PROPERTY_DEFINITION('material property','density of part',#192);
#93=AXIS2_PLACEMENT_3D('',#125,#103,#104);
#94=AXIS2_PLACEMENT_3D('',#126,#105,#106);
#95=AXIS2_PLACEMENT_3D('',#128,#107,#108);
#96=AXIS2_PLACEMENT_3D('',#131,#110,#111);
#97=AXIS2_PLACEMENT_3D('',#132,#112,#113);
#98=AXIS2_PLACEMENT_3D('',#133,#114,#115);
#99=AXIS2_PLACEMENT_3D('',#135,#116,#117);
#100=AXIS2_PLACEMENT_3D('',#175,#119,#120);
#101=AXIS2_PLACEMENT_3D('',#176,#121,#122);
#102=AXIS2_PLACEMENT_3D('',#179,#123,#124);
#103=DIRECTION('axis',(0.,0.,1.));
#104=DIRECTION('refdir',(1.,0.,0.));
#105=DIRECTION('center_axis',(1.,0.,-2.22044604925031E-16));
#106=DIRECTION('ref_axis',(-2.22044604925031E-16,0.,-1.));
#107=DIRECTION('center_axis',(-1.,0.,2.22044604925031E-16));
#108=DIRECTION('ref_axis',(-2.22044604925031E-16,0.,-1.));
#109=DIRECTION('',(-1.,0.,2.22044604925031E-16));
#110=DIRECTION('center_axis',(-1.,0.,2.22044604925031E-16));
#111=DIRECTION('ref_axis',(-2.22044604925031E-16,0.,-1.));
#112=DIRECTION('center_axis',(1.,0.,-2.22044604925031E-16));
#113=DIRECTION('ref_axis',(-2.22044604925031E-16,0.,-1.));
#114=DIRECTION('center_axis',(1.,0.,-2.22044604925031E-16));
#115=DIRECTION('ref_axis',(-2.22044604925031E-16,0.,-1.));
#116=DIRECTION('center_axis',(1.,0.,-2.22044604925031E-16));
#117=DIRECTION('ref_axis',(-2.22044604925031E-16,0.,-1.));
#118=DIRECTION('',(-1.,0.,2.22044604925031E-16));
#119=DIRECTION('center_axis',(1.,0.,-2.22044604925031E-16));
#120=DIRECTION('ref_axis',(-2.22044604925031E-16,0.,-1.));
#121=DIRECTION('center_axis',(6.12323399573677E-17,0.,1.));
#122=DIRECTION('ref_axis',(1.,0.,0.));
#123=DIRECTION('center_axis',(1.22464679914735E-16,-1.,0.));
#124=DIRECTION('ref_axis',(-1.,-1.22464679914735E-16,0.));
#125=CARTESIAN_POINT('',(0.,0.,0.));
#126=CARTESIAN_POINT('Origin',(32.,0.,-4.44089209850063E-16));
#127=CARTESIAN_POINT('',(34.,1.79227059055215E-16,1.4635));
#128=CARTESIAN_POINT('Origin',(34.,0.,-8.88178419700125E-16));
#129=CARTESIAN_POINT('',(30.,1.79227059055215E-16,1.4635));
#130=CARTESIAN_POINT('',(32.,-1.79227059055215E-16,1.4635));
#131=CARTESIAN_POINT('Origin',(30.,0.,3.69778549322349E-31));
#132=CARTESIAN_POINT('Origin',(34.,0.,-8.88178419700125E-16));
#133=CARTESIAN_POINT('Origin',(15.,0.208640097023807,-3.33066907387547E-15));
#134=CARTESIAN_POINT('',(30.,0.208640097023806,3.99999999999999));
#135=CARTESIAN_POINT('Origin',(30.,0.208640097023807,-6.66133814775094E-15));
#136=CARTESIAN_POINT('',(19.5948072026727,0.208640097023806,4.));
#137=CARTESIAN_POINT('',(15.,0.208640097023806,4.));
#138=CARTESIAN_POINT('',(19.5948072026727,0.208640097023807,-4.));
#139=CARTESIAN_POINT('Ctrl Pts',(19.5948072026727,0.208640097023807,-4.));
#140=CARTESIAN_POINT('Ctrl Pts',(19.6001550259973,-0.29361027811546,-4.));
#141=CARTESIAN_POINT('Ctrl Pts',(19.6058569157655,-0.829340011291456,-3.89962503159434));
#142=CARTESIAN_POINT('Ctrl Pts',(19.6163418323604,-1.81486873455788,-3.49140233074771));
#143=CARTESIAN_POINT('Ctrl Pts',(19.6211249906584,-2.26466764096003,-3.18355439964382));
#144=CARTESIAN_POINT('Ctrl Pts',(19.6286762522813,-2.97494702599753,-2.47325923813143));
#145=CARTESIAN_POINT('Ctrl Pts',(19.6319477938834,-3.28277924377211,-2.02347585958807));
#146=CARTESIAN_POINT('Ctrl Pts',(19.6362855608032,-3.6909857716679,-1.03796999348691));
#147=CARTESIAN_POINT('Ctrl Pts',(19.6373519112457,-3.79135990297619,-0.502247432413728));
#148=CARTESIAN_POINT('Ctrl Pts',(19.6373519112457,-3.79135990297619,0.502247432413719));
#149=CARTESIAN_POINT('Ctrl Pts',(19.6362855608032,-3.6909857716679,1.0379699934869));
#150=CARTESIAN_POINT('Ctrl Pts',(19.6319477938834,-3.28277924377211,2.02347585958807));
#151=CARTESIAN_POINT('Ctrl Pts',(19.6286762522813,-2.97494702599753,2.47325923813142));
#152=CARTESIAN_POINT('Ctrl Pts',(19.6211249906584,-2.26466764096003,3.18355439964381));
#153=CARTESIAN_POINT('Ctrl Pts',(19.6163418323604,-1.81486873455788,3.4914023307477));
#154=CARTESIAN_POINT('Ctrl Pts',(19.6058569157656,-0.829340011291458,3.89962503159433));
#155=CARTESIAN_POINT('Ctrl Pts',(19.6001550259973,-0.293610278115461,4.));
#156=CARTESIAN_POINT('Ctrl Pts',(19.5948072026727,0.208640097023806,4.));
#157=CARTESIAN_POINT('Ctrl Pts',(19.5948072026727,0.208640097023806,4.));
#158=CARTESIAN_POINT('Ctrl Pts',(19.589459378325,0.710890568251638,4.));
#159=CARTESIAN_POINT('Ctrl Pts',(19.5837526591607,1.24662035220629,3.89962501279688));
#160=CARTESIAN_POINT('Ctrl Pts',(19.5732502852325,2.23214908682943,3.4914022231712));
#161=CARTESIAN_POINT('Ctrl Pts',(19.5684547488943,2.68194798296499,3.18355428604886));
#162=CARTESIAN_POINT('Ctrl Pts',(19.5608802402377,3.39222728457612,2.47325913923548));
#163=CARTESIAN_POINT('Ctrl Pts',(19.557596321376,3.70005947135141,2.02347580721081));
#164=CARTESIAN_POINT('Ctrl Pts',(19.5532410982217,4.10826595495111,1.03796999089861));
#165=CARTESIAN_POINT('Ctrl Pts',(19.5521699188025,4.20864009702381,0.502247441959523));
#166=CARTESIAN_POINT('Ctrl Pts',(19.5521699188025,4.20864009702381,-0.50224744195953));
#167=CARTESIAN_POINT('Ctrl Pts',(19.5532410982217,4.10826595495112,-1.03796999089862));
#168=CARTESIAN_POINT('Ctrl Pts',(19.557596321376,3.70005947135141,-2.02347580721081));
#169=CARTESIAN_POINT('Ctrl Pts',(19.5608802402377,3.39222728457612,-2.47325913923548));
#170=CARTESIAN_POINT('Ctrl Pts',(19.5684547488943,2.68194798296499,-3.18355428604886));
#171=CARTESIAN_POINT('Ctrl Pts',(19.5732502852325,2.23214908682944,-3.49140222317121));
#172=CARTESIAN_POINT('Ctrl Pts',(19.5837526591607,1.24662035220629,-3.89962501279689));
#173=CARTESIAN_POINT('Ctrl Pts',(19.589459378325,0.710890568251639,-4.));
#174=CARTESIAN_POINT('Ctrl Pts',(19.5948072026727,0.208640097023807,-4.));
#175=CARTESIAN_POINT('Origin',(30.,0.208640097023807,-6.66133814775094E-15));
#176=CARTESIAN_POINT('Origin',(0.,0.,0.));
#177=CARTESIAN_POINT('',(-1.22464679914735E-15,-1.49975978266186E-31,20.));
#178=CARTESIAN_POINT('',(-1.22464679914735E-15,-1.49975978266186E-31,-20.));
#179=CARTESIAN_POINT('Origin',(0.,0.,0.));
#180=UNCERTAINTY_MEASURE_WITH_UNIT(LENGTH_MEASURE(0.01),#184,
'DISTANCE_ACCURACY_VALUE',
'Maximum model space distance between geometric entities at asserted c
onnectivities');
#181=UNCERTAINTY_MEASURE_WITH_UNIT(LENGTH_MEASURE(0.01),#184,
'DISTANCE_ACCURACY_VALUE',
'Maximum model space distance between geometric entities at asserted c
onnectivities');
#182=(
GEOMETRIC_REPRESENTATION_CONTEXT(3)
GLOBAL_UNCERTAINTY_ASSIGNED_CONTEXT((#180))
GLOBAL_UNIT_ASSIGNED_CONTEXT((#184,#186,#187))
REPRESENTATION_CONTEXT('','3D')
);
#183=(
GEOMETRIC_REPRESENTATION_CONTEXT(3)
GLOBAL_UNCERTAINTY_ASSIGNED_CONTEXT((#181))
GLOBAL_UNIT_ASSIGNED_CONTEXT((#184,#186,#187))
REPRESENTATION_CONTEXT('','3D')
);
#184=(
LENGTH_UNIT()
NAMED_UNIT(*)
SI_UNIT(.MILLI.,.METRE.)
);
#185=(
LENGTH_UNIT()
NAMED_UNIT(*)
SI_UNIT($,.METRE.)
);
#186=(
NAMED_UNIT(*)
PLANE_ANGLE_UNIT()
SI_UNIT($,.RADIAN.)
);
#187=(
NAMED_UNIT(*)
SI_UNIT($,.STERADIAN.)
SOLID_ANGLE_UNIT()
);
#188=SHAPE_DEFINITION_REPRESENTATION(#189,#190);
#189=PRODUCT_DEFINITION_SHAPE('',$,#192);
#190=SHAPE_REPRESENTATION('',(#93),#182);
#191=PRODUCT_DEFINITION_CONTEXT('part definition',#196,'design');
#192=PRODUCT_DEFINITION('BRASPOURGLISSIERE','BRASPOURGLISSIERE v3',#193,
#191);
#193=PRODUCT_DEFINITION_FORMATION('',$,#198);
#194=PRODUCT_RELATED_PRODUCT_CATEGORY('BRASPOURGLISSIERE v3',
'BRASPOURGLISSIERE v3',(#198));
#195=APPLICATION_PROTOCOL_DEFINITION('international standard',
'automotive_design',2009,#196);
#196=APPLICATION_CONTEXT(
'Core Data for Automotive Mechanical Design Process');
#197=PRODUCT_CONTEXT('part definition',#196,'mechanical');
#198=PRODUCT('BRASPOURGLISSIERE','BRASPOURGLISSIERE v3',$,(#197));
#199=PRESENTATION_STYLE_ASSIGNMENT((#200));
#200=SURFACE_STYLE_USAGE(.BOTH.,#201);
#201=SURFACE_SIDE_STYLE('',(#202));
#202=SURFACE_STYLE_FILL_AREA(#203);
#203=FILL_AREA_STYLE('Acier - Satin\X\E9',(#204));
#204=FILL_AREA_STYLE_COLOUR('Acier - Satin\X\E9',#205);
#205=COLOUR_RGB('Acier - Satin\X\E9',0.627450980392157,0.627450980392157,
0.627450980392157);
ENDSEC;
END-ISO-10303-21;
