ISO-10303-21;
HEADER;
/* Generated by software containing ST-Developer
 * from STEP Tools, Inc. (www.steptools.com) 
 */

FILE_DESCRIPTION(
/* description */ (''),
/* implementation_level */ '2;1');

FILE_NAME(
/* name */ 'ROBOT2.step',
/* time_stamp */ '2026-01-01T10:52:45+01:00',
/* author */ (''),
/* organization */ (''),
/* preprocessor_version */ 'ST-DEVELOPER v20.1',
/* originating_system */ 'Autodesk Translation Framework v14.21.0.0',
/* authorisation */ '');

FILE_SCHEMA (('AUTOMOTIVE_DESIGN { 1 0 10303 214 3 1 1 }'));
ENDSEC;

DATA;
#10=MECHANICAL_DESIGN_GEOMETRIC_PRESENTATION_REPRESENTATION('',(#13),#901);
#11=SHAPE_REPRESENTATION_RELATIONSHIP('SRR','None',#908,#12);
#12=ADVANCED_BREP_SHAPE_REPRESENTATION('',(#14),#900);
#13=STYLED_ITEM('',(#917),#14);
#14=MANIFOLD_SOLID_BREP('Corps3',#392);
#15=CONICAL_SURFACE('',#428,1.25875,1.02974425867665);
#16=FACE_BOUND('',#79,.T.);
#17=FACE_BOUND('',#80,.T.);
#18=FACE_BOUND('',#81,.T.);
#19=FACE_BOUND('',#84,.T.);
#20=FACE_BOUND('',#85,.T.);
#21=FACE_BOUND('',#86,.T.);
#22=FACE_BOUND('',#87,.T.);
#23=FACE_BOUND('',#95,.T.);
#24=FACE_BOUND('',#98,.T.);
#25=FACE_BOUND('',#102,.T.);
#26=FACE_BOUND('',#104,.T.);
#27=FACE_BOUND('',#106,.T.);
#28=FACE_BOUND('',#108,.T.);
#29=B_SPLINE_CURVE_WITH_KNOTS('',3,(#566,#567,#568,#569,#570,#571,#572,
#573,#574,#575,#576,#577,#578,#579,#580,#581,#582,#583,#584,#585,#586,#587,
#588,#589,#590,#591),.UNSPECIFIED.,.F.,.F.,(4,2,2,2,2,2,2,2,2,2,2,2,4),
(0.,0.0476943856188499,0.0953887712376998,0.146235040475507,0.197081309713314,
0.2463269879361,0.295572666158887,0.343076896562654,0.390581126966422,0.438085357370189,
0.485589587773957,0.534835265996744,0.58408094421953),.UNSPECIFIED.);
#30=B_SPLINE_CURVE_WITH_KNOTS('',3,(#592,#593,#594,#595,#596,#597,#598,
#599,#600,#601),.UNSPECIFIED.,.F.,.F.,(4,2,2,2,4),(0.58408094421953,0.634927213457337,
0.685773482695144,0.733467868313994,0.781162253932844),.UNSPECIFIED.);
#31=B_SPLINE_CURVE_WITH_KNOTS('',3,(#612,#613,#614,#615,#616,#617,#618,
#619,#620,#621,#622,#623,#624,#625,#626,#627,#628,#629,#630,#631,#632,#633,
#634,#635,#636,#637,#638,#639,#640,#641,#642,#643,#644,#645,#646,#647,#648,
#649,#650,#651,#652,#653,#654,#655,#656,#657,#658,#659,#660,#661,#662,#663,
#664),.UNSPECIFIED.,.F.,.F.,(4,2,2,2,2,2,2,2,2,2,2,2,2,2,2,2,2,2,2,2,2,
3,2,2,2,4),(-0.494400408854428,-0.489165583852859,-0.48351575862561,-0.468893677673359,
-0.43196789764082,-0.323286488199898,-0.217147411424297,-0.125705308233577,
-0.0667247983845791,-0.0406736191389423,-0.0276189548860195,-0.0178711590907956,
-0.00747480244996579,0.00884716916872796,0.0573344901748931,0.160195514749355,
0.273002772754463,0.360291720078301,0.41150744174058,0.429425379391051,
0.444577722201494,0.455064911568751,0.568814191156352,0.682563470743953,
0.796346646940728,0.910129823137503),.UNSPECIFIED.);
#32=B_SPLINE_CURVE_WITH_KNOTS('',3,(#665,#666,#667,#668,#669,#670,#671,
#672,#673,#674),.UNSPECIFIED.,.F.,.F.,(4,2,2,2,4),(0.910129823137503,1.02391299933428,
1.13769617553105,1.25144545511865,1.36519473470625),.UNSPECIFIED.);
#33=B_SPLINE_CURVE_WITH_KNOTS('',3,(#699,#700,#701,#702,#703,#704,#705,
#706,#707,#708,#709,#710,#711,#712,#713,#714,#715,#716,#717,#718,#719,#720,
#721,#722,#723,#724,#725,#726,#727,#728),.UNSPECIFIED.,.F.,.F.,(4,2,2,2,
2,2,2,2,2,2,2,2,2,2,4),(0.126135131498296,0.169785040520543,0.226379394966214,
0.282973753438197,0.33956811191018,0.396163455389083,0.452758798867985,
0.509354142346887,0.56594948582579,0.622543844297773,0.679138202769756,
0.735732557215428,0.7923269116611,0.848922254698534,0.905517597735968),
 .UNSPECIFIED.);
#34=B_SPLINE_CURVE_WITH_KNOTS('',3,(#729,#730,#731,#732,#733,#734,#735,
#736),.UNSPECIFIED.,.F.,.F.,(4,2,2,4),(0.,0.0565953430374359,0.113190686074872,
0.126135131498296),.UNSPECIFIED.);
#35=B_SPLINE_CURVE_WITH_KNOTS('',3,(#738,#739,#740,#741,#742,#743,#744,
#745,#746,#747,#748,#749,#750,#751,#752,#753,#754,#755,#756,#757,#758,#759,
#760,#761,#762,#763,#764,#765,#766,#767,#768,#769,#770,#771),
 .UNSPECIFIED.,.T.,.F.,(4,2,2,2,2,2,2,2,2,2,2,2,2,2,2,2,4),(0.,0.0565953432581702,
0.11319068651634,0.169785042975156,0.226379399433972,0.282973755892788,
0.339568112351603,0.396163455609773,0.452758798867944,0.509354142126114,
0.565949485384284,0.6225438418431,0.679138198301916,0.735732554760731,0.792326911219547,
0.848922254477717,0.905517597735887),.UNSPECIFIED.);
#36=B_SPLINE_CURVE_WITH_KNOTS('',3,(#794,#795,#796,#797,#798,#799,#800,
#801,#802,#803,#804,#805,#806,#807,#808,#809,#810,#811,#812),
 .UNSPECIFIED.,.F.,.F.,(4,2,2,2,3,2,2,2,4),(4.99182871003106,5.4077932074226,
5.82375770481415,6.23976465909444,6.65577161337474,7.07177856765504,7.48778552193533,
7.90375001932688,8.31971451671843),.UNSPECIFIED.);
#37=B_SPLINE_CURVE_WITH_KNOTS('',3,(#814,#815,#816,#817,#818,#819,#820,
#821,#822,#823),.UNSPECIFIED.,.F.,.F.,(4,2,2,2,4),(1.66394290334369,2.07990740073523,
2.49587189812678,2.91187885240707,3.32788580668737),.UNSPECIFIED.);
#38=B_SPLINE_CURVE_WITH_KNOTS('',3,(#827,#828,#829,#830,#831,#832,#833,
#834,#835,#836),.UNSPECIFIED.,.F.,.F.,(4,2,2,2,4),(3.32788580668737,3.74389276096767,
4.15989971524796,4.57586421263951,4.99182871003106),.UNSPECIFIED.);
#39=B_SPLINE_CURVE_WITH_KNOTS('',3,(#841,#842,#843,#844,#845,#846,#847,
#848,#849,#850),.UNSPECIFIED.,.F.,.F.,(4,2,2,2,4),(6.65577161337474,7.07177856765504,
7.48778552193533,7.90375001932688,8.31971451671843),.UNSPECIFIED.);
#40=B_SPLINE_CURVE_WITH_KNOTS('',3,(#851,#852,#853,#854,#855,#856,#857,
#858,#859,#860,#861,#862,#863,#864,#865,#866,#867,#868,#869,#870,#871,#872,
#873,#874,#875,#876),.UNSPECIFIED.,.F.,.F.,(4,2,2,2,2,2,2,2,2,2,2,2,4),
(1.66394290334368,2.07990740073523,2.49587189812678,2.91187885240707,3.32788580668737,
3.74389276096767,4.15989971524796,4.57586421263951,4.99182871003105,5.4077932074226,
5.82375770481415,6.23976465909444,6.65577161337474),.UNSPECIFIED.);
#41=CYLINDRICAL_SURFACE('',#408,1.2645);
#42=CYLINDRICAL_SURFACE('',#412,3.);
#43=CYLINDRICAL_SURFACE('',#420,10.);
#44=CYLINDRICAL_SURFACE('',#423,1.5);
#45=CYLINDRICAL_SURFACE('',#424,1.5);
#46=CYLINDRICAL_SURFACE('',#425,4.);
#47=CYLINDRICAL_SURFACE('',#430,2.5175);
#48=CYLINDRICAL_SURFACE('',#432,11.);
#49=CYLINDRICAL_SURFACE('',#435,11.);
#50=CYLINDRICAL_SURFACE('',#438,10.);
#51=CYLINDRICAL_SURFACE('',#447,47.5);
#52=FACE_OUTER_BOUND('',#74,.T.);
#53=FACE_OUTER_BOUND('',#75,.T.);
#54=FACE_OUTER_BOUND('',#76,.T.);
#55=FACE_OUTER_BOUND('',#77,.T.);
#56=FACE_OUTER_BOUND('',#78,.T.);
#57=FACE_OUTER_BOUND('',#82,.T.);
#58=FACE_OUTER_BOUND('',#83,.T.);
#59=FACE_OUTER_BOUND('',#88,.T.);
#60=FACE_OUTER_BOUND('',#89,.T.);
#61=FACE_OUTER_BOUND('',#90,.T.);
#62=FACE_OUTER_BOUND('',#91,.T.);
#63=FACE_OUTER_BOUND('',#92,.T.);
#64=FACE_OUTER_BOUND('',#93,.T.);
#65=FACE_OUTER_BOUND('',#94,.T.);
#66=FACE_OUTER_BOUND('',#96,.T.);
#67=FACE_OUTER_BOUND('',#97,.T.);
#68=FACE_OUTER_BOUND('',#99,.T.);
#69=FACE_OUTER_BOUND('',#100,.T.);
#70=FACE_OUTER_BOUND('',#101,.T.);
#71=FACE_OUTER_BOUND('',#103,.T.);
#72=FACE_OUTER_BOUND('',#105,.T.);
#73=FACE_OUTER_BOUND('',#107,.T.);
#74=EDGE_LOOP('',(#256,#257));
#75=EDGE_LOOP('',(#258,#259,#260,#261,#262,#263,#264));
#76=EDGE_LOOP('',(#265,#266,#267));
#77=EDGE_LOOP('',(#268,#269,#270,#271,#272,#273,#274,#275,#276));
#78=EDGE_LOOP('',(#277,#278,#279,#280));
#79=EDGE_LOOP('',(#281));
#80=EDGE_LOOP('',(#282));
#81=EDGE_LOOP('',(#283));
#82=EDGE_LOOP('',(#284,#285,#286));
#83=EDGE_LOOP('',(#287,#288,#289,#290,#291,#292,#293,#294));
#84=EDGE_LOOP('',(#295,#296));
#85=EDGE_LOOP('',(#297,#298));
#86=EDGE_LOOP('',(#299,#300));
#87=EDGE_LOOP('',(#301));
#88=EDGE_LOOP('',(#302,#303,#304,#305));
#89=EDGE_LOOP('',(#306,#307,#308,#309,#310));
#90=EDGE_LOOP('',(#311,#312,#313,#314));
#91=EDGE_LOOP('',(#315,#316,#317));
#92=EDGE_LOOP('',(#318,#319,#320,#321));
#93=EDGE_LOOP('',(#322,#323,#324,#325,#326,#327));
#94=EDGE_LOOP('',(#328));
#95=EDGE_LOOP('',(#329));
#96=EDGE_LOOP('',(#330,#331,#332,#333,#334));
#97=EDGE_LOOP('',(#335));
#98=EDGE_LOOP('',(#336));
#99=EDGE_LOOP('',(#337,#338,#339,#340));
#100=EDGE_LOOP('',(#341,#342));
#101=EDGE_LOOP('',(#343));
#102=EDGE_LOOP('',(#344));
#103=EDGE_LOOP('',(#345));
#104=EDGE_LOOP('',(#346));
#105=EDGE_LOOP('',(#347));
#106=EDGE_LOOP('',(#348));
#107=EDGE_LOOP('',(#349,#350,#351,#352,#353,#354,#355,#356,#357));
#108=EDGE_LOOP('',(#358,#359));
#109=CIRCLE('',#407,1.2645);
#110=CIRCLE('',#409,1.2645);
#111=CIRCLE('',#410,1.2645);
#112=CIRCLE('',#413,3.);
#113=CIRCLE('',#415,1.5);
#114=CIRCLE('',#416,1.5);
#115=CIRCLE('',#418,10.);
#116=CIRCLE('',#419,10.);
#117=CIRCLE('',#421,10.);
#118=CIRCLE('',#422,10.);
#119=CIRCLE('',#426,4.);
#120=CIRCLE('',#427,4.);
#121=CIRCLE('',#429,2.5175);
#122=CIRCLE('',#431,2.5175);
#123=CIRCLE('',#433,11.);
#124=CIRCLE('',#436,11.);
#125=CIRCLE('',#439,10.);
#126=CIRCLE('',#440,10.);
#127=CIRCLE('',#444,47.5);
#128=CIRCLE('',#446,47.5);
#129=LINE('',#558,#149);
#130=LINE('',#564,#150);
#131=LINE('',#604,#151);
#132=LINE('',#608,#152);
#133=LINE('',#610,#153);
#134=LINE('',#678,#154);
#135=LINE('',#680,#155);
#136=LINE('',#682,#156);
#137=LINE('',#683,#157);
#138=LINE('',#695,#158);
#139=LINE('',#773,#159);
#140=LINE('',#775,#160);
#141=LINE('',#780,#161);
#142=LINE('',#786,#162);
#143=LINE('',#790,#163);
#144=LINE('',#825,#164);
#145=LINE('',#878,#165);
#146=LINE('',#885,#166);
#147=LINE('',#896,#167);
#148=LINE('',#897,#168);
#149=VECTOR('',#452,10.);
#150=VECTOR('',#459,1.2645);
#151=VECTOR('',#464,10.);
#152=VECTOR('',#469,3.);
#153=VECTOR('',#470,3.);
#154=VECTOR('',#473,10.);
#155=VECTOR('',#474,10.);
#156=VECTOR('',#475,10.);
#157=VECTOR('',#476,10.);
#158=VECTOR('',#491,10.);
#159=VECTOR('',#496,1.5);
#160=VECTOR('',#499,1.5);
#161=VECTOR('',#504,4.);
#162=VECTOR('',#511,1.25875);
#163=VECTOR('',#516,2.5175);
#164=VECTOR('',#519,11.);
#165=VECTOR('',#526,11.);
#166=VECTOR('',#535,10.);
#167=VECTOR('',#552,30.);
#168=VECTOR('',#553,30.);
#169=VERTEX_POINT('',#556);
#170=VERTEX_POINT('',#557);
#171=VERTEX_POINT('',#561);
#172=VERTEX_POINT('',#563);
#173=VERTEX_POINT('',#565);
#174=VERTEX_POINT('',#606);
#175=VERTEX_POINT('',#609);
#176=VERTEX_POINT('',#611);
#177=VERTEX_POINT('',#676);
#178=VERTEX_POINT('',#677);
#179=VERTEX_POINT('',#679);
#180=VERTEX_POINT('',#681);
#181=VERTEX_POINT('',#684);
#182=VERTEX_POINT('',#686);
#183=VERTEX_POINT('',#689);
#184=VERTEX_POINT('',#693);
#185=VERTEX_POINT('',#697);
#186=VERTEX_POINT('',#698);
#187=VERTEX_POINT('',#737);
#188=VERTEX_POINT('',#777);
#189=VERTEX_POINT('',#779);
#190=VERTEX_POINT('',#783);
#191=VERTEX_POINT('',#785);
#192=VERTEX_POINT('',#788);
#193=VERTEX_POINT('',#792);
#194=VERTEX_POINT('',#793);
#195=VERTEX_POINT('',#813);
#196=VERTEX_POINT('',#824);
#197=VERTEX_POINT('',#839);
#198=VERTEX_POINT('',#840);
#199=VERTEX_POINT('',#877);
#200=VERTEX_POINT('',#882);
#201=VERTEX_POINT('',#884);
#202=VERTEX_POINT('',#890);
#203=VERTEX_POINT('',#893);
#204=EDGE_CURVE('',#169,#170,#129,.T.);
#205=EDGE_CURVE('',#169,#170,#109,.T.);
#206=EDGE_CURVE('',#170,#171,#110,.T.);
#207=EDGE_CURVE('',#171,#172,#130,.T.);
#208=EDGE_CURVE('',#173,#172,#29,.T.);
#209=EDGE_CURVE('',#172,#173,#30,.T.);
#210=EDGE_CURVE('',#171,#169,#111,.T.);
#211=EDGE_CURVE('',#169,#170,#131,.T.);
#212=EDGE_CURVE('',#174,#174,#112,.T.);
#213=EDGE_CURVE('',#174,#170,#132,.T.);
#214=EDGE_CURVE('',#169,#175,#133,.T.);
#215=EDGE_CURVE('',#176,#175,#31,.T.);
#216=EDGE_CURVE('',#175,#176,#32,.T.);
#217=EDGE_CURVE('',#177,#178,#134,.T.);
#218=EDGE_CURVE('',#179,#177,#135,.T.);
#219=EDGE_CURVE('',#179,#180,#136,.T.);
#220=EDGE_CURVE('',#178,#180,#137,.T.);
#221=EDGE_CURVE('',#181,#181,#113,.T.);
#222=EDGE_CURVE('',#182,#182,#114,.T.);
#223=EDGE_CURVE('',#180,#183,#115,.T.);
#224=EDGE_CURVE('',#183,#179,#116,.T.);
#225=EDGE_CURVE('',#184,#184,#117,.T.);
#226=EDGE_CURVE('',#184,#183,#138,.T.);
#227=EDGE_CURVE('',#178,#177,#118,.T.);
#228=EDGE_CURVE('',#185,#186,#33,.F.);
#229=EDGE_CURVE('',#186,#185,#34,.F.);
#230=EDGE_CURVE('',#187,#187,#35,.T.);
#231=EDGE_CURVE('',#181,#187,#139,.T.);
#232=EDGE_CURVE('',#182,#186,#140,.T.);
#233=EDGE_CURVE('',#188,#188,#119,.T.);
#234=EDGE_CURVE('',#188,#189,#141,.T.);
#235=EDGE_CURVE('',#189,#189,#120,.F.);
#236=EDGE_CURVE('',#190,#190,#121,.T.);
#237=EDGE_CURVE('',#190,#191,#142,.T.);
#238=EDGE_CURVE('',#192,#192,#122,.T.);
#239=EDGE_CURVE('',#192,#190,#143,.T.);
#240=EDGE_CURVE('',#193,#194,#36,.F.);
#241=EDGE_CURVE('',#195,#193,#37,.F.);
#242=EDGE_CURVE('',#195,#196,#144,.T.);
#243=EDGE_CURVE('',#196,#196,#123,.T.);
#244=EDGE_CURVE('',#194,#195,#38,.F.);
#245=EDGE_CURVE('',#197,#198,#39,.F.);
#246=EDGE_CURVE('',#198,#197,#40,.F.);
#247=EDGE_CURVE('',#198,#199,#145,.T.);
#248=EDGE_CURVE('',#199,#199,#124,.F.);
#249=EDGE_CURVE('',#200,#200,#125,.T.);
#250=EDGE_CURVE('',#200,#201,#146,.T.);
#251=EDGE_CURVE('',#201,#201,#126,.T.);
#252=EDGE_CURVE('',#202,#202,#127,.F.);
#253=EDGE_CURVE('',#203,#203,#128,.T.);
#254=EDGE_CURVE('',#202,#194,#147,.T.);
#255=EDGE_CURVE('',#193,#203,#148,.T.);
#256=ORIENTED_EDGE('',*,*,#204,.T.);
#257=ORIENTED_EDGE('',*,*,#205,.F.);
#258=ORIENTED_EDGE('',*,*,#205,.T.);
#259=ORIENTED_EDGE('',*,*,#206,.T.);
#260=ORIENTED_EDGE('',*,*,#207,.T.);
#261=ORIENTED_EDGE('',*,*,#208,.F.);
#262=ORIENTED_EDGE('',*,*,#209,.F.);
#263=ORIENTED_EDGE('',*,*,#207,.F.);
#264=ORIENTED_EDGE('',*,*,#210,.T.);
#265=ORIENTED_EDGE('',*,*,#211,.F.);
#266=ORIENTED_EDGE('',*,*,#210,.F.);
#267=ORIENTED_EDGE('',*,*,#206,.F.);
#268=ORIENTED_EDGE('',*,*,#212,.F.);
#269=ORIENTED_EDGE('',*,*,#213,.T.);
#270=ORIENTED_EDGE('',*,*,#204,.F.);
#271=ORIENTED_EDGE('',*,*,#214,.T.);
#272=ORIENTED_EDGE('',*,*,#215,.F.);
#273=ORIENTED_EDGE('',*,*,#216,.F.);
#274=ORIENTED_EDGE('',*,*,#214,.F.);
#275=ORIENTED_EDGE('',*,*,#211,.T.);
#276=ORIENTED_EDGE('',*,*,#213,.F.);
#277=ORIENTED_EDGE('',*,*,#217,.F.);
#278=ORIENTED_EDGE('',*,*,#218,.F.);
#279=ORIENTED_EDGE('',*,*,#219,.T.);
#280=ORIENTED_EDGE('',*,*,#220,.F.);
#281=ORIENTED_EDGE('',*,*,#212,.T.);
#282=ORIENTED_EDGE('',*,*,#221,.F.);
#283=ORIENTED_EDGE('',*,*,#222,.F.);
#284=ORIENTED_EDGE('',*,*,#223,.F.);
#285=ORIENTED_EDGE('',*,*,#219,.F.);
#286=ORIENTED_EDGE('',*,*,#224,.F.);
#287=ORIENTED_EDGE('',*,*,#225,.F.);
#288=ORIENTED_EDGE('',*,*,#226,.T.);
#289=ORIENTED_EDGE('',*,*,#224,.T.);
#290=ORIENTED_EDGE('',*,*,#218,.T.);
#291=ORIENTED_EDGE('',*,*,#227,.F.);
#292=ORIENTED_EDGE('',*,*,#220,.T.);
#293=ORIENTED_EDGE('',*,*,#223,.T.);
#294=ORIENTED_EDGE('',*,*,#226,.F.);
#295=ORIENTED_EDGE('',*,*,#208,.T.);
#296=ORIENTED_EDGE('',*,*,#209,.T.);
#297=ORIENTED_EDGE('',*,*,#215,.T.);
#298=ORIENTED_EDGE('',*,*,#216,.T.);
#299=ORIENTED_EDGE('',*,*,#228,.T.);
#300=ORIENTED_EDGE('',*,*,#229,.T.);
#301=ORIENTED_EDGE('',*,*,#230,.T.);
#302=ORIENTED_EDGE('',*,*,#221,.T.);
#303=ORIENTED_EDGE('',*,*,#231,.T.);
#304=ORIENTED_EDGE('',*,*,#230,.F.);
#305=ORIENTED_EDGE('',*,*,#231,.F.);
#306=ORIENTED_EDGE('',*,*,#222,.T.);
#307=ORIENTED_EDGE('',*,*,#232,.T.);
#308=ORIENTED_EDGE('',*,*,#228,.F.);
#309=ORIENTED_EDGE('',*,*,#229,.F.);
#310=ORIENTED_EDGE('',*,*,#232,.F.);
#311=ORIENTED_EDGE('',*,*,#233,.F.);
#312=ORIENTED_EDGE('',*,*,#234,.T.);
#313=ORIENTED_EDGE('',*,*,#235,.F.);
#314=ORIENTED_EDGE('',*,*,#234,.F.);
#315=ORIENTED_EDGE('',*,*,#236,.F.);
#316=ORIENTED_EDGE('',*,*,#237,.T.);
#317=ORIENTED_EDGE('',*,*,#237,.F.);
#318=ORIENTED_EDGE('',*,*,#238,.F.);
#319=ORIENTED_EDGE('',*,*,#239,.T.);
#320=ORIENTED_EDGE('',*,*,#236,.T.);
#321=ORIENTED_EDGE('',*,*,#239,.F.);
#322=ORIENTED_EDGE('',*,*,#240,.F.);
#323=ORIENTED_EDGE('',*,*,#241,.F.);
#324=ORIENTED_EDGE('',*,*,#242,.T.);
#325=ORIENTED_EDGE('',*,*,#243,.T.);
#326=ORIENTED_EDGE('',*,*,#242,.F.);
#327=ORIENTED_EDGE('',*,*,#244,.F.);
#328=ORIENTED_EDGE('',*,*,#243,.F.);
#329=ORIENTED_EDGE('',*,*,#233,.T.);
#330=ORIENTED_EDGE('',*,*,#245,.F.);
#331=ORIENTED_EDGE('',*,*,#246,.F.);
#332=ORIENTED_EDGE('',*,*,#247,.T.);
#333=ORIENTED_EDGE('',*,*,#248,.T.);
#334=ORIENTED_EDGE('',*,*,#247,.F.);
#335=ORIENTED_EDGE('',*,*,#248,.F.);
#336=ORIENTED_EDGE('',*,*,#235,.T.);
#337=ORIENTED_EDGE('',*,*,#249,.F.);
#338=ORIENTED_EDGE('',*,*,#250,.T.);
#339=ORIENTED_EDGE('',*,*,#251,.F.);
#340=ORIENTED_EDGE('',*,*,#250,.F.);
#341=ORIENTED_EDGE('',*,*,#217,.T.);
#342=ORIENTED_EDGE('',*,*,#227,.T.);
#343=ORIENTED_EDGE('',*,*,#249,.T.);
#344=ORIENTED_EDGE('',*,*,#238,.T.);
#345=ORIENTED_EDGE('',*,*,#252,.T.);
#346=ORIENTED_EDGE('',*,*,#251,.T.);
#347=ORIENTED_EDGE('',*,*,#253,.T.);
#348=ORIENTED_EDGE('',*,*,#225,.T.);
#349=ORIENTED_EDGE('',*,*,#252,.F.);
#350=ORIENTED_EDGE('',*,*,#254,.T.);
#351=ORIENTED_EDGE('',*,*,#244,.T.);
#352=ORIENTED_EDGE('',*,*,#241,.T.);
#353=ORIENTED_EDGE('',*,*,#255,.T.);
#354=ORIENTED_EDGE('',*,*,#253,.F.);
#355=ORIENTED_EDGE('',*,*,#255,.F.);
#356=ORIENTED_EDGE('',*,*,#240,.T.);
#357=ORIENTED_EDGE('',*,*,#254,.F.);
#358=ORIENTED_EDGE('',*,*,#245,.T.);
#359=ORIENTED_EDGE('',*,*,#246,.T.);
#360=PLANE('',#406);
#361=PLANE('',#411);
#362=PLANE('',#414);
#363=PLANE('',#417);
#364=PLANE('',#434);
#365=PLANE('',#437);
#366=PLANE('',#441);
#367=PLANE('',#442);
#368=PLANE('',#443);
#369=PLANE('',#445);
#370=ADVANCED_FACE('',(#52),#360,.F.);
#371=ADVANCED_FACE('',(#53),#41,.F.);
#372=ADVANCED_FACE('',(#54),#361,.F.);
#373=ADVANCED_FACE('',(#55),#42,.F.);
#374=ADVANCED_FACE('',(#56,#16,#17,#18),#362,.F.);
#375=ADVANCED_FACE('',(#57),#363,.T.);
#376=ADVANCED_FACE('',(#58,#19,#20,#21,#22),#43,.T.);
#377=ADVANCED_FACE('',(#59),#44,.F.);
#378=ADVANCED_FACE('',(#60),#45,.F.);
#379=ADVANCED_FACE('',(#61),#46,.F.);
#380=ADVANCED_FACE('',(#62),#15,.F.);
#381=ADVANCED_FACE('',(#63),#47,.F.);
#382=ADVANCED_FACE('',(#64),#48,.F.);
#383=ADVANCED_FACE('',(#65,#23),#364,.F.);
#384=ADVANCED_FACE('',(#66),#49,.F.);
#385=ADVANCED_FACE('',(#67,#24),#365,.T.);
#386=ADVANCED_FACE('',(#68),#50,.T.);
#387=ADVANCED_FACE('',(#69),#366,.F.);
#388=ADVANCED_FACE('',(#70,#25),#367,.T.);
#389=ADVANCED_FACE('',(#71,#26),#368,.T.);
#390=ADVANCED_FACE('',(#72,#27),#369,.F.);
#391=ADVANCED_FACE('',(#73,#28),#51,.T.);
#392=CLOSED_SHELL('',(#370,#371,#372,#373,#374,#375,#376,#377,#378,#379,
#380,#381,#382,#383,#384,#385,#386,#387,#388,#389,#390,#391));
#393=DERIVED_UNIT_ELEMENT(#395,1.);
#394=DERIVED_UNIT_ELEMENT(#903,-3.);
#395=(
MASS_UNIT()
NAMED_UNIT(*)
SI_UNIT(.KILO.,.GRAM.)
);
#396=DERIVED_UNIT((#393,#394));
#397=MEASURE_REPRESENTATION_ITEM('density measure',
POSITIVE_RATIO_MEASURE(7850.),#396);
#398=PROPERTY_DEFINITION_REPRESENTATION(#403,#400);
#399=PROPERTY_DEFINITION_REPRESENTATION(#404,#401);
#400=REPRESENTATION('material name',(#402),#900);
#401=REPRESENTATION('density',(#397),#900);
#402=DESCRIPTIVE_REPRESENTATION_ITEM('Acier','Acier');
#403=PROPERTY_DEFINITION('material property','material name',#910);
#404=PROPERTY_DEFINITION('material property','density of part',#910);
#405=AXIS2_PLACEMENT_3D('',#554,#448,#449);
#406=AXIS2_PLACEMENT_3D('',#555,#450,#451);
#407=AXIS2_PLACEMENT_3D('',#559,#453,#454);
#408=AXIS2_PLACEMENT_3D('',#560,#455,#456);
#409=AXIS2_PLACEMENT_3D('',#562,#457,#458);
#410=AXIS2_PLACEMENT_3D('',#602,#460,#461);
#411=AXIS2_PLACEMENT_3D('',#603,#462,#463);
#412=AXIS2_PLACEMENT_3D('',#605,#465,#466);
#413=AXIS2_PLACEMENT_3D('',#607,#467,#468);
#414=AXIS2_PLACEMENT_3D('',#675,#471,#472);
#415=AXIS2_PLACEMENT_3D('',#685,#477,#478);
#416=AXIS2_PLACEMENT_3D('',#687,#479,#480);
#417=AXIS2_PLACEMENT_3D('',#688,#481,#482);
#418=AXIS2_PLACEMENT_3D('',#690,#483,#484);
#419=AXIS2_PLACEMENT_3D('',#691,#485,#486);
#420=AXIS2_PLACEMENT_3D('',#692,#487,#488);
#421=AXIS2_PLACEMENT_3D('',#694,#489,#490);
#422=AXIS2_PLACEMENT_3D('',#696,#492,#493);
#423=AXIS2_PLACEMENT_3D('',#772,#494,#495);
#424=AXIS2_PLACEMENT_3D('',#774,#497,#498);
#425=AXIS2_PLACEMENT_3D('',#776,#500,#501);
#426=AXIS2_PLACEMENT_3D('',#778,#502,#503);
#427=AXIS2_PLACEMENT_3D('',#781,#505,#506);
#428=AXIS2_PLACEMENT_3D('',#782,#507,#508);
#429=AXIS2_PLACEMENT_3D('',#784,#509,#510);
#430=AXIS2_PLACEMENT_3D('',#787,#512,#513);
#431=AXIS2_PLACEMENT_3D('',#789,#514,#515);
#432=AXIS2_PLACEMENT_3D('',#791,#517,#518);
#433=AXIS2_PLACEMENT_3D('',#826,#520,#521);
#434=AXIS2_PLACEMENT_3D('',#837,#522,#523);
#435=AXIS2_PLACEMENT_3D('',#838,#524,#525);
#436=AXIS2_PLACEMENT_3D('',#879,#527,#528);
#437=AXIS2_PLACEMENT_3D('',#880,#529,#530);
#438=AXIS2_PLACEMENT_3D('',#881,#531,#532);
#439=AXIS2_PLACEMENT_3D('',#883,#533,#534);
#440=AXIS2_PLACEMENT_3D('',#886,#536,#537);
#441=AXIS2_PLACEMENT_3D('',#887,#538,#539);
#442=AXIS2_PLACEMENT_3D('',#888,#540,#541);
#443=AXIS2_PLACEMENT_3D('',#889,#542,#543);
#444=AXIS2_PLACEMENT_3D('',#891,#544,#545);
#445=AXIS2_PLACEMENT_3D('',#892,#546,#547);
#446=AXIS2_PLACEMENT_3D('',#894,#548,#549);
#447=AXIS2_PLACEMENT_3D('',#895,#550,#551);
#448=DIRECTION('axis',(0.,0.,1.));
#449=DIRECTION('refdir',(1.,0.,0.));
#450=DIRECTION('center_axis',(0.,-1.,0.));
#451=DIRECTION('ref_axis',(0.,0.,1.));
#452=DIRECTION('',(1.,0.,0.));
#453=DIRECTION('center_axis',(0.,-1.,0.));
#454=DIRECTION('ref_axis',(0.,0.,-1.));
#455=DIRECTION('center_axis',(0.,1.,0.));
#456=DIRECTION('ref_axis',(0.,0.,-1.));
#457=DIRECTION('center_axis',(0.,-1.,0.));
#458=DIRECTION('ref_axis',(0.,0.,-1.));
#459=DIRECTION('',(0.,1.,0.));
#460=DIRECTION('center_axis',(0.,-1.,0.));
#461=DIRECTION('ref_axis',(0.,0.,-1.));
#462=DIRECTION('center_axis',(0.,-1.,0.));
#463=DIRECTION('ref_axis',(0.,0.,1.));
#464=DIRECTION('',(1.,0.,0.));
#465=DIRECTION('center_axis',(-1.,0.,0.));
#466=DIRECTION('ref_axis',(0.,-1.,-1.22464679914735E-16));
#467=DIRECTION('center_axis',(-1.,0.,0.));
#468=DIRECTION('ref_axis',(0.,1.,0.));
#469=DIRECTION('',(-1.,0.,0.));
#470=DIRECTION('',(-1.,0.,0.));
#471=DIRECTION('center_axis',(-1.,0.,0.));
#472=DIRECTION('ref_axis',(0.,-1.,0.));
#473=DIRECTION('',(0.,-1.,0.));
#474=DIRECTION('',(0.,0.,-1.));
#475=DIRECTION('',(0.,-1.,0.));
#476=DIRECTION('',(0.,0.,1.));
#477=DIRECTION('center_axis',(1.,0.,0.));
#478=DIRECTION('ref_axis',(-1.22464679914735E-16,1.,0.));
#479=DIRECTION('center_axis',(1.,4.37459010413154E-17,9.38133875270273E-17));
#480=DIRECTION('ref_axis',(-7.87187788734198E-17,0.642787609686539,-0.766044443118978));
#481=DIRECTION('center_axis',(0.,0.,-1.));
#482=DIRECTION('ref_axis',(1.,0.,0.));
#483=DIRECTION('center_axis',(0.,0.,1.));
#484=DIRECTION('ref_axis',(-1.,0.,0.));
#485=DIRECTION('center_axis',(0.,0.,1.));
#486=DIRECTION('ref_axis',(-1.,0.,0.));
#487=DIRECTION('center_axis',(0.,0.,1.));
#488=DIRECTION('ref_axis',(-1.,0.,0.));
#489=DIRECTION('center_axis',(0.,0.,1.));
#490=DIRECTION('ref_axis',(-1.,0.,0.));
#491=DIRECTION('',(0.,0.,-1.));
#492=DIRECTION('center_axis',(0.,0.,-1.));
#493=DIRECTION('ref_axis',(-1.,0.,0.));
#494=DIRECTION('center_axis',(-1.,-1.22464679914735E-16,0.));
#495=DIRECTION('ref_axis',(-1.22464679914735E-16,1.,0.));
#496=DIRECTION('',(-1.,-1.22464679914735E-16,0.));
#497=DIRECTION('center_axis',(-1.,-1.22464679914735E-16,1.23259516440783E-32));
#498=DIRECTION('ref_axis',(-7.87187788734198E-17,0.642787609686539,-0.766044443118978));
#499=DIRECTION('',(-1.,-1.22464679914735E-16,1.23259516440783E-32));
#500=DIRECTION('center_axis',(1.,0.,0.));
#501=DIRECTION('ref_axis',(0.,-1.,0.));
#502=DIRECTION('center_axis',(1.,0.,0.));
#503=DIRECTION('ref_axis',(0.,-1.,0.));
#504=DIRECTION('',(1.,0.,0.));
#505=DIRECTION('center_axis',(1.,0.,0.));
#506=DIRECTION('ref_axis',(0.,-1.,0.));
#507=DIRECTION('center_axis',(0.,0.,1.));
#508=DIRECTION('ref_axis',(1.,0.,0.));
#509=DIRECTION('center_axis',(0.,0.,-1.));
#510=DIRECTION('ref_axis',(1.,0.,0.));
#511=DIRECTION('',(0.857167300702112,-1.04972719113862E-16,-0.515038074910054));
#512=DIRECTION('center_axis',(0.,0.,-1.));
#513=DIRECTION('ref_axis',(1.,0.,0.));
#514=DIRECTION('center_axis',(0.,0.,-1.));
#515=DIRECTION('ref_axis',(1.,0.,0.));
#516=DIRECTION('',(0.,0.,-1.));
#517=DIRECTION('center_axis',(1.,0.,0.));
#518=DIRECTION('ref_axis',(0.,1.,0.));
#519=DIRECTION('',(1.,0.,0.));
#520=DIRECTION('center_axis',(1.,0.,0.));
#521=DIRECTION('ref_axis',(0.,1.,0.));
#522=DIRECTION('center_axis',(1.,0.,0.));
#523=DIRECTION('ref_axis',(0.,1.,0.));
#524=DIRECTION('center_axis',(-1.,0.,0.));
#525=DIRECTION('ref_axis',(0.,1.,0.));
#526=DIRECTION('',(-1.,0.,0.));
#527=DIRECTION('center_axis',(1.,0.,0.));
#528=DIRECTION('ref_axis',(0.,1.,0.));
#529=DIRECTION('center_axis',(1.,0.,0.));
#530=DIRECTION('ref_axis',(0.,1.,0.));
#531=DIRECTION('center_axis',(0.,0.,1.));
#532=DIRECTION('ref_axis',(-1.,0.,0.));
#533=DIRECTION('center_axis',(0.,0.,1.));
#534=DIRECTION('ref_axis',(-1.,0.,0.));
#535=DIRECTION('',(0.,0.,-1.));
#536=DIRECTION('center_axis',(0.,0.,-1.));
#537=DIRECTION('ref_axis',(-1.,0.,0.));
#538=DIRECTION('center_axis',(0.,0.,1.));
#539=DIRECTION('ref_axis',(-1.,0.,0.));
#540=DIRECTION('center_axis',(0.,0.,1.));
#541=DIRECTION('ref_axis',(-1.,0.,0.));
#542=DIRECTION('center_axis',(0.,0.,1.));
#543=DIRECTION('ref_axis',(1.,0.,0.));
#544=DIRECTION('center_axis',(0.,0.,-1.));
#545=DIRECTION('ref_axis',(1.,0.,0.));
#546=DIRECTION('center_axis',(0.,0.,1.));
#547=DIRECTION('ref_axis',(1.,0.,0.));
#548=DIRECTION('center_axis',(0.,0.,-1.));
#549=DIRECTION('ref_axis',(1.,0.,0.));
#550=DIRECTION('center_axis',(0.,0.,1.));
#551=DIRECTION('ref_axis',(1.,0.,0.));
#552=DIRECTION('',(0.,0.,-1.));
#553=DIRECTION('',(0.,0.,-1.));
#554=CARTESIAN_POINT('',(0.,0.,0.));
#555=CARTESIAN_POINT('Origin',(-2.93860554695129,3.,-163.000002279878));
#556=CARTESIAN_POINT('',(-4.20310554695129,3.,-163.000002279878));
#557=CARTESIAN_POINT('',(-1.67410554695129,3.,-163.000002279878));
#558=CARTESIAN_POINT('',(0.,3.,-163.000002279878));
#559=CARTESIAN_POINT('Origin',(-2.93860554695129,3.,-163.000002279878));
#560=CARTESIAN_POINT('Origin',(-2.93860554695129,8.,-163.000002279878));
#561=CARTESIAN_POINT('',(-2.93860554695129,3.,-161.735502279878));
#562=CARTESIAN_POINT('Origin',(-2.93860554695129,3.,-163.000002279878));
#563=CARTESIAN_POINT('',(-2.93860554695129,9.55848300931832,-161.735502279878));
#564=CARTESIAN_POINT('',(-2.93860554695129,8.,-161.735502279878));
#565=CARTESIAN_POINT('',(-4.20310554695129,9.07380315860925,-163.000002279878));
#566=CARTESIAN_POINT('Ctrl Pts',(-4.20310554695129,9.07380315860925,-163.000002279878));
#567=CARTESIAN_POINT('Ctrl Pts',(-4.20310554695129,9.07380315860925,-163.158983565274));
#568=CARTESIAN_POINT('Ctrl Pts',(-4.17125498095148,9.08875247518198,-163.327234105725));
#569=CARTESIAN_POINT('Ctrl Pts',(-4.04506034402907,9.14561514424728,-163.634244528644));
#570=CARTESIAN_POINT('Ctrl Pts',(-3.9508171277503,9.18718472147051,-163.773109425297));
#571=CARTESIAN_POINT('Ctrl Pts',(-3.73069686550546,9.27884898744719,-163.999022057965));
#572=CARTESIAN_POINT('Ctrl Pts',(-3.58720524061019,9.33595585339376,-164.098861303098));
#573=CARTESIAN_POINT('Ctrl Pts',(-3.27220543611661,9.45096739571774,-164.231620671159));
#574=CARTESIAN_POINT('Ctrl Pts',(-3.10060994715023,9.50867729971032,-164.264502279878));
#575=CARTESIAN_POINT('Ctrl Pts',(-2.78170088742634,9.60672088371461,-164.264502279878));
#576=CARTESIAN_POINT('Ctrl Pts',(-2.61251054291434,9.65406525128812,-164.233466212868));
#577=CARTESIAN_POINT('Ctrl Pts',(-2.29877133918638,9.73354187993231,-164.103806358432));
#578=CARTESIAN_POINT('Ctrl Pts',(-2.15431091623915,9.76588807671007,-164.005099832004));
#579=CARTESIAN_POINT('Ctrl Pts',(-1.92980524925475,9.81267193636076,-163.778352109821));
#580=CARTESIAN_POINT('Ctrl Pts',(-1.83355066300225,9.83068211565999,-163.637126128452));
#581=CARTESIAN_POINT('Ctrl Pts',(-1.70569522633166,9.85367051618527,-163.327118910762));
#582=CARTESIAN_POINT('Ctrl Pts',(-1.67410554695129,9.85887268493041,-163.158349714557));
#583=CARTESIAN_POINT('Ctrl Pts',(-1.67410554695129,9.85887268493041,-162.841654845198));
#584=CARTESIAN_POINT('Ctrl Pts',(-1.70569522633166,9.85367051618527,-162.672885648994));
#585=CARTESIAN_POINT('Ctrl Pts',(-1.83355066300225,9.83068211565999,-162.362878431303));
#586=CARTESIAN_POINT('Ctrl Pts',(-1.92980524925475,9.81267193636076,-162.221652449934));
#587=CARTESIAN_POINT('Ctrl Pts',(-2.15431091623915,9.76588807671007,-161.994904727751));
#588=CARTESIAN_POINT('Ctrl Pts',(-2.29877133918638,9.73354187993231,-161.896198201323));
#589=CARTESIAN_POINT('Ctrl Pts',(-2.61251054291434,9.65406525128812,-161.766538346888));
#590=CARTESIAN_POINT('Ctrl Pts',(-2.78170088742634,9.60672088371461,-161.735502279878));
#591=CARTESIAN_POINT('Ctrl Pts',(-2.93860554695129,9.55848300931832,-161.735502279878));
#592=CARTESIAN_POINT('Ctrl Pts',(-2.93860554695129,9.55848300931832,-161.735502279878));
#593=CARTESIAN_POINT('Ctrl Pts',(-3.10060994715023,9.50867729971032,-161.735502279878));
#594=CARTESIAN_POINT('Ctrl Pts',(-3.27220543611659,9.45096739571775,-161.768383888596));
#595=CARTESIAN_POINT('Ctrl Pts',(-3.58720524061017,9.33595585339377,-161.901143256658));
#596=CARTESIAN_POINT('Ctrl Pts',(-3.73069686550546,9.27884898744719,-162.000982501791));
#597=CARTESIAN_POINT('Ctrl Pts',(-3.9508171277503,9.18718472147051,-162.226895134458));
#598=CARTESIAN_POINT('Ctrl Pts',(-4.04506034402907,9.14561514424728,-162.365760031111));
#599=CARTESIAN_POINT('Ctrl Pts',(-4.17125498095148,9.08875247518198,-162.672770454031));
#600=CARTESIAN_POINT('Ctrl Pts',(-4.20310554695129,9.07380315860926,-162.841020994481));
#601=CARTESIAN_POINT('Ctrl Pts',(-4.20310554695129,9.07380315860926,-163.000002279878));
#602=CARTESIAN_POINT('Origin',(-2.93860554695129,3.,-163.000002279878));
#603=CARTESIAN_POINT('Origin',(-2.93860554695129,3.,-163.000002279878));
#604=CARTESIAN_POINT('',(0.,3.,-163.000002279878));
#605=CARTESIAN_POINT('Origin',(0.,0.,-163.000002279878));
#606=CARTESIAN_POINT('',(0.,3.,-163.000002279878));
#607=CARTESIAN_POINT('Origin',(0.,0.,-163.000002279878));
#608=CARTESIAN_POINT('',(0.,3.,-163.000002279878));
#609=CARTESIAN_POINT('',(-9.53939201416946,3.,-163.000002279878));
#610=CARTESIAN_POINT('',(0.,3.,-163.000002279878));
#611=CARTESIAN_POINT('',(-10.,0.,-160.000002279878));
#612=CARTESIAN_POINT('Ctrl Pts',(-10.,-5.89805981759781E-16,-160.000002279878));
#613=CARTESIAN_POINT('Ctrl Pts',(-10.,-0.0174494166718956,-160.000002279878));
#614=CARTESIAN_POINT('Ctrl Pts',(-9.99995432477663,-0.034898306959524,-160.000154520078));
#615=CARTESIAN_POINT('Ctrl Pts',(-9.99976443530515,-0.0711744542158533,
-160.000787572683));
#616=CARTESIAN_POINT('Ctrl Pts',(-9.99961270237214,-0.0900000469892466,
-160.00129345405));
#617=CARTESIAN_POINT('Ctrl Pts',(-9.99887786140009,-0.157524605672948,-160.00374439185));
#618=CARTESIAN_POINT('Ctrl Pts',(-9.99799238706959,-0.206171595685339,-160.006698527034));
#619=CARTESIAN_POINT('Ctrl Pts',(-9.99363142102005,-0.377322167939969,-160.021283029993));
#620=CARTESIAN_POINT('Ctrl Pts',(-9.98826600803409,-0.499048224336551,-160.03925146553));
#621=CARTESIAN_POINT('Ctrl Pts',(-9.95885458613398,-0.97307980976807,-160.139255121637));
#622=CARTESIAN_POINT('Ctrl Pts',(-9.91872428744044,-1.3088101322251,-160.276803159751));
#623=CARTESIAN_POINT('Ctrl Pts',(-9.82102444326316,-1.9071456398171,-160.657858474641));
#624=CARTESIAN_POINT('Ctrl Pts',(-9.76479114399221,-2.16724363170369,-160.896314401366));
#625=CARTESIAN_POINT('Ctrl Pts',(-9.66762327304351,-2.56373850808816,-161.413140637842));
#626=CARTESIAN_POINT('Ctrl Pts',(-9.62622932180034,-2.71065001181242,-161.679267847958));
#627=CARTESIAN_POINT('Ctrl Pts',(-9.57567689076087,-2.88294447553894,-162.147423552913));
#628=CARTESIAN_POINT('Ctrl Pts',(-9.56041189044397,-2.93249994955552,-162.337427222255));
#629=CARTESIAN_POINT('Ctrl Pts',(-9.5466917815884,-2.97672256986051,-162.617058702208));
#630=CARTESIAN_POINT('Ctrl Pts',(-9.54361212902571,-2.9865545585879,-162.703305561191));
#631=CARTESIAN_POINT('Ctrl Pts',(-9.54074969957946,-2.99568111879562,-162.833306976201));
#632=CARTESIAN_POINT('Ctrl Pts',(-9.54008880246687,-2.99778369979663,-162.876769330033));
#633=CARTESIAN_POINT('Ctrl Pts',(-9.5394537624027,-2.99980378265293,-162.952748027581));
#634=CARTESIAN_POINT('Ctrl Pts',(-9.53934810145816,-3.00013963670488,-162.985239857928));
#635=CARTESIAN_POINT('Ctrl Pts',(-9.53947289642689,-2.99974280638012,-163.052385744129));
#636=CARTESIAN_POINT('Ctrl Pts',(-9.5397261742561,-2.99893759348035,-163.087031306024));
#637=CARTESIAN_POINT('Ctrl Pts',(-9.54086081793255,-2.99532639288846,-163.176011923654));
#638=CARTESIAN_POINT('Ctrl Pts',(-9.54201774202967,-2.9916427923449,-163.230286614882));
#639=CARTESIAN_POINT('Ctrl Pts',(-9.54842413994873,-2.97117047804146,-163.445249925129));
#640=CARTESIAN_POINT('Ctrl Pts',(-9.55725058970188,-2.94292066183481,-163.604309380249));
#641=CARTESIAN_POINT('Ctrl Pts',(-9.59590486482947,-2.81545809717347,-164.090903489636));
#642=CARTESIAN_POINT('Ctrl Pts',(-9.6380326083194,-2.67338623126339,-164.402921461749));
#643=CARTESIAN_POINT('Ctrl Pts',(-9.74040034897436,-2.27400678473738,-164.991840711201));
#644=CARTESIAN_POINT('Ctrl Pts',(-9.80093399007109,-2.00958245323769,-165.258357178388));
#645=CARTESIAN_POINT('Ctrl Pts',(-9.89488970454272,-1.46597200021451,-165.633233325409));
#646=CARTESIAN_POINT('Ctrl Pts',(-9.93088170105202,-1.20588968102116,-165.762216387558));
#647=CARTESIAN_POINT('Ctrl Pts',(-9.97173394970451,-0.768691095883248,-165.904831156739));
#648=CARTESIAN_POINT('Ctrl Pts',(-9.98325384218078,-0.60264354255104,-165.943794399396));
#649=CARTESIAN_POINT('Ctrl Pts',(-9.99314737560957,-0.374831032257537,-165.977091860673));
#650=CARTESIAN_POINT('Ctrl Pts',(-9.99519802028279,-0.315527840869233,-165.983960575499));
#651=CARTESIAN_POINT('Ctrl Pts',(-9.99801015251122,-0.205731522803858,-165.993365592132));
#652=CARTESIAN_POINT('Ctrl Pts',(-9.99892114497835,-0.155318575473917,-165.996404605808));
#653=CARTESIAN_POINT('Ctrl Pts',(-9.9998166513755,-0.0699103653341735,-165.999391287548));
#654=CARTESIAN_POINT('Ctrl Pts',(-10.,-0.0349572978908537,-166.000002279878));
#655=CARTESIAN_POINT('Ctrl Pts',(-10.,1.51596464942229E-15,-166.000002279878));
#656=CARTESIAN_POINT('Ctrl Pts',(-10.,0.379164265292004,-166.000002279878));
#657=CARTESIAN_POINT('Ctrl Pts',(-9.97630133387832,0.78203771748188,-165.923750526388));
#658=CARTESIAN_POINT('Ctrl Pts',(-9.8907119499008,1.52052241900623,-165.616851186911));
#659=CARTESIAN_POINT('Ctrl Pts',(-9.82993562614982,1.85631434471708,-165.38632862228));
#660=CARTESIAN_POINT('Ctrl Pts',(-9.71486751729016,2.38640531261462,-164.856237654382));
#661=CARTESIAN_POINT('Ctrl Pts',(-9.65284956103208,2.61686672615764,-164.520477817594));
#662=CARTESIAN_POINT('Ctrl Pts',(-9.56437939057488,2.92372091609922,-163.782109765306));
#663=CARTESIAN_POINT('Ctrl Pts',(-9.53939201416946,3.,-163.379279533867));
#664=CARTESIAN_POINT('Ctrl Pts',(-9.53939201416946,3.,-163.000002279878));
#665=CARTESIAN_POINT('Ctrl Pts',(-9.53939201416946,3.,-163.000002279878));
#666=CARTESIAN_POINT('Ctrl Pts',(-9.53939201416946,3.,-162.620725025888));
#667=CARTESIAN_POINT('Ctrl Pts',(-9.56437939057488,2.92372091609921,-162.217894794449));
#668=CARTESIAN_POINT('Ctrl Pts',(-9.65284956103209,2.61686672615762,-161.479526742161));
#669=CARTESIAN_POINT('Ctrl Pts',(-9.71486751729016,2.38640531261462,-161.143766905373));
#670=CARTESIAN_POINT('Ctrl Pts',(-9.82993562614982,1.85631434471708,-160.613675937475));
#671=CARTESIAN_POINT('Ctrl Pts',(-9.8907119499008,1.52052241900622,-160.383153372845));
#672=CARTESIAN_POINT('Ctrl Pts',(-9.97630133387832,0.782037717481858,-160.076254033367));
#673=CARTESIAN_POINT('Ctrl Pts',(-10.,0.379164265292003,-160.000002279878));
#674=CARTESIAN_POINT('Ctrl Pts',(-10.,2.77555756156289E-16,-160.000002279878));
#675=CARTESIAN_POINT('Origin',(0.,10.,-175.));
#676=CARTESIAN_POINT('',(0.,10.,-175.));
#677=CARTESIAN_POINT('',(0.,-10.,-175.));
#678=CARTESIAN_POINT('',(0.,5.,-175.));
#679=CARTESIAN_POINT('',(0.,10.,-125.));
#680=CARTESIAN_POINT('',(0.,10.,60.));
#681=CARTESIAN_POINT('',(0.,-10.,-125.));
#682=CARTESIAN_POINT('',(0.,11.1749123532813,-125.));
#683=CARTESIAN_POINT('',(0.,-10.,60.));
#684=CARTESIAN_POINT('',(1.29392004449726E-15,-1.5,-172.886352539063));
#685=CARTESIAN_POINT('Origin',(1.11022302462516E-15,-1.22464679914735E-15,
-172.886352539063));
#686=CARTESIAN_POINT('',(1.22830045042701E-15,-0.964175351489693,-151.737209580442));
#687=CARTESIAN_POINT('Origin',(1.11022228211688E-15,6.06304011441239E-6,
-152.886276245121));
#688=CARTESIAN_POINT('Origin',(5.,0.,-125.));
#689=CARTESIAN_POINT('',(10.,1.22464679914735E-15,-125.));
#690=CARTESIAN_POINT('Origin',(0.,0.,-125.));
#691=CARTESIAN_POINT('Origin',(0.,0.,-125.));
#692=CARTESIAN_POINT('Origin',(0.,0.,60.));
#693=CARTESIAN_POINT('',(10.,1.22464679914735E-15,25.));
#694=CARTESIAN_POINT('Origin',(0.,0.,25.));
#695=CARTESIAN_POINT('',(10.,1.22464679914735E-15,60.));
#696=CARTESIAN_POINT('Origin',(0.,0.,-175.));
#697=CARTESIAN_POINT('',(-9.88686088650405,-1.49999393695988,-152.886276245121));
#698=CARTESIAN_POINT('',(-9.95340976206545,-0.964175351489685,-151.737209580442));
#699=CARTESIAN_POINT('Ctrl Pts',(-9.95340976206545,-0.964175351489676,-151.737209580442));
#700=CARTESIAN_POINT('Ctrl Pts',(-9.96446498458156,-0.850049679698037,-151.641446771334));
#701=CARTESIAN_POINT('Ctrl Pts',(-9.97529055231411,-0.71690198438715,-151.559688619217));
#702=CARTESIAN_POINT('Ctrl Pts',(-9.99411825261363,-0.389670824316847,-151.424035782197));
#703=CARTESIAN_POINT('Ctrl Pts',(-10.0000001143761,-0.188641785112088,-151.386276245121));
#704=CARTESIAN_POINT('Ctrl Pts',(-9.99999988562021,0.188653924613357,-151.386276245121));
#705=CARTESIAN_POINT('Ctrl Pts',(-9.99411777931611,0.389682970024727,-151.424035787003));
#706=CARTESIAN_POINT('Ctrl Pts',(-9.97285842491256,0.759169178759472,-151.57720535259));
#707=CARTESIAN_POINT('Ctrl Pts',(-9.9577788856882,0.927649896196171,-151.692599732332));
#708=CARTESIAN_POINT('Ctrl Pts',(-9.92940137322045,1.19368490757232,-151.958634748479));
#709=CARTESIAN_POINT('Ctrl Pts',(-9.91424712773134,1.30907746389204,-152.127114463259));
#710=CARTESIAN_POINT('Ctrl Pts',(-9.89281645891724,1.46224569923062,-152.496597247777));
#711=CARTESIAN_POINT('Ctrl Pts',(-9.88685904677734,1.50000606304011,-152.697625100191));
#712=CARTESIAN_POINT('Ctrl Pts',(-9.88685904677734,1.50000606304011,-153.074927390051));
#713=CARTESIAN_POINT('Ctrl Pts',(-9.89281645891724,1.46224569923062,-153.275955242465));
#714=CARTESIAN_POINT('Ctrl Pts',(-9.91424712773133,1.30907746389204,-153.645438026983));
#715=CARTESIAN_POINT('Ctrl Pts',(-9.92940137322045,1.19368490757232,-153.813917741763));
#716=CARTESIAN_POINT('Ctrl Pts',(-9.9577788856882,0.927649896196171,-154.07995275791));
#717=CARTESIAN_POINT('Ctrl Pts',(-9.97285842491256,0.759169178759471,-154.195347137652));
#718=CARTESIAN_POINT('Ctrl Pts',(-9.99411777931611,0.389682970024726,-154.348516703239));
#719=CARTESIAN_POINT('Ctrl Pts',(-9.99999988562021,0.188653924613357,-154.386276245121));
#720=CARTESIAN_POINT('Ctrl Pts',(-10.0000001143761,-0.188641785112091,-154.386276245121));
#721=CARTESIAN_POINT('Ctrl Pts',(-9.99411825261363,-0.389670824316863,-154.348516708045));
#722=CARTESIAN_POINT('Ctrl Pts',(-9.97285934946474,-0.75915702967193,-154.19534715052));
#723=CARTESIAN_POINT('Ctrl Pts',(-9.95778001703685,-0.927637749472247,-154.079952773783));
#724=CARTESIAN_POINT('Ctrl Pts',(-9.92940283195643,-1.19367277251951,-153.813917755506));
#725=CARTESIAN_POINT('Ctrl Pts',(-9.91424872925754,-1.30906533408639,-153.645438034569));
#726=CARTESIAN_POINT('Ctrl Pts',(-9.89281825106964,-1.46223357379646,-153.275955242307));
#727=CARTESIAN_POINT('Ctrl Pts',(-9.88686088650405,-1.49999393695989,-153.074927388579));
#728=CARTESIAN_POINT('Ctrl Pts',(-9.88686088650405,-1.49999393695989,-152.886276245121));
#729=CARTESIAN_POINT('Ctrl Pts',(-9.88686088650405,-1.49999393695988,-152.886276245121));
#730=CARTESIAN_POINT('Ctrl Pts',(-9.88686088650405,-1.49999393695988,-152.697625101663));
#731=CARTESIAN_POINT('Ctrl Pts',(-9.89281825106964,-1.46223357379646,-152.496597247935));
#732=CARTESIAN_POINT('Ctrl Pts',(-9.91424872925755,-1.30906533408637,-152.127114455672));
#733=CARTESIAN_POINT('Ctrl Pts',(-9.92940283195643,-1.19367277251952,-151.958634734735));
#734=CARTESIAN_POINT('Ctrl Pts',(-9.94683678126,-1.03023016566346,-151.79519213081));
#735=CARTESIAN_POINT('Ctrl Pts',(-9.95013131939033,-0.998019489152504,-151.765608183873));
#736=CARTESIAN_POINT('Ctrl Pts',(-9.95340976206545,-0.964175351489681,-151.737209580442));
#737=CARTESIAN_POINT('',(-9.88685996664259,-1.5,-172.886352539062));
#738=CARTESIAN_POINT('Ctrl Pts',(-9.88685996664259,-1.5,-172.886352539063));
#739=CARTESIAN_POINT('Ctrl Pts',(-9.88685996664259,-1.5,-173.075003683256));
#740=CARTESIAN_POINT('Ctrl Pts',(-9.89281735499534,-1.46223963651354,-173.276031536327));
#741=CARTESIAN_POINT('Ctrl Pts',(-9.91424792849633,-1.30907139898919,-173.645514324718));
#742=CARTESIAN_POINT('Ctrl Pts',(-9.92940210259032,-1.1936788400459,-173.813994042576));
#743=CARTESIAN_POINT('Ctrl Pts',(-9.9577794513644,-0.92764382283418,-174.080029059788));
#744=CARTESIAN_POINT('Ctrl Pts',(-9.97285888719051,-0.75916310421567,-174.195423438027));
#745=CARTESIAN_POINT('Ctrl Pts',(-9.99411801596672,-0.389676897170785,-174.348592999583));
#746=CARTESIAN_POINT('Ctrl Pts',(-10.,-0.188647854862721,-174.386352539063));
#747=CARTESIAN_POINT('Ctrl Pts',(-10.,0.188647854862717,-174.386352539063));
#748=CARTESIAN_POINT('Ctrl Pts',(-9.99411801596672,0.38967689717078,-174.348592999583));
#749=CARTESIAN_POINT('Ctrl Pts',(-9.97285888719051,0.759163104215665,-174.195423438027));
#750=CARTESIAN_POINT('Ctrl Pts',(-9.9577794513644,0.927643822834176,-174.080029059788));
#751=CARTESIAN_POINT('Ctrl Pts',(-9.92940210259032,1.1936788400459,-173.813994042576));
#752=CARTESIAN_POINT('Ctrl Pts',(-9.91424792849633,1.30907139898918,-173.645514324718));
#753=CARTESIAN_POINT('Ctrl Pts',(-9.89281735499534,1.46223963651353,-173.276031536327));
#754=CARTESIAN_POINT('Ctrl Pts',(-9.88685996664259,1.5,-173.075003683256));
#755=CARTESIAN_POINT('Ctrl Pts',(-9.88685996664259,1.5,-172.697701394869));
#756=CARTESIAN_POINT('Ctrl Pts',(-9.89281735499534,1.46223963651352,-172.496673541798));
#757=CARTESIAN_POINT('Ctrl Pts',(-9.91424792849634,1.30907139898917,-172.127190753407));
#758=CARTESIAN_POINT('Ctrl Pts',(-9.92940210259032,1.1936788400459,-171.958711035549));
#759=CARTESIAN_POINT('Ctrl Pts',(-9.9577794513644,0.927643822834176,-171.692676018337));
#760=CARTESIAN_POINT('Ctrl Pts',(-9.97285888719051,0.759163104215665,-171.577281640098));
#761=CARTESIAN_POINT('Ctrl Pts',(-9.99411801596672,0.38967689717078,-171.424112078542));
#762=CARTESIAN_POINT('Ctrl Pts',(-10.,0.188647854862717,-171.386352539063));
#763=CARTESIAN_POINT('Ctrl Pts',(-10.,-0.188647854862721,-171.386352539063));
#764=CARTESIAN_POINT('Ctrl Pts',(-9.99411801596672,-0.389676897170785,-171.424112078542));
#765=CARTESIAN_POINT('Ctrl Pts',(-9.97285888719051,-0.75916310421567,-171.577281640098));
#766=CARTESIAN_POINT('Ctrl Pts',(-9.9577794513644,-0.92764382283418,-171.692676018337));
#767=CARTESIAN_POINT('Ctrl Pts',(-9.92940210259032,-1.1936788400459,-171.958711035549));
#768=CARTESIAN_POINT('Ctrl Pts',(-9.91424792849633,-1.30907139898917,-172.127190753407));
#769=CARTESIAN_POINT('Ctrl Pts',(-9.89281735499534,-1.46223963651353,-172.496673541798));
#770=CARTESIAN_POINT('Ctrl Pts',(-9.88685996664259,-1.5,-172.697701394869));
#771=CARTESIAN_POINT('Ctrl Pts',(-9.88685996664259,-1.5,-172.886352539063));
#772=CARTESIAN_POINT('Origin',(-5.,-1.83697019872103E-15,-172.886352539063));
#773=CARTESIAN_POINT('',(-5.,-1.5,-172.886352539063));
#774=CARTESIAN_POINT('Origin',(-5.,6.06304011441239E-6,-152.886276245121));
#775=CARTESIAN_POINT('',(-5.,-0.964175351489695,-151.737209580442));
#776=CARTESIAN_POINT('Origin',(2.,4.28798901577131E-16,42.4996943740644));
#777=CARTESIAN_POINT('',(-37.5,4.,42.4996943740644));
#778=CARTESIAN_POINT('Origin',(-37.5,4.28798901577131E-16,42.4996943740644));
#779=CARTESIAN_POINT('',(37.5,4.,42.4996943740644));
#780=CARTESIAN_POINT('',(2.,4.,42.4996943740644));
#781=CARTESIAN_POINT('Origin',(37.5,4.28798901577131E-16,42.4996943740644));
#782=CARTESIAN_POINT('Origin',(-3.89817183251938E-16,0.,253.243666695799));
#783=CARTESIAN_POINT('',(-2.5175,3.08304831685346E-16,254.));
#784=CARTESIAN_POINT('Origin',(-3.89817183251938E-16,0.,254.));
#785=CARTESIAN_POINT('',(-3.89817183251938E-16,0.,252.487333391598));
#786=CARTESIAN_POINT('',(-1.25875,1.54152415842673E-16,253.243666695799));
#787=CARTESIAN_POINT('Origin',(-3.89817183251938E-16,0.,257.));
#788=CARTESIAN_POINT('',(-2.5175,3.08304831685346E-16,260.));
#789=CARTESIAN_POINT('Origin',(-3.89817183251938E-16,0.,260.));
#790=CARTESIAN_POINT('',(-2.5175,3.08304831685346E-16,257.));
#791=CARTESIAN_POINT('Origin',(-30.,0.,42.4996943740644));
#792=CARTESIAN_POINT('',(-47.5,-2.77555756156289E-16,31.4996943740644));
#793=CARTESIAN_POINT('',(-47.5,-4.01875917260012E-15,53.4996943740644));
#794=CARTESIAN_POINT('Ctrl Pts',(-47.5,-1.66533453693773E-15,53.4996943740644));
#795=CARTESIAN_POINT('Ctrl Pts',(-47.5,1.38654832463849,53.4996943740644));
#796=CARTESIAN_POINT('Ctrl Pts',(-47.4331859915227,2.862122676232,53.2215648454872));
#797=CARTESIAN_POINT('Ctrl Pts',(-47.1917834883829,5.57085727909414,52.0973920346927));
#798=CARTESIAN_POINT('Ctrl Pts',(-47.0204654374627,6.80442143697471,51.2516221231937));
#799=CARTESIAN_POINT('Ctrl Pts',(-46.6971791537389,8.75202713869185,49.3040164214766));
#800=CARTESIAN_POINT('Ctrl Pts',(-46.5238093139281,9.59771940531541,48.0704939779096));
#801=CARTESIAN_POINT('Ctrl Pts',(-46.2776760221927,10.7218356934016,45.361906129764));
#802=CARTESIAN_POINT('Ctrl Pts',(-46.2087654022481,11.,43.8863842216654));
#803=CARTESIAN_POINT('Ctrl Pts',(-46.2087654022481,11.,42.4996943740644));
#804=CARTESIAN_POINT('Ctrl Pts',(-46.2087654022481,11.,41.1130045264634));
#805=CARTESIAN_POINT('Ctrl Pts',(-46.2776760221927,10.7218356934016,39.6374826183648));
#806=CARTESIAN_POINT('Ctrl Pts',(-46.5238093139281,9.59771940531541,36.9288947702191));
#807=CARTESIAN_POINT('Ctrl Pts',(-46.6971791537389,8.75202713869185,35.6953723266522));
#808=CARTESIAN_POINT('Ctrl Pts',(-47.0204654374627,6.80442143697471,33.747766624935));
#809=CARTESIAN_POINT('Ctrl Pts',(-47.1917834883829,5.57085727909414,32.9019967134361));
#810=CARTESIAN_POINT('Ctrl Pts',(-47.4331859915227,2.862122676232,31.7778239026415));
#811=CARTESIAN_POINT('Ctrl Pts',(-47.5,1.38654832463849,31.4996943740644));
#812=CARTESIAN_POINT('Ctrl Pts',(-47.5,8.32667268468867E-16,31.4996943740644));
#813=CARTESIAN_POINT('',(-46.2087654022481,-11.,42.4996943740644));
#814=CARTESIAN_POINT('Ctrl Pts',(-47.5,0.,31.4996943740644));
#815=CARTESIAN_POINT('Ctrl Pts',(-47.5,-1.38654832463849,31.4996943740644));
#816=CARTESIAN_POINT('Ctrl Pts',(-47.4331859915227,-2.862122676232,31.7778239026415));
#817=CARTESIAN_POINT('Ctrl Pts',(-47.1917834883829,-5.57085727909414,32.9019967134361));
#818=CARTESIAN_POINT('Ctrl Pts',(-47.0204654374627,-6.80442143697471,33.747766624935));
#819=CARTESIAN_POINT('Ctrl Pts',(-46.6971791537389,-8.75202713869185,35.6953723266522));
#820=CARTESIAN_POINT('Ctrl Pts',(-46.5238093139281,-9.59771940531541,36.9288947702191));
#821=CARTESIAN_POINT('Ctrl Pts',(-46.2776760221927,-10.7218356934016,39.6374826183648));
#822=CARTESIAN_POINT('Ctrl Pts',(-46.2087654022481,-11.,41.1130045264634));
#823=CARTESIAN_POINT('Ctrl Pts',(-46.2087654022481,-11.,42.4996943740644));
#824=CARTESIAN_POINT('',(-37.5,-11.,42.4996943740644));
#825=CARTESIAN_POINT('',(-30.,-11.,42.4996943740644));
#826=CARTESIAN_POINT('Origin',(-37.5,0.,42.4996943740644));
#827=CARTESIAN_POINT('Ctrl Pts',(-46.2087654022481,-11.,42.4996943740644));
#828=CARTESIAN_POINT('Ctrl Pts',(-46.2087654022481,-11.,43.8863842216654));
#829=CARTESIAN_POINT('Ctrl Pts',(-46.2776760221927,-10.7218356934016,45.361906129764));
#830=CARTESIAN_POINT('Ctrl Pts',(-46.5238093139281,-9.59771940531542,48.0704939779096));
#831=CARTESIAN_POINT('Ctrl Pts',(-46.6971791537389,-8.75202713869185,49.3040164214766));
#832=CARTESIAN_POINT('Ctrl Pts',(-47.0204654374627,-6.80442143697471,51.2516221231937));
#833=CARTESIAN_POINT('Ctrl Pts',(-47.1917834883829,-5.57085727909414,52.0973920346927));
#834=CARTESIAN_POINT('Ctrl Pts',(-47.4331859915227,-2.862122676232,53.2215648454872));
#835=CARTESIAN_POINT('Ctrl Pts',(-47.5,-1.38654832463849,53.4996943740644));
#836=CARTESIAN_POINT('Ctrl Pts',(-47.5,-1.66533453693773E-15,53.4996943740644));
#837=CARTESIAN_POINT('Origin',(-37.5,0.,42.1296943740644));
#838=CARTESIAN_POINT('Origin',(30.,0.,42.5000555845595));
#839=CARTESIAN_POINT('',(47.5,-5.55111512312578E-16,31.5000555845595));
#840=CARTESIAN_POINT('',(46.2087654022481,-11.,42.5000555845595));
#841=CARTESIAN_POINT('Ctrl Pts',(46.2087654022481,-11.,42.5000555845595));
#842=CARTESIAN_POINT('Ctrl Pts',(46.2087654022481,-11.,41.1133657369585));
#843=CARTESIAN_POINT('Ctrl Pts',(46.2776760221927,-10.7218356934016,39.6378438288599));
#844=CARTESIAN_POINT('Ctrl Pts',(46.5238093139281,-9.59771940531541,36.9292559807143));
#845=CARTESIAN_POINT('Ctrl Pts',(46.6971791537389,-8.75202713869185,35.6957335371473));
#846=CARTESIAN_POINT('Ctrl Pts',(47.0204654374627,-6.80442143697471,33.7481278354302));
#847=CARTESIAN_POINT('Ctrl Pts',(47.1917834883829,-5.57085727909413,32.9023579239312));
#848=CARTESIAN_POINT('Ctrl Pts',(47.4331859915227,-2.862122676232,31.7781851131367));
#849=CARTESIAN_POINT('Ctrl Pts',(47.5,-1.38654832463849,31.5000555845595));
#850=CARTESIAN_POINT('Ctrl Pts',(47.5,-5.55111512312578E-16,31.5000555845595));
#851=CARTESIAN_POINT('Ctrl Pts',(47.5,0.,31.5000555845595));
#852=CARTESIAN_POINT('Ctrl Pts',(47.5,1.38654832463849,31.5000555845595));
#853=CARTESIAN_POINT('Ctrl Pts',(47.4331859915227,2.862122676232,31.7781851131367));
#854=CARTESIAN_POINT('Ctrl Pts',(47.1917834883829,5.57085727909414,32.9023579239312));
#855=CARTESIAN_POINT('Ctrl Pts',(47.0204654374627,6.80442143697471,33.7481278354302));
#856=CARTESIAN_POINT('Ctrl Pts',(46.6971791537389,8.75202713869185,35.6957335371473));
#857=CARTESIAN_POINT('Ctrl Pts',(46.5238093139281,9.59771940531541,36.9292559807143));
#858=CARTESIAN_POINT('Ctrl Pts',(46.2776760221927,10.7218356934016,39.6378438288599));
#859=CARTESIAN_POINT('Ctrl Pts',(46.2087654022481,11.,41.1133657369585));
#860=CARTESIAN_POINT('Ctrl Pts',(46.2087654022481,11.,43.8867454321605));
#861=CARTESIAN_POINT('Ctrl Pts',(46.2776760221927,10.7218356934016,45.3622673402591));
#862=CARTESIAN_POINT('Ctrl Pts',(46.5238093139281,9.59771940531541,48.0708551884048));
#863=CARTESIAN_POINT('Ctrl Pts',(46.6971791537389,8.75202713869185,49.3043776319717));
#864=CARTESIAN_POINT('Ctrl Pts',(47.0204654374627,6.80442143697471,51.2519833336888));
#865=CARTESIAN_POINT('Ctrl Pts',(47.1917834883829,5.57085727909414,52.0977532451878));
#866=CARTESIAN_POINT('Ctrl Pts',(47.4331859915227,2.862122676232,53.2219260559823));
#867=CARTESIAN_POINT('Ctrl Pts',(47.5,1.38654832463849,53.5000555845595));
#868=CARTESIAN_POINT('Ctrl Pts',(47.5,-1.38654832463849,53.5000555845595));
#869=CARTESIAN_POINT('Ctrl Pts',(47.4331859915227,-2.862122676232,53.2219260559823));
#870=CARTESIAN_POINT('Ctrl Pts',(47.1917834883829,-5.57085727909413,52.0977532451878));
#871=CARTESIAN_POINT('Ctrl Pts',(47.0204654374627,-6.80442143697471,51.2519833336888));
#872=CARTESIAN_POINT('Ctrl Pts',(46.6971791537389,-8.75202713869185,49.3043776319717));
#873=CARTESIAN_POINT('Ctrl Pts',(46.5238093139281,-9.59771940531541,48.0708551884048));
#874=CARTESIAN_POINT('Ctrl Pts',(46.2776760221927,-10.7218356934016,45.3622673402591));
#875=CARTESIAN_POINT('Ctrl Pts',(46.2087654022481,-11.,43.8867454321605));
#876=CARTESIAN_POINT('Ctrl Pts',(46.2087654022481,-11.,42.5000555845595));
#877=CARTESIAN_POINT('',(37.5,-11.,42.5000555845595));
#878=CARTESIAN_POINT('',(30.,-11.,42.5000555845595));
#879=CARTESIAN_POINT('Origin',(37.5,0.,42.5000555845595));
#880=CARTESIAN_POINT('Origin',(37.5,0.,42.2700555845595));
#881=CARTESIAN_POINT('Origin',(0.,0.,60.));
#882=CARTESIAN_POINT('',(10.,1.22464679914735E-15,260.));
#883=CARTESIAN_POINT('Origin',(0.,0.,260.));
#884=CARTESIAN_POINT('',(10.,-1.22464679914735E-15,60.));
#885=CARTESIAN_POINT('',(10.,1.22464679914735E-15,60.));
#886=CARTESIAN_POINT('Origin',(0.,0.,60.));
#887=CARTESIAN_POINT('Origin',(0.,0.,-175.));
#888=CARTESIAN_POINT('Origin',(0.,0.,260.));
#889=CARTESIAN_POINT('Origin',(0.,0.,60.));
#890=CARTESIAN_POINT('',(-47.5,5.81707229594993E-15,60.));
#891=CARTESIAN_POINT('Origin',(0.,0.,60.));
#892=CARTESIAN_POINT('Origin',(0.,0.,25.));
#893=CARTESIAN_POINT('',(-47.5,5.81707229594993E-15,25.));
#894=CARTESIAN_POINT('Origin',(0.,0.,25.));
#895=CARTESIAN_POINT('Origin',(0.,0.,35.));
#896=CARTESIAN_POINT('',(-47.5,-5.81707229594993E-15,35.));
#897=CARTESIAN_POINT('',(-47.5,-5.81707229594993E-15,35.));
#898=UNCERTAINTY_MEASURE_WITH_UNIT(LENGTH_MEASURE(0.01),#902,
'DISTANCE_ACCURACY_VALUE',
'Maximum model space distance between geometric entities at asserted c
onnectivities');
#899=UNCERTAINTY_MEASURE_WITH_UNIT(LENGTH_MEASURE(0.01),#902,
'DISTANCE_ACCURACY_VALUE',
'Maximum model space distance between geometric entities at asserted c
onnectivities');
#900=(
GEOMETRIC_REPRESENTATION_CONTEXT(3)
GLOBAL_UNCERTAINTY_ASSIGNED_CONTEXT((#898))
GLOBAL_UNIT_ASSIGNED_CONTEXT((#902,#904,#905))
REPRESENTATION_CONTEXT('','3D')
);
#901=(
GEOMETRIC_REPRESENTATION_CONTEXT(3)
GLOBAL_UNCERTAINTY_ASSIGNED_CONTEXT((#899))
GLOBAL_UNIT_ASSIGNED_CONTEXT((#902,#904,#905))
REPRESENTATION_CONTEXT('','3D')
);
#902=(
LENGTH_UNIT()
NAMED_UNIT(*)
SI_UNIT(.MILLI.,.METRE.)
);
#903=(
LENGTH_UNIT()
NAMED_UNIT(*)
SI_UNIT($,.METRE.)
);
#904=(
NAMED_UNIT(*)
PLANE_ANGLE_UNIT()
SI_UNIT($,.RADIAN.)
);
#905=(
NAMED_UNIT(*)
SI_UNIT($,.STERADIAN.)
SOLID_ANGLE_UNIT()
);
#906=SHAPE_DEFINITION_REPRESENTATION(#907,#908);
#907=PRODUCT_DEFINITION_SHAPE('',$,#910);
#908=SHAPE_REPRESENTATION('',(#405),#900);
#909=PRODUCT_DEFINITION_CONTEXT('part definition',#914,'design');
#910=PRODUCT_DEFINITION('ROBOT2','ROBOT2 v3',#911,#909);
#911=PRODUCT_DEFINITION_FORMATION('',$,#916);
#912=PRODUCT_RELATED_PRODUCT_CATEGORY('ROBOT2 v3','ROBOT2 v3',(#916));
#913=APPLICATION_PROTOCOL_DEFINITION('international standard',
'automotive_design',2009,#914);
#914=APPLICATION_CONTEXT(
'Core Data for Automotive Mechanical Design Process');
#915=PRODUCT_CONTEXT('part definition',#914,'mechanical');
#916=PRODUCT('ROBOT2','ROBOT2 v3',$,(#915));
#917=PRESENTATION_STYLE_ASSIGNMENT((#918));
#918=SURFACE_STYLE_USAGE(.BOTH.,#919);
#919=SURFACE_SIDE_STYLE('',(#920));
#920=SURFACE_STYLE_FILL_AREA(#921);
#921=FILL_AREA_STYLE('Acier - Satin\X\E9',(#922));
#922=FILL_AREA_STYLE_COLOUR('Acier - Satin\X\E9',#923);
#923=COLOUR_RGB('Acier - Satin\X\E9',0.627450980392157,0.627450980392157,
0.627450980392157);
ENDSEC;
END-ISO-10303-21;
