ISO-10303-21;
HEADER;
/* Generated by software containing ST-Developer
 * from STEP Tools, Inc. (www.steptools.com) 
 */

FILE_DESCRIPTION(
/* description */ (''),
/* implementation_level */ '2;1');

FILE_NAME(
/* name */ 'ROBOT1.step',
/* time_stamp */ '2026-01-11T23:41:59+01:00',
/* author */ (''),
/* organization */ (''),
/* preprocessor_version */ 'ST-DEVELOPER v20.1',
/* originating_system */ 'Autodesk Translation Framework v14.21.0.0',
/* authorisation */ '');

FILE_SCHEMA (('AUTOMOTIVE_DESIGN { 1 0 10303 214 3 1 1 }'));
ENDSEC;

DATA;
#10=MECHANICAL_DESIGN_GEOMETRIC_PRESENTATION_REPRESENTATION('',(#13),#1316);
#11=SHAPE_REPRESENTATION_RELATIONSHIP('SRR','None',#1323,#12);
#12=ADVANCED_BREP_SHAPE_REPRESENTATION('',(#14),#1315);
#13=STYLED_ITEM('',(#1332),#14);
#14=MANIFOLD_SOLID_BREP('Corps1',#667);
#15=B_SPLINE_CURVE_WITH_KNOTS('',3,(#1056,#1057,#1058,#1059,#1060,#1061,
#1062,#1063,#1064,#1065),.UNSPECIFIED.,.F.,.F.,(4,2,2,2,4),(1.54750828365917,
1.74674351706321,2.12368115713126,2.50061879719931,2.69985403060335),
 .UNSPECIFIED.);
#16=B_SPLINE_CURVE_WITH_KNOTS('',3,(#1089,#1090,#1091,#1092,#1093,#1094,
#1095,#1096,#1097,#1098),.UNSPECIFIED.,.F.,.F.,(4,2,2,2,4),(1.80892562690903,
1.95966932442387,2.1104130219387,2.26115692890871,2.41190083587871),
 .UNSPECIFIED.);
#17=B_SPLINE_CURVE_WITH_KNOTS('',3,(#1103,#1104,#1105,#1106,#1107,#1108,
#1109,#1110,#1111,#1112),.UNSPECIFIED.,.F.,.F.,(4,2,2,2,4),(0.,0.150743906970004,
0.301487813940009,0.452231511454843,0.602975208969678),.UNSPECIFIED.);
#18=B_SPLINE_CURVE_WITH_KNOTS('',3,(#1113,#1114,#1115,#1116,#1117,#1118,
#1119,#1120,#1121,#1122,#1123,#1124,#1125,#1126,#1127,#1128,#1129,#1130),
 .UNSPECIFIED.,.F.,.F.,(4,2,2,2,2,2,2,2,4),(0.602975208969678,0.753718906484512,
0.904462603999347,1.05520651096935,1.20595041793935,1.35669432490936,1.50743823187936,
1.6581819293942,1.80892562690903),.UNSPECIFIED.);
#19=B_SPLINE_CURVE_WITH_KNOTS('',3,(#1136,#1137,#1138,#1139,#1140,#1141,
#1142,#1143,#1144,#1145,#1146,#1147,#1148,#1149,#1150,#1151,#1152,#1153,
#1154,#1155,#1156,#1157,#1158,#1159,#1160,#1161,#1162,#1163,#1164,#1165,
#1166,#1167,#1168,#1169),.UNSPECIFIED.,.T.,.F.,(4,2,2,2,2,2,2,2,2,2,2,2,
2,2,2,2,4),(0.,0.150743906970004,0.301487813940009,0.452231511454843,0.602975208969678,
0.753718906484512,0.904462603999347,1.05520651096935,1.20595041793935,1.35669432490936,
1.50743823187936,1.6581819293942,1.80892562690903,1.95966932442387,2.1104130219387,
2.26115692890871,2.41190083587871),.UNSPECIFIED.);
#20=B_SPLINE_CURVE_WITH_KNOTS('',3,(#1187,#1188,#1189,#1190,#1191,#1192,
#1193,#1194,#1195,#1196),.UNSPECIFIED.,.F.,.F.,(4,2,2,2,4),(1.54753320410045,
1.74669931065956,2.12363704938616,2.50057478811277,2.69974089467188),
 .UNSPECIFIED.);
#21=B_SPLINE_CURVE_WITH_KNOTS('',3,(#1198,#1199,#1200,#1201,#1202,#1203,
#1204,#1205),.UNSPECIFIED.,.F.,.F.,(4,2,2,4),(2.21443581238035,2.4885270527325,
2.90328325870467,3.31803946467683),.UNSPECIFIED.);
#22=B_SPLINE_CURVE_WITH_KNOTS('',3,(#1208,#1209,#1210,#1211,#1212,#1213,
#1214,#1215),.UNSPECIFIED.,.F.,.F.,(4,2,2,4),(3.31803946467683,3.732795670649,
4.14755187662116,4.42146561629115),.UNSPECIFIED.);
#23=B_SPLINE_CURVE_WITH_KNOTS('',3,(#1217,#1218,#1219,#1220,#1221,#1222,
#1223,#1224,#1225,#1226),.UNSPECIFIED.,.F.,.F.,(4,2,2,2,4),(1.54746251754634,
1.74682472567765,2.1237621845053,2.50069964333295,2.70006185146426),
 .UNSPECIFIED.);
#24=B_SPLINE_CURVE_WITH_KNOTS('',3,(#1227,#1228,#1229,#1230,#1231,#1232,
#1233,#1234,#1235,#1236,#1237,#1238,#1239,#1240,#1241),.UNSPECIFIED.,.F.,
 .F.,(4,2,2,3,2,2,4),(5.53265277773934,5.80656651740933,6.2213227233815,
6.63607892935366,7.05083513532583,7.46559134129799,7.73968258165015),
 .UNSPECIFIED.);
#25=B_SPLINE_CURVE_WITH_KNOTS('',3,(#1262,#1263,#1264,#1265,#1266,#1267,
#1268,#1269),.UNSPECIFIED.,.F.,.F.,(4,2,2,4),(6.63607892935366,7.05083513532583,
7.46559134129799,7.73962001041026),.UNSPECIFIED.);
#26=B_SPLINE_CURVE_WITH_KNOTS('',3,(#1271,#1272,#1273,#1274,#1275,#1276,
#1277,#1278),.UNSPECIFIED.,.F.,.F.,(4,2,2,4),(5.53259021769071,5.80656651740933,
6.2213227233815,6.63607892935366),.UNSPECIFIED.);
#27=B_SPLINE_CURVE_WITH_KNOTS('',3,(#1282,#1283,#1284,#1285,#1286,#1287,
#1288,#1289,#1290,#1291),.UNSPECIFIED.,.F.,.F.,(4,2,2,2,4),(1.54748742846095,
1.74678051922254,2.12371807670985,2.50065563419715,2.69994872495874),
 .UNSPECIFIED.);
#28=B_SPLINE_CURVE_WITH_KNOTS('',3,(#1294,#1295,#1296,#1297,#1298,#1299,
#1300,#1301,#1302,#1303,#1304,#1305,#1306,#1307),.UNSPECIFIED.,.F.,.F.,
(4,2,2,2,2,2,4),(2.21449838362024,2.4885270527325,2.90328325870467,3.31803946467683,
3.732795670649,4.14755187662116,4.42152817633978),.UNSPECIFIED.);
#29=CONICAL_SURFACE('',#707,91.,0.785398163397449);
#30=CONICAL_SURFACE('',#711,1.69493368394535,1.02974425867665);
#31=CONICAL_SURFACE('',#715,1.69493368394535,1.02974425867665);
#32=CONICAL_SURFACE('',#735,54.,0.785398163397448);
#33=CONICAL_SURFACE('',#736,54.,0.785398163397448);
#34=CONICAL_SURFACE('',#739,91.,0.785398163397449);
#35=CONICAL_SURFACE('',#743,91.,0.785398163397449);
#36=CONICAL_SURFACE('',#748,91.,0.785398163397449);
#37=(
BOUNDED_CURVE()
B_SPLINE_CURVE(2,(#1000,#1001,#1002),.UNSPECIFIED.,.F.,.F.)
B_SPLINE_CURVE_WITH_KNOTS((3,3),(0.000644204630226779,1.13993280035927),
 .UNSPECIFIED.)
CURVE()
GEOMETRIC_REPRESENTATION_ITEM()
RATIONAL_B_SPLINE_CURVE((1.00000112476696,1.00099514865784,1.))
REPRESENTATION_ITEM('')
);
#38=(
BOUNDED_CURVE()
B_SPLINE_CURVE(2,(#1005,#1006,#1007),.UNSPECIFIED.,.F.,.F.)
B_SPLINE_CURVE_WITH_KNOTS((3,3),(0.,1.13928859568756),.UNSPECIFIED.)
CURVE()
GEOMETRIC_REPRESENTATION_ITEM()
RATIONAL_B_SPLINE_CURVE((1.,1.00099514864552,1.00000112476535))
REPRESENTATION_ITEM('')
);
#39=(
BOUNDED_CURVE()
B_SPLINE_CURVE(2,(#1010,#1011,#1012),.UNSPECIFIED.,.F.,.F.)
B_SPLINE_CURVE_WITH_KNOTS((3,3),(0.000644204040965653,1.13993279974311),
 .UNSPECIFIED.)
CURVE()
GEOMETRIC_REPRESENTATION_ITEM()
RATIONAL_B_SPLINE_CURVE((1.0000011247659,1.00099514863479,1.))
REPRESENTATION_ITEM('')
);
#40=(
BOUNDED_CURVE()
B_SPLINE_CURVE(2,(#1016,#1017,#1018),.UNSPECIFIED.,.F.,.F.)
B_SPLINE_CURVE_WITH_KNOTS((3,3),(0.,1.13928859571443),.UNSPECIFIED.)
CURVE()
GEOMETRIC_REPRESENTATION_ITEM()
RATIONAL_B_SPLINE_CURVE((1.,1.00099514863057,1.00000112476637))
REPRESENTATION_ITEM('')
);
#41=(
BOUNDED_CURVE()
B_SPLINE_CURVE(2,(#1028,#1029,#1030),.UNSPECIFIED.,.F.,.F.)
B_SPLINE_CURVE_WITH_KNOTS((3,3),(0.000644204309385054,1.13993279978288),
 .UNSPECIFIED.)
CURVE()
GEOMETRIC_REPRESENTATION_ITEM()
RATIONAL_B_SPLINE_CURVE((1.00000112476637,1.00099514863648,1.))
REPRESENTATION_ITEM('')
);
#42=(
BOUNDED_CURVE()
B_SPLINE_CURVE(2,(#1033,#1034,#1035),.UNSPECIFIED.,.F.,.F.)
B_SPLINE_CURVE_WITH_KNOTS((3,3),(0.,1.1392885954612),.UNSPECIFIED.)
CURVE()
GEOMETRIC_REPRESENTATION_ITEM()
RATIONAL_B_SPLINE_CURVE((1.,1.00099514861834,1.00000112476588))
REPRESENTATION_ITEM('')
);
#43=(
BOUNDED_CURVE()
B_SPLINE_CURVE(2,(#1038,#1039,#1040),.UNSPECIFIED.,.F.,.F.)
B_SPLINE_CURVE_WITH_KNOTS((3,3),(0.000644203720167246,1.13993279916672),
 .UNSPECIFIED.)
CURVE()
GEOMETRIC_REPRESENTATION_ITEM()
RATIONAL_B_SPLINE_CURVE((1.00000112476534,1.00099514863146,1.))
REPRESENTATION_ITEM('')
);
#44=(
BOUNDED_CURVE()
B_SPLINE_CURVE(2,(#1044,#1045,#1046),.UNSPECIFIED.,.F.,.F.)
B_SPLINE_CURVE_WITH_KNOTS((3,3),(0.,1.13928859548809),.UNSPECIFIED.)
CURVE()
GEOMETRIC_REPRESENTATION_ITEM()
RATIONAL_B_SPLINE_CURVE((1.,1.00099514863107,1.00000112476693))
REPRESENTATION_ITEM('')
);
#45=FACE_BOUND('',#105,.T.);
#46=FACE_BOUND('',#108,.T.);
#47=FACE_BOUND('',#117,.T.);
#48=FACE_BOUND('',#126,.T.);
#49=FACE_BOUND('',#128,.T.);
#50=FACE_BOUND('',#130,.T.);
#51=FACE_BOUND('',#132,.T.);
#52=FACE_BOUND('',#142,.T.);
#53=FACE_BOUND('',#148,.T.);
#54=PLANE('',#684);
#55=PLANE('',#694);
#56=PLANE('',#699);
#57=PLANE('',#700);
#58=PLANE('',#703);
#59=PLANE('',#704);
#60=PLANE('',#705);
#61=PLANE('',#723);
#62=PLANE('',#728);
#63=PLANE('',#729);
#64=PLANE('',#745);
#65=PLANE('',#753);
#66=FACE_OUTER_BOUND('',#103,.T.);
#67=FACE_OUTER_BOUND('',#104,.T.);
#68=FACE_OUTER_BOUND('',#106,.T.);
#69=FACE_OUTER_BOUND('',#107,.T.);
#70=FACE_OUTER_BOUND('',#109,.T.);
#71=FACE_OUTER_BOUND('',#110,.T.);
#72=FACE_OUTER_BOUND('',#111,.T.);
#73=FACE_OUTER_BOUND('',#112,.T.);
#74=FACE_OUTER_BOUND('',#113,.T.);
#75=FACE_OUTER_BOUND('',#114,.T.);
#76=FACE_OUTER_BOUND('',#115,.T.);
#77=FACE_OUTER_BOUND('',#116,.T.);
#78=FACE_OUTER_BOUND('',#118,.T.);
#79=FACE_OUTER_BOUND('',#119,.T.);
#80=FACE_OUTER_BOUND('',#120,.T.);
#81=FACE_OUTER_BOUND('',#121,.T.);
#82=FACE_OUTER_BOUND('',#122,.T.);
#83=FACE_OUTER_BOUND('',#123,.T.);
#84=FACE_OUTER_BOUND('',#124,.T.);
#85=FACE_OUTER_BOUND('',#125,.T.);
#86=FACE_OUTER_BOUND('',#127,.T.);
#87=FACE_OUTER_BOUND('',#129,.T.);
#88=FACE_OUTER_BOUND('',#131,.T.);
#89=FACE_OUTER_BOUND('',#133,.T.);
#90=FACE_OUTER_BOUND('',#134,.T.);
#91=FACE_OUTER_BOUND('',#135,.T.);
#92=FACE_OUTER_BOUND('',#136,.T.);
#93=FACE_OUTER_BOUND('',#137,.T.);
#94=FACE_OUTER_BOUND('',#138,.T.);
#95=FACE_OUTER_BOUND('',#139,.T.);
#96=FACE_OUTER_BOUND('',#140,.T.);
#97=FACE_OUTER_BOUND('',#141,.T.);
#98=FACE_OUTER_BOUND('',#143,.T.);
#99=FACE_OUTER_BOUND('',#144,.T.);
#100=FACE_OUTER_BOUND('',#145,.T.);
#101=FACE_OUTER_BOUND('',#146,.T.);
#102=FACE_OUTER_BOUND('',#147,.T.);
#103=EDGE_LOOP('',(#421,#422,#423,#424));
#104=EDGE_LOOP('',(#425,#426,#427,#428,#429,#430,#431,#432,#433,#434,#435,
#436));
#105=EDGE_LOOP('',(#437));
#106=EDGE_LOOP('',(#438,#439,#440,#441));
#107=EDGE_LOOP('',(#442,#443,#444,#445));
#108=EDGE_LOOP('',(#446));
#109=EDGE_LOOP('',(#447,#448,#449,#450));
#110=EDGE_LOOP('',(#451,#452,#453,#454));
#111=EDGE_LOOP('',(#455,#456,#457,#458,#459,#460));
#112=EDGE_LOOP('',(#461,#462,#463,#464,#465,#466));
#113=EDGE_LOOP('',(#467,#468,#469,#470));
#114=EDGE_LOOP('',(#471,#472,#473,#474,#475,#476));
#115=EDGE_LOOP('',(#477,#478,#479,#480,#481,#482));
#116=EDGE_LOOP('',(#483,#484,#485,#486));
#117=EDGE_LOOP('',(#487));
#118=EDGE_LOOP('',(#488,#489,#490,#491,#492,#493));
#119=EDGE_LOOP('',(#494,#495,#496));
#120=EDGE_LOOP('',(#497,#498,#499,#500));
#121=EDGE_LOOP('',(#501,#502,#503));
#122=EDGE_LOOP('',(#504,#505,#506,#507));
#123=EDGE_LOOP('',(#508,#509,#510,#511,#512,#513));
#124=EDGE_LOOP('',(#514,#515,#516,#517));
#125=EDGE_LOOP('',(#518));
#126=EDGE_LOOP('',(#519));
#127=EDGE_LOOP('',(#520,#521,#522,#523,#524,#525,#526,#527,#528));
#128=EDGE_LOOP('',(#529));
#129=EDGE_LOOP('',(#530));
#130=EDGE_LOOP('',(#531));
#131=EDGE_LOOP('',(#532));
#132=EDGE_LOOP('',(#533));
#133=EDGE_LOOP('',(#534,#535,#536,#537,#538,#539,#540,#541));
#134=EDGE_LOOP('',(#542,#543,#544,#545,#546));
#135=EDGE_LOOP('',(#547,#548,#549,#550));
#136=EDGE_LOOP('',(#551,#552,#553,#554));
#137=EDGE_LOOP('',(#555,#556,#557,#558));
#138=EDGE_LOOP('',(#559,#560,#561,#562,#563,#564));
#139=EDGE_LOOP('',(#565,#566,#567,#568));
#140=EDGE_LOOP('',(#569,#570,#571,#572,#573,#574));
#141=EDGE_LOOP('',(#575,#576,#577,#578,#579,#580,#581,#582,#583,#584,#585,
#586));
#142=EDGE_LOOP('',(#587));
#143=EDGE_LOOP('',(#588,#589,#590,#591,#592));
#144=EDGE_LOOP('',(#593,#594,#595,#596,#597,#598));
#145=EDGE_LOOP('',(#599,#600,#601,#602));
#146=EDGE_LOOP('',(#603,#604,#605,#606,#607,#608,#609,#610));
#147=EDGE_LOOP('',(#611));
#148=EDGE_LOOP('',(#612));
#149=CIRCLE('',#683,11.);
#150=CIRCLE('',#685,75.);
#151=CIRCLE('',#686,87.);
#152=CIRCLE('',#687,75.);
#153=CIRCLE('',#688,75.);
#154=CIRCLE('',#689,87.);
#155=CIRCLE('',#690,75.);
#156=CIRCLE('',#691,58.);
#157=CIRCLE('',#693,75.);
#158=CIRCLE('',#696,75.);
#159=CIRCLE('',#698,75.);
#160=CIRCLE('',#702,75.);
#161=CIRCLE('',#706,11.);
#162=CIRCLE('',#708,95.);
#163=CIRCLE('',#709,95.);
#164=CIRCLE('',#710,87.);
#165=CIRCLE('',#712,3.38975);
#166=CIRCLE('',#714,3.38975);
#167=CIRCLE('',#716,3.38975);
#168=CIRCLE('',#718,3.38975);
#169=CIRCLE('',#720,4.);
#170=CIRCLE('',#722,4.);
#171=CIRCLE('',#724,11.);
#172=CIRCLE('',#726,50.);
#173=CIRCLE('',#727,50.);
#174=CIRCLE('',#730,11.);
#175=CIRCLE('',#733,95.);
#176=CIRCLE('',#734,95.);
#177=CIRCLE('',#737,58.);
#178=CIRCLE('',#740,95.);
#179=CIRCLE('',#742,95.);
#180=CIRCLE('',#744,87.);
#181=CIRCLE('',#747,95.);
#182=CIRCLE('',#749,95.);
#183=CIRCLE('',#752,11.);
#184=LINE('',#945,#222);
#185=LINE('',#950,#223);
#186=LINE('',#954,#224);
#187=LINE('',#958,#225);
#188=LINE('',#962,#226);
#189=LINE('',#966,#227);
#190=LINE('',#970,#228);
#191=LINE('',#976,#229);
#192=LINE('',#979,#230);
#193=LINE('',#982,#231);
#194=LINE('',#983,#232);
#195=LINE('',#986,#233);
#196=LINE('',#989,#234);
#197=LINE('',#994,#235);
#198=LINE('',#995,#236);
#199=LINE('',#998,#237);
#200=LINE('',#1004,#238);
#201=LINE('',#1014,#239);
#202=LINE('',#1019,#240);
#203=LINE('',#1022,#241);
#204=LINE('',#1026,#242);
#205=LINE('',#1032,#243);
#206=LINE('',#1042,#244);
#207=LINE('',#1047,#245);
#208=LINE('',#1049,#246);
#209=LINE('',#1072,#247);
#210=LINE('',#1076,#248);
#211=LINE('',#1081,#249);
#212=LINE('',#1085,#250);
#213=LINE('',#1100,#251);
#214=LINE('',#1135,#252);
#215=LINE('',#1176,#253);
#216=LINE('',#1178,#254);
#217=LINE('',#1206,#255);
#218=LINE('',#1246,#256);
#219=LINE('',#1250,#257);
#220=LINE('',#1252,#258);
#221=LINE('',#1310,#259);
#222=VECTOR('',#760,11.);
#223=VECTOR('',#765,10.);
#224=VECTOR('',#768,10.);
#225=VECTOR('',#771,10.);
#226=VECTOR('',#774,10.);
#227=VECTOR('',#777,10.);
#228=VECTOR('',#780,10.);
#229=VECTOR('',#787,10.);
#230=VECTOR('',#790,10.);
#231=VECTOR('',#793,10.);
#232=VECTOR('',#794,10.);
#233=VECTOR('',#797,10.);
#234=VECTOR('',#800,10.);
#235=VECTOR('',#805,10.);
#236=VECTOR('',#806,10.);
#237=VECTOR('',#809,10.);
#238=VECTOR('',#810,10.);
#239=VECTOR('',#813,10.);
#240=VECTOR('',#814,10.);
#241=VECTOR('',#817,10.);
#242=VECTOR('',#822,10.);
#243=VECTOR('',#823,10.);
#244=VECTOR('',#826,10.);
#245=VECTOR('',#827,10.);
#246=VECTOR('',#830,10.);
#247=VECTOR('',#845,1.695);
#248=VECTOR('',#850,3.39);
#249=VECTOR('',#855,1.695);
#250=VECTOR('',#860,3.39);
#251=VECTOR('',#863,10.);
#252=VECTOR('',#870,10.);
#253=VECTOR('',#879,50.);
#254=VECTOR('',#880,50.);
#255=VECTOR('',#891,11.);
#256=VECTOR('',#900,54.);
#257=VECTOR('',#905,54.);
#258=VECTOR('',#908,11.);
#259=VECTOR('',#935,11.);
#260=ELLIPSE('',#682,11.0007612193359,11.);
#261=VERTEX_POINT('',#942);
#262=VERTEX_POINT('',#944);
#263=VERTEX_POINT('',#948);
#264=VERTEX_POINT('',#949);
#265=VERTEX_POINT('',#951);
#266=VERTEX_POINT('',#953);
#267=VERTEX_POINT('',#955);
#268=VERTEX_POINT('',#957);
#269=VERTEX_POINT('',#959);
#270=VERTEX_POINT('',#961);
#271=VERTEX_POINT('',#963);
#272=VERTEX_POINT('',#965);
#273=VERTEX_POINT('',#967);
#274=VERTEX_POINT('',#969);
#275=VERTEX_POINT('',#972);
#276=VERTEX_POINT('',#975);
#277=VERTEX_POINT('',#977);
#278=VERTEX_POINT('',#981);
#279=VERTEX_POINT('',#985);
#280=VERTEX_POINT('',#987);
#281=VERTEX_POINT('',#991);
#282=VERTEX_POINT('',#992);
#283=VERTEX_POINT('',#997);
#284=VERTEX_POINT('',#999);
#285=VERTEX_POINT('',#1003);
#286=VERTEX_POINT('',#1009);
#287=VERTEX_POINT('',#1013);
#288=VERTEX_POINT('',#1015);
#289=VERTEX_POINT('',#1021);
#290=VERTEX_POINT('',#1025);
#291=VERTEX_POINT('',#1027);
#292=VERTEX_POINT('',#1031);
#293=VERTEX_POINT('',#1037);
#294=VERTEX_POINT('',#1041);
#295=VERTEX_POINT('',#1043);
#296=VERTEX_POINT('',#1050);
#297=VERTEX_POINT('',#1053);
#298=VERTEX_POINT('',#1055);
#299=VERTEX_POINT('',#1069);
#300=VERTEX_POINT('',#1071);
#301=VERTEX_POINT('',#1074);
#302=VERTEX_POINT('',#1078);
#303=VERTEX_POINT('',#1080);
#304=VERTEX_POINT('',#1083);
#305=VERTEX_POINT('',#1087);
#306=VERTEX_POINT('',#1088);
#307=VERTEX_POINT('',#1099);
#308=VERTEX_POINT('',#1102);
#309=VERTEX_POINT('',#1132);
#310=VERTEX_POINT('',#1134);
#311=VERTEX_POINT('',#1171);
#312=VERTEX_POINT('',#1174);
#313=VERTEX_POINT('',#1177);
#314=VERTEX_POINT('',#1182);
#315=VERTEX_POINT('',#1185);
#316=VERTEX_POINT('',#1186);
#317=VERTEX_POINT('',#1197);
#318=VERTEX_POINT('',#1207);
#319=VERTEX_POINT('',#1216);
#320=VERTEX_POINT('',#1248);
#321=VERTEX_POINT('',#1261);
#322=VERTEX_POINT('',#1270);
#323=VERTEX_POINT('',#1281);
#324=VERTEX_POINT('',#1309);
#325=EDGE_CURVE('',#261,#261,#260,.T.);
#326=EDGE_CURVE('',#261,#262,#184,.T.);
#327=EDGE_CURVE('',#262,#262,#149,.T.);
#328=EDGE_CURVE('',#263,#264,#185,.T.);
#329=EDGE_CURVE('',#264,#265,#150,.T.);
#330=EDGE_CURVE('',#265,#266,#186,.T.);
#331=EDGE_CURVE('',#267,#266,#151,.T.);
#332=EDGE_CURVE('',#267,#268,#187,.T.);
#333=EDGE_CURVE('',#268,#269,#152,.T.);
#334=EDGE_CURVE('',#269,#270,#188,.T.);
#335=EDGE_CURVE('',#270,#271,#153,.T.);
#336=EDGE_CURVE('',#271,#272,#189,.T.);
#337=EDGE_CURVE('',#273,#272,#154,.T.);
#338=EDGE_CURVE('',#273,#274,#190,.T.);
#339=EDGE_CURVE('',#274,#263,#155,.T.);
#340=EDGE_CURVE('',#275,#275,#156,.T.);
#341=EDGE_CURVE('',#264,#276,#191,.T.);
#342=EDGE_CURVE('',#277,#276,#157,.T.);
#343=EDGE_CURVE('',#277,#265,#192,.T.);
#344=EDGE_CURVE('',#263,#278,#193,.T.);
#345=EDGE_CURVE('',#276,#278,#194,.T.);
#346=EDGE_CURVE('',#279,#268,#195,.T.);
#347=EDGE_CURVE('',#280,#279,#158,.T.);
#348=EDGE_CURVE('',#269,#280,#196,.T.);
#349=EDGE_CURVE('',#281,#282,#159,.T.);
#350=EDGE_CURVE('',#281,#271,#197,.T.);
#351=EDGE_CURVE('',#282,#270,#198,.T.);
#352=EDGE_CURVE('',#283,#281,#199,.T.);
#353=EDGE_CURVE('',#284,#283,#37,.T.);
#354=EDGE_CURVE('',#285,#284,#200,.T.);
#355=EDGE_CURVE('',#272,#285,#38,.T.);
#356=EDGE_CURVE('',#286,#267,#39,.T.);
#357=EDGE_CURVE('',#287,#286,#201,.T.);
#358=EDGE_CURVE('',#288,#287,#40,.T.);
#359=EDGE_CURVE('',#279,#288,#202,.T.);
#360=EDGE_CURVE('',#289,#274,#203,.T.);
#361=EDGE_CURVE('',#278,#289,#160,.T.);
#362=EDGE_CURVE('',#290,#277,#204,.T.);
#363=EDGE_CURVE('',#291,#290,#41,.T.);
#364=EDGE_CURVE('',#292,#291,#205,.T.);
#365=EDGE_CURVE('',#266,#292,#42,.T.);
#366=EDGE_CURVE('',#293,#273,#43,.T.);
#367=EDGE_CURVE('',#294,#293,#206,.T.);
#368=EDGE_CURVE('',#295,#294,#44,.T.);
#369=EDGE_CURVE('',#289,#295,#207,.T.);
#370=EDGE_CURVE('',#282,#280,#208,.T.);
#371=EDGE_CURVE('',#296,#296,#161,.T.);
#372=EDGE_CURVE('',#287,#297,#162,.T.);
#373=EDGE_CURVE('',#297,#298,#15,.T.);
#374=EDGE_CURVE('',#298,#291,#163,.T.);
#375=EDGE_CURVE('',#290,#288,#164,.T.);
#376=EDGE_CURVE('',#299,#299,#165,.T.);
#377=EDGE_CURVE('',#299,#300,#209,.T.);
#378=EDGE_CURVE('',#301,#301,#166,.F.);
#379=EDGE_CURVE('',#301,#299,#210,.T.);
#380=EDGE_CURVE('',#302,#302,#167,.T.);
#381=EDGE_CURVE('',#302,#303,#211,.T.);
#382=EDGE_CURVE('',#304,#304,#168,.T.);
#383=EDGE_CURVE('',#304,#302,#212,.T.);
#384=EDGE_CURVE('',#305,#306,#16,.F.);
#385=EDGE_CURVE('',#305,#307,#213,.T.);
#386=EDGE_CURVE('',#307,#307,#169,.T.);
#387=EDGE_CURVE('',#308,#305,#17,.F.);
#388=EDGE_CURVE('',#306,#308,#18,.F.);
#389=EDGE_CURVE('',#309,#309,#170,.F.);
#390=EDGE_CURVE('',#309,#310,#214,.T.);
#391=EDGE_CURVE('',#310,#310,#19,.F.);
#392=EDGE_CURVE('',#311,#311,#171,.F.);
#393=EDGE_CURVE('',#312,#312,#172,.T.);
#394=EDGE_CURVE('',#312,#308,#215,.T.);
#395=EDGE_CURVE('',#306,#313,#216,.T.);
#396=EDGE_CURVE('',#313,#313,#173,.T.);
#397=EDGE_CURVE('',#314,#314,#174,.T.);
#398=EDGE_CURVE('',#315,#316,#20,.T.);
#399=EDGE_CURVE('',#317,#315,#21,.F.);
#400=EDGE_CURVE('',#317,#311,#217,.T.);
#401=EDGE_CURVE('',#318,#317,#22,.F.);
#402=EDGE_CURVE('',#319,#318,#23,.T.);
#403=EDGE_CURVE('',#316,#319,#24,.F.);
#404=EDGE_CURVE('',#318,#293,#175,.T.);
#405=EDGE_CURVE('',#294,#315,#176,.T.);
#406=EDGE_CURVE('',#275,#313,#218,.T.);
#407=EDGE_CURVE('',#320,#320,#177,.T.);
#408=EDGE_CURVE('',#320,#312,#219,.T.);
#409=EDGE_CURVE('',#296,#314,#220,.T.);
#410=EDGE_CURVE('',#285,#319,#178,.T.);
#411=EDGE_CURVE('',#316,#284,#179,.T.);
#412=EDGE_CURVE('',#283,#295,#180,.T.);
#413=EDGE_CURVE('',#298,#321,#25,.F.);
#414=EDGE_CURVE('',#321,#322,#26,.F.);
#415=EDGE_CURVE('',#292,#322,#181,.T.);
#416=EDGE_CURVE('',#322,#323,#27,.T.);
#417=EDGE_CURVE('',#323,#286,#182,.T.);
#418=EDGE_CURVE('',#323,#297,#28,.F.);
#419=EDGE_CURVE('',#321,#324,#221,.T.);
#420=EDGE_CURVE('',#324,#324,#183,.T.);
#421=ORIENTED_EDGE('',*,*,#325,.T.);
#422=ORIENTED_EDGE('',*,*,#326,.T.);
#423=ORIENTED_EDGE('',*,*,#327,.T.);
#424=ORIENTED_EDGE('',*,*,#326,.F.);
#425=ORIENTED_EDGE('',*,*,#328,.T.);
#426=ORIENTED_EDGE('',*,*,#329,.T.);
#427=ORIENTED_EDGE('',*,*,#330,.T.);
#428=ORIENTED_EDGE('',*,*,#331,.F.);
#429=ORIENTED_EDGE('',*,*,#332,.T.);
#430=ORIENTED_EDGE('',*,*,#333,.T.);
#431=ORIENTED_EDGE('',*,*,#334,.T.);
#432=ORIENTED_EDGE('',*,*,#335,.T.);
#433=ORIENTED_EDGE('',*,*,#336,.T.);
#434=ORIENTED_EDGE('',*,*,#337,.F.);
#435=ORIENTED_EDGE('',*,*,#338,.T.);
#436=ORIENTED_EDGE('',*,*,#339,.T.);
#437=ORIENTED_EDGE('',*,*,#340,.F.);
#438=ORIENTED_EDGE('',*,*,#341,.T.);
#439=ORIENTED_EDGE('',*,*,#342,.F.);
#440=ORIENTED_EDGE('',*,*,#343,.T.);
#441=ORIENTED_EDGE('',*,*,#329,.F.);
#442=ORIENTED_EDGE('',*,*,#328,.F.);
#443=ORIENTED_EDGE('',*,*,#344,.T.);
#444=ORIENTED_EDGE('',*,*,#345,.F.);
#445=ORIENTED_EDGE('',*,*,#341,.F.);
#446=ORIENTED_EDGE('',*,*,#325,.F.);
#447=ORIENTED_EDGE('',*,*,#333,.F.);
#448=ORIENTED_EDGE('',*,*,#346,.F.);
#449=ORIENTED_EDGE('',*,*,#347,.F.);
#450=ORIENTED_EDGE('',*,*,#348,.F.);
#451=ORIENTED_EDGE('',*,*,#349,.F.);
#452=ORIENTED_EDGE('',*,*,#350,.T.);
#453=ORIENTED_EDGE('',*,*,#335,.F.);
#454=ORIENTED_EDGE('',*,*,#351,.F.);
#455=ORIENTED_EDGE('',*,*,#352,.F.);
#456=ORIENTED_EDGE('',*,*,#353,.F.);
#457=ORIENTED_EDGE('',*,*,#354,.F.);
#458=ORIENTED_EDGE('',*,*,#355,.F.);
#459=ORIENTED_EDGE('',*,*,#336,.F.);
#460=ORIENTED_EDGE('',*,*,#350,.F.);
#461=ORIENTED_EDGE('',*,*,#332,.F.);
#462=ORIENTED_EDGE('',*,*,#356,.F.);
#463=ORIENTED_EDGE('',*,*,#357,.F.);
#464=ORIENTED_EDGE('',*,*,#358,.F.);
#465=ORIENTED_EDGE('',*,*,#359,.F.);
#466=ORIENTED_EDGE('',*,*,#346,.T.);
#467=ORIENTED_EDGE('',*,*,#339,.F.);
#468=ORIENTED_EDGE('',*,*,#360,.F.);
#469=ORIENTED_EDGE('',*,*,#361,.F.);
#470=ORIENTED_EDGE('',*,*,#344,.F.);
#471=ORIENTED_EDGE('',*,*,#362,.F.);
#472=ORIENTED_EDGE('',*,*,#363,.F.);
#473=ORIENTED_EDGE('',*,*,#364,.F.);
#474=ORIENTED_EDGE('',*,*,#365,.F.);
#475=ORIENTED_EDGE('',*,*,#330,.F.);
#476=ORIENTED_EDGE('',*,*,#343,.F.);
#477=ORIENTED_EDGE('',*,*,#338,.F.);
#478=ORIENTED_EDGE('',*,*,#366,.F.);
#479=ORIENTED_EDGE('',*,*,#367,.F.);
#480=ORIENTED_EDGE('',*,*,#368,.F.);
#481=ORIENTED_EDGE('',*,*,#369,.F.);
#482=ORIENTED_EDGE('',*,*,#360,.T.);
#483=ORIENTED_EDGE('',*,*,#351,.T.);
#484=ORIENTED_EDGE('',*,*,#334,.F.);
#485=ORIENTED_EDGE('',*,*,#348,.T.);
#486=ORIENTED_EDGE('',*,*,#370,.F.);
#487=ORIENTED_EDGE('',*,*,#371,.F.);
#488=ORIENTED_EDGE('',*,*,#358,.T.);
#489=ORIENTED_EDGE('',*,*,#372,.T.);
#490=ORIENTED_EDGE('',*,*,#373,.T.);
#491=ORIENTED_EDGE('',*,*,#374,.T.);
#492=ORIENTED_EDGE('',*,*,#363,.T.);
#493=ORIENTED_EDGE('',*,*,#375,.T.);
#494=ORIENTED_EDGE('',*,*,#376,.F.);
#495=ORIENTED_EDGE('',*,*,#377,.T.);
#496=ORIENTED_EDGE('',*,*,#377,.F.);
#497=ORIENTED_EDGE('',*,*,#378,.F.);
#498=ORIENTED_EDGE('',*,*,#379,.T.);
#499=ORIENTED_EDGE('',*,*,#376,.T.);
#500=ORIENTED_EDGE('',*,*,#379,.F.);
#501=ORIENTED_EDGE('',*,*,#380,.F.);
#502=ORIENTED_EDGE('',*,*,#381,.T.);
#503=ORIENTED_EDGE('',*,*,#381,.F.);
#504=ORIENTED_EDGE('',*,*,#382,.F.);
#505=ORIENTED_EDGE('',*,*,#383,.T.);
#506=ORIENTED_EDGE('',*,*,#380,.T.);
#507=ORIENTED_EDGE('',*,*,#383,.F.);
#508=ORIENTED_EDGE('',*,*,#384,.F.);
#509=ORIENTED_EDGE('',*,*,#385,.T.);
#510=ORIENTED_EDGE('',*,*,#386,.T.);
#511=ORIENTED_EDGE('',*,*,#385,.F.);
#512=ORIENTED_EDGE('',*,*,#387,.F.);
#513=ORIENTED_EDGE('',*,*,#388,.F.);
#514=ORIENTED_EDGE('',*,*,#389,.T.);
#515=ORIENTED_EDGE('',*,*,#390,.T.);
#516=ORIENTED_EDGE('',*,*,#391,.F.);
#517=ORIENTED_EDGE('',*,*,#390,.F.);
#518=ORIENTED_EDGE('',*,*,#392,.F.);
#519=ORIENTED_EDGE('',*,*,#382,.T.);
#520=ORIENTED_EDGE('',*,*,#393,.F.);
#521=ORIENTED_EDGE('',*,*,#394,.T.);
#522=ORIENTED_EDGE('',*,*,#387,.T.);
#523=ORIENTED_EDGE('',*,*,#384,.T.);
#524=ORIENTED_EDGE('',*,*,#395,.T.);
#525=ORIENTED_EDGE('',*,*,#396,.F.);
#526=ORIENTED_EDGE('',*,*,#395,.F.);
#527=ORIENTED_EDGE('',*,*,#388,.T.);
#528=ORIENTED_EDGE('',*,*,#394,.F.);
#529=ORIENTED_EDGE('',*,*,#391,.T.);
#530=ORIENTED_EDGE('',*,*,#327,.F.);
#531=ORIENTED_EDGE('',*,*,#386,.F.);
#532=ORIENTED_EDGE('',*,*,#397,.F.);
#533=ORIENTED_EDGE('',*,*,#389,.F.);
#534=ORIENTED_EDGE('',*,*,#398,.F.);
#535=ORIENTED_EDGE('',*,*,#399,.F.);
#536=ORIENTED_EDGE('',*,*,#400,.T.);
#537=ORIENTED_EDGE('',*,*,#392,.T.);
#538=ORIENTED_EDGE('',*,*,#400,.F.);
#539=ORIENTED_EDGE('',*,*,#401,.F.);
#540=ORIENTED_EDGE('',*,*,#402,.F.);
#541=ORIENTED_EDGE('',*,*,#403,.F.);
#542=ORIENTED_EDGE('',*,*,#367,.T.);
#543=ORIENTED_EDGE('',*,*,#404,.F.);
#544=ORIENTED_EDGE('',*,*,#401,.T.);
#545=ORIENTED_EDGE('',*,*,#399,.T.);
#546=ORIENTED_EDGE('',*,*,#405,.F.);
#547=ORIENTED_EDGE('',*,*,#340,.T.);
#548=ORIENTED_EDGE('',*,*,#406,.T.);
#549=ORIENTED_EDGE('',*,*,#396,.T.);
#550=ORIENTED_EDGE('',*,*,#406,.F.);
#551=ORIENTED_EDGE('',*,*,#407,.T.);
#552=ORIENTED_EDGE('',*,*,#408,.T.);
#553=ORIENTED_EDGE('',*,*,#393,.T.);
#554=ORIENTED_EDGE('',*,*,#408,.F.);
#555=ORIENTED_EDGE('',*,*,#371,.T.);
#556=ORIENTED_EDGE('',*,*,#409,.T.);
#557=ORIENTED_EDGE('',*,*,#397,.T.);
#558=ORIENTED_EDGE('',*,*,#409,.F.);
#559=ORIENTED_EDGE('',*,*,#355,.T.);
#560=ORIENTED_EDGE('',*,*,#410,.T.);
#561=ORIENTED_EDGE('',*,*,#402,.T.);
#562=ORIENTED_EDGE('',*,*,#404,.T.);
#563=ORIENTED_EDGE('',*,*,#366,.T.);
#564=ORIENTED_EDGE('',*,*,#337,.T.);
#565=ORIENTED_EDGE('',*,*,#354,.T.);
#566=ORIENTED_EDGE('',*,*,#411,.F.);
#567=ORIENTED_EDGE('',*,*,#403,.T.);
#568=ORIENTED_EDGE('',*,*,#410,.F.);
#569=ORIENTED_EDGE('',*,*,#353,.T.);
#570=ORIENTED_EDGE('',*,*,#412,.T.);
#571=ORIENTED_EDGE('',*,*,#368,.T.);
#572=ORIENTED_EDGE('',*,*,#405,.T.);
#573=ORIENTED_EDGE('',*,*,#398,.T.);
#574=ORIENTED_EDGE('',*,*,#411,.T.);
#575=ORIENTED_EDGE('',*,*,#345,.T.);
#576=ORIENTED_EDGE('',*,*,#361,.T.);
#577=ORIENTED_EDGE('',*,*,#369,.T.);
#578=ORIENTED_EDGE('',*,*,#412,.F.);
#579=ORIENTED_EDGE('',*,*,#352,.T.);
#580=ORIENTED_EDGE('',*,*,#349,.T.);
#581=ORIENTED_EDGE('',*,*,#370,.T.);
#582=ORIENTED_EDGE('',*,*,#347,.T.);
#583=ORIENTED_EDGE('',*,*,#359,.T.);
#584=ORIENTED_EDGE('',*,*,#375,.F.);
#585=ORIENTED_EDGE('',*,*,#362,.T.);
#586=ORIENTED_EDGE('',*,*,#342,.T.);
#587=ORIENTED_EDGE('',*,*,#407,.F.);
#588=ORIENTED_EDGE('',*,*,#364,.T.);
#589=ORIENTED_EDGE('',*,*,#374,.F.);
#590=ORIENTED_EDGE('',*,*,#413,.T.);
#591=ORIENTED_EDGE('',*,*,#414,.T.);
#592=ORIENTED_EDGE('',*,*,#415,.F.);
#593=ORIENTED_EDGE('',*,*,#356,.T.);
#594=ORIENTED_EDGE('',*,*,#331,.T.);
#595=ORIENTED_EDGE('',*,*,#365,.T.);
#596=ORIENTED_EDGE('',*,*,#415,.T.);
#597=ORIENTED_EDGE('',*,*,#416,.T.);
#598=ORIENTED_EDGE('',*,*,#417,.T.);
#599=ORIENTED_EDGE('',*,*,#357,.T.);
#600=ORIENTED_EDGE('',*,*,#417,.F.);
#601=ORIENTED_EDGE('',*,*,#418,.T.);
#602=ORIENTED_EDGE('',*,*,#372,.F.);
#603=ORIENTED_EDGE('',*,*,#373,.F.);
#604=ORIENTED_EDGE('',*,*,#418,.F.);
#605=ORIENTED_EDGE('',*,*,#416,.F.);
#606=ORIENTED_EDGE('',*,*,#414,.F.);
#607=ORIENTED_EDGE('',*,*,#419,.T.);
#608=ORIENTED_EDGE('',*,*,#420,.T.);
#609=ORIENTED_EDGE('',*,*,#419,.F.);
#610=ORIENTED_EDGE('',*,*,#413,.F.);
#611=ORIENTED_EDGE('',*,*,#420,.F.);
#612=ORIENTED_EDGE('',*,*,#378,.T.);
#613=CYLINDRICAL_SURFACE('',#681,11.);
#614=CYLINDRICAL_SURFACE('',#692,75.);
#615=CYLINDRICAL_SURFACE('',#695,75.);
#616=CYLINDRICAL_SURFACE('',#697,75.);
#617=CYLINDRICAL_SURFACE('',#701,75.);
#618=CYLINDRICAL_SURFACE('',#713,3.38975);
#619=CYLINDRICAL_SURFACE('',#717,3.38975);
#620=CYLINDRICAL_SURFACE('',#719,4.);
#621=CYLINDRICAL_SURFACE('',#721,4.);
#622=CYLINDRICAL_SURFACE('',#725,50.);
#623=CYLINDRICAL_SURFACE('',#731,11.);
#624=CYLINDRICAL_SURFACE('',#732,95.);
#625=CYLINDRICAL_SURFACE('',#738,11.);
#626=CYLINDRICAL_SURFACE('',#741,95.);
#627=CYLINDRICAL_SURFACE('',#746,95.);
#628=CYLINDRICAL_SURFACE('',#750,95.);
#629=CYLINDRICAL_SURFACE('',#751,11.);
#630=ADVANCED_FACE('',(#66),#613,.F.);
#631=ADVANCED_FACE('',(#67,#45),#54,.T.);
#632=ADVANCED_FACE('',(#68),#614,.T.);
#633=ADVANCED_FACE('',(#69,#46),#55,.F.);
#634=ADVANCED_FACE('',(#70),#615,.T.);
#635=ADVANCED_FACE('',(#71),#616,.T.);
#636=ADVANCED_FACE('',(#72),#56,.F.);
#637=ADVANCED_FACE('',(#73),#57,.F.);
#638=ADVANCED_FACE('',(#74),#617,.T.);
#639=ADVANCED_FACE('',(#75),#58,.F.);
#640=ADVANCED_FACE('',(#76),#59,.F.);
#641=ADVANCED_FACE('',(#77,#47),#60,.F.);
#642=ADVANCED_FACE('',(#78),#29,.T.);
#643=ADVANCED_FACE('',(#79),#30,.F.);
#644=ADVANCED_FACE('',(#80),#618,.F.);
#645=ADVANCED_FACE('',(#81),#31,.F.);
#646=ADVANCED_FACE('',(#82),#619,.F.);
#647=ADVANCED_FACE('',(#83),#620,.F.);
#648=ADVANCED_FACE('',(#84),#621,.F.);
#649=ADVANCED_FACE('',(#85,#48),#61,.T.);
#650=ADVANCED_FACE('',(#86,#49),#622,.F.);
#651=ADVANCED_FACE('',(#87,#50),#62,.F.);
#652=ADVANCED_FACE('',(#88,#51),#63,.T.);
#653=ADVANCED_FACE('',(#89),#623,.F.);
#654=ADVANCED_FACE('',(#90),#624,.T.);
#655=ADVANCED_FACE('',(#91),#32,.F.);
#656=ADVANCED_FACE('',(#92),#33,.F.);
#657=ADVANCED_FACE('',(#93),#625,.F.);
#658=ADVANCED_FACE('',(#94),#34,.T.);
#659=ADVANCED_FACE('',(#95),#626,.T.);
#660=ADVANCED_FACE('',(#96),#35,.T.);
#661=ADVANCED_FACE('',(#97,#52),#64,.F.);
#662=ADVANCED_FACE('',(#98),#627,.T.);
#663=ADVANCED_FACE('',(#99),#36,.T.);
#664=ADVANCED_FACE('',(#100),#628,.T.);
#665=ADVANCED_FACE('',(#101),#629,.F.);
#666=ADVANCED_FACE('',(#102,#53),#65,.F.);
#667=CLOSED_SHELL('',(#630,#631,#632,#633,#634,#635,#636,#637,#638,#639,
#640,#641,#642,#643,#644,#645,#646,#647,#648,#649,#650,#651,#652,#653,#654,
#655,#656,#657,#658,#659,#660,#661,#662,#663,#664,#665,#666));
#668=DERIVED_UNIT_ELEMENT(#670,1.);
#669=DERIVED_UNIT_ELEMENT(#1318,-3.);
#670=(
MASS_UNIT()
NAMED_UNIT(*)
SI_UNIT(.KILO.,.GRAM.)
);
#671=DERIVED_UNIT((#668,#669));
#672=MEASURE_REPRESENTATION_ITEM('density measure',
POSITIVE_RATIO_MEASURE(7850.),#671);
#673=PROPERTY_DEFINITION_REPRESENTATION(#678,#675);
#674=PROPERTY_DEFINITION_REPRESENTATION(#679,#676);
#675=REPRESENTATION('material name',(#677),#1315);
#676=REPRESENTATION('density',(#672),#1315);
#677=DESCRIPTIVE_REPRESENTATION_ITEM('Acier','Acier');
#678=PROPERTY_DEFINITION('material property','material name',#1325);
#679=PROPERTY_DEFINITION('material property','density of part',#1325);
#680=AXIS2_PLACEMENT_3D('',#940,#754,#755);
#681=AXIS2_PLACEMENT_3D('',#941,#756,#757);
#682=AXIS2_PLACEMENT_3D('',#943,#758,#759);
#683=AXIS2_PLACEMENT_3D('',#946,#761,#762);
#684=AXIS2_PLACEMENT_3D('',#947,#763,#764);
#685=AXIS2_PLACEMENT_3D('',#952,#766,#767);
#686=AXIS2_PLACEMENT_3D('',#956,#769,#770);
#687=AXIS2_PLACEMENT_3D('',#960,#772,#773);
#688=AXIS2_PLACEMENT_3D('',#964,#775,#776);
#689=AXIS2_PLACEMENT_3D('',#968,#778,#779);
#690=AXIS2_PLACEMENT_3D('',#971,#781,#782);
#691=AXIS2_PLACEMENT_3D('',#973,#783,#784);
#692=AXIS2_PLACEMENT_3D('',#974,#785,#786);
#693=AXIS2_PLACEMENT_3D('',#978,#788,#789);
#694=AXIS2_PLACEMENT_3D('',#980,#791,#792);
#695=AXIS2_PLACEMENT_3D('',#984,#795,#796);
#696=AXIS2_PLACEMENT_3D('',#988,#798,#799);
#697=AXIS2_PLACEMENT_3D('',#990,#801,#802);
#698=AXIS2_PLACEMENT_3D('',#993,#803,#804);
#699=AXIS2_PLACEMENT_3D('',#996,#807,#808);
#700=AXIS2_PLACEMENT_3D('',#1008,#811,#812);
#701=AXIS2_PLACEMENT_3D('',#1020,#815,#816);
#702=AXIS2_PLACEMENT_3D('',#1023,#818,#819);
#703=AXIS2_PLACEMENT_3D('',#1024,#820,#821);
#704=AXIS2_PLACEMENT_3D('',#1036,#824,#825);
#705=AXIS2_PLACEMENT_3D('',#1048,#828,#829);
#706=AXIS2_PLACEMENT_3D('',#1051,#831,#832);
#707=AXIS2_PLACEMENT_3D('',#1052,#833,#834);
#708=AXIS2_PLACEMENT_3D('',#1054,#835,#836);
#709=AXIS2_PLACEMENT_3D('',#1066,#837,#838);
#710=AXIS2_PLACEMENT_3D('',#1067,#839,#840);
#711=AXIS2_PLACEMENT_3D('',#1068,#841,#842);
#712=AXIS2_PLACEMENT_3D('',#1070,#843,#844);
#713=AXIS2_PLACEMENT_3D('',#1073,#846,#847);
#714=AXIS2_PLACEMENT_3D('',#1075,#848,#849);
#715=AXIS2_PLACEMENT_3D('',#1077,#851,#852);
#716=AXIS2_PLACEMENT_3D('',#1079,#853,#854);
#717=AXIS2_PLACEMENT_3D('',#1082,#856,#857);
#718=AXIS2_PLACEMENT_3D('',#1084,#858,#859);
#719=AXIS2_PLACEMENT_3D('',#1086,#861,#862);
#720=AXIS2_PLACEMENT_3D('',#1101,#864,#865);
#721=AXIS2_PLACEMENT_3D('',#1131,#866,#867);
#722=AXIS2_PLACEMENT_3D('',#1133,#868,#869);
#723=AXIS2_PLACEMENT_3D('',#1170,#871,#872);
#724=AXIS2_PLACEMENT_3D('',#1172,#873,#874);
#725=AXIS2_PLACEMENT_3D('',#1173,#875,#876);
#726=AXIS2_PLACEMENT_3D('',#1175,#877,#878);
#727=AXIS2_PLACEMENT_3D('',#1179,#881,#882);
#728=AXIS2_PLACEMENT_3D('',#1180,#883,#884);
#729=AXIS2_PLACEMENT_3D('',#1181,#885,#886);
#730=AXIS2_PLACEMENT_3D('',#1183,#887,#888);
#731=AXIS2_PLACEMENT_3D('',#1184,#889,#890);
#732=AXIS2_PLACEMENT_3D('',#1242,#892,#893);
#733=AXIS2_PLACEMENT_3D('',#1243,#894,#895);
#734=AXIS2_PLACEMENT_3D('',#1244,#896,#897);
#735=AXIS2_PLACEMENT_3D('',#1245,#898,#899);
#736=AXIS2_PLACEMENT_3D('',#1247,#901,#902);
#737=AXIS2_PLACEMENT_3D('',#1249,#903,#904);
#738=AXIS2_PLACEMENT_3D('',#1251,#906,#907);
#739=AXIS2_PLACEMENT_3D('',#1253,#909,#910);
#740=AXIS2_PLACEMENT_3D('',#1254,#911,#912);
#741=AXIS2_PLACEMENT_3D('',#1255,#913,#914);
#742=AXIS2_PLACEMENT_3D('',#1256,#915,#916);
#743=AXIS2_PLACEMENT_3D('',#1257,#917,#918);
#744=AXIS2_PLACEMENT_3D('',#1258,#919,#920);
#745=AXIS2_PLACEMENT_3D('',#1259,#921,#922);
#746=AXIS2_PLACEMENT_3D('',#1260,#923,#924);
#747=AXIS2_PLACEMENT_3D('',#1279,#925,#926);
#748=AXIS2_PLACEMENT_3D('',#1280,#927,#928);
#749=AXIS2_PLACEMENT_3D('',#1292,#929,#930);
#750=AXIS2_PLACEMENT_3D('',#1293,#931,#932);
#751=AXIS2_PLACEMENT_3D('',#1308,#933,#934);
#752=AXIS2_PLACEMENT_3D('',#1311,#936,#937);
#753=AXIS2_PLACEMENT_3D('',#1312,#938,#939);
#754=DIRECTION('axis',(0.,0.,1.));
#755=DIRECTION('refdir',(1.,0.,0.));
#756=DIRECTION('center_axis',(1.,0.,0.));
#757=DIRECTION('ref_axis',(0.,1.,0.));
#758=DIRECTION('center_axis',(-0.999930803030744,0.0117638918003619,0.));
#759=DIRECTION('ref_axis',(0.0117638918003619,0.999930803030744,0.));
#760=DIRECTION('',(1.,0.,0.));
#761=DIRECTION('center_axis',(1.,0.,0.));
#762=DIRECTION('ref_axis',(0.,1.,0.));
#763=DIRECTION('center_axis',(0.,0.,1.));
#764=DIRECTION('ref_axis',(1.,0.,0.));
#765=DIRECTION('',(-0.0117638918003619,-0.999930803030744,0.));
#766=DIRECTION('center_axis',(0.,0.,1.));
#767=DIRECTION('ref_axis',(1.,0.,0.));
#768=DIRECTION('',(0.,-1.,0.));
#769=DIRECTION('center_axis',(0.,0.,-1.));
#770=DIRECTION('ref_axis',(1.,0.,0.));
#771=DIRECTION('',(0.,1.,0.));
#772=DIRECTION('center_axis',(0.,0.,1.));
#773=DIRECTION('ref_axis',(1.,0.,0.));
#774=DIRECTION('',(0.,1.,0.));
#775=DIRECTION('center_axis',(0.,0.,1.));
#776=DIRECTION('ref_axis',(1.,0.,0.));
#777=DIRECTION('',(0.,1.,0.));
#778=DIRECTION('center_axis',(0.,0.,-1.));
#779=DIRECTION('ref_axis',(1.,0.,0.));
#780=DIRECTION('',(0.,-1.,0.));
#781=DIRECTION('center_axis',(0.,0.,1.));
#782=DIRECTION('ref_axis',(1.,0.,0.));
#783=DIRECTION('center_axis',(0.,0.,1.));
#784=DIRECTION('ref_axis',(1.,0.,0.));
#785=DIRECTION('center_axis',(0.,0.,1.));
#786=DIRECTION('ref_axis',(1.,0.,0.));
#787=DIRECTION('',(0.,0.,-1.));
#788=DIRECTION('center_axis',(0.,0.,-1.));
#789=DIRECTION('ref_axis',(1.,0.,0.));
#790=DIRECTION('',(0.,0.,1.));
#791=DIRECTION('center_axis',(0.999930803030744,-0.0117638918003619,0.));
#792=DIRECTION('ref_axis',(0.0117638918003619,0.999930803030744,0.));
#793=DIRECTION('',(0.,0.,-1.));
#794=DIRECTION('',(0.0117638918003619,0.999930803030744,0.));
#795=DIRECTION('center_axis',(0.,0.,1.));
#796=DIRECTION('ref_axis',(1.,0.,0.));
#797=DIRECTION('',(0.,0.,1.));
#798=DIRECTION('center_axis',(0.,0.,-1.));
#799=DIRECTION('ref_axis',(1.,0.,0.));
#800=DIRECTION('',(0.,0.,-1.));
#801=DIRECTION('center_axis',(0.,0.,1.));
#802=DIRECTION('ref_axis',(1.,0.,0.));
#803=DIRECTION('center_axis',(0.,0.,-1.));
#804=DIRECTION('ref_axis',(1.,0.,0.));
#805=DIRECTION('',(0.,0.,1.));
#806=DIRECTION('',(0.,0.,1.));
#807=DIRECTION('center_axis',(-1.,0.,0.));
#808=DIRECTION('ref_axis',(0.,-1.,0.));
#809=DIRECTION('',(0.,-1.,0.));
#810=DIRECTION('',(0.,0.,-1.));
#811=DIRECTION('center_axis',(-1.,0.,0.));
#812=DIRECTION('ref_axis',(0.,-1.,0.));
#813=DIRECTION('',(0.,0.,1.));
#814=DIRECTION('',(0.,-1.,0.));
#815=DIRECTION('center_axis',(0.,0.,1.));
#816=DIRECTION('ref_axis',(1.,0.,0.));
#817=DIRECTION('',(0.,0.,1.));
#818=DIRECTION('center_axis',(0.,0.,-1.));
#819=DIRECTION('ref_axis',(1.,0.,0.));
#820=DIRECTION('center_axis',(1.,0.,0.));
#821=DIRECTION('ref_axis',(0.,1.,0.));
#822=DIRECTION('',(0.,1.,0.));
#823=DIRECTION('',(0.,0.,-1.));
#824=DIRECTION('center_axis',(1.,0.,0.));
#825=DIRECTION('ref_axis',(0.,1.,0.));
#826=DIRECTION('',(0.,0.,1.));
#827=DIRECTION('',(0.,1.,0.));
#828=DIRECTION('center_axis',(-1.,0.,0.));
#829=DIRECTION('ref_axis',(0.,-1.,0.));
#830=DIRECTION('',(0.,-1.,0.));
#831=DIRECTION('center_axis',(1.,0.,0.));
#832=DIRECTION('ref_axis',(0.,1.,0.));
#833=DIRECTION('center_axis',(0.,0.,1.));
#834=DIRECTION('ref_axis',(1.,0.,0.));
#835=DIRECTION('center_axis',(0.,0.,-1.));
#836=DIRECTION('ref_axis',(1.,0.,0.));
#837=DIRECTION('center_axis',(0.,0.,-1.));
#838=DIRECTION('ref_axis',(1.,0.,0.));
#839=DIRECTION('center_axis',(0.,0.,1.));
#840=DIRECTION('ref_axis',(1.,0.,0.));
#841=DIRECTION('center_axis',(0.,-1.,0.));
#842=DIRECTION('ref_axis',(0.,0.,-1.));
#843=DIRECTION('center_axis',(0.,1.,0.));
#844=DIRECTION('ref_axis',(0.,0.,-1.));
#845=DIRECTION('',(-1.04972719113862E-16,0.515038074910054,-0.857167300702112));
#846=DIRECTION('center_axis',(0.,1.,0.));
#847=DIRECTION('ref_axis',(0.,0.,-1.));
#848=DIRECTION('center_axis',(0.,-1.,0.));
#849=DIRECTION('ref_axis',(0.,0.,-1.));
#850=DIRECTION('',(0.,1.,0.));
#851=DIRECTION('center_axis',(0.,1.,0.));
#852=DIRECTION('ref_axis',(0.,0.,1.));
#853=DIRECTION('center_axis',(0.,-1.,0.));
#854=DIRECTION('ref_axis',(0.,0.,1.));
#855=DIRECTION('',(-1.04972719113862E-16,-0.515038074910054,0.857167300702112));
#856=DIRECTION('center_axis',(0.,-1.,0.));
#857=DIRECTION('ref_axis',(0.,0.,1.));
#858=DIRECTION('center_axis',(0.,-1.,0.));
#859=DIRECTION('ref_axis',(0.,0.,1.));
#860=DIRECTION('',(0.,-1.,0.));
#861=DIRECTION('center_axis',(-1.,0.,0.));
#862=DIRECTION('ref_axis',(0.,1.,0.));
#863=DIRECTION('',(-1.,0.,0.));
#864=DIRECTION('center_axis',(-1.,0.,0.));
#865=DIRECTION('ref_axis',(0.,1.,0.));
#866=DIRECTION('center_axis',(-1.,0.,0.));
#867=DIRECTION('ref_axis',(0.,1.,0.));
#868=DIRECTION('center_axis',(-1.,0.,0.));
#869=DIRECTION('ref_axis',(0.,1.,0.));
#870=DIRECTION('',(-1.,0.,0.));
#871=DIRECTION('center_axis',(0.,1.,0.));
#872=DIRECTION('ref_axis',(1.,0.,0.));
#873=DIRECTION('center_axis',(0.,1.,0.));
#874=DIRECTION('ref_axis',(1.,0.,0.));
#875=DIRECTION('center_axis',(0.,0.,1.));
#876=DIRECTION('ref_axis',(1.,0.,0.));
#877=DIRECTION('center_axis',(0.,0.,1.));
#878=DIRECTION('ref_axis',(1.,0.,0.));
#879=DIRECTION('',(0.,0.,1.));
#880=DIRECTION('',(0.,0.,1.));
#881=DIRECTION('center_axis',(0.,0.,-1.));
#882=DIRECTION('ref_axis',(1.,0.,0.));
#883=DIRECTION('center_axis',(1.,0.,0.));
#884=DIRECTION('ref_axis',(0.,1.,0.));
#885=DIRECTION('center_axis',(1.,0.,0.));
#886=DIRECTION('ref_axis',(0.,1.,0.));
#887=DIRECTION('center_axis',(-1.,0.,0.));
#888=DIRECTION('ref_axis',(0.,1.,0.));
#889=DIRECTION('center_axis',(0.,-1.,0.));
#890=DIRECTION('ref_axis',(1.,0.,0.));
#891=DIRECTION('',(0.,-1.,0.));
#892=DIRECTION('center_axis',(0.,0.,1.));
#893=DIRECTION('ref_axis',(1.,0.,0.));
#894=DIRECTION('center_axis',(0.,0.,1.));
#895=DIRECTION('ref_axis',(1.,0.,0.));
#896=DIRECTION('center_axis',(0.,0.,-1.));
#897=DIRECTION('ref_axis',(1.,0.,0.));
#898=DIRECTION('center_axis',(0.,0.,1.));
#899=DIRECTION('ref_axis',(1.,0.,0.));
#900=DIRECTION('',(0.707106781186547,8.65956056235493E-17,-0.707106781186547));
#901=DIRECTION('center_axis',(0.,0.,-1.));
#902=DIRECTION('ref_axis',(1.,0.,0.));
#903=DIRECTION('center_axis',(0.,0.,-1.));
#904=DIRECTION('ref_axis',(1.,0.,0.));
#905=DIRECTION('',(0.707106781186547,-8.65956056235493E-17,0.707106781186547));
#906=DIRECTION('center_axis',(-1.,0.,0.));
#907=DIRECTION('ref_axis',(0.,1.,0.));
#908=DIRECTION('',(-1.,0.,0.));
#909=DIRECTION('center_axis',(0.,0.,-1.));
#910=DIRECTION('ref_axis',(1.,0.,0.));
#911=DIRECTION('center_axis',(0.,0.,1.));
#912=DIRECTION('ref_axis',(1.,0.,0.));
#913=DIRECTION('center_axis',(0.,0.,1.));
#914=DIRECTION('ref_axis',(1.,0.,0.));
#915=DIRECTION('center_axis',(0.,0.,-1.));
#916=DIRECTION('ref_axis',(1.,0.,0.));
#917=DIRECTION('center_axis',(0.,0.,1.));
#918=DIRECTION('ref_axis',(1.,0.,0.));
#919=DIRECTION('center_axis',(0.,0.,1.));
#920=DIRECTION('ref_axis',(1.,0.,0.));
#921=DIRECTION('center_axis',(0.,0.,1.));
#922=DIRECTION('ref_axis',(1.,0.,0.));
#923=DIRECTION('center_axis',(0.,0.,1.));
#924=DIRECTION('ref_axis',(1.,0.,0.));
#925=DIRECTION('center_axis',(0.,0.,1.));
#926=DIRECTION('ref_axis',(1.,0.,0.));
#927=DIRECTION('center_axis',(0.,0.,-1.));
#928=DIRECTION('ref_axis',(1.,0.,0.));
#929=DIRECTION('center_axis',(0.,0.,1.));
#930=DIRECTION('ref_axis',(1.,0.,0.));
#931=DIRECTION('center_axis',(0.,0.,1.));
#932=DIRECTION('ref_axis',(1.,0.,0.));
#933=DIRECTION('center_axis',(0.,1.,0.));
#934=DIRECTION('ref_axis',(1.,0.,0.));
#935=DIRECTION('',(0.,1.,0.));
#936=DIRECTION('center_axis',(0.,1.,0.));
#937=DIRECTION('ref_axis',(1.,0.,0.));
#938=DIRECTION('center_axis',(0.,1.,0.));
#939=DIRECTION('ref_axis',(1.,0.,0.));
#940=CARTESIAN_POINT('',(0.,0.,0.));
#941=CARTESIAN_POINT('Origin',(-100.,0.,42.5001759910583));
#942=CARTESIAN_POINT('',(-61.1294117647059,-11.,42.5001759910583));
#943=CARTESIAN_POINT('Origin',(-61.,0.,42.5001759910583));
#944=CARTESIAN_POINT('',(-53.,-11.,42.5001759910583));
#945=CARTESIAN_POINT('',(-100.,-11.,42.5001759910583));
#946=CARTESIAN_POINT('Origin',(-53.,0.,42.5001759910583));
#947=CARTESIAN_POINT('Origin',(0.,0.,60.));
#948=CARTESIAN_POINT('',(-60.4781732161827,44.3552766244717,60.));
#949=CARTESIAN_POINT('',(-61.5049433074819,-42.920181135958,60.));
#950=CARTESIAN_POINT('',(-60.9873373927484,1.07632161638456,60.));
#951=CARTESIAN_POINT('',(-15.,-73.4846922834953,60.));
#952=CARTESIAN_POINT('Origin',(0.,0.,60.));
#953=CARTESIAN_POINT('',(-15.,-85.6971411425142,60.));
#954=CARTESIAN_POINT('',(-15.,-46.9041575982343,60.));
#955=CARTESIAN_POINT('',(15.0000002235174,-85.6971411033908,60.));
#956=CARTESIAN_POINT('Origin',(0.,0.,60.));
#957=CARTESIAN_POINT('',(15.0000002235174,-73.48469223787,60.));
#958=CARTESIAN_POINT('',(15.0000002235174,-36.742346118935,60.));
#959=CARTESIAN_POINT('',(61.,-43.6348484585429,60.));
#960=CARTESIAN_POINT('Origin',(0.,0.,60.));
#961=CARTESIAN_POINT('',(61.,43.6348484585429,60.));
#962=CARTESIAN_POINT('',(61.,42.5,60.));
#963=CARTESIAN_POINT('',(15.0000002235174,73.48469223787,60.));
#964=CARTESIAN_POINT('Origin',(0.,0.,60.));
#965=CARTESIAN_POINT('',(15.0000002235174,85.6971411033908,60.));
#966=CARTESIAN_POINT('',(15.0000002235174,46.904157580364,60.));
#967=CARTESIAN_POINT('',(-15.,85.6971411425142,60.));
#968=CARTESIAN_POINT('Origin',(0.,0.,60.));
#969=CARTESIAN_POINT('',(-15.,73.4846922834953,60.));
#970=CARTESIAN_POINT('',(-15.,36.7423461417477,60.));
#971=CARTESIAN_POINT('Origin',(0.,0.,60.));
#972=CARTESIAN_POINT('',(-58.,-7.10295143505465E-15,60.));
#973=CARTESIAN_POINT('Origin',(0.,0.,60.));
#974=CARTESIAN_POINT('Origin',(0.,0.,0.));
#975=CARTESIAN_POINT('',(-61.5049433074819,-42.920181135958,25.));
#976=CARTESIAN_POINT('',(-61.5049433074819,-42.920181135958,0.));
#977=CARTESIAN_POINT('',(-15.,-73.4846922834953,25.));
#978=CARTESIAN_POINT('Origin',(0.,0.,25.));
#979=CARTESIAN_POINT('',(-15.,-73.4846922834953,0.));
#980=CARTESIAN_POINT('Origin',(-60.9831165236646,1.43509548851227,25.));
#981=CARTESIAN_POINT('',(-60.4781732161827,44.3552766244717,25.));
#982=CARTESIAN_POINT('',(-60.4781732161827,44.3552766244717,0.));
#983=CARTESIAN_POINT('',(-60.9873373927484,1.07632161638456,25.));
#984=CARTESIAN_POINT('Origin',(0.,0.,0.));
#985=CARTESIAN_POINT('',(15.0000002235174,-73.48469223787,25.));
#986=CARTESIAN_POINT('',(15.0000002235174,-73.48469223787,0.));
#987=CARTESIAN_POINT('',(61.,-43.6348484585429,25.));
#988=CARTESIAN_POINT('Origin',(0.,0.,25.));
#989=CARTESIAN_POINT('',(61.,-43.6348484585429,0.));
#990=CARTESIAN_POINT('Origin',(0.,0.,0.));
#991=CARTESIAN_POINT('',(15.0000002235174,73.48469223787,25.));
#992=CARTESIAN_POINT('',(61.,43.6348484585429,25.));
#993=CARTESIAN_POINT('Origin',(0.,0.,25.));
#994=CARTESIAN_POINT('',(15.0000002235174,73.48469223787,0.));
#995=CARTESIAN_POINT('',(61.,43.6348484585429,0.));
#996=CARTESIAN_POINT('Origin',(15.0000002235174,93.808315160728,0.));
#997=CARTESIAN_POINT('',(15.0000002235174,85.6971411033908,25.));
#998=CARTESIAN_POINT('',(15.0000002235174,46.904157580364,25.));
#999=CARTESIAN_POINT('',(15.0000002235174,93.808315160728,33.));
#1000=CARTESIAN_POINT('Ctrl Pts',(15.0000002235174,93.808315160728,33.));
#1001=CARTESIAN_POINT('Ctrl Pts',(15.0000002235174,89.5744605703145,28.8192550972399));
#1002=CARTESIAN_POINT('Ctrl Pts',(15.0000002235174,85.6971411033908,25.));
#1003=CARTESIAN_POINT('',(15.0000002235174,93.808315160728,52.));
#1004=CARTESIAN_POINT('',(15.0000002235174,93.808315160728,35.));
#1005=CARTESIAN_POINT('Ctrl Pts',(15.0000002235174,85.6971411033908,60.));
#1006=CARTESIAN_POINT('Ctrl Pts',(15.0000002235174,89.5744605701834,56.1807449028893));
#1007=CARTESIAN_POINT('Ctrl Pts',(15.0000002235174,93.808315160728,52.));
#1008=CARTESIAN_POINT('Origin',(15.0000002235174,-73.4846922378701,0.));
#1009=CARTESIAN_POINT('',(15.0000002235174,-93.808315160728,52.));
#1010=CARTESIAN_POINT('Ctrl Pts',(15.0000002235174,-93.808315160728,52.));
#1011=CARTESIAN_POINT('Ctrl Pts',(15.0000002235174,-89.5744605704,56.1807449026756));
#1012=CARTESIAN_POINT('Ctrl Pts',(15.0000002235174,-85.6971411033908,60.));
#1013=CARTESIAN_POINT('',(15.0000002235174,-93.808315160728,33.));
#1014=CARTESIAN_POINT('',(15.0000002235174,-93.808315160728,35.));
#1015=CARTESIAN_POINT('',(15.0000002235174,-85.6971411033908,25.));
#1016=CARTESIAN_POINT('Ctrl Pts',(15.0000002235174,-85.6971411033908,25.));
#1017=CARTESIAN_POINT('Ctrl Pts',(15.0000002235174,-89.5744605700997,28.8192550970281));
#1018=CARTESIAN_POINT('Ctrl Pts',(15.0000002235174,-93.808315160728,33.));
#1019=CARTESIAN_POINT('',(15.0000002235174,-36.742346118935,25.));
#1020=CARTESIAN_POINT('Origin',(0.,0.,0.));
#1021=CARTESIAN_POINT('',(-15.,73.4846922834953,25.));
#1022=CARTESIAN_POINT('',(-15.,73.4846922834953,0.));
#1023=CARTESIAN_POINT('Origin',(0.,0.,25.));
#1024=CARTESIAN_POINT('Origin',(-15.,-93.8083151964686,0.));
#1025=CARTESIAN_POINT('',(-15.,-85.6971411425142,25.));
#1026=CARTESIAN_POINT('',(-15.,-46.9041575982343,25.));
#1027=CARTESIAN_POINT('',(-15.,-93.8083151964686,33.));
#1028=CARTESIAN_POINT('Ctrl Pts',(-15.,-93.8083151964686,33.));
#1029=CARTESIAN_POINT('Ctrl Pts',(-15.,-89.5744606080773,28.8192550976437));
#1030=CARTESIAN_POINT('Ctrl Pts',(-15.,-85.6971411425142,25.));
#1031=CARTESIAN_POINT('',(-15.,-93.8083151964686,52.));
#1032=CARTESIAN_POINT('',(-15.,-93.8083151964686,35.));
#1033=CARTESIAN_POINT('Ctrl Pts',(-15.,-85.6971411425142,60.));
#1034=CARTESIAN_POINT('Ctrl Pts',(-15.,-89.5744606083704,56.1807449020672));
#1035=CARTESIAN_POINT('Ctrl Pts',(-15.,-93.8083151964686,52.));
#1036=CARTESIAN_POINT('Origin',(-15.,73.4846922834954,0.));
#1037=CARTESIAN_POINT('',(-15.,93.8083151964686,52.));
#1038=CARTESIAN_POINT('Ctrl Pts',(-15.,93.8083151964686,52.));
#1039=CARTESIAN_POINT('Ctrl Pts',(-15.,89.5744606085696,56.1807449018707));
#1040=CARTESIAN_POINT('Ctrl Pts',(-15.,85.6971411425142,60.));
#1041=CARTESIAN_POINT('',(-15.,93.8083151964686,33.));
#1042=CARTESIAN_POINT('',(-15.,93.8083151964686,35.));
#1043=CARTESIAN_POINT('',(-15.,85.6971411425142,25.));
#1044=CARTESIAN_POINT('Ctrl Pts',(-15.,85.6971411425142,25.));
#1045=CARTESIAN_POINT('Ctrl Pts',(-15.,89.5744606082919,28.8192550978554));
#1046=CARTESIAN_POINT('Ctrl Pts',(-15.,93.8083151964686,33.));
#1047=CARTESIAN_POINT('',(-15.,36.7423461417477,25.));
#1048=CARTESIAN_POINT('Origin',(61.,85.,25.));
#1049=CARTESIAN_POINT('',(61.,42.5,25.));
#1050=CARTESIAN_POINT('',(61.,-11.,42.5003879020608));
#1051=CARTESIAN_POINT('Origin',(61.,0.,42.5003879020608));
#1052=CARTESIAN_POINT('Origin',(0.,0.,29.));
#1053=CARTESIAN_POINT('',(5.54502971429352,-94.8380337494805,33.));
#1054=CARTESIAN_POINT('Origin',(0.,0.,33.));
#1055=CARTESIAN_POINT('',(-5.54502971429352,-94.8380337494805,33.));
#1056=CARTESIAN_POINT('Ctrl Pts',(5.54502971429349,-94.8380337494805,33.));
#1057=CARTESIAN_POINT('Ctrl Pts',(4.9969829208838,-94.549647589197,32.680116714146));
#1058=CARTESIAN_POINT('Ctrl Pts',(4.39827058795034,-94.2949086286466,32.3953780753406));
#1059=CARTESIAN_POINT('Ctrl Pts',(2.57364349557327,-93.702301403653,31.7302463174849));
#1060=CARTESIAN_POINT('Ctrl Pts',(1.25645880022684,-93.5001392341167,31.5001392341167));
#1061=CARTESIAN_POINT('Ctrl Pts',(-1.25645880022684,-93.5001392341167,31.5001392341167));
#1062=CARTESIAN_POINT('Ctrl Pts',(-2.57364349557327,-93.702301403653,31.7302463174849));
#1063=CARTESIAN_POINT('Ctrl Pts',(-4.39827058795033,-94.2949086286465,32.3953780753406));
#1064=CARTESIAN_POINT('Ctrl Pts',(-4.99698292088381,-94.549647589197,32.680116714146));
#1065=CARTESIAN_POINT('Ctrl Pts',(-5.54502971429349,-94.8380337494805,33.));
#1066=CARTESIAN_POINT('Origin',(0.,0.,33.));
#1067=CARTESIAN_POINT('Origin',(0.,0.,25.));
#1068=CARTESIAN_POINT('Origin',(4.28798901577131E-16,-55.9816516191974,
42.5001392341167));
#1069=CARTESIAN_POINT('',(8.43923550318105E-16,-57.,45.8898892341167));
#1070=CARTESIAN_POINT('Origin',(4.28798901577131E-16,-57.,42.5001392341167));
#1071=CARTESIAN_POINT('',(4.28798901577131E-16,-54.9632327166513,42.5001392341167));
#1072=CARTESIAN_POINT('',(6.36368412658202E-16,-55.9816516191974,44.195072918062));
#1073=CARTESIAN_POINT('Origin',(4.28798901577131E-16,-72.,42.5001392341167));
#1074=CARTESIAN_POINT('',(1.36742528361573E-17,-87.,45.8898892341167));
#1075=CARTESIAN_POINT('Origin',(4.28798901577131E-16,-87.,42.5001392341167));
#1076=CARTESIAN_POINT('',(8.43923550318105E-16,-72.,45.8898892341167));
#1077=CARTESIAN_POINT('Origin',(4.28798901577131E-16,55.9816516191974,42.5004719197358));
#1078=CARTESIAN_POINT('',(8.43923550318105E-16,57.,39.1107219197358));
#1079=CARTESIAN_POINT('Origin',(4.28798901577131E-16,57.,42.5004719197358));
#1080=CARTESIAN_POINT('',(4.28798901577131E-16,54.9632327166513,42.5004719197358));
#1081=CARTESIAN_POINT('',(6.36368412658202E-16,55.9816516191974,40.8055382357905));
#1082=CARTESIAN_POINT('Origin',(4.28798901577131E-16,72.,42.5004719197358));
#1083=CARTESIAN_POINT('',(8.43923550318105E-16,87.,39.1107219197358));
#1084=CARTESIAN_POINT('Origin',(4.28798901577131E-16,87.,42.5004719197358));
#1085=CARTESIAN_POINT('',(8.43923550318105E-16,72.,39.1107219197358));
#1086=CARTESIAN_POINT('Origin',(0.,0.,42.5001759910583));
#1087=CARTESIAN_POINT('',(-49.8397431775085,-4.,42.5001759910583));
#1088=CARTESIAN_POINT('',(-50.,-2.8881446502707E-15,46.5001759910584));
#1089=CARTESIAN_POINT('Ctrl Pts',(-50.,4.16333634234434E-16,46.5001759910584));
#1090=CARTESIAN_POINT('Ctrl Pts',(-50.,-0.502478991716116,46.5001759910584));
#1091=CARTESIAN_POINT('Ctrl Pts',(-49.9916486186816,-1.03830452184392,46.3997115081026));
#1092=CARTESIAN_POINT('Ctrl Pts',(-49.9614592272676,-2.02375882434164,45.9914298813742));
#1093=CARTESIAN_POINT('Ctrl Pts',(-49.9400511557121,-2.47340563701702,45.6836246035337));
#1094=CARTESIAN_POINT('Ctrl Pts',(-49.8998206111277,-3.18344910577019,44.9735811347805));
#1095=CARTESIAN_POINT('Ctrl Pts',(-49.8783825693667,-3.49125400160495,44.5239345404086));
#1096=CARTESIAN_POINT('Ctrl Pts',(-49.8481246039391,-3.89953533462842,43.5384809595697));
#1097=CARTESIAN_POINT('Ctrl Pts',(-49.8397431775085,-4.,43.0026556809584));
#1098=CARTESIAN_POINT('Ctrl Pts',(-49.8397431775085,-4.,42.5001759910583));
#1099=CARTESIAN_POINT('',(-53.,-4.,42.5001759910583));
#1100=CARTESIAN_POINT('',(0.,-4.,42.5001759910583));
#1101=CARTESIAN_POINT('Origin',(-53.,0.,42.5001759910583));
#1102=CARTESIAN_POINT('',(-50.,-2.57589442459488E-15,38.5001759910584));
#1103=CARTESIAN_POINT('Ctrl Pts',(-49.8397431775085,-4.,42.5001759910583));
#1104=CARTESIAN_POINT('Ctrl Pts',(-49.8397431775085,-4.,41.9976963011583));
#1105=CARTESIAN_POINT('Ctrl Pts',(-49.8481246039391,-3.89953533462843,41.461871022547));
#1106=CARTESIAN_POINT('Ctrl Pts',(-49.8783825693667,-3.49125400160494,40.4764174417081));
#1107=CARTESIAN_POINT('Ctrl Pts',(-49.8998206111277,-3.18344910577019,40.0267708473362));
#1108=CARTESIAN_POINT('Ctrl Pts',(-49.9400511557121,-2.47340563701701,39.316727378583));
#1109=CARTESIAN_POINT('Ctrl Pts',(-49.9614592272676,-2.02375882434163,39.0089221007425));
#1110=CARTESIAN_POINT('Ctrl Pts',(-49.9916486186816,-1.03830452184391,38.6006404740141));
#1111=CARTESIAN_POINT('Ctrl Pts',(-50.,-0.502478991716113,38.5001759910583));
#1112=CARTESIAN_POINT('Ctrl Pts',(-50.,1.66533453693773E-15,38.5001759910583));
#1113=CARTESIAN_POINT('Ctrl Pts',(-50.,1.11022302462516E-15,38.5001759910584));
#1114=CARTESIAN_POINT('Ctrl Pts',(-50.,0.502478991716117,38.5001759910584));
#1115=CARTESIAN_POINT('Ctrl Pts',(-49.9916486186816,1.03830452184392,38.6006404740141));
#1116=CARTESIAN_POINT('Ctrl Pts',(-49.9614592272676,2.02375882434164,39.0089221007425));
#1117=CARTESIAN_POINT('Ctrl Pts',(-49.9400511557121,2.47340563701702,39.316727378583));
#1118=CARTESIAN_POINT('Ctrl Pts',(-49.8998206111277,3.18344910577019,40.0267708473362));
#1119=CARTESIAN_POINT('Ctrl Pts',(-49.8783825693667,3.49125400160494,40.4764174417081));
#1120=CARTESIAN_POINT('Ctrl Pts',(-49.8481246039391,3.89953533462843,41.461871022547));
#1121=CARTESIAN_POINT('Ctrl Pts',(-49.8397431775085,4.,41.9976963011583));
#1122=CARTESIAN_POINT('Ctrl Pts',(-49.8397431775085,4.,43.0026556809584));
#1123=CARTESIAN_POINT('Ctrl Pts',(-49.8481246039391,3.89953533462843,43.5384809595697));
#1124=CARTESIAN_POINT('Ctrl Pts',(-49.8783825693667,3.49125400160494,44.5239345404086));
#1125=CARTESIAN_POINT('Ctrl Pts',(-49.8998206111277,3.18344910577019,44.9735811347805));
#1126=CARTESIAN_POINT('Ctrl Pts',(-49.9400511557121,2.47340563701701,45.6836246035337));
#1127=CARTESIAN_POINT('Ctrl Pts',(-49.9614592272676,2.02375882434163,45.9914298813742));
#1128=CARTESIAN_POINT('Ctrl Pts',(-49.9916486186816,1.03830452184391,46.3997115081026));
#1129=CARTESIAN_POINT('Ctrl Pts',(-50.,0.502478991716113,46.5001759910583));
#1130=CARTESIAN_POINT('Ctrl Pts',(-50.,-1.2490009027033E-15,46.5001759910583));
#1131=CARTESIAN_POINT('Origin',(0.,0.,42.4441759910583));
#1132=CARTESIAN_POINT('',(53.,-4.,42.4441759910583));
#1133=CARTESIAN_POINT('Origin',(53.,0.,42.4441759910583));
#1134=CARTESIAN_POINT('',(49.8397431775085,-4.,42.4441759910583));
#1135=CARTESIAN_POINT('',(0.,-4.,42.4441759910583));
#1136=CARTESIAN_POINT('Ctrl Pts',(49.8397431775085,-4.,42.4441759910583));
#1137=CARTESIAN_POINT('Ctrl Pts',(49.8397431775085,-4.,42.9466556809584));
#1138=CARTESIAN_POINT('Ctrl Pts',(49.8481246039391,-3.89953533462843,43.4824809595697));
#1139=CARTESIAN_POINT('Ctrl Pts',(49.8783825693667,-3.49125400160494,44.4679345404086));
#1140=CARTESIAN_POINT('Ctrl Pts',(49.8998206111277,-3.18344910577019,44.9175811347805));
#1141=CARTESIAN_POINT('Ctrl Pts',(49.9400511557121,-2.47340563701702,45.6276246035337));
#1142=CARTESIAN_POINT('Ctrl Pts',(49.9614592272676,-2.02375882434164,45.9354298813742));
#1143=CARTESIAN_POINT('Ctrl Pts',(49.9916486186816,-1.03830452184392,46.3437115081026));
#1144=CARTESIAN_POINT('Ctrl Pts',(50.,-0.502478991716116,46.4441759910583));
#1145=CARTESIAN_POINT('Ctrl Pts',(50.,0.502478991716116,46.4441759910583));
#1146=CARTESIAN_POINT('Ctrl Pts',(49.9916486186816,1.03830452184392,46.3437115081026));
#1147=CARTESIAN_POINT('Ctrl Pts',(49.9614592272676,2.02375882434164,45.9354298813742));
#1148=CARTESIAN_POINT('Ctrl Pts',(49.9400511557121,2.47340563701702,45.6276246035337));
#1149=CARTESIAN_POINT('Ctrl Pts',(49.8998206111277,3.18344910577019,44.9175811347805));
#1150=CARTESIAN_POINT('Ctrl Pts',(49.8783825693667,3.49125400160494,44.4679345404086));
#1151=CARTESIAN_POINT('Ctrl Pts',(49.8481246039391,3.89953533462843,43.4824809595697));
#1152=CARTESIAN_POINT('Ctrl Pts',(49.8397431775085,4.,42.9466556809584));
#1153=CARTESIAN_POINT('Ctrl Pts',(49.8397431775085,4.,41.9416963011583));
#1154=CARTESIAN_POINT('Ctrl Pts',(49.8481246039391,3.89953533462843,41.405871022547));
#1155=CARTESIAN_POINT('Ctrl Pts',(49.8783825693667,3.49125400160495,40.4204174417081));
#1156=CARTESIAN_POINT('Ctrl Pts',(49.8998206111277,3.18344910577019,39.9707708473362));
#1157=CARTESIAN_POINT('Ctrl Pts',(49.9400511557121,2.47340563701702,39.260727378583));
#1158=CARTESIAN_POINT('Ctrl Pts',(49.9614592272676,2.02375882434164,38.9529221007425));
#1159=CARTESIAN_POINT('Ctrl Pts',(49.9916486186816,1.03830452184392,38.5446404740141));
#1160=CARTESIAN_POINT('Ctrl Pts',(50.,0.502478991716117,38.4441759910583));
#1161=CARTESIAN_POINT('Ctrl Pts',(50.,-0.502478991716113,38.4441759910584));
#1162=CARTESIAN_POINT('Ctrl Pts',(49.9916486186816,-1.03830452184392,38.5446404740141));
#1163=CARTESIAN_POINT('Ctrl Pts',(49.9614592272676,-2.02375882434164,38.9529221007425));
#1164=CARTESIAN_POINT('Ctrl Pts',(49.9400511557121,-2.47340563701701,39.260727378583));
#1165=CARTESIAN_POINT('Ctrl Pts',(49.8998206111277,-3.18344910577019,39.9707708473362));
#1166=CARTESIAN_POINT('Ctrl Pts',(49.8783825693667,-3.49125400160494,40.4204174417081));
#1167=CARTESIAN_POINT('Ctrl Pts',(49.8481246039391,-3.89953533462843,41.405871022547));
#1168=CARTESIAN_POINT('Ctrl Pts',(49.8397431775085,-4.,41.9416963011583));
#1169=CARTESIAN_POINT('Ctrl Pts',(49.8397431775085,-4.,42.4441759910583));
#1170=CARTESIAN_POINT('Origin',(0.,87.,39.5804719197358));
#1171=CARTESIAN_POINT('',(-11.,87.,42.5004719197358));
#1172=CARTESIAN_POINT('Origin',(0.,87.,42.5004719197358));
#1173=CARTESIAN_POINT('Origin',(0.,0.,35.));
#1174=CARTESIAN_POINT('',(-50.,-6.12323399573677E-15,33.));
#1175=CARTESIAN_POINT('Origin',(0.,0.,33.));
#1176=CARTESIAN_POINT('',(-50.,-6.12323399573677E-15,35.));
#1177=CARTESIAN_POINT('',(-50.,6.12323399573677E-15,52.));
#1178=CARTESIAN_POINT('',(-50.,-6.12323399573677E-15,35.));
#1179=CARTESIAN_POINT('Origin',(0.,0.,52.));
#1180=CARTESIAN_POINT('Origin',(-53.,0.,42.2101759910583));
#1181=CARTESIAN_POINT('Origin',(53.,0.,42.2663879020608));
#1182=CARTESIAN_POINT('',(53.,-11.,42.5003879020608));
#1183=CARTESIAN_POINT('Origin',(53.,0.,42.5003879020608));
#1184=CARTESIAN_POINT('Origin',(0.,100.,42.5004719197358));
#1185=CARTESIAN_POINT('',(-5.54445969435363,94.8380670759252,33.));
#1186=CARTESIAN_POINT('',(5.54445969435363,94.8380670759252,33.));
#1187=CARTESIAN_POINT('Ctrl Pts',(-5.54445969435361,94.8380670759252,33.));
#1188=CARTESIAN_POINT('Ctrl Pts',(-4.99656847646699,94.5498037355048,32.6802515916971));
#1189=CARTESIAN_POINT('Ctrl Pts',(-4.39805240626854,94.2951708571327,32.3956312821432));
#1190=CARTESIAN_POINT('Ctrl Pts',(-2.57364410365916,93.7026342923062,31.7305791206685));
#1191=CARTESIAN_POINT('Ctrl Pts',(-1.25645912908869,93.5004719197358,31.5004719197358));
#1192=CARTESIAN_POINT('Ctrl Pts',(1.25645912908869,93.5004719197358,31.5004719197358));
#1193=CARTESIAN_POINT('Ctrl Pts',(2.57364410365917,93.7026342923062,31.7305791206685));
#1194=CARTESIAN_POINT('Ctrl Pts',(4.39805240626855,94.2951708571327,32.3956312821432));
#1195=CARTESIAN_POINT('Ctrl Pts',(4.99656847646699,94.5498037355048,32.6802515916971));
#1196=CARTESIAN_POINT('Ctrl Pts',(5.5444596943536,94.8380670759252,33.));
#1197=CARTESIAN_POINT('',(-11.,94.3610088966836,42.5004719197358));
#1198=CARTESIAN_POINT('Ctrl Pts',(-5.54445969435362,94.8380670759252,33.));
#1199=CARTESIAN_POINT('Ctrl Pts',(-6.37661804490759,94.7894171131389,33.4856462366235));
#1200=CARTESIAN_POINT('Ctrl Pts',(-7.1332225974405,94.7340271798965,34.0773453310723));
#1201=CARTESIAN_POINT('Ctrl Pts',(-8.75411910842701,94.6008683595832,35.6982418420588));
#1202=CARTESIAN_POINT('Ctrl Pts',(-9.60047459778899,94.5153416298626,36.9343321258331));
#1203=CARTESIAN_POINT('Ctrl Pts',(-10.7234487628963,94.3945261357705,39.6441335017942));
#1204=CARTESIAN_POINT('Ctrl Pts',(-11.,94.3610088966836,41.1179512331619));
#1205=CARTESIAN_POINT('Ctrl Pts',(-11.,94.3610088966836,42.5004719197358));
#1206=CARTESIAN_POINT('',(-11.,100.,42.5004719197358));
#1207=CARTESIAN_POINT('',(-5.54607665402072,94.8379725307734,52.));
#1208=CARTESIAN_POINT('Ctrl Pts',(-11.,94.3610088966836,42.5004719197358));
#1209=CARTESIAN_POINT('Ctrl Pts',(-11.,94.3610088966836,43.8829926063097));
#1210=CARTESIAN_POINT('Ctrl Pts',(-10.7234487628963,94.3945261357705,45.3568103376775));
#1211=CARTESIAN_POINT('Ctrl Pts',(-9.60047459778899,94.5153416298626,48.0666117136386));
#1212=CARTESIAN_POINT('Ctrl Pts',(-8.75411910842701,94.6008683595832,49.3027019974129));
#1213=CARTESIAN_POINT('Ctrl Pts',(-7.13364026645844,94.733992867827,50.9231808393814));
#1214=CARTESIAN_POINT('Ctrl Pts',(-6.37760051353384,94.7893454361462,51.5145342983839));
#1215=CARTESIAN_POINT('Ctrl Pts',(-5.54607665402071,94.8379725307734,52.));
#1216=CARTESIAN_POINT('',(5.54607665402072,94.8379725307734,52.));
#1217=CARTESIAN_POINT('Ctrl Pts',(5.54607665402069,94.8379725307734,52.));
#1218=CARTESIAN_POINT('Ctrl Pts',(4.99774416548463,94.5493607421507,52.3201310620502));
#1219=CARTESIAN_POINT('Ctrl Pts',(4.39867135204133,94.2944268926974,52.6050870890265));
#1220=CARTESIAN_POINT('Ctrl Pts',(2.57364237849077,93.7016898768174,53.2703650523388));
#1221=CARTESIAN_POINT('Ctrl Pts',(1.25645819609216,93.4995280802642,53.5004719197358));
#1222=CARTESIAN_POINT('Ctrl Pts',(-1.25645819609216,93.4995280802642,53.5004719197358));
#1223=CARTESIAN_POINT('Ctrl Pts',(-2.57364237849077,93.7016898768174,53.2703650523388));
#1224=CARTESIAN_POINT('Ctrl Pts',(-4.39867135204133,94.2944268926974,52.6050870890265));
#1225=CARTESIAN_POINT('Ctrl Pts',(-4.9977441654846,94.5493607421507,52.3201310620502));
#1226=CARTESIAN_POINT('Ctrl Pts',(-5.54607665402068,94.8379725307734,52.));
#1227=CARTESIAN_POINT('Ctrl Pts',(5.5460766540207,94.8379725307734,52.));
#1228=CARTESIAN_POINT('Ctrl Pts',(6.37760051353383,94.7893454361462,51.5145342983839));
#1229=CARTESIAN_POINT('Ctrl Pts',(7.13364026645844,94.733992867827,50.9231808393814));
#1230=CARTESIAN_POINT('Ctrl Pts',(8.75411910842701,94.6008683595832,49.3027019974129));
#1231=CARTESIAN_POINT('Ctrl Pts',(9.60047459778899,94.5153416298626,48.0666117136386));
#1232=CARTESIAN_POINT('Ctrl Pts',(10.7234487628963,94.3945261357705,45.3568103376775));
#1233=CARTESIAN_POINT('Ctrl Pts',(11.,94.3610088966836,43.8829926063097));
#1234=CARTESIAN_POINT('Ctrl Pts',(11.,94.3610088966836,42.5004719197358));
#1235=CARTESIAN_POINT('Ctrl Pts',(11.,94.3610088966836,41.117951233162));
#1236=CARTESIAN_POINT('Ctrl Pts',(10.7234487628963,94.3945261357705,39.6441335017942));
#1237=CARTESIAN_POINT('Ctrl Pts',(9.60047459778899,94.5153416298626,36.9343321258331));
#1238=CARTESIAN_POINT('Ctrl Pts',(8.75411910842701,94.6008683595832,35.6982418420588));
#1239=CARTESIAN_POINT('Ctrl Pts',(7.1332225974405,94.7340271798965,34.0773453310723));
#1240=CARTESIAN_POINT('Ctrl Pts',(6.37661804490759,94.7894171131389,33.4856462366235));
#1241=CARTESIAN_POINT('Ctrl Pts',(5.54445969435363,94.8380670759252,33.));
#1242=CARTESIAN_POINT('Origin',(0.,0.,35.));
#1243=CARTESIAN_POINT('Origin',(0.,0.,52.));
#1244=CARTESIAN_POINT('Origin',(0.,0.,33.));
#1245=CARTESIAN_POINT('Origin',(0.,0.,56.));
#1246=CARTESIAN_POINT('',(-54.,-6.61309271539571E-15,56.));
#1247=CARTESIAN_POINT('Origin',(0.,0.,29.));
#1248=CARTESIAN_POINT('',(-58.,7.10295143505465E-15,25.));
#1249=CARTESIAN_POINT('Origin',(0.,0.,25.));
#1250=CARTESIAN_POINT('',(-54.,6.61309271539571E-15,29.));
#1251=CARTESIAN_POINT('Origin',(100.,0.,42.5003879020608));
#1252=CARTESIAN_POINT('',(100.,-11.,42.5003879020608));
#1253=CARTESIAN_POINT('Origin',(0.,0.,56.));
#1254=CARTESIAN_POINT('Origin',(0.,0.,52.));
#1255=CARTESIAN_POINT('Origin',(0.,0.,35.));
#1256=CARTESIAN_POINT('Origin',(0.,0.,33.));
#1257=CARTESIAN_POINT('Origin',(0.,0.,29.));
#1258=CARTESIAN_POINT('Origin',(0.,0.,25.));
#1259=CARTESIAN_POINT('Origin',(0.,0.,25.));
#1260=CARTESIAN_POINT('Origin',(0.,0.,35.));
#1261=CARTESIAN_POINT('',(-11.,-94.3610088966836,42.5001392341167));
#1262=CARTESIAN_POINT('Ctrl Pts',(-11.,-94.3610088966836,42.5001392341167));
#1263=CARTESIAN_POINT('Ctrl Pts',(-11.,-94.3610088966836,41.1176185475428));
#1264=CARTESIAN_POINT('Ctrl Pts',(-10.7234487628963,-94.3945261357705,39.643800816175));
#1265=CARTESIAN_POINT('Ctrl Pts',(-9.60047459778899,-94.5153416298626,36.9339994402139));
#1266=CARTESIAN_POINT('Ctrl Pts',(-8.75411910842701,-94.6008683595832,35.6979091564396));
#1267=CARTESIAN_POINT('Ctrl Pts',(-7.13336983106236,-94.7340150844572,34.077159879075));
#1268=CARTESIAN_POINT('Ctrl Pts',(-6.37696438902007,-94.7893918459179,33.4855826191625));
#1269=CARTESIAN_POINT('Ctrl Pts',(-5.5450297142935,-94.8380337494805,33.));
#1270=CARTESIAN_POINT('',(-5.54550677835953,-94.8380058550957,52.));
#1271=CARTESIAN_POINT('Ctrl Pts',(-5.54550677835953,-94.8380058550957,52.));
#1272=CARTESIAN_POINT('Ctrl Pts',(-6.37725425430636,-94.7893706985025,51.5144706454739));
#1273=CARTESIAN_POINT('Ctrl Pts',(-7.13349305917025,-94.734004961103,50.9229953610505));
#1274=CARTESIAN_POINT('Ctrl Pts',(-8.75411910842701,-94.6008683595832,49.3023693117937));
#1275=CARTESIAN_POINT('Ctrl Pts',(-9.60047459778899,-94.5153416298626,48.0662790280194));
#1276=CARTESIAN_POINT('Ctrl Pts',(-10.7234487628963,-94.3945261357705,45.3564776520583));
#1277=CARTESIAN_POINT('Ctrl Pts',(-11.,-94.3610088966836,43.8826599206905));
#1278=CARTESIAN_POINT('Ctrl Pts',(-11.,-94.3610088966836,42.5001392341167));
#1279=CARTESIAN_POINT('Origin',(0.,0.,52.));
#1280=CARTESIAN_POINT('Origin',(0.,0.,56.));
#1281=CARTESIAN_POINT('',(5.54550677835953,-94.8380058550957,52.));
#1282=CARTESIAN_POINT('Ctrl Pts',(-5.54550677835951,-94.8380058550957,52.));
#1283=CARTESIAN_POINT('Ctrl Pts',(-4.99732979347154,-94.5495168894526,52.3199961831392));
#1284=CARTESIAN_POINT('Ctrl Pts',(-4.39845320028983,-94.2946891310849,52.6048338712427));
#1285=CARTESIAN_POINT('Ctrl Pts',(-2.57364298658354,-93.7020227654729,53.270032249154));
#1286=CARTESIAN_POINT('Ctrl Pts',(-1.25645852495768,-93.4998607658833,53.5001392341167));
#1287=CARTESIAN_POINT('Ctrl Pts',(1.25645852495768,-93.4998607658833,53.5001392341167));
#1288=CARTESIAN_POINT('Ctrl Pts',(2.57364298658354,-93.7020227654729,53.270032249154));
#1289=CARTESIAN_POINT('Ctrl Pts',(4.39845320028983,-94.294689131085,52.6048338712427));
#1290=CARTESIAN_POINT('Ctrl Pts',(4.99732979347154,-94.5495168894526,52.3199961831392));
#1291=CARTESIAN_POINT('Ctrl Pts',(5.5455067783595,-94.8380058550957,52.));
#1292=CARTESIAN_POINT('Origin',(0.,0.,52.));
#1293=CARTESIAN_POINT('Origin',(0.,0.,35.));
#1294=CARTESIAN_POINT('Ctrl Pts',(5.54502971429351,-94.8380337494805,33.));
#1295=CARTESIAN_POINT('Ctrl Pts',(6.37696438902008,-94.7893918459179,33.4855826191625));
#1296=CARTESIAN_POINT('Ctrl Pts',(7.13336983106236,-94.7340150844571,34.077159879075));
#1297=CARTESIAN_POINT('Ctrl Pts',(8.75411910842701,-94.6008683595832,35.6979091564396));
#1298=CARTESIAN_POINT('Ctrl Pts',(9.60047459778898,-94.5153416298626,36.9339994402139));
#1299=CARTESIAN_POINT('Ctrl Pts',(10.7234487628963,-94.3945261357705,39.643800816175));
#1300=CARTESIAN_POINT('Ctrl Pts',(11.,-94.3610088966836,41.1176185475428));
#1301=CARTESIAN_POINT('Ctrl Pts',(11.,-94.3610088966836,43.8826599206905));
#1302=CARTESIAN_POINT('Ctrl Pts',(10.7234487628963,-94.3945261357705,45.3564776520583));
#1303=CARTESIAN_POINT('Ctrl Pts',(9.60047459778899,-94.5153416298626,48.0662790280194));
#1304=CARTESIAN_POINT('Ctrl Pts',(8.75411910842701,-94.6008683595832,49.3023693117937));
#1305=CARTESIAN_POINT('Ctrl Pts',(7.13349305917025,-94.734004961103,50.9229953610505));
#1306=CARTESIAN_POINT('Ctrl Pts',(6.37725425430637,-94.7893706985025,51.5144706454739));
#1307=CARTESIAN_POINT('Ctrl Pts',(5.54550677835953,-94.8380058550957,52.));
#1308=CARTESIAN_POINT('Origin',(0.,-100.,42.5001392341167));
#1309=CARTESIAN_POINT('',(-11.,-87.,42.5001392341167));
#1310=CARTESIAN_POINT('',(-11.,-100.,42.5001392341167));
#1311=CARTESIAN_POINT('Origin',(0.,-87.,42.5001392341167));
#1312=CARTESIAN_POINT('Origin',(0.,-87.,39.5041392341167));
#1313=UNCERTAINTY_MEASURE_WITH_UNIT(LENGTH_MEASURE(0.01),#1317,
'DISTANCE_ACCURACY_VALUE',
'Maximum model space distance between geometric entities at asserted c
onnectivities');
#1314=UNCERTAINTY_MEASURE_WITH_UNIT(LENGTH_MEASURE(0.01),#1317,
'DISTANCE_ACCURACY_VALUE',
'Maximum model space distance between geometric entities at asserted c
onnectivities');
#1315=(
GEOMETRIC_REPRESENTATION_CONTEXT(3)
GLOBAL_UNCERTAINTY_ASSIGNED_CONTEXT((#1313))
GLOBAL_UNIT_ASSIGNED_CONTEXT((#1317,#1319,#1320))
REPRESENTATION_CONTEXT('','3D')
);
#1316=(
GEOMETRIC_REPRESENTATION_CONTEXT(3)
GLOBAL_UNCERTAINTY_ASSIGNED_CONTEXT((#1314))
GLOBAL_UNIT_ASSIGNED_CONTEXT((#1317,#1319,#1320))
REPRESENTATION_CONTEXT('','3D')
);
#1317=(
LENGTH_UNIT()
NAMED_UNIT(*)
SI_UNIT(.MILLI.,.METRE.)
);
#1318=(
LENGTH_UNIT()
NAMED_UNIT(*)
SI_UNIT($,.METRE.)
);
#1319=(
NAMED_UNIT(*)
PLANE_ANGLE_UNIT()
SI_UNIT($,.RADIAN.)
);
#1320=(
NAMED_UNIT(*)
SI_UNIT($,.STERADIAN.)
SOLID_ANGLE_UNIT()
);
#1321=SHAPE_DEFINITION_REPRESENTATION(#1322,#1323);
#1322=PRODUCT_DEFINITION_SHAPE('',$,#1325);
#1323=SHAPE_REPRESENTATION('',(#680),#1315);
#1324=PRODUCT_DEFINITION_CONTEXT('part definition',#1329,'design');
#1325=PRODUCT_DEFINITION('ROBOT1','ROBOT1 v9',#1326,#1324);
#1326=PRODUCT_DEFINITION_FORMATION('',$,#1331);
#1327=PRODUCT_RELATED_PRODUCT_CATEGORY('ROBOT1 v9','ROBOT1 v9',(#1331));
#1328=APPLICATION_PROTOCOL_DEFINITION('international standard',
'automotive_design',2009,#1329);
#1329=APPLICATION_CONTEXT(
'Core Data for Automotive Mechanical Design Process');
#1330=PRODUCT_CONTEXT('part definition',#1329,'mechanical');
#1331=PRODUCT('ROBOT1','ROBOT1 v9',$,(#1330));
#1332=PRESENTATION_STYLE_ASSIGNMENT((#1333));
#1333=SURFACE_STYLE_USAGE(.BOTH.,#1334);
#1334=SURFACE_SIDE_STYLE('',(#1335));
#1335=SURFACE_STYLE_FILL_AREA(#1336);
#1336=FILL_AREA_STYLE('Acier - Satin\X\E9',(#1337));
#1337=FILL_AREA_STYLE_COLOUR('Acier - Satin\X\E9',#1338);
#1338=COLOUR_RGB('Acier - Satin\X\E9',0.627450980392157,0.627450980392157,
0.627450980392157);
ENDSEC;
END-ISO-10303-21;
