ISO-10303-21;
HEADER;
/* Generated by software containing ST-Developer
 * from STEP Tools, Inc. (www.steptools.com) 
 */

FILE_DESCRIPTION(
/* description */ (''),
/* implementation_level */ '2;1');

FILE_NAME(
/* name */ 'SUPPORT2.step',
/* time_stamp */ '2026-01-28T13:18:34+01:00',
/* author */ (''),
/* organization */ (''),
/* preprocessor_version */ 'ST-DEVELOPER v20.1',
/* originating_system */ 'Autodesk Translation Framework v14.24.0.0',
/* authorisation */ '');

FILE_SCHEMA (('AUTOMOTIVE_DESIGN { 1 0 10303 214 3 1 1 }'));
ENDSEC;

DATA;
#10=MECHANICAL_DESIGN_GEOMETRIC_PRESENTATION_REPRESENTATION('',(#13),#1008);
#11=SHAPE_REPRESENTATION_RELATIONSHIP('SRR','None',#1015,#12);
#12=ADVANCED_BREP_SHAPE_REPRESENTATION('',(#14),#1007);
#13=STYLED_ITEM('',(#1024),#14);
#14=MANIFOLD_SOLID_BREP('Corps2',#604);
#15=CYLINDRICAL_SURFACE('',#655,1.5);
#16=CYLINDRICAL_SURFACE('',#656,1.5);
#17=CYLINDRICAL_SURFACE('',#657,1.5);
#18=CYLINDRICAL_SURFACE('',#658,1.5);
#19=CYLINDRICAL_SURFACE('',#659,1.5);
#20=CYLINDRICAL_SURFACE('',#660,1.5);
#21=CYLINDRICAL_SURFACE('',#661,1.5);
#22=CYLINDRICAL_SURFACE('',#662,1.5);
#23=CYLINDRICAL_SURFACE('',#663,1.5);
#24=CYLINDRICAL_SURFACE('',#668,6.5);
#25=CYLINDRICAL_SURFACE('',#669,6.5);
#26=CYLINDRICAL_SURFACE('',#670,6.5);
#27=CYLINDRICAL_SURFACE('',#671,6.5);
#28=FACE_BOUND('',#105,.T.);
#29=FACE_BOUND('',#106,.T.);
#30=FACE_BOUND('',#107,.T.);
#31=FACE_BOUND('',#110,.T.);
#32=FACE_BOUND('',#111,.T.);
#33=FACE_BOUND('',#112,.T.);
#34=FACE_BOUND('',#116,.T.);
#35=FACE_BOUND('',#117,.T.);
#36=FACE_BOUND('',#118,.T.);
#37=FACE_BOUND('',#119,.T.);
#38=FACE_BOUND('',#120,.T.);
#39=FACE_BOUND('',#121,.T.);
#40=FACE_BOUND('',#122,.T.);
#41=FACE_BOUND('',#126,.T.);
#42=FACE_BOUND('',#127,.T.);
#43=FACE_BOUND('',#128,.T.);
#44=FACE_BOUND('',#129,.T.);
#45=FACE_BOUND('',#130,.T.);
#46=FACE_BOUND('',#131,.T.);
#47=FACE_BOUND('',#132,.T.);
#48=CIRCLE('',#620,1.5);
#49=CIRCLE('',#621,1.5);
#50=CIRCLE('',#622,1.5);
#51=CIRCLE('',#625,1.5);
#52=CIRCLE('',#626,1.5);
#53=CIRCLE('',#627,1.5);
#54=CIRCLE('',#631,6.5);
#55=CIRCLE('',#632,6.5);
#56=CIRCLE('',#633,6.5);
#57=CIRCLE('',#634,6.5);
#58=CIRCLE('',#635,1.5);
#59=CIRCLE('',#636,1.5);
#60=CIRCLE('',#637,1.5);
#61=CIRCLE('',#638,1.5);
#62=CIRCLE('',#639,1.5);
#63=CIRCLE('',#640,1.5);
#64=CIRCLE('',#644,1.5);
#65=CIRCLE('',#645,1.5);
#66=CIRCLE('',#646,1.5);
#67=CIRCLE('',#647,1.5);
#68=CIRCLE('',#648,1.5);
#69=CIRCLE('',#649,1.5);
#70=CIRCLE('',#650,6.5);
#71=CIRCLE('',#651,6.5);
#72=CIRCLE('',#652,6.5);
#73=CIRCLE('',#653,6.5);
#74=FACE_OUTER_BOUND('',#103,.T.);
#75=FACE_OUTER_BOUND('',#104,.T.);
#76=FACE_OUTER_BOUND('',#108,.T.);
#77=FACE_OUTER_BOUND('',#109,.T.);
#78=FACE_OUTER_BOUND('',#113,.T.);
#79=FACE_OUTER_BOUND('',#114,.T.);
#80=FACE_OUTER_BOUND('',#115,.T.);
#81=FACE_OUTER_BOUND('',#123,.T.);
#82=FACE_OUTER_BOUND('',#124,.T.);
#83=FACE_OUTER_BOUND('',#125,.T.);
#84=FACE_OUTER_BOUND('',#133,.T.);
#85=FACE_OUTER_BOUND('',#134,.T.);
#86=FACE_OUTER_BOUND('',#135,.T.);
#87=FACE_OUTER_BOUND('',#136,.T.);
#88=FACE_OUTER_BOUND('',#137,.T.);
#89=FACE_OUTER_BOUND('',#138,.T.);
#90=FACE_OUTER_BOUND('',#139,.T.);
#91=FACE_OUTER_BOUND('',#140,.T.);
#92=FACE_OUTER_BOUND('',#141,.T.);
#93=FACE_OUTER_BOUND('',#142,.T.);
#94=FACE_OUTER_BOUND('',#143,.T.);
#95=FACE_OUTER_BOUND('',#144,.T.);
#96=FACE_OUTER_BOUND('',#145,.T.);
#97=FACE_OUTER_BOUND('',#146,.T.);
#98=FACE_OUTER_BOUND('',#147,.T.);
#99=FACE_OUTER_BOUND('',#148,.T.);
#100=FACE_OUTER_BOUND('',#149,.T.);
#101=FACE_OUTER_BOUND('',#150,.T.);
#102=FACE_OUTER_BOUND('',#151,.T.);
#103=EDGE_LOOP('',(#397,#398,#399,#400,#401,#402,#403,#404));
#104=EDGE_LOOP('',(#405,#406,#407,#408,#409,#410));
#105=EDGE_LOOP('',(#411));
#106=EDGE_LOOP('',(#412));
#107=EDGE_LOOP('',(#413));
#108=EDGE_LOOP('',(#414,#415,#416,#417));
#109=EDGE_LOOP('',(#418,#419,#420,#421));
#110=EDGE_LOOP('',(#422));
#111=EDGE_LOOP('',(#423));
#112=EDGE_LOOP('',(#424));
#113=EDGE_LOOP('',(#425,#426,#427,#428,#429,#430,#431,#432));
#114=EDGE_LOOP('',(#433,#434,#435,#436));
#115=EDGE_LOOP('',(#437,#438,#439,#440,#441,#442));
#116=EDGE_LOOP('',(#443,#444,#445,#446,#447,#448,#449,#450));
#117=EDGE_LOOP('',(#451));
#118=EDGE_LOOP('',(#452));
#119=EDGE_LOOP('',(#453));
#120=EDGE_LOOP('',(#454));
#121=EDGE_LOOP('',(#455));
#122=EDGE_LOOP('',(#456));
#123=EDGE_LOOP('',(#457,#458,#459,#460));
#124=EDGE_LOOP('',(#461,#462,#463,#464));
#125=EDGE_LOOP('',(#465,#466,#467,#468));
#126=EDGE_LOOP('',(#469));
#127=EDGE_LOOP('',(#470));
#128=EDGE_LOOP('',(#471));
#129=EDGE_LOOP('',(#472));
#130=EDGE_LOOP('',(#473));
#131=EDGE_LOOP('',(#474));
#132=EDGE_LOOP('',(#475,#476,#477,#478,#479,#480,#481,#482));
#133=EDGE_LOOP('',(#483,#484,#485,#486));
#134=EDGE_LOOP('',(#487,#488,#489,#490));
#135=EDGE_LOOP('',(#491,#492,#493,#494));
#136=EDGE_LOOP('',(#495,#496,#497,#498));
#137=EDGE_LOOP('',(#499,#500,#501,#502));
#138=EDGE_LOOP('',(#503,#504,#505,#506));
#139=EDGE_LOOP('',(#507,#508,#509,#510));
#140=EDGE_LOOP('',(#511,#512,#513,#514));
#141=EDGE_LOOP('',(#515,#516,#517,#518));
#142=EDGE_LOOP('',(#519,#520,#521,#522));
#143=EDGE_LOOP('',(#523,#524,#525,#526));
#144=EDGE_LOOP('',(#527,#528,#529,#530));
#145=EDGE_LOOP('',(#531,#532,#533,#534));
#146=EDGE_LOOP('',(#535,#536,#537,#538));
#147=EDGE_LOOP('',(#539,#540,#541,#542));
#148=EDGE_LOOP('',(#543,#544,#545,#546));
#149=EDGE_LOOP('',(#547,#548,#549,#550));
#150=EDGE_LOOP('',(#551,#552,#553,#554));
#151=EDGE_LOOP('',(#555,#556,#557,#558));
#152=LINE('',#844,#207);
#153=LINE('',#846,#208);
#154=LINE('',#848,#209);
#155=LINE('',#850,#210);
#156=LINE('',#852,#211);
#157=LINE('',#854,#212);
#158=LINE('',#856,#213);
#159=LINE('',#857,#214);
#160=LINE('',#860,#215);
#161=LINE('',#862,#216);
#162=LINE('',#864,#217);
#163=LINE('',#866,#218);
#164=LINE('',#867,#219);
#165=LINE('',#876,#220);
#166=LINE('',#877,#221);
#167=LINE('',#880,#222);
#168=LINE('',#881,#223);
#169=LINE('',#890,#224);
#170=LINE('',#892,#225);
#171=LINE('',#894,#226);
#172=LINE('',#895,#227);
#173=LINE('',#896,#228);
#174=LINE('',#899,#229);
#175=LINE('',#900,#230);
#176=LINE('',#902,#231);
#177=LINE('',#904,#232);
#178=LINE('',#905,#233);
#179=LINE('',#908,#234);
#180=LINE('',#912,#235);
#181=LINE('',#916,#236);
#182=LINE('',#920,#237);
#183=LINE('',#937,#238);
#184=LINE('',#938,#239);
#185=LINE('',#940,#240);
#186=LINE('',#955,#241);
#187=LINE('',#959,#242);
#188=LINE('',#963,#243);
#189=LINE('',#967,#244);
#190=LINE('',#971,#245);
#191=LINE('',#973,#246);
#192=LINE('',#975,#247);
#193=LINE('',#977,#248);
#194=LINE('',#979,#249);
#195=LINE('',#981,#250);
#196=LINE('',#983,#251);
#197=LINE('',#985,#252);
#198=LINE('',#987,#253);
#199=LINE('',#989,#254);
#200=LINE('',#990,#255);
#201=LINE('',#992,#256);
#202=LINE('',#993,#257);
#203=LINE('',#995,#258);
#204=LINE('',#996,#259);
#205=LINE('',#998,#260);
#206=LINE('',#999,#261);
#207=VECTOR('',#677,10.);
#208=VECTOR('',#678,10.);
#209=VECTOR('',#679,10.);
#210=VECTOR('',#680,10.);
#211=VECTOR('',#681,10.);
#212=VECTOR('',#682,10.);
#213=VECTOR('',#683,10.);
#214=VECTOR('',#684,10.);
#215=VECTOR('',#687,10.);
#216=VECTOR('',#688,10.);
#217=VECTOR('',#689,10.);
#218=VECTOR('',#690,10.);
#219=VECTOR('',#691,10.);
#220=VECTOR('',#700,10.);
#221=VECTOR('',#701,10.);
#222=VECTOR('',#704,10.);
#223=VECTOR('',#705,10.);
#224=VECTOR('',#714,10.);
#225=VECTOR('',#715,10.);
#226=VECTOR('',#716,10.);
#227=VECTOR('',#717,10.);
#228=VECTOR('',#718,10.);
#229=VECTOR('',#721,10.);
#230=VECTOR('',#722,10.);
#231=VECTOR('',#725,10.);
#232=VECTOR('',#726,10.);
#233=VECTOR('',#727,10.);
#234=VECTOR('',#728,10.);
#235=VECTOR('',#731,10.);
#236=VECTOR('',#734,10.);
#237=VECTOR('',#737,10.);
#238=VECTOR('',#756,10.);
#239=VECTOR('',#757,10.);
#240=VECTOR('',#760,10.);
#241=VECTOR('',#773,10.);
#242=VECTOR('',#776,10.);
#243=VECTOR('',#779,10.);
#244=VECTOR('',#782,10.);
#245=VECTOR('',#789,1.5);
#246=VECTOR('',#792,1.5);
#247=VECTOR('',#795,1.5);
#248=VECTOR('',#798,1.5);
#249=VECTOR('',#801,1.5);
#250=VECTOR('',#804,1.5);
#251=VECTOR('',#807,1.5);
#252=VECTOR('',#810,1.5);
#253=VECTOR('',#813,1.5);
#254=VECTOR('',#816,10.);
#255=VECTOR('',#817,10.);
#256=VECTOR('',#820,10.);
#257=VECTOR('',#821,10.);
#258=VECTOR('',#824,10.);
#259=VECTOR('',#825,10.);
#260=VECTOR('',#828,10.);
#261=VECTOR('',#829,10.);
#262=VERTEX_POINT('',#842);
#263=VERTEX_POINT('',#843);
#264=VERTEX_POINT('',#845);
#265=VERTEX_POINT('',#847);
#266=VERTEX_POINT('',#849);
#267=VERTEX_POINT('',#851);
#268=VERTEX_POINT('',#853);
#269=VERTEX_POINT('',#855);
#270=VERTEX_POINT('',#859);
#271=VERTEX_POINT('',#861);
#272=VERTEX_POINT('',#863);
#273=VERTEX_POINT('',#865);
#274=VERTEX_POINT('',#868);
#275=VERTEX_POINT('',#870);
#276=VERTEX_POINT('',#872);
#277=VERTEX_POINT('',#875);
#278=VERTEX_POINT('',#879);
#279=VERTEX_POINT('',#882);
#280=VERTEX_POINT('',#884);
#281=VERTEX_POINT('',#886);
#282=VERTEX_POINT('',#889);
#283=VERTEX_POINT('',#891);
#284=VERTEX_POINT('',#893);
#285=VERTEX_POINT('',#898);
#286=VERTEX_POINT('',#903);
#287=VERTEX_POINT('',#906);
#288=VERTEX_POINT('',#907);
#289=VERTEX_POINT('',#909);
#290=VERTEX_POINT('',#911);
#291=VERTEX_POINT('',#913);
#292=VERTEX_POINT('',#915);
#293=VERTEX_POINT('',#917);
#294=VERTEX_POINT('',#919);
#295=VERTEX_POINT('',#922);
#296=VERTEX_POINT('',#924);
#297=VERTEX_POINT('',#926);
#298=VERTEX_POINT('',#928);
#299=VERTEX_POINT('',#930);
#300=VERTEX_POINT('',#932);
#301=VERTEX_POINT('',#936);
#302=VERTEX_POINT('',#941);
#303=VERTEX_POINT('',#943);
#304=VERTEX_POINT('',#945);
#305=VERTEX_POINT('',#947);
#306=VERTEX_POINT('',#949);
#307=VERTEX_POINT('',#951);
#308=VERTEX_POINT('',#953);
#309=VERTEX_POINT('',#954);
#310=VERTEX_POINT('',#956);
#311=VERTEX_POINT('',#958);
#312=VERTEX_POINT('',#960);
#313=VERTEX_POINT('',#962);
#314=VERTEX_POINT('',#964);
#315=VERTEX_POINT('',#966);
#316=EDGE_CURVE('',#262,#263,#152,.T.);
#317=EDGE_CURVE('',#264,#262,#153,.T.);
#318=EDGE_CURVE('',#265,#264,#154,.T.);
#319=EDGE_CURVE('',#266,#265,#155,.T.);
#320=EDGE_CURVE('',#267,#266,#156,.T.);
#321=EDGE_CURVE('',#268,#267,#157,.T.);
#322=EDGE_CURVE('',#269,#268,#158,.T.);
#323=EDGE_CURVE('',#263,#269,#159,.T.);
#324=EDGE_CURVE('',#265,#270,#160,.T.);
#325=EDGE_CURVE('',#271,#270,#161,.T.);
#326=EDGE_CURVE('',#271,#272,#162,.T.);
#327=EDGE_CURVE('',#272,#273,#163,.T.);
#328=EDGE_CURVE('',#273,#266,#164,.T.);
#329=EDGE_CURVE('',#274,#274,#48,.T.);
#330=EDGE_CURVE('',#275,#275,#49,.T.);
#331=EDGE_CURVE('',#276,#276,#50,.T.);
#332=EDGE_CURVE('',#277,#264,#165,.T.);
#333=EDGE_CURVE('',#270,#277,#166,.T.);
#334=EDGE_CURVE('',#262,#278,#167,.T.);
#335=EDGE_CURVE('',#278,#277,#168,.T.);
#336=EDGE_CURVE('',#279,#279,#51,.T.);
#337=EDGE_CURVE('',#280,#280,#52,.T.);
#338=EDGE_CURVE('',#281,#281,#53,.T.);
#339=EDGE_CURVE('',#282,#263,#169,.T.);
#340=EDGE_CURVE('',#283,#282,#170,.T.);
#341=EDGE_CURVE('',#284,#283,#171,.T.);
#342=EDGE_CURVE('',#272,#284,#172,.T.);
#343=EDGE_CURVE('',#278,#271,#173,.T.);
#344=EDGE_CURVE('',#285,#284,#174,.T.);
#345=EDGE_CURVE('',#285,#273,#175,.T.);
#346=EDGE_CURVE('',#267,#285,#176,.T.);
#347=EDGE_CURVE('',#283,#286,#177,.T.);
#348=EDGE_CURVE('',#286,#268,#178,.T.);
#349=EDGE_CURVE('',#287,#288,#179,.T.);
#350=EDGE_CURVE('',#288,#289,#54,.T.);
#351=EDGE_CURVE('',#289,#290,#180,.T.);
#352=EDGE_CURVE('',#290,#291,#55,.T.);
#353=EDGE_CURVE('',#291,#292,#181,.T.);
#354=EDGE_CURVE('',#292,#293,#56,.T.);
#355=EDGE_CURVE('',#293,#294,#182,.T.);
#356=EDGE_CURVE('',#294,#287,#57,.T.);
#357=EDGE_CURVE('',#295,#295,#58,.T.);
#358=EDGE_CURVE('',#296,#296,#59,.T.);
#359=EDGE_CURVE('',#297,#297,#60,.T.);
#360=EDGE_CURVE('',#298,#298,#61,.T.);
#361=EDGE_CURVE('',#299,#299,#62,.T.);
#362=EDGE_CURVE('',#300,#300,#63,.T.);
#363=EDGE_CURVE('',#301,#282,#183,.T.);
#364=EDGE_CURVE('',#301,#286,#184,.T.);
#365=EDGE_CURVE('',#269,#301,#185,.T.);
#366=EDGE_CURVE('',#302,#302,#64,.T.);
#367=EDGE_CURVE('',#303,#303,#65,.T.);
#368=EDGE_CURVE('',#304,#304,#66,.T.);
#369=EDGE_CURVE('',#305,#305,#67,.T.);
#370=EDGE_CURVE('',#306,#306,#68,.T.);
#371=EDGE_CURVE('',#307,#307,#69,.T.);
#372=EDGE_CURVE('',#308,#309,#186,.T.);
#373=EDGE_CURVE('',#309,#310,#70,.T.);
#374=EDGE_CURVE('',#310,#311,#187,.T.);
#375=EDGE_CURVE('',#311,#312,#71,.T.);
#376=EDGE_CURVE('',#312,#313,#188,.T.);
#377=EDGE_CURVE('',#313,#314,#72,.T.);
#378=EDGE_CURVE('',#314,#315,#189,.T.);
#379=EDGE_CURVE('',#315,#308,#73,.T.);
#380=EDGE_CURVE('',#302,#300,#190,.T.);
#381=EDGE_CURVE('',#303,#299,#191,.T.);
#382=EDGE_CURVE('',#304,#298,#192,.T.);
#383=EDGE_CURVE('',#305,#297,#193,.T.);
#384=EDGE_CURVE('',#306,#296,#194,.T.);
#385=EDGE_CURVE('',#307,#295,#195,.T.);
#386=EDGE_CURVE('',#279,#274,#196,.T.);
#387=EDGE_CURVE('',#275,#280,#197,.T.);
#388=EDGE_CURVE('',#281,#276,#198,.T.);
#389=EDGE_CURVE('',#309,#287,#199,.T.);
#390=EDGE_CURVE('',#288,#308,#200,.T.);
#391=EDGE_CURVE('',#313,#291,#201,.T.);
#392=EDGE_CURVE('',#292,#312,#202,.T.);
#393=EDGE_CURVE('',#311,#293,#203,.T.);
#394=EDGE_CURVE('',#294,#310,#204,.T.);
#395=EDGE_CURVE('',#315,#289,#205,.T.);
#396=EDGE_CURVE('',#290,#314,#206,.T.);
#397=ORIENTED_EDGE('',*,*,#316,.F.);
#398=ORIENTED_EDGE('',*,*,#317,.F.);
#399=ORIENTED_EDGE('',*,*,#318,.F.);
#400=ORIENTED_EDGE('',*,*,#319,.F.);
#401=ORIENTED_EDGE('',*,*,#320,.F.);
#402=ORIENTED_EDGE('',*,*,#321,.F.);
#403=ORIENTED_EDGE('',*,*,#322,.F.);
#404=ORIENTED_EDGE('',*,*,#323,.F.);
#405=ORIENTED_EDGE('',*,*,#319,.T.);
#406=ORIENTED_EDGE('',*,*,#324,.T.);
#407=ORIENTED_EDGE('',*,*,#325,.F.);
#408=ORIENTED_EDGE('',*,*,#326,.T.);
#409=ORIENTED_EDGE('',*,*,#327,.T.);
#410=ORIENTED_EDGE('',*,*,#328,.T.);
#411=ORIENTED_EDGE('',*,*,#329,.T.);
#412=ORIENTED_EDGE('',*,*,#330,.T.);
#413=ORIENTED_EDGE('',*,*,#331,.T.);
#414=ORIENTED_EDGE('',*,*,#318,.T.);
#415=ORIENTED_EDGE('',*,*,#332,.F.);
#416=ORIENTED_EDGE('',*,*,#333,.F.);
#417=ORIENTED_EDGE('',*,*,#324,.F.);
#418=ORIENTED_EDGE('',*,*,#317,.T.);
#419=ORIENTED_EDGE('',*,*,#334,.T.);
#420=ORIENTED_EDGE('',*,*,#335,.T.);
#421=ORIENTED_EDGE('',*,*,#332,.T.);
#422=ORIENTED_EDGE('',*,*,#336,.T.);
#423=ORIENTED_EDGE('',*,*,#337,.T.);
#424=ORIENTED_EDGE('',*,*,#338,.T.);
#425=ORIENTED_EDGE('',*,*,#316,.T.);
#426=ORIENTED_EDGE('',*,*,#339,.F.);
#427=ORIENTED_EDGE('',*,*,#340,.F.);
#428=ORIENTED_EDGE('',*,*,#341,.F.);
#429=ORIENTED_EDGE('',*,*,#342,.F.);
#430=ORIENTED_EDGE('',*,*,#326,.F.);
#431=ORIENTED_EDGE('',*,*,#343,.F.);
#432=ORIENTED_EDGE('',*,*,#334,.F.);
#433=ORIENTED_EDGE('',*,*,#342,.T.);
#434=ORIENTED_EDGE('',*,*,#344,.F.);
#435=ORIENTED_EDGE('',*,*,#345,.T.);
#436=ORIENTED_EDGE('',*,*,#327,.F.);
#437=ORIENTED_EDGE('',*,*,#321,.T.);
#438=ORIENTED_EDGE('',*,*,#346,.T.);
#439=ORIENTED_EDGE('',*,*,#344,.T.);
#440=ORIENTED_EDGE('',*,*,#341,.T.);
#441=ORIENTED_EDGE('',*,*,#347,.T.);
#442=ORIENTED_EDGE('',*,*,#348,.T.);
#443=ORIENTED_EDGE('',*,*,#349,.T.);
#444=ORIENTED_EDGE('',*,*,#350,.T.);
#445=ORIENTED_EDGE('',*,*,#351,.T.);
#446=ORIENTED_EDGE('',*,*,#352,.T.);
#447=ORIENTED_EDGE('',*,*,#353,.T.);
#448=ORIENTED_EDGE('',*,*,#354,.T.);
#449=ORIENTED_EDGE('',*,*,#355,.T.);
#450=ORIENTED_EDGE('',*,*,#356,.T.);
#451=ORIENTED_EDGE('',*,*,#357,.T.);
#452=ORIENTED_EDGE('',*,*,#358,.T.);
#453=ORIENTED_EDGE('',*,*,#359,.T.);
#454=ORIENTED_EDGE('',*,*,#360,.T.);
#455=ORIENTED_EDGE('',*,*,#361,.T.);
#456=ORIENTED_EDGE('',*,*,#362,.T.);
#457=ORIENTED_EDGE('',*,*,#320,.T.);
#458=ORIENTED_EDGE('',*,*,#328,.F.);
#459=ORIENTED_EDGE('',*,*,#345,.F.);
#460=ORIENTED_EDGE('',*,*,#346,.F.);
#461=ORIENTED_EDGE('',*,*,#340,.T.);
#462=ORIENTED_EDGE('',*,*,#363,.F.);
#463=ORIENTED_EDGE('',*,*,#364,.T.);
#464=ORIENTED_EDGE('',*,*,#347,.F.);
#465=ORIENTED_EDGE('',*,*,#323,.T.);
#466=ORIENTED_EDGE('',*,*,#365,.T.);
#467=ORIENTED_EDGE('',*,*,#363,.T.);
#468=ORIENTED_EDGE('',*,*,#339,.T.);
#469=ORIENTED_EDGE('',*,*,#366,.T.);
#470=ORIENTED_EDGE('',*,*,#367,.T.);
#471=ORIENTED_EDGE('',*,*,#368,.T.);
#472=ORIENTED_EDGE('',*,*,#369,.T.);
#473=ORIENTED_EDGE('',*,*,#370,.T.);
#474=ORIENTED_EDGE('',*,*,#371,.T.);
#475=ORIENTED_EDGE('',*,*,#372,.T.);
#476=ORIENTED_EDGE('',*,*,#373,.T.);
#477=ORIENTED_EDGE('',*,*,#374,.T.);
#478=ORIENTED_EDGE('',*,*,#375,.T.);
#479=ORIENTED_EDGE('',*,*,#376,.T.);
#480=ORIENTED_EDGE('',*,*,#377,.T.);
#481=ORIENTED_EDGE('',*,*,#378,.T.);
#482=ORIENTED_EDGE('',*,*,#379,.T.);
#483=ORIENTED_EDGE('',*,*,#322,.T.);
#484=ORIENTED_EDGE('',*,*,#348,.F.);
#485=ORIENTED_EDGE('',*,*,#364,.F.);
#486=ORIENTED_EDGE('',*,*,#365,.F.);
#487=ORIENTED_EDGE('',*,*,#366,.F.);
#488=ORIENTED_EDGE('',*,*,#380,.T.);
#489=ORIENTED_EDGE('',*,*,#362,.F.);
#490=ORIENTED_EDGE('',*,*,#380,.F.);
#491=ORIENTED_EDGE('',*,*,#367,.F.);
#492=ORIENTED_EDGE('',*,*,#381,.T.);
#493=ORIENTED_EDGE('',*,*,#361,.F.);
#494=ORIENTED_EDGE('',*,*,#381,.F.);
#495=ORIENTED_EDGE('',*,*,#368,.F.);
#496=ORIENTED_EDGE('',*,*,#382,.T.);
#497=ORIENTED_EDGE('',*,*,#360,.F.);
#498=ORIENTED_EDGE('',*,*,#382,.F.);
#499=ORIENTED_EDGE('',*,*,#369,.F.);
#500=ORIENTED_EDGE('',*,*,#383,.T.);
#501=ORIENTED_EDGE('',*,*,#359,.F.);
#502=ORIENTED_EDGE('',*,*,#383,.F.);
#503=ORIENTED_EDGE('',*,*,#370,.F.);
#504=ORIENTED_EDGE('',*,*,#384,.T.);
#505=ORIENTED_EDGE('',*,*,#358,.F.);
#506=ORIENTED_EDGE('',*,*,#384,.F.);
#507=ORIENTED_EDGE('',*,*,#371,.F.);
#508=ORIENTED_EDGE('',*,*,#385,.T.);
#509=ORIENTED_EDGE('',*,*,#357,.F.);
#510=ORIENTED_EDGE('',*,*,#385,.F.);
#511=ORIENTED_EDGE('',*,*,#336,.F.);
#512=ORIENTED_EDGE('',*,*,#386,.T.);
#513=ORIENTED_EDGE('',*,*,#329,.F.);
#514=ORIENTED_EDGE('',*,*,#386,.F.);
#515=ORIENTED_EDGE('',*,*,#330,.F.);
#516=ORIENTED_EDGE('',*,*,#387,.T.);
#517=ORIENTED_EDGE('',*,*,#337,.F.);
#518=ORIENTED_EDGE('',*,*,#387,.F.);
#519=ORIENTED_EDGE('',*,*,#338,.F.);
#520=ORIENTED_EDGE('',*,*,#388,.T.);
#521=ORIENTED_EDGE('',*,*,#331,.F.);
#522=ORIENTED_EDGE('',*,*,#388,.F.);
#523=ORIENTED_EDGE('',*,*,#349,.F.);
#524=ORIENTED_EDGE('',*,*,#389,.F.);
#525=ORIENTED_EDGE('',*,*,#372,.F.);
#526=ORIENTED_EDGE('',*,*,#390,.F.);
#527=ORIENTED_EDGE('',*,*,#353,.F.);
#528=ORIENTED_EDGE('',*,*,#391,.F.);
#529=ORIENTED_EDGE('',*,*,#376,.F.);
#530=ORIENTED_EDGE('',*,*,#392,.F.);
#531=ORIENTED_EDGE('',*,*,#355,.F.);
#532=ORIENTED_EDGE('',*,*,#393,.F.);
#533=ORIENTED_EDGE('',*,*,#374,.F.);
#534=ORIENTED_EDGE('',*,*,#394,.F.);
#535=ORIENTED_EDGE('',*,*,#351,.F.);
#536=ORIENTED_EDGE('',*,*,#395,.F.);
#537=ORIENTED_EDGE('',*,*,#378,.F.);
#538=ORIENTED_EDGE('',*,*,#396,.F.);
#539=ORIENTED_EDGE('',*,*,#389,.T.);
#540=ORIENTED_EDGE('',*,*,#356,.F.);
#541=ORIENTED_EDGE('',*,*,#394,.T.);
#542=ORIENTED_EDGE('',*,*,#373,.F.);
#543=ORIENTED_EDGE('',*,*,#391,.T.);
#544=ORIENTED_EDGE('',*,*,#352,.F.);
#545=ORIENTED_EDGE('',*,*,#396,.T.);
#546=ORIENTED_EDGE('',*,*,#377,.F.);
#547=ORIENTED_EDGE('',*,*,#390,.T.);
#548=ORIENTED_EDGE('',*,*,#379,.F.);
#549=ORIENTED_EDGE('',*,*,#395,.T.);
#550=ORIENTED_EDGE('',*,*,#350,.F.);
#551=ORIENTED_EDGE('',*,*,#392,.T.);
#552=ORIENTED_EDGE('',*,*,#375,.F.);
#553=ORIENTED_EDGE('',*,*,#393,.T.);
#554=ORIENTED_EDGE('',*,*,#354,.F.);
#555=ORIENTED_EDGE('',*,*,#343,.T.);
#556=ORIENTED_EDGE('',*,*,#325,.T.);
#557=ORIENTED_EDGE('',*,*,#333,.T.);
#558=ORIENTED_EDGE('',*,*,#335,.F.);
#559=PLANE('',#618);
#560=PLANE('',#619);
#561=PLANE('',#623);
#562=PLANE('',#624);
#563=PLANE('',#628);
#564=PLANE('',#629);
#565=PLANE('',#630);
#566=PLANE('',#641);
#567=PLANE('',#642);
#568=PLANE('',#643);
#569=PLANE('',#654);
#570=PLANE('',#664);
#571=PLANE('',#665);
#572=PLANE('',#666);
#573=PLANE('',#667);
#574=PLANE('',#672);
#575=ADVANCED_FACE('',(#74),#559,.F.);
#576=ADVANCED_FACE('',(#75,#28,#29,#30),#560,.T.);
#577=ADVANCED_FACE('',(#76),#561,.F.);
#578=ADVANCED_FACE('',(#77,#31,#32,#33),#562,.T.);
#579=ADVANCED_FACE('',(#78),#563,.F.);
#580=ADVANCED_FACE('',(#79),#564,.T.);
#581=ADVANCED_FACE('',(#80,#34,#35,#36,#37,#38,#39,#40),#565,.T.);
#582=ADVANCED_FACE('',(#81),#566,.F.);
#583=ADVANCED_FACE('',(#82),#567,.T.);
#584=ADVANCED_FACE('',(#83,#41,#42,#43,#44,#45,#46,#47),#568,.T.);
#585=ADVANCED_FACE('',(#84),#569,.F.);
#586=ADVANCED_FACE('',(#85),#15,.F.);
#587=ADVANCED_FACE('',(#86),#16,.F.);
#588=ADVANCED_FACE('',(#87),#17,.F.);
#589=ADVANCED_FACE('',(#88),#18,.F.);
#590=ADVANCED_FACE('',(#89),#19,.F.);
#591=ADVANCED_FACE('',(#90),#20,.F.);
#592=ADVANCED_FACE('',(#91),#21,.F.);
#593=ADVANCED_FACE('',(#92),#22,.F.);
#594=ADVANCED_FACE('',(#93),#23,.F.);
#595=ADVANCED_FACE('',(#94),#570,.F.);
#596=ADVANCED_FACE('',(#95),#571,.F.);
#597=ADVANCED_FACE('',(#96),#572,.F.);
#598=ADVANCED_FACE('',(#97),#573,.F.);
#599=ADVANCED_FACE('',(#98),#24,.F.);
#600=ADVANCED_FACE('',(#99),#25,.F.);
#601=ADVANCED_FACE('',(#100),#26,.F.);
#602=ADVANCED_FACE('',(#101),#27,.F.);
#603=ADVANCED_FACE('',(#102),#574,.T.);
#604=CLOSED_SHELL('',(#575,#576,#577,#578,#579,#580,#581,#582,#583,#584,
#585,#586,#587,#588,#589,#590,#591,#592,#593,#594,#595,#596,#597,#598,#599,
#600,#601,#602,#603));
#605=DERIVED_UNIT_ELEMENT(#607,1.);
#606=DERIVED_UNIT_ELEMENT(#1010,-3.);
#607=(
MASS_UNIT()
NAMED_UNIT(*)
SI_UNIT(.KILO.,.GRAM.)
);
#608=DERIVED_UNIT((#605,#606));
#609=MEASURE_REPRESENTATION_ITEM('density measure',
POSITIVE_RATIO_MEASURE(7850.),#608);
#610=PROPERTY_DEFINITION_REPRESENTATION(#615,#612);
#611=PROPERTY_DEFINITION_REPRESENTATION(#616,#613);
#612=REPRESENTATION('material name',(#614),#1007);
#613=REPRESENTATION('density',(#609),#1007);
#614=DESCRIPTIVE_REPRESENTATION_ITEM('Acier','Acier');
#615=PROPERTY_DEFINITION('material property','material name',#1017);
#616=PROPERTY_DEFINITION('material property','density of part',#1017);
#617=AXIS2_PLACEMENT_3D('',#840,#673,#674);
#618=AXIS2_PLACEMENT_3D('',#841,#675,#676);
#619=AXIS2_PLACEMENT_3D('',#858,#685,#686);
#620=AXIS2_PLACEMENT_3D('',#869,#692,#693);
#621=AXIS2_PLACEMENT_3D('',#871,#694,#695);
#622=AXIS2_PLACEMENT_3D('',#873,#696,#697);
#623=AXIS2_PLACEMENT_3D('',#874,#698,#699);
#624=AXIS2_PLACEMENT_3D('',#878,#702,#703);
#625=AXIS2_PLACEMENT_3D('',#883,#706,#707);
#626=AXIS2_PLACEMENT_3D('',#885,#708,#709);
#627=AXIS2_PLACEMENT_3D('',#887,#710,#711);
#628=AXIS2_PLACEMENT_3D('',#888,#712,#713);
#629=AXIS2_PLACEMENT_3D('',#897,#719,#720);
#630=AXIS2_PLACEMENT_3D('',#901,#723,#724);
#631=AXIS2_PLACEMENT_3D('',#910,#729,#730);
#632=AXIS2_PLACEMENT_3D('',#914,#732,#733);
#633=AXIS2_PLACEMENT_3D('',#918,#735,#736);
#634=AXIS2_PLACEMENT_3D('',#921,#738,#739);
#635=AXIS2_PLACEMENT_3D('',#923,#740,#741);
#636=AXIS2_PLACEMENT_3D('',#925,#742,#743);
#637=AXIS2_PLACEMENT_3D('',#927,#744,#745);
#638=AXIS2_PLACEMENT_3D('',#929,#746,#747);
#639=AXIS2_PLACEMENT_3D('',#931,#748,#749);
#640=AXIS2_PLACEMENT_3D('',#933,#750,#751);
#641=AXIS2_PLACEMENT_3D('',#934,#752,#753);
#642=AXIS2_PLACEMENT_3D('',#935,#754,#755);
#643=AXIS2_PLACEMENT_3D('',#939,#758,#759);
#644=AXIS2_PLACEMENT_3D('',#942,#761,#762);
#645=AXIS2_PLACEMENT_3D('',#944,#763,#764);
#646=AXIS2_PLACEMENT_3D('',#946,#765,#766);
#647=AXIS2_PLACEMENT_3D('',#948,#767,#768);
#648=AXIS2_PLACEMENT_3D('',#950,#769,#770);
#649=AXIS2_PLACEMENT_3D('',#952,#771,#772);
#650=AXIS2_PLACEMENT_3D('',#957,#774,#775);
#651=AXIS2_PLACEMENT_3D('',#961,#777,#778);
#652=AXIS2_PLACEMENT_3D('',#965,#780,#781);
#653=AXIS2_PLACEMENT_3D('',#968,#783,#784);
#654=AXIS2_PLACEMENT_3D('',#969,#785,#786);
#655=AXIS2_PLACEMENT_3D('',#970,#787,#788);
#656=AXIS2_PLACEMENT_3D('',#972,#790,#791);
#657=AXIS2_PLACEMENT_3D('',#974,#793,#794);
#658=AXIS2_PLACEMENT_3D('',#976,#796,#797);
#659=AXIS2_PLACEMENT_3D('',#978,#799,#800);
#660=AXIS2_PLACEMENT_3D('',#980,#802,#803);
#661=AXIS2_PLACEMENT_3D('',#982,#805,#806);
#662=AXIS2_PLACEMENT_3D('',#984,#808,#809);
#663=AXIS2_PLACEMENT_3D('',#986,#811,#812);
#664=AXIS2_PLACEMENT_3D('',#988,#814,#815);
#665=AXIS2_PLACEMENT_3D('',#991,#818,#819);
#666=AXIS2_PLACEMENT_3D('',#994,#822,#823);
#667=AXIS2_PLACEMENT_3D('',#997,#826,#827);
#668=AXIS2_PLACEMENT_3D('',#1000,#830,#831);
#669=AXIS2_PLACEMENT_3D('',#1001,#832,#833);
#670=AXIS2_PLACEMENT_3D('',#1002,#834,#835);
#671=AXIS2_PLACEMENT_3D('',#1003,#836,#837);
#672=AXIS2_PLACEMENT_3D('',#1004,#838,#839);
#673=DIRECTION('axis',(0.,0.,1.));
#674=DIRECTION('refdir',(1.,0.,0.));
#675=DIRECTION('center_axis',(0.,0.,-1.));
#676=DIRECTION('ref_axis',(-1.,0.,0.));
#677=DIRECTION('',(1.,0.,0.));
#678=DIRECTION('',(0.,1.,0.));
#679=DIRECTION('',(-1.,0.,0.));
#680=DIRECTION('',(0.,-1.,0.));
#681=DIRECTION('',(-1.,0.,0.));
#682=DIRECTION('',(0.,1.,0.));
#683=DIRECTION('',(-1.,0.,0.));
#684=DIRECTION('',(0.,-1.,0.));
#685=DIRECTION('center_axis',(1.,0.,0.));
#686=DIRECTION('ref_axis',(0.,0.,1.));
#687=DIRECTION('',(0.,0.,-1.));
#688=DIRECTION('',(0.,-1.,0.));
#689=DIRECTION('',(0.,0.,1.));
#690=DIRECTION('',(0.,-1.,0.));
#691=DIRECTION('',(0.,0.,1.));
#692=DIRECTION('center_axis',(-1.,0.,0.));
#693=DIRECTION('ref_axis',(0.,-1.,0.));
#694=DIRECTION('center_axis',(-1.,0.,0.));
#695=DIRECTION('ref_axis',(0.,1.,0.));
#696=DIRECTION('center_axis',(-1.,0.,0.));
#697=DIRECTION('ref_axis',(0.,-1.,0.));
#698=DIRECTION('center_axis',(0.,1.,0.));
#699=DIRECTION('ref_axis',(0.,0.,1.));
#700=DIRECTION('',(0.,0.,1.));
#701=DIRECTION('',(-1.,0.,0.));
#702=DIRECTION('center_axis',(-1.,0.,0.));
#703=DIRECTION('ref_axis',(0.,0.,-1.));
#704=DIRECTION('',(0.,0.,-1.));
#705=DIRECTION('',(0.,-1.,0.));
#706=DIRECTION('center_axis',(1.,0.,0.));
#707=DIRECTION('ref_axis',(0.,-1.,0.));
#708=DIRECTION('center_axis',(1.,0.,0.));
#709=DIRECTION('ref_axis',(0.,1.,0.));
#710=DIRECTION('center_axis',(1.,0.,0.));
#711=DIRECTION('ref_axis',(0.,-1.,0.));
#712=DIRECTION('center_axis',(0.,-1.,0.));
#713=DIRECTION('ref_axis',(0.,0.,-1.));
#714=DIRECTION('',(0.,0.,1.));
#715=DIRECTION('',(1.,0.,0.));
#716=DIRECTION('',(0.,0.,-1.));
#717=DIRECTION('',(1.,0.,0.));
#718=DIRECTION('',(1.,0.,0.));
#719=DIRECTION('center_axis',(0.,0.,-1.));
#720=DIRECTION('ref_axis',(-1.,0.,0.));
#721=DIRECTION('',(0.,1.,0.));
#722=DIRECTION('',(-1.,0.,0.));
#723=DIRECTION('center_axis',(-1.,0.,0.));
#724=DIRECTION('ref_axis',(0.,0.,1.));
#725=DIRECTION('',(0.,0.,-1.));
#726=DIRECTION('',(0.,-1.,-7.40030973439879E-17));
#727=DIRECTION('',(0.,0.,1.));
#728=DIRECTION('',(0.,0.,-1.));
#729=DIRECTION('center_axis',(1.,0.,0.));
#730=DIRECTION('ref_axis',(0.,1.,0.));
#731=DIRECTION('',(0.,0.,1.));
#732=DIRECTION('center_axis',(1.,0.,0.));
#733=DIRECTION('ref_axis',(0.,1.,0.));
#734=DIRECTION('',(0.,0.,1.));
#735=DIRECTION('center_axis',(1.,0.,0.));
#736=DIRECTION('ref_axis',(0.,1.,0.));
#737=DIRECTION('',(0.,0.,-1.));
#738=DIRECTION('center_axis',(1.,0.,0.));
#739=DIRECTION('ref_axis',(0.,1.,0.));
#740=DIRECTION('center_axis',(1.,0.,0.));
#741=DIRECTION('ref_axis',(0.,0.5,-0.866025403784439));
#742=DIRECTION('center_axis',(1.,0.,0.));
#743=DIRECTION('ref_axis',(0.,-1.11022302462516E-16,1.));
#744=DIRECTION('center_axis',(1.,0.,0.));
#745=DIRECTION('ref_axis',(0.,0.642787609686539,-0.766044443118978));
#746=DIRECTION('center_axis',(1.,0.,0.));
#747=DIRECTION('ref_axis',(0.,1.,-5.55111512312578E-17));
#748=DIRECTION('center_axis',(1.,0.,0.));
#749=DIRECTION('ref_axis',(0.,1.,0.));
#750=DIRECTION('center_axis',(1.,0.,0.));
#751=DIRECTION('ref_axis',(0.,0.64278760968654,-0.766044443118978));
#752=DIRECTION('center_axis',(0.,1.,0.));
#753=DIRECTION('ref_axis',(0.,0.,1.));
#754=DIRECTION('center_axis',(0.,7.40030973439879E-17,-1.));
#755=DIRECTION('ref_axis',(0.,-1.,-7.40030973439879E-17));
#756=DIRECTION('',(0.,1.,7.40030973439879E-17));
#757=DIRECTION('',(-1.,0.,0.));
#758=DIRECTION('center_axis',(1.,0.,0.));
#759=DIRECTION('ref_axis',(0.,1.,0.));
#760=DIRECTION('',(0.,0.,-1.));
#761=DIRECTION('center_axis',(-1.,0.,0.));
#762=DIRECTION('ref_axis',(0.,0.64278760968654,-0.766044443118978));
#763=DIRECTION('center_axis',(-1.,0.,0.));
#764=DIRECTION('ref_axis',(0.,1.,0.));
#765=DIRECTION('center_axis',(-1.,0.,0.));
#766=DIRECTION('ref_axis',(0.,1.,-5.55111512312578E-17));
#767=DIRECTION('center_axis',(-1.,0.,0.));
#768=DIRECTION('ref_axis',(0.,0.642787609686539,-0.766044443118978));
#769=DIRECTION('center_axis',(-1.,0.,0.));
#770=DIRECTION('ref_axis',(0.,-1.11022302462516E-16,1.));
#771=DIRECTION('center_axis',(-1.,0.,0.));
#772=DIRECTION('ref_axis',(0.,0.5,-0.866025403784439));
#773=DIRECTION('',(0.,0.,1.));
#774=DIRECTION('center_axis',(-1.,0.,0.));
#775=DIRECTION('ref_axis',(0.,1.,0.));
#776=DIRECTION('',(0.,0.,1.));
#777=DIRECTION('center_axis',(-1.,0.,0.));
#778=DIRECTION('ref_axis',(0.,1.,0.));
#779=DIRECTION('',(0.,0.,-1.));
#780=DIRECTION('center_axis',(-1.,0.,0.));
#781=DIRECTION('ref_axis',(0.,1.,0.));
#782=DIRECTION('',(0.,0.,-1.));
#783=DIRECTION('center_axis',(-1.,0.,0.));
#784=DIRECTION('ref_axis',(0.,1.,0.));
#785=DIRECTION('center_axis',(0.,1.,0.));
#786=DIRECTION('ref_axis',(0.,0.,1.));
#787=DIRECTION('center_axis',(-1.,0.,0.));
#788=DIRECTION('ref_axis',(0.,0.64278760968654,-0.766044443118978));
#789=DIRECTION('',(-1.,0.,0.));
#790=DIRECTION('center_axis',(-1.,0.,0.));
#791=DIRECTION('ref_axis',(0.,1.,0.));
#792=DIRECTION('',(-1.,0.,0.));
#793=DIRECTION('center_axis',(-1.,0.,0.));
#794=DIRECTION('ref_axis',(0.,1.,-5.55111512312578E-17));
#795=DIRECTION('',(-1.,0.,0.));
#796=DIRECTION('center_axis',(-1.,0.,0.));
#797=DIRECTION('ref_axis',(0.,0.642787609686539,-0.766044443118978));
#798=DIRECTION('',(-1.,0.,0.));
#799=DIRECTION('center_axis',(-1.,0.,0.));
#800=DIRECTION('ref_axis',(0.,-1.11022302462516E-16,1.));
#801=DIRECTION('',(-1.,0.,0.));
#802=DIRECTION('center_axis',(-1.,0.,0.));
#803=DIRECTION('ref_axis',(0.,0.5,-0.866025403784439));
#804=DIRECTION('',(-1.,0.,0.));
#805=DIRECTION('center_axis',(1.,0.,0.));
#806=DIRECTION('ref_axis',(0.,-1.,0.));
#807=DIRECTION('',(1.,0.,0.));
#808=DIRECTION('center_axis',(-1.,0.,0.));
#809=DIRECTION('ref_axis',(0.,1.,0.));
#810=DIRECTION('',(-1.,0.,0.));
#811=DIRECTION('center_axis',(1.,0.,0.));
#812=DIRECTION('ref_axis',(0.,-1.,0.));
#813=DIRECTION('',(1.,0.,0.));
#814=DIRECTION('center_axis',(0.,-1.,0.));
#815=DIRECTION('ref_axis',(0.,0.,1.));
#816=DIRECTION('',(-1.,0.,0.));
#817=DIRECTION('',(1.,0.,0.));
#818=DIRECTION('center_axis',(0.,1.,0.));
#819=DIRECTION('ref_axis',(0.,0.,-1.));
#820=DIRECTION('',(-1.,0.,0.));
#821=DIRECTION('',(1.,0.,0.));
#822=DIRECTION('center_axis',(0.,-1.,0.));
#823=DIRECTION('ref_axis',(0.,0.,1.));
#824=DIRECTION('',(-1.,0.,0.));
#825=DIRECTION('',(1.,0.,0.));
#826=DIRECTION('center_axis',(0.,1.,0.));
#827=DIRECTION('ref_axis',(0.,0.,-1.));
#828=DIRECTION('',(-1.,0.,0.));
#829=DIRECTION('',(1.,0.,0.));
#830=DIRECTION('center_axis',(-1.,0.,0.));
#831=DIRECTION('ref_axis',(0.,-1.,-6.76240245771243E-14));
#832=DIRECTION('center_axis',(-1.,0.,0.));
#833=DIRECTION('ref_axis',(0.,1.,0.));
#834=DIRECTION('center_axis',(-1.,0.,0.));
#835=DIRECTION('ref_axis',(0.,0.0859472614843262,-0.996299687967102));
#836=DIRECTION('center_axis',(-1.,0.,0.));
#837=DIRECTION('ref_axis',(0.,0.0859750034255956,0.996297294378525));
#838=DIRECTION('center_axis',(0.,0.,-1.));
#839=DIRECTION('ref_axis',(1.,0.,0.));
#840=CARTESIAN_POINT('',(0.,0.,0.));
#841=CARTESIAN_POINT('Origin',(-50.0648880515804,-100.179144540351,72.));
#842=CARTESIAN_POINT('',(-90.5,-80.3582890807027,72.));
#843=CARTESIAN_POINT('',(23.838,-80.3582890807027,72.));
#844=CARTESIAN_POINT('',(-27.5324440257902,-80.3582890807027,72.));
#845=CARTESIAN_POINT('',(-90.5,-120.358289080703,72.));
#846=CARTESIAN_POINT('',(-90.5,-85.268716810527,72.));
#847=CARTESIAN_POINT('',(-88.5,-120.358289080703,72.));
#848=CARTESIAN_POINT('',(-72.0324440257902,-120.358289080703,72.));
#849=CARTESIAN_POINT('',(-88.5,-120.,72.));
#850=CARTESIAN_POINT('',(-88.5,-85.268716810527,72.));
#851=CARTESIAN_POINT('',(21.838,-120.,72.));
#852=CARTESIAN_POINT('',(-72.5973320773707,-120.,72.));
#853=CARTESIAN_POINT('',(21.838,-120.367832706398,72.));
#854=CARTESIAN_POINT('',(21.838,-100.271102716951,72.));
#855=CARTESIAN_POINT('',(23.838,-120.367832706398,72.));
#856=CARTESIAN_POINT('',(-27.5324440257902,-120.367832706398,72.));
#857=CARTESIAN_POINT('',(23.838,-114.446784748407,72.));
#858=CARTESIAN_POINT('Origin',(-88.5,-70.3582890807027,20.));
#859=CARTESIAN_POINT('',(-88.5,-120.358289080703,20.));
#860=CARTESIAN_POINT('',(-88.5,-120.358289080703,35.));
#861=CARTESIAN_POINT('',(-88.5,-80.3582890807027,20.));
#862=CARTESIAN_POINT('',(-88.5,-70.3582890807027,20.));
#863=CARTESIAN_POINT('',(-88.5,-80.3582890807027,70.));
#864=CARTESIAN_POINT('',(-88.5,-80.3582890807027,50.));
#865=CARTESIAN_POINT('',(-88.5,-120.,70.));
#866=CARTESIAN_POINT('',(-88.5,-85.268716810527,70.));
#867=CARTESIAN_POINT('',(-88.5,-120.,50.));
#868=CARTESIAN_POINT('',(-88.5,-98.8109347669658,64.2380320875224));
#869=CARTESIAN_POINT('Origin',(-88.5,-100.310934766966,64.2380320875224));
#870=CARTESIAN_POINT('',(-88.5,-101.863068581621,35.358243002503));
#871=CARTESIAN_POINT('Origin',(-88.5,-100.363068581621,35.358243002503));
#872=CARTESIAN_POINT('',(-88.5,-98.8582890807027,50.));
#873=CARTESIAN_POINT('Origin',(-88.5,-100.358289080703,50.));
#874=CARTESIAN_POINT('Origin',(-94.,-120.358289080703,50.));
#875=CARTESIAN_POINT('',(-90.5,-120.358289080703,20.));
#876=CARTESIAN_POINT('',(-90.5,-120.358289080703,65.));
#877=CARTESIAN_POINT('',(-94.5,-120.358289080703,20.));
#878=CARTESIAN_POINT('Origin',(-90.5,-70.3582890807027,80.));
#879=CARTESIAN_POINT('',(-90.5,-80.3582890807027,20.));
#880=CARTESIAN_POINT('',(-90.5,-80.3582890807027,80.));
#881=CARTESIAN_POINT('',(-90.5,-70.3582890807027,20.));
#882=CARTESIAN_POINT('',(-90.5,-98.8109347669658,64.2380320875224));
#883=CARTESIAN_POINT('Origin',(-90.5,-100.310934766966,64.2380320875224));
#884=CARTESIAN_POINT('',(-90.5,-101.863068581621,35.358243002503));
#885=CARTESIAN_POINT('Origin',(-90.5,-100.363068581621,35.358243002503));
#886=CARTESIAN_POINT('',(-90.5,-98.8582890807027,50.));
#887=CARTESIAN_POINT('Origin',(-90.5,-100.358289080703,50.));
#888=CARTESIAN_POINT('Origin',(-5.,-80.3582890807027,80.));
#889=CARTESIAN_POINT('',(23.838,-80.3582890807027,20.3349100401853));
#890=CARTESIAN_POINT('',(23.838,-80.3582890807027,80.7660445168911));
#891=CARTESIAN_POINT('',(21.838,-80.3582890807027,20.3349100401853));
#892=CARTESIAN_POINT('',(-5.,-80.3582890807027,20.3349100401853));
#893=CARTESIAN_POINT('',(21.838,-80.3582890807027,70.));
#894=CARTESIAN_POINT('',(21.838,-80.3582890807027,65.5837275100463));
#895=CARTESIAN_POINT('',(-27.5324440257902,-80.3582890807027,70.));
#896=CARTESIAN_POINT('',(-50.,-80.3582890807027,20.));
#897=CARTESIAN_POINT('Origin',(-50.0648880515804,-100.179144540351,70.));
#898=CARTESIAN_POINT('',(21.838,-120.,70.));
#899=CARTESIAN_POINT('',(21.838,-100.271102716951,70.));
#900=CARTESIAN_POINT('',(-72.5973320773707,-120.,70.));
#901=CARTESIAN_POINT('Origin',(21.838,-100.36306089355,51.1674550200927));
#902=CARTESIAN_POINT('',(21.838,-120.,65.5837275100463));
#903=CARTESIAN_POINT('',(21.838,-120.367832706398,20.3349100401853));
#904=CARTESIAN_POINT('',(21.838,-130.367832706398,20.3349100401853));
#905=CARTESIAN_POINT('',(21.838,-120.367832706398,82.));
#906=CARTESIAN_POINT('',(21.838,-106.862353208697,43.2695919521625));
#907=CARTESIAN_POINT('',(21.838,-106.862353208697,35.933186830121));
#908=CARTESIAN_POINT('',(21.838,-106.862353208697,43.5503209251068));
#909=CARTESIAN_POINT('',(21.838,-93.9762814954461,37.0448228051401));
#910=CARTESIAN_POINT('Origin',(21.838,-100.363065850051,35.8369380392081));
#911=CARTESIAN_POINT('',(21.838,-93.9762814954461,42.157706432397));
#912=CARTESIAN_POINT('',(21.838,-93.9762814954461,46.6625807262449));
#913=CARTESIAN_POINT('',(21.838,-93.9762814954461,44.5735121665093));
#914=CARTESIAN_POINT('Origin',(21.838,-100.363062426694,43.3656092994532));
#915=CARTESIAN_POINT('',(21.838,-93.9762814954461,49.9595440465727));
#916=CARTESIAN_POINT('',(21.838,-93.9762814954461,50.5634995333327));
#917=CARTESIAN_POINT('',(21.838,-106.862353208697,51.0715415055049));
#918=CARTESIAN_POINT('Origin',(21.838,-100.36306089355,51.1674550200927));
#919=CARTESIAN_POINT('',(21.838,-106.862353208697,43.4616266467429));
#920=CARTESIAN_POINT('',(21.838,-106.862353208697,47.3145408334178));
#921=CARTESIAN_POINT('Origin',(21.838,-100.363062426694,43.3656092994532));
#922=CARTESIAN_POINT('',(21.838,-109.622306271427,59.0487549522531));
#923=CARTESIAN_POINT('Origin',(21.838,-108.872306271427,57.7497168465765));
#924=CARTESIAN_POINT('',(21.838,-91.9588457239833,56.1234335001626));
#925=CARTESIAN_POINT('Origin',(21.838,-91.9588457239833,57.6234335001626));
#926=CARTESIAN_POINT('',(21.838,-84.2324903705776,44.3041541872437));
#927=CARTESIAN_POINT('Origin',(21.838,-83.2683089560477,43.1550875225653));
#928=CARTESIAN_POINT('',(21.838,-93.6422943807631,29.0312627263407));
#929=CARTESIAN_POINT('Origin',(21.838,-92.1422943807631,29.0312627263407));
#930=CARTESIAN_POINT('',(21.838,-110.286186632418,29.042087764831));
#931=CARTESIAN_POINT('Origin',(21.838,-108.786186632418,29.042087764831));
#932=CARTESIAN_POINT('',(21.838,-117.929324225676,44.2982553151613));
#933=CARTESIAN_POINT('Origin',(21.838,-116.965142811146,43.1491886504829));
#934=CARTESIAN_POINT('Origin',(-95.1297761031609,-120.,80.));
#935=CARTESIAN_POINT('Origin',(-5.,-70.3582890807027,20.3349100401853));
#936=CARTESIAN_POINT('',(23.838,-120.367832706398,20.3349100401853));
#937=CARTESIAN_POINT('',(23.838,-130.367832706398,20.3349100401853));
#938=CARTESIAN_POINT('',(-5.,-120.367832706398,20.3349100401853));
#939=CARTESIAN_POINT('Origin',(23.838,-128.714424956463,81.5320890337821));
#940=CARTESIAN_POINT('',(23.838,-120.367832706398,50.9334995369837));
#941=CARTESIAN_POINT('',(23.838,-117.929324225676,44.2982553151613));
#942=CARTESIAN_POINT('Origin',(23.838,-116.965142811146,43.1491886504829));
#943=CARTESIAN_POINT('',(23.838,-110.286186632418,29.042087764831));
#944=CARTESIAN_POINT('Origin',(23.838,-108.786186632418,29.042087764831));
#945=CARTESIAN_POINT('',(23.838,-93.6422943807631,29.0312627263407));
#946=CARTESIAN_POINT('Origin',(23.838,-92.1422943807631,29.0312627263407));
#947=CARTESIAN_POINT('',(23.838,-84.2324903705776,44.3041541872437));
#948=CARTESIAN_POINT('Origin',(23.838,-83.2683089560477,43.1550875225653));
#949=CARTESIAN_POINT('',(23.838,-91.9588457239833,56.1234335001626));
#950=CARTESIAN_POINT('Origin',(23.838,-91.9588457239833,57.6234335001626));
#951=CARTESIAN_POINT('',(23.838,-109.622306271427,59.0487549522531));
#952=CARTESIAN_POINT('Origin',(23.838,-108.872306271427,57.7497168465765));
#953=CARTESIAN_POINT('',(23.838,-106.862353208697,35.9331868301205));
#954=CARTESIAN_POINT('',(23.838,-106.862353208697,43.2695919521634));
#955=CARTESIAN_POINT('',(23.838,-106.862353208697,57.9665934150605));
#956=CARTESIAN_POINT('',(23.838,-106.862353208697,43.4616266467429));
#957=CARTESIAN_POINT('Origin',(23.838,-100.363062426694,43.3656092994532));
#958=CARTESIAN_POINT('',(23.838,-106.862353208697,51.0715415055041));
#959=CARTESIAN_POINT('',(23.838,-106.862353208697,61.7308133233715));
#960=CARTESIAN_POINT('',(23.838,-93.9762814954461,49.9595440465727));
#961=CARTESIAN_POINT('Origin',(23.838,-100.36306089355,51.1674550200927));
#962=CARTESIAN_POINT('',(23.838,-93.9762814954461,44.5735121665093));
#963=CARTESIAN_POINT('',(23.838,-93.9762814954461,64.9797720232863));
#964=CARTESIAN_POINT('',(23.838,-93.9762814954461,42.157706432397));
#965=CARTESIAN_POINT('Origin',(23.838,-100.363062426694,43.3656092994532));
#966=CARTESIAN_POINT('',(23.838,-93.9762814954461,37.04482280514));
#967=CARTESIAN_POINT('',(23.838,-93.9762814954461,61.0788532161985));
#968=CARTESIAN_POINT('Origin',(23.838,-100.363065850051,35.8369380392081));
#969=CARTESIAN_POINT('Origin',(-5.,-120.367832706398,20.3349100401853));
#970=CARTESIAN_POINT('Origin',(-7.5,-116.965142811146,43.1491886504829));
#971=CARTESIAN_POINT('',(-7.5,-117.929324225676,44.2982553151614));
#972=CARTESIAN_POINT('Origin',(-7.5,-108.786186632418,29.042087764831));
#973=CARTESIAN_POINT('',(-7.5,-110.286186632418,29.042087764831));
#974=CARTESIAN_POINT('Origin',(-7.5,-92.1422943807631,29.0312627263407));
#975=CARTESIAN_POINT('',(-7.5,-93.6422943807631,29.0312627263407));
#976=CARTESIAN_POINT('Origin',(-7.5,-83.2683089560477,43.1550875225653));
#977=CARTESIAN_POINT('',(-7.5,-84.2324903705776,44.3041541872437));
#978=CARTESIAN_POINT('Origin',(-7.5,-91.9588457239833,57.6234335001626));
#979=CARTESIAN_POINT('',(-7.5,-91.9588457239833,56.1234335001626));
#980=CARTESIAN_POINT('Origin',(-7.5,-108.872306271427,57.7497168465765));
#981=CARTESIAN_POINT('',(-7.5,-109.622306271427,59.0487549522531));
#982=CARTESIAN_POINT('Origin',(-85.,-100.310934766966,64.2380320875224));
#983=CARTESIAN_POINT('',(-85.,-98.8109347669658,64.2380320875224));
#984=CARTESIAN_POINT('Origin',(-94.5,-100.363068581621,35.358243002503));
#985=CARTESIAN_POINT('',(-94.5,-101.863068581621,35.358243002503));
#986=CARTESIAN_POINT('Origin',(-93.5,-100.358289080703,50.));
#987=CARTESIAN_POINT('',(-93.5,-98.8582890807027,50.));
#988=CARTESIAN_POINT('Origin',(-5.,-106.862353208697,35.933186830121));
#989=CARTESIAN_POINT('',(-6.5,-106.862353208697,43.2695919521634));
#990=CARTESIAN_POINT('',(-6.5,-106.862353208697,35.9331868301205));
#991=CARTESIAN_POINT('Origin',(-5.,-93.9762814954461,49.9595440465727));
#992=CARTESIAN_POINT('',(-6.5,-93.9762814954461,44.5735121665093));
#993=CARTESIAN_POINT('',(-6.5,-93.9762814954461,49.9595440465727));
#994=CARTESIAN_POINT('Origin',(-5.,-106.862353208697,43.461626646743));
#995=CARTESIAN_POINT('',(-6.5,-106.862353208697,51.0715415055041));
#996=CARTESIAN_POINT('',(-6.5,-106.862353208697,43.4616266467429));
#997=CARTESIAN_POINT('Origin',(-5.,-93.9762814954461,42.157706432397));
#998=CARTESIAN_POINT('',(-6.5,-93.9762814954461,37.04482280514));
#999=CARTESIAN_POINT('',(-6.5,-93.9762814954461,42.157706432397));
#1000=CARTESIAN_POINT('Origin',(-6.5,-100.363062426694,43.3656092994532));
#1001=CARTESIAN_POINT('Origin',(-6.5,-100.363062426694,43.3656092994532));
#1002=CARTESIAN_POINT('Origin',(-6.5,-100.363065850051,35.8369380392081));
#1003=CARTESIAN_POINT('Origin',(-6.5,-100.36306089355,51.1674550200927));
#1004=CARTESIAN_POINT('Origin',(-95.,-70.3582890807027,20.));
#1005=UNCERTAINTY_MEASURE_WITH_UNIT(LENGTH_MEASURE(0.01),#1009,
'DISTANCE_ACCURACY_VALUE',
'Maximum model space distance between geometric entities at asserted c
onnectivities');
#1006=UNCERTAINTY_MEASURE_WITH_UNIT(LENGTH_MEASURE(0.01),#1009,
'DISTANCE_ACCURACY_VALUE',
'Maximum model space distance between geometric entities at asserted c
onnectivities');
#1007=(
GEOMETRIC_REPRESENTATION_CONTEXT(3)
GLOBAL_UNCERTAINTY_ASSIGNED_CONTEXT((#1005))
GLOBAL_UNIT_ASSIGNED_CONTEXT((#1009,#1011,#1012))
REPRESENTATION_CONTEXT('','3D')
);
#1008=(
GEOMETRIC_REPRESENTATION_CONTEXT(3)
GLOBAL_UNCERTAINTY_ASSIGNED_CONTEXT((#1006))
GLOBAL_UNIT_ASSIGNED_CONTEXT((#1009,#1011,#1012))
REPRESENTATION_CONTEXT('','3D')
);
#1009=(
LENGTH_UNIT()
NAMED_UNIT(*)
SI_UNIT(.MILLI.,.METRE.)
);
#1010=(
LENGTH_UNIT()
NAMED_UNIT(*)
SI_UNIT($,.METRE.)
);
#1011=(
NAMED_UNIT(*)
PLANE_ANGLE_UNIT()
SI_UNIT($,.RADIAN.)
);
#1012=(
NAMED_UNIT(*)
SI_UNIT($,.STERADIAN.)
SOLID_ANGLE_UNIT()
);
#1013=SHAPE_DEFINITION_REPRESENTATION(#1014,#1015);
#1014=PRODUCT_DEFINITION_SHAPE('',$,#1017);
#1015=SHAPE_REPRESENTATION('',(#617),#1007);
#1016=PRODUCT_DEFINITION_CONTEXT('part definition',#1021,'design');
#1017=PRODUCT_DEFINITION('SUPPORT2','SUPPORT2 v16',#1018,#1016);
#1018=PRODUCT_DEFINITION_FORMATION('',$,#1023);
#1019=PRODUCT_RELATED_PRODUCT_CATEGORY('SUPPORT2 v16','SUPPORT2 v16',(#1023));
#1020=APPLICATION_PROTOCOL_DEFINITION('international standard',
'automotive_design',2009,#1021);
#1021=APPLICATION_CONTEXT(
'Core Data for Automotive Mechanical Design Process');
#1022=PRODUCT_CONTEXT('part definition',#1021,'mechanical');
#1023=PRODUCT('SUPPORT2','SUPPORT2 v16',$,(#1022));
#1024=PRESENTATION_STYLE_ASSIGNMENT((#1025));
#1025=SURFACE_STYLE_USAGE(.BOTH.,#1026);
#1026=SURFACE_SIDE_STYLE('',(#1027));
#1027=SURFACE_STYLE_FILL_AREA(#1028);
#1028=FILL_AREA_STYLE('Acier - Satin\X\E9',(#1029));
#1029=FILL_AREA_STYLE_COLOUR('Acier - Satin\X\E9',#1030);
#1030=COLOUR_RGB('Acier - Satin\X\E9',0.627450980392157,0.627450980392157,
0.627450980392157);
ENDSEC;
END-ISO-10303-21;
