ISO-10303-21;
HEADER;
/* Generated by software containing ST-Developer
 * from STEP Tools, Inc. (www.steptools.com) 
 */

FILE_DESCRIPTION(
/* description */ (''),
/* implementation_level */ '2;1');

FILE_NAME(
/* name */ 'SUPPORT.step',
/* time_stamp */ '2025-12-30T12:15:50+01:00',
/* author */ (''),
/* organization */ (''),
/* preprocessor_version */ 'ST-DEVELOPER v20.1',
/* originating_system */ 'Autodesk Translation Framework v14.21.0.0',
/* authorisation */ '');

FILE_SCHEMA (('AUTOMOTIVE_DESIGN { 1 0 10303 214 3 1 1 }'));
ENDSEC;

DATA;
#10=MECHANICAL_DESIGN_GEOMETRIC_PRESENTATION_REPRESENTATION('',(#13,#14),
#1964);
#11=SHAPE_REPRESENTATION_RELATIONSHIP('SRR','None',#1971,#12);
#12=ADVANCED_BREP_SHAPE_REPRESENTATION('',(#15,#16),#1963);
#13=STYLED_ITEM('',(#1980),#15);
#14=STYLED_ITEM('',(#1980),#16);
#15=MANIFOLD_SOLID_BREP('Corps1',#1185);
#16=MANIFOLD_SOLID_BREP('Corps2',#1186);
#17=FACE_BOUND('',#158,.T.);
#18=FACE_BOUND('',#159,.T.);
#19=FACE_BOUND('',#160,.T.);
#20=FACE_BOUND('',#164,.T.);
#21=FACE_BOUND('',#165,.T.);
#22=FACE_BOUND('',#166,.T.);
#23=FACE_BOUND('',#168,.T.);
#24=FACE_BOUND('',#169,.T.);
#25=FACE_BOUND('',#170,.T.);
#26=FACE_BOUND('',#171,.T.);
#27=FACE_BOUND('',#172,.T.);
#28=FACE_BOUND('',#173,.T.);
#29=FACE_BOUND('',#174,.T.);
#30=FACE_BOUND('',#184,.T.);
#31=FACE_BOUND('',#185,.T.);
#32=FACE_BOUND('',#186,.T.);
#33=FACE_BOUND('',#187,.T.);
#34=FACE_BOUND('',#188,.T.);
#35=FACE_BOUND('',#189,.T.);
#36=FACE_BOUND('',#190,.T.);
#37=FACE_BOUND('',#209,.T.);
#38=FACE_BOUND('',#210,.T.);
#39=FACE_BOUND('',#211,.T.);
#40=FACE_BOUND('',#212,.T.);
#41=FACE_BOUND('',#213,.T.);
#42=FACE_BOUND('',#214,.T.);
#43=FACE_BOUND('',#215,.T.);
#44=FACE_BOUND('',#218,.T.);
#45=FACE_BOUND('',#219,.T.);
#46=FACE_BOUND('',#220,.T.);
#47=FACE_BOUND('',#221,.T.);
#48=FACE_BOUND('',#222,.T.);
#49=FACE_BOUND('',#223,.T.);
#50=FACE_BOUND('',#224,.T.);
#51=FACE_BOUND('',#231,.T.);
#52=FACE_BOUND('',#232,.T.);
#53=FACE_BOUND('',#233,.T.);
#54=FACE_BOUND('',#236,.T.);
#55=FACE_BOUND('',#237,.T.);
#56=FACE_BOUND('',#238,.T.);
#57=PLANE('',#1227);
#58=PLANE('',#1228);
#59=PLANE('',#1229);
#60=PLANE('',#1230);
#61=PLANE('',#1231);
#62=PLANE('',#1235);
#63=PLANE('',#1236);
#64=PLANE('',#1239);
#65=PLANE('',#1242);
#66=PLANE('',#1243);
#67=PLANE('',#1244);
#68=PLANE('',#1245);
#69=PLANE('',#1248);
#70=PLANE('',#1249);
#71=PLANE('',#1277);
#72=PLANE('',#1278);
#73=PLANE('',#1279);
#74=PLANE('',#1280);
#75=PLANE('',#1284);
#76=PLANE('',#1290);
#77=PLANE('',#1295);
#78=PLANE('',#1296);
#79=PLANE('',#1297);
#80=PLANE('',#1298);
#81=PLANE('',#1299);
#82=PLANE('',#1300);
#83=PLANE('',#1301);
#84=PLANE('',#1302);
#85=PLANE('',#1303);
#86=PLANE('',#1304);
#87=PLANE('',#1305);
#88=PLANE('',#1306);
#89=PLANE('',#1307);
#90=FACE_OUTER_BOUND('',#148,.T.);
#91=FACE_OUTER_BOUND('',#149,.T.);
#92=FACE_OUTER_BOUND('',#150,.T.);
#93=FACE_OUTER_BOUND('',#151,.T.);
#94=FACE_OUTER_BOUND('',#152,.T.);
#95=FACE_OUTER_BOUND('',#153,.T.);
#96=FACE_OUTER_BOUND('',#154,.T.);
#97=FACE_OUTER_BOUND('',#155,.T.);
#98=FACE_OUTER_BOUND('',#156,.T.);
#99=FACE_OUTER_BOUND('',#157,.T.);
#100=FACE_OUTER_BOUND('',#161,.T.);
#101=FACE_OUTER_BOUND('',#162,.T.);
#102=FACE_OUTER_BOUND('',#163,.T.);
#103=FACE_OUTER_BOUND('',#167,.T.);
#104=FACE_OUTER_BOUND('',#175,.T.);
#105=FACE_OUTER_BOUND('',#176,.T.);
#106=FACE_OUTER_BOUND('',#177,.T.);
#107=FACE_OUTER_BOUND('',#178,.T.);
#108=FACE_OUTER_BOUND('',#179,.T.);
#109=FACE_OUTER_BOUND('',#180,.T.);
#110=FACE_OUTER_BOUND('',#181,.T.);
#111=FACE_OUTER_BOUND('',#182,.T.);
#112=FACE_OUTER_BOUND('',#183,.T.);
#113=FACE_OUTER_BOUND('',#191,.T.);
#114=FACE_OUTER_BOUND('',#192,.T.);
#115=FACE_OUTER_BOUND('',#193,.T.);
#116=FACE_OUTER_BOUND('',#194,.T.);
#117=FACE_OUTER_BOUND('',#195,.T.);
#118=FACE_OUTER_BOUND('',#196,.T.);
#119=FACE_OUTER_BOUND('',#197,.T.);
#120=FACE_OUTER_BOUND('',#198,.T.);
#121=FACE_OUTER_BOUND('',#199,.T.);
#122=FACE_OUTER_BOUND('',#200,.T.);
#123=FACE_OUTER_BOUND('',#201,.T.);
#124=FACE_OUTER_BOUND('',#202,.T.);
#125=FACE_OUTER_BOUND('',#203,.T.);
#126=FACE_OUTER_BOUND('',#204,.T.);
#127=FACE_OUTER_BOUND('',#205,.T.);
#128=FACE_OUTER_BOUND('',#206,.T.);
#129=FACE_OUTER_BOUND('',#207,.T.);
#130=FACE_OUTER_BOUND('',#208,.T.);
#131=FACE_OUTER_BOUND('',#216,.T.);
#132=FACE_OUTER_BOUND('',#217,.T.);
#133=FACE_OUTER_BOUND('',#225,.T.);
#134=FACE_OUTER_BOUND('',#226,.T.);
#135=FACE_OUTER_BOUND('',#227,.T.);
#136=FACE_OUTER_BOUND('',#228,.T.);
#137=FACE_OUTER_BOUND('',#229,.T.);
#138=FACE_OUTER_BOUND('',#230,.T.);
#139=FACE_OUTER_BOUND('',#234,.T.);
#140=FACE_OUTER_BOUND('',#235,.T.);
#141=FACE_OUTER_BOUND('',#239,.T.);
#142=FACE_OUTER_BOUND('',#240,.T.);
#143=FACE_OUTER_BOUND('',#241,.T.);
#144=FACE_OUTER_BOUND('',#242,.T.);
#145=FACE_OUTER_BOUND('',#243,.T.);
#146=FACE_OUTER_BOUND('',#244,.T.);
#147=FACE_OUTER_BOUND('',#245,.T.);
#148=EDGE_LOOP('',(#782,#783,#784,#785));
#149=EDGE_LOOP('',(#786,#787,#788,#789));
#150=EDGE_LOOP('',(#790,#791,#792,#793));
#151=EDGE_LOOP('',(#794,#795,#796,#797));
#152=EDGE_LOOP('',(#798,#799,#800,#801));
#153=EDGE_LOOP('',(#802,#803,#804,#805));
#154=EDGE_LOOP('',(#806,#807,#808,#809));
#155=EDGE_LOOP('',(#810,#811,#812,#813));
#156=EDGE_LOOP('',(#814,#815,#816,#817));
#157=EDGE_LOOP('',(#818,#819,#820,#821));
#158=EDGE_LOOP('',(#822));
#159=EDGE_LOOP('',(#823));
#160=EDGE_LOOP('',(#824));
#161=EDGE_LOOP('',(#825,#826,#827,#828));
#162=EDGE_LOOP('',(#829,#830,#831,#832,#833,#834));
#163=EDGE_LOOP('',(#835,#836,#837,#838));
#164=EDGE_LOOP('',(#839));
#165=EDGE_LOOP('',(#840));
#166=EDGE_LOOP('',(#841));
#167=EDGE_LOOP('',(#842,#843,#844,#845));
#168=EDGE_LOOP('',(#846));
#169=EDGE_LOOP('',(#847));
#170=EDGE_LOOP('',(#848));
#171=EDGE_LOOP('',(#849));
#172=EDGE_LOOP('',(#850));
#173=EDGE_LOOP('',(#851));
#174=EDGE_LOOP('',(#852,#853,#854,#855,#856,#857,#858,#859,#860));
#175=EDGE_LOOP('',(#861,#862,#863,#864));
#176=EDGE_LOOP('',(#865,#866,#867,#868));
#177=EDGE_LOOP('',(#869,#870,#871,#872));
#178=EDGE_LOOP('',(#873,#874,#875,#876));
#179=EDGE_LOOP('',(#877,#878,#879,#880));
#180=EDGE_LOOP('',(#881,#882,#883,#884));
#181=EDGE_LOOP('',(#885,#886,#887,#888));
#182=EDGE_LOOP('',(#889,#890,#891,#892));
#183=EDGE_LOOP('',(#893,#894,#895,#896));
#184=EDGE_LOOP('',(#897));
#185=EDGE_LOOP('',(#898));
#186=EDGE_LOOP('',(#899));
#187=EDGE_LOOP('',(#900));
#188=EDGE_LOOP('',(#901));
#189=EDGE_LOOP('',(#902));
#190=EDGE_LOOP('',(#903,#904,#905,#906,#907,#908,#909,#910,#911));
#191=EDGE_LOOP('',(#912,#913,#914,#915));
#192=EDGE_LOOP('',(#916,#917,#918,#919));
#193=EDGE_LOOP('',(#920,#921,#922,#923,#924,#925));
#194=EDGE_LOOP('',(#926,#927,#928,#929));
#195=EDGE_LOOP('',(#930,#931,#932,#933));
#196=EDGE_LOOP('',(#934,#935,#936,#937));
#197=EDGE_LOOP('',(#938,#939,#940,#941));
#198=EDGE_LOOP('',(#942,#943,#944,#945));
#199=EDGE_LOOP('',(#946,#947,#948,#949));
#200=EDGE_LOOP('',(#950,#951,#952,#953));
#201=EDGE_LOOP('',(#954,#955,#956,#957));
#202=EDGE_LOOP('',(#958,#959,#960,#961));
#203=EDGE_LOOP('',(#962,#963,#964,#965));
#204=EDGE_LOOP('',(#966,#967,#968,#969));
#205=EDGE_LOOP('',(#970,#971,#972,#973));
#206=EDGE_LOOP('',(#974,#975,#976,#977));
#207=EDGE_LOOP('',(#978,#979,#980,#981));
#208=EDGE_LOOP('',(#982,#983,#984,#985));
#209=EDGE_LOOP('',(#986));
#210=EDGE_LOOP('',(#987));
#211=EDGE_LOOP('',(#988));
#212=EDGE_LOOP('',(#989));
#213=EDGE_LOOP('',(#990));
#214=EDGE_LOOP('',(#991));
#215=EDGE_LOOP('',(#992,#993,#994,#995,#996,#997,#998,#999));
#216=EDGE_LOOP('',(#1000,#1001,#1002,#1003));
#217=EDGE_LOOP('',(#1004,#1005,#1006,#1007,#1008,#1009));
#218=EDGE_LOOP('',(#1010));
#219=EDGE_LOOP('',(#1011));
#220=EDGE_LOOP('',(#1012));
#221=EDGE_LOOP('',(#1013));
#222=EDGE_LOOP('',(#1014));
#223=EDGE_LOOP('',(#1015));
#224=EDGE_LOOP('',(#1016,#1017,#1018,#1019,#1020,#1021,#1022,#1023));
#225=EDGE_LOOP('',(#1024,#1025,#1026,#1027));
#226=EDGE_LOOP('',(#1028,#1029,#1030,#1031));
#227=EDGE_LOOP('',(#1032,#1033,#1034,#1035));
#228=EDGE_LOOP('',(#1036,#1037,#1038,#1039));
#229=EDGE_LOOP('',(#1040,#1041,#1042,#1043));
#230=EDGE_LOOP('',(#1044,#1045,#1046,#1047,#1048));
#231=EDGE_LOOP('',(#1049));
#232=EDGE_LOOP('',(#1050));
#233=EDGE_LOOP('',(#1051));
#234=EDGE_LOOP('',(#1052,#1053,#1054,#1055));
#235=EDGE_LOOP('',(#1056,#1057,#1058,#1059,#1060));
#236=EDGE_LOOP('',(#1061));
#237=EDGE_LOOP('',(#1062));
#238=EDGE_LOOP('',(#1063));
#239=EDGE_LOOP('',(#1064,#1065,#1066,#1067));
#240=EDGE_LOOP('',(#1068,#1069,#1070,#1071));
#241=EDGE_LOOP('',(#1072,#1073,#1074,#1075));
#242=EDGE_LOOP('',(#1076,#1077,#1078,#1079,#1080,#1081));
#243=EDGE_LOOP('',(#1082,#1083,#1084,#1085));
#244=EDGE_LOOP('',(#1086,#1087,#1088,#1089,#1090,#1091,#1092,#1093,#1094,
#1095));
#245=EDGE_LOOP('',(#1096,#1097,#1098,#1099,#1100,#1101));
#246=LINE('',#1641,#356);
#247=LINE('',#1647,#357);
#248=LINE('',#1653,#358);
#249=LINE('',#1659,#359);
#250=LINE('',#1665,#360);
#251=LINE('',#1671,#361);
#252=LINE('',#1677,#362);
#253=LINE('',#1683,#363);
#254=LINE('',#1689,#364);
#255=LINE('',#1694,#365);
#256=LINE('',#1696,#366);
#257=LINE('',#1698,#367);
#258=LINE('',#1699,#368);
#259=LINE('',#1702,#369);
#260=LINE('',#1704,#370);
#261=LINE('',#1705,#371);
#262=LINE('',#1708,#372);
#263=LINE('',#1710,#373);
#264=LINE('',#1712,#374);
#265=LINE('',#1713,#375);
#266=LINE('',#1716,#376);
#267=LINE('',#1717,#377);
#268=LINE('',#1720,#378);
#269=LINE('',#1721,#379);
#270=LINE('',#1724,#380);
#271=LINE('',#1726,#381);
#272=LINE('',#1730,#382);
#273=LINE('',#1732,#383);
#274=LINE('',#1734,#384);
#275=LINE('',#1738,#385);
#276=LINE('',#1742,#386);
#277=LINE('',#1744,#387);
#278=LINE('',#1745,#388);
#279=LINE('',#1748,#389);
#280=LINE('',#1749,#390);
#281=LINE('',#1753,#391);
#282=LINE('',#1756,#392);
#283=LINE('',#1758,#393);
#284=LINE('',#1759,#394);
#285=LINE('',#1762,#395);
#286=LINE('',#1767,#396);
#287=LINE('',#1768,#397);
#288=LINE('',#1769,#398);
#289=LINE('',#1771,#399);
#290=LINE('',#1773,#400);
#291=LINE('',#1776,#401);
#292=LINE('',#1777,#402);
#293=LINE('',#1781,#403);
#294=LINE('',#1787,#404);
#295=LINE('',#1793,#405);
#296=LINE('',#1799,#406);
#297=LINE('',#1805,#407);
#298=LINE('',#1811,#408);
#299=LINE('',#1817,#409);
#300=LINE('',#1823,#410);
#301=LINE('',#1829,#411);
#302=LINE('',#1835,#412);
#303=LINE('',#1840,#413);
#304=LINE('',#1842,#414);
#305=LINE('',#1844,#415);
#306=LINE('',#1845,#416);
#307=LINE('',#1849,#417);
#308=LINE('',#1851,#418);
#309=LINE('',#1853,#419);
#310=LINE('',#1854,#420);
#311=LINE('',#1858,#421);
#312=LINE('',#1860,#422);
#313=LINE('',#1862,#423);
#314=LINE('',#1863,#424);
#315=LINE('',#1867,#425);
#316=LINE('',#1869,#426);
#317=LINE('',#1871,#427);
#318=LINE('',#1872,#428);
#319=LINE('',#1879,#429);
#320=LINE('',#1881,#430);
#321=LINE('',#1883,#431);
#322=LINE('',#1884,#432);
#323=LINE('',#1893,#433);
#324=LINE('',#1895,#434);
#325=LINE('',#1897,#435);
#326=LINE('',#1899,#436);
#327=LINE('',#1901,#437);
#328=LINE('',#1902,#438);
#329=LINE('',#1908,#439);
#330=LINE('',#1909,#440);
#331=LINE('',#1911,#441);
#332=LINE('',#1915,#442);
#333=LINE('',#1917,#443);
#334=LINE('',#1919,#444);
#335=LINE('',#1920,#445);
#336=LINE('',#1924,#446);
#337=LINE('',#1925,#447);
#338=LINE('',#1927,#448);
#339=LINE('',#1928,#449);
#340=LINE('',#1931,#450);
#341=LINE('',#1933,#451);
#342=LINE('',#1934,#452);
#343=LINE('',#1937,#453);
#344=LINE('',#1938,#454);
#345=LINE('',#1939,#455);
#346=LINE('',#1943,#456);
#347=LINE('',#1945,#457);
#348=LINE('',#1946,#458);
#349=LINE('',#1948,#459);
#350=LINE('',#1949,#460);
#351=LINE('',#1952,#461);
#352=LINE('',#1953,#462);
#353=LINE('',#1956,#463);
#354=LINE('',#1957,#464);
#355=LINE('',#1959,#465);
#356=VECTOR('',#1314,3.5);
#357=VECTOR('',#1321,1.5);
#358=VECTOR('',#1328,1.5);
#359=VECTOR('',#1335,1.5);
#360=VECTOR('',#1342,1.5);
#361=VECTOR('',#1349,1.5);
#362=VECTOR('',#1356,1.5);
#363=VECTOR('',#1363,1.5);
#364=VECTOR('',#1370,1.5);
#365=VECTOR('',#1375,10.);
#366=VECTOR('',#1376,10.);
#367=VECTOR('',#1377,10.);
#368=VECTOR('',#1378,10.);
#369=VECTOR('',#1381,10.);
#370=VECTOR('',#1382,10.);
#371=VECTOR('',#1383,10.);
#372=VECTOR('',#1386,10.);
#373=VECTOR('',#1387,10.);
#374=VECTOR('',#1388,10.);
#375=VECTOR('',#1389,10.);
#376=VECTOR('',#1392,10.);
#377=VECTOR('',#1393,10.);
#378=VECTOR('',#1396,10.);
#379=VECTOR('',#1397,10.);
#380=VECTOR('',#1398,10.);
#381=VECTOR('',#1399,10.);
#382=VECTOR('',#1402,10.);
#383=VECTOR('',#1403,10.);
#384=VECTOR('',#1404,10.);
#385=VECTOR('',#1407,10.);
#386=VECTOR('',#1412,10.);
#387=VECTOR('',#1413,10.);
#388=VECTOR('',#1414,10.);
#389=VECTOR('',#1417,10.);
#390=VECTOR('',#1418,10.);
#391=VECTOR('',#1423,10.);
#392=VECTOR('',#1426,10.);
#393=VECTOR('',#1427,10.);
#394=VECTOR('',#1428,10.);
#395=VECTOR('',#1431,10.);
#396=VECTOR('',#1436,10.);
#397=VECTOR('',#1437,10.);
#398=VECTOR('',#1438,10.);
#399=VECTOR('',#1441,10.);
#400=VECTOR('',#1444,10.);
#401=VECTOR('',#1447,10.);
#402=VECTOR('',#1448,10.);
#403=VECTOR('',#1455,10.);
#404=VECTOR('',#1462,1.5);
#405=VECTOR('',#1469,1.5);
#406=VECTOR('',#1476,1.5);
#407=VECTOR('',#1483,1.5);
#408=VECTOR('',#1490,1.5);
#409=VECTOR('',#1497,1.5);
#410=VECTOR('',#1504,1.5);
#411=VECTOR('',#1511,1.5);
#412=VECTOR('',#1518,1.5);
#413=VECTOR('',#1523,10.);
#414=VECTOR('',#1524,10.);
#415=VECTOR('',#1525,10.);
#416=VECTOR('',#1526,10.);
#417=VECTOR('',#1529,10.);
#418=VECTOR('',#1530,10.);
#419=VECTOR('',#1531,10.);
#420=VECTOR('',#1532,10.);
#421=VECTOR('',#1535,10.);
#422=VECTOR('',#1536,10.);
#423=VECTOR('',#1537,10.);
#424=VECTOR('',#1538,10.);
#425=VECTOR('',#1541,10.);
#426=VECTOR('',#1542,10.);
#427=VECTOR('',#1543,10.);
#428=VECTOR('',#1544,10.);
#429=VECTOR('',#1553,10.);
#430=VECTOR('',#1554,10.);
#431=VECTOR('',#1555,10.);
#432=VECTOR('',#1556,10.);
#433=VECTOR('',#1569,10.);
#434=VECTOR('',#1570,10.);
#435=VECTOR('',#1571,10.);
#436=VECTOR('',#1572,10.);
#437=VECTOR('',#1573,10.);
#438=VECTOR('',#1574,10.);
#439=VECTOR('',#1585,10.);
#440=VECTOR('',#1586,10.);
#441=VECTOR('',#1589,10.);
#442=VECTOR('',#1592,10.);
#443=VECTOR('',#1593,10.);
#444=VECTOR('',#1594,10.);
#445=VECTOR('',#1595,10.);
#446=VECTOR('',#1598,10.);
#447=VECTOR('',#1599,10.);
#448=VECTOR('',#1600,10.);
#449=VECTOR('',#1601,10.);
#450=VECTOR('',#1604,10.);
#451=VECTOR('',#1605,10.);
#452=VECTOR('',#1606,10.);
#453=VECTOR('',#1609,10.);
#454=VECTOR('',#1610,10.);
#455=VECTOR('',#1611,10.);
#456=VECTOR('',#1616,10.);
#457=VECTOR('',#1617,10.);
#458=VECTOR('',#1618,10.);
#459=VECTOR('',#1621,10.);
#460=VECTOR('',#1622,10.);
#461=VECTOR('',#1625,10.);
#462=VECTOR('',#1626,10.);
#463=VECTOR('',#1629,10.);
#464=VECTOR('',#1630,10.);
#465=VECTOR('',#1633,10.);
#466=CIRCLE('',#1201,3.5);
#467=CIRCLE('',#1202,3.5);
#468=CIRCLE('',#1204,1.5);
#469=CIRCLE('',#1205,1.5);
#470=CIRCLE('',#1207,1.5);
#471=CIRCLE('',#1208,1.5);
#472=CIRCLE('',#1210,1.5);
#473=CIRCLE('',#1211,1.5);
#474=CIRCLE('',#1213,1.5);
#475=CIRCLE('',#1214,1.5);
#476=CIRCLE('',#1216,1.5);
#477=CIRCLE('',#1217,1.5);
#478=CIRCLE('',#1219,1.5);
#479=CIRCLE('',#1220,1.5);
#480=CIRCLE('',#1222,1.5);
#481=CIRCLE('',#1223,1.5);
#482=CIRCLE('',#1225,1.5);
#483=CIRCLE('',#1226,1.5);
#484=CIRCLE('',#1232,6.5);
#485=CIRCLE('',#1233,6.5);
#486=CIRCLE('',#1234,6.5);
#487=CIRCLE('',#1238,6.5);
#488=CIRCLE('',#1241,6.5);
#489=CIRCLE('',#1246,6.5);
#490=CIRCLE('',#1251,1.5);
#491=CIRCLE('',#1252,1.5);
#492=CIRCLE('',#1254,1.5);
#493=CIRCLE('',#1255,1.5);
#494=CIRCLE('',#1257,1.5);
#495=CIRCLE('',#1258,1.5);
#496=CIRCLE('',#1260,1.5);
#497=CIRCLE('',#1261,1.5);
#498=CIRCLE('',#1263,1.5);
#499=CIRCLE('',#1264,1.5);
#500=CIRCLE('',#1266,1.5);
#501=CIRCLE('',#1267,1.5);
#502=CIRCLE('',#1269,1.5);
#503=CIRCLE('',#1270,1.5);
#504=CIRCLE('',#1272,1.5);
#505=CIRCLE('',#1273,1.5);
#506=CIRCLE('',#1275,1.5);
#507=CIRCLE('',#1276,1.5);
#508=CIRCLE('',#1282,6.5);
#509=CIRCLE('',#1283,6.5);
#510=CIRCLE('',#1285,6.5);
#511=CIRCLE('',#1286,6.5);
#512=CIRCLE('',#1287,6.5);
#513=CIRCLE('',#1289,6.5);
#514=CIRCLE('',#1291,6.5);
#515=CIRCLE('',#1292,6.5);
#516=VERTEX_POINT('',#1638);
#517=VERTEX_POINT('',#1640);
#518=VERTEX_POINT('',#1644);
#519=VERTEX_POINT('',#1646);
#520=VERTEX_POINT('',#1650);
#521=VERTEX_POINT('',#1652);
#522=VERTEX_POINT('',#1656);
#523=VERTEX_POINT('',#1658);
#524=VERTEX_POINT('',#1662);
#525=VERTEX_POINT('',#1664);
#526=VERTEX_POINT('',#1668);
#527=VERTEX_POINT('',#1670);
#528=VERTEX_POINT('',#1674);
#529=VERTEX_POINT('',#1676);
#530=VERTEX_POINT('',#1680);
#531=VERTEX_POINT('',#1682);
#532=VERTEX_POINT('',#1686);
#533=VERTEX_POINT('',#1688);
#534=VERTEX_POINT('',#1692);
#535=VERTEX_POINT('',#1693);
#536=VERTEX_POINT('',#1695);
#537=VERTEX_POINT('',#1697);
#538=VERTEX_POINT('',#1701);
#539=VERTEX_POINT('',#1703);
#540=VERTEX_POINT('',#1707);
#541=VERTEX_POINT('',#1709);
#542=VERTEX_POINT('',#1711);
#543=VERTEX_POINT('',#1715);
#544=VERTEX_POINT('',#1719);
#545=VERTEX_POINT('',#1722);
#546=VERTEX_POINT('',#1723);
#547=VERTEX_POINT('',#1725);
#548=VERTEX_POINT('',#1727);
#549=VERTEX_POINT('',#1729);
#550=VERTEX_POINT('',#1731);
#551=VERTEX_POINT('',#1733);
#552=VERTEX_POINT('',#1735);
#553=VERTEX_POINT('',#1737);
#554=VERTEX_POINT('',#1741);
#555=VERTEX_POINT('',#1743);
#556=VERTEX_POINT('',#1747);
#557=VERTEX_POINT('',#1751);
#558=VERTEX_POINT('',#1755);
#559=VERTEX_POINT('',#1757);
#560=VERTEX_POINT('',#1761);
#561=VERTEX_POINT('',#1765);
#562=VERTEX_POINT('',#1766);
#563=VERTEX_POINT('',#1775);
#564=VERTEX_POINT('',#1784);
#565=VERTEX_POINT('',#1786);
#566=VERTEX_POINT('',#1790);
#567=VERTEX_POINT('',#1792);
#568=VERTEX_POINT('',#1796);
#569=VERTEX_POINT('',#1798);
#570=VERTEX_POINT('',#1802);
#571=VERTEX_POINT('',#1804);
#572=VERTEX_POINT('',#1808);
#573=VERTEX_POINT('',#1810);
#574=VERTEX_POINT('',#1814);
#575=VERTEX_POINT('',#1816);
#576=VERTEX_POINT('',#1820);
#577=VERTEX_POINT('',#1822);
#578=VERTEX_POINT('',#1826);
#579=VERTEX_POINT('',#1828);
#580=VERTEX_POINT('',#1832);
#581=VERTEX_POINT('',#1834);
#582=VERTEX_POINT('',#1838);
#583=VERTEX_POINT('',#1839);
#584=VERTEX_POINT('',#1841);
#585=VERTEX_POINT('',#1843);
#586=VERTEX_POINT('',#1847);
#587=VERTEX_POINT('',#1848);
#588=VERTEX_POINT('',#1850);
#589=VERTEX_POINT('',#1852);
#590=VERTEX_POINT('',#1856);
#591=VERTEX_POINT('',#1857);
#592=VERTEX_POINT('',#1859);
#593=VERTEX_POINT('',#1861);
#594=VERTEX_POINT('',#1865);
#595=VERTEX_POINT('',#1866);
#596=VERTEX_POINT('',#1868);
#597=VERTEX_POINT('',#1870);
#598=VERTEX_POINT('',#1877);
#599=VERTEX_POINT('',#1878);
#600=VERTEX_POINT('',#1880);
#601=VERTEX_POINT('',#1882);
#602=VERTEX_POINT('',#1891);
#603=VERTEX_POINT('',#1892);
#604=VERTEX_POINT('',#1894);
#605=VERTEX_POINT('',#1896);
#606=VERTEX_POINT('',#1898);
#607=VERTEX_POINT('',#1900);
#608=VERTEX_POINT('',#1913);
#609=VERTEX_POINT('',#1914);
#610=VERTEX_POINT('',#1916);
#611=VERTEX_POINT('',#1918);
#612=VERTEX_POINT('',#1922);
#613=VERTEX_POINT('',#1923);
#614=VERTEX_POINT('',#1926);
#615=VERTEX_POINT('',#1930);
#616=VERTEX_POINT('',#1932);
#617=VERTEX_POINT('',#1936);
#618=VERTEX_POINT('',#1942);
#619=VERTEX_POINT('',#1944);
#620=VERTEX_POINT('',#1951);
#621=VERTEX_POINT('',#1955);
#622=EDGE_CURVE('',#516,#516,#466,.T.);
#623=EDGE_CURVE('',#516,#517,#246,.T.);
#624=EDGE_CURVE('',#517,#517,#467,.T.);
#625=EDGE_CURVE('',#518,#518,#468,.T.);
#626=EDGE_CURVE('',#518,#519,#247,.T.);
#627=EDGE_CURVE('',#519,#519,#469,.T.);
#628=EDGE_CURVE('',#520,#520,#470,.T.);
#629=EDGE_CURVE('',#520,#521,#248,.T.);
#630=EDGE_CURVE('',#521,#521,#471,.T.);
#631=EDGE_CURVE('',#522,#522,#472,.T.);
#632=EDGE_CURVE('',#522,#523,#249,.T.);
#633=EDGE_CURVE('',#523,#523,#473,.T.);
#634=EDGE_CURVE('',#524,#524,#474,.T.);
#635=EDGE_CURVE('',#524,#525,#250,.T.);
#636=EDGE_CURVE('',#525,#525,#475,.T.);
#637=EDGE_CURVE('',#526,#526,#476,.T.);
#638=EDGE_CURVE('',#526,#527,#251,.T.);
#639=EDGE_CURVE('',#527,#527,#477,.T.);
#640=EDGE_CURVE('',#528,#528,#478,.T.);
#641=EDGE_CURVE('',#528,#529,#252,.T.);
#642=EDGE_CURVE('',#529,#529,#479,.T.);
#643=EDGE_CURVE('',#530,#530,#480,.T.);
#644=EDGE_CURVE('',#530,#531,#253,.T.);
#645=EDGE_CURVE('',#531,#531,#481,.T.);
#646=EDGE_CURVE('',#532,#532,#482,.T.);
#647=EDGE_CURVE('',#532,#533,#254,.T.);
#648=EDGE_CURVE('',#533,#533,#483,.T.);
#649=EDGE_CURVE('',#534,#535,#255,.T.);
#650=EDGE_CURVE('',#536,#534,#256,.T.);
#651=EDGE_CURVE('',#537,#536,#257,.T.);
#652=EDGE_CURVE('',#535,#537,#258,.T.);
#653=EDGE_CURVE('',#538,#534,#259,.T.);
#654=EDGE_CURVE('',#539,#538,#260,.T.);
#655=EDGE_CURVE('',#536,#539,#261,.T.);
#656=EDGE_CURVE('',#535,#540,#262,.T.);
#657=EDGE_CURVE('',#541,#540,#263,.T.);
#658=EDGE_CURVE('',#541,#542,#264,.T.);
#659=EDGE_CURVE('',#538,#542,#265,.T.);
#660=EDGE_CURVE('',#542,#543,#266,.T.);
#661=EDGE_CURVE('',#543,#539,#267,.T.);
#662=EDGE_CURVE('',#540,#544,#268,.T.);
#663=EDGE_CURVE('',#544,#537,#269,.T.);
#664=EDGE_CURVE('',#545,#546,#270,.T.);
#665=EDGE_CURVE('',#546,#547,#271,.T.);
#666=EDGE_CURVE('',#547,#548,#484,.T.);
#667=EDGE_CURVE('',#548,#549,#272,.T.);
#668=EDGE_CURVE('',#549,#550,#273,.T.);
#669=EDGE_CURVE('',#550,#551,#274,.T.);
#670=EDGE_CURVE('',#551,#552,#485,.T.);
#671=EDGE_CURVE('',#552,#553,#275,.T.);
#672=EDGE_CURVE('',#553,#545,#486,.T.);
#673=EDGE_CURVE('',#554,#545,#276,.T.);
#674=EDGE_CURVE('',#555,#554,#277,.T.);
#675=EDGE_CURVE('',#555,#546,#278,.T.);
#676=EDGE_CURVE('',#556,#555,#279,.T.);
#677=EDGE_CURVE('',#547,#556,#280,.T.);
#678=EDGE_CURVE('',#557,#556,#487,.T.);
#679=EDGE_CURVE('',#557,#548,#281,.T.);
#680=EDGE_CURVE('',#558,#552,#282,.T.);
#681=EDGE_CURVE('',#559,#558,#283,.T.);
#682=EDGE_CURVE('',#553,#559,#284,.T.);
#683=EDGE_CURVE('',#551,#560,#285,.T.);
#684=EDGE_CURVE('',#558,#560,#488,.T.);
#685=EDGE_CURVE('',#561,#562,#286,.T.);
#686=EDGE_CURVE('',#550,#561,#287,.T.);
#687=EDGE_CURVE('',#549,#562,#288,.T.);
#688=EDGE_CURVE('',#562,#557,#289,.T.);
#689=EDGE_CURVE('',#560,#561,#290,.T.);
#690=EDGE_CURVE('',#563,#541,#291,.T.);
#691=EDGE_CURVE('',#563,#543,#292,.T.);
#692=EDGE_CURVE('',#554,#559,#489,.T.);
#693=EDGE_CURVE('',#544,#563,#293,.T.);
#694=EDGE_CURVE('',#564,#564,#490,.T.);
#695=EDGE_CURVE('',#564,#565,#294,.T.);
#696=EDGE_CURVE('',#565,#565,#491,.T.);
#697=EDGE_CURVE('',#566,#566,#492,.T.);
#698=EDGE_CURVE('',#566,#567,#295,.T.);
#699=EDGE_CURVE('',#567,#567,#493,.T.);
#700=EDGE_CURVE('',#568,#568,#494,.T.);
#701=EDGE_CURVE('',#568,#569,#296,.T.);
#702=EDGE_CURVE('',#569,#569,#495,.T.);
#703=EDGE_CURVE('',#570,#570,#496,.T.);
#704=EDGE_CURVE('',#570,#571,#297,.T.);
#705=EDGE_CURVE('',#571,#571,#497,.T.);
#706=EDGE_CURVE('',#572,#572,#498,.T.);
#707=EDGE_CURVE('',#572,#573,#298,.T.);
#708=EDGE_CURVE('',#573,#573,#499,.T.);
#709=EDGE_CURVE('',#574,#574,#500,.T.);
#710=EDGE_CURVE('',#574,#575,#299,.T.);
#711=EDGE_CURVE('',#575,#575,#501,.T.);
#712=EDGE_CURVE('',#576,#576,#502,.T.);
#713=EDGE_CURVE('',#576,#577,#300,.T.);
#714=EDGE_CURVE('',#577,#577,#503,.T.);
#715=EDGE_CURVE('',#578,#578,#504,.T.);
#716=EDGE_CURVE('',#578,#579,#301,.T.);
#717=EDGE_CURVE('',#579,#579,#505,.T.);
#718=EDGE_CURVE('',#580,#580,#506,.T.);
#719=EDGE_CURVE('',#580,#581,#302,.T.);
#720=EDGE_CURVE('',#581,#581,#507,.T.);
#721=EDGE_CURVE('',#582,#583,#303,.T.);
#722=EDGE_CURVE('',#584,#582,#304,.T.);
#723=EDGE_CURVE('',#585,#584,#305,.T.);
#724=EDGE_CURVE('',#583,#585,#306,.T.);
#725=EDGE_CURVE('',#586,#587,#307,.T.);
#726=EDGE_CURVE('',#588,#586,#308,.T.);
#727=EDGE_CURVE('',#589,#588,#309,.T.);
#728=EDGE_CURVE('',#587,#589,#310,.T.);
#729=EDGE_CURVE('',#590,#591,#311,.T.);
#730=EDGE_CURVE('',#592,#590,#312,.T.);
#731=EDGE_CURVE('',#593,#592,#313,.T.);
#732=EDGE_CURVE('',#591,#593,#314,.T.);
#733=EDGE_CURVE('',#594,#595,#315,.T.);
#734=EDGE_CURVE('',#596,#594,#316,.T.);
#735=EDGE_CURVE('',#597,#596,#317,.T.);
#736=EDGE_CURVE('',#595,#597,#318,.T.);
#737=EDGE_CURVE('',#591,#582,#508,.T.);
#738=EDGE_CURVE('',#584,#593,#509,.T.);
#739=EDGE_CURVE('',#598,#599,#319,.T.);
#740=EDGE_CURVE('',#599,#600,#320,.T.);
#741=EDGE_CURVE('',#600,#601,#321,.T.);
#742=EDGE_CURVE('',#601,#598,#322,.T.);
#743=EDGE_CURVE('',#592,#589,#510,.T.);
#744=EDGE_CURVE('',#588,#597,#511,.T.);
#745=EDGE_CURVE('',#596,#585,#512,.T.);
#746=EDGE_CURVE('',#595,#586,#513,.T.);
#747=EDGE_CURVE('',#602,#603,#323,.T.);
#748=EDGE_CURVE('',#604,#603,#324,.T.);
#749=EDGE_CURVE('',#605,#604,#325,.T.);
#750=EDGE_CURVE('',#605,#606,#326,.T.);
#751=EDGE_CURVE('',#606,#607,#327,.T.);
#752=EDGE_CURVE('',#607,#602,#328,.T.);
#753=EDGE_CURVE('',#583,#594,#514,.T.);
#754=EDGE_CURVE('',#587,#590,#515,.T.);
#755=EDGE_CURVE('',#600,#602,#329,.T.);
#756=EDGE_CURVE('',#601,#607,#330,.T.);
#757=EDGE_CURVE('',#598,#606,#331,.T.);
#758=EDGE_CURVE('',#608,#609,#332,.T.);
#759=EDGE_CURVE('',#609,#610,#333,.T.);
#760=EDGE_CURVE('',#611,#610,#334,.T.);
#761=EDGE_CURVE('',#608,#611,#335,.T.);
#762=EDGE_CURVE('',#612,#613,#336,.T.);
#763=EDGE_CURVE('',#608,#613,#337,.T.);
#764=EDGE_CURVE('',#614,#611,#338,.T.);
#765=EDGE_CURVE('',#612,#614,#339,.T.);
#766=EDGE_CURVE('',#615,#612,#340,.T.);
#767=EDGE_CURVE('',#616,#614,#341,.T.);
#768=EDGE_CURVE('',#615,#616,#342,.T.);
#769=EDGE_CURVE('',#617,#615,#343,.T.);
#770=EDGE_CURVE('',#610,#616,#344,.T.);
#771=EDGE_CURVE('',#617,#609,#345,.T.);
#772=EDGE_CURVE('',#609,#618,#346,.T.);
#773=EDGE_CURVE('',#618,#619,#347,.T.);
#774=EDGE_CURVE('',#619,#617,#348,.T.);
#775=EDGE_CURVE('',#604,#608,#349,.T.);
#776=EDGE_CURVE('',#613,#605,#350,.T.);
#777=EDGE_CURVE('',#620,#603,#351,.T.);
#778=EDGE_CURVE('',#618,#620,#352,.T.);
#779=EDGE_CURVE('',#621,#620,#353,.T.);
#780=EDGE_CURVE('',#619,#621,#354,.T.);
#781=EDGE_CURVE('',#599,#621,#355,.T.);
#782=ORIENTED_EDGE('',*,*,#622,.F.);
#783=ORIENTED_EDGE('',*,*,#623,.T.);
#784=ORIENTED_EDGE('',*,*,#624,.F.);
#785=ORIENTED_EDGE('',*,*,#623,.F.);
#786=ORIENTED_EDGE('',*,*,#625,.F.);
#787=ORIENTED_EDGE('',*,*,#626,.T.);
#788=ORIENTED_EDGE('',*,*,#627,.F.);
#789=ORIENTED_EDGE('',*,*,#626,.F.);
#790=ORIENTED_EDGE('',*,*,#628,.F.);
#791=ORIENTED_EDGE('',*,*,#629,.T.);
#792=ORIENTED_EDGE('',*,*,#630,.F.);
#793=ORIENTED_EDGE('',*,*,#629,.F.);
#794=ORIENTED_EDGE('',*,*,#631,.F.);
#795=ORIENTED_EDGE('',*,*,#632,.T.);
#796=ORIENTED_EDGE('',*,*,#633,.F.);
#797=ORIENTED_EDGE('',*,*,#632,.F.);
#798=ORIENTED_EDGE('',*,*,#634,.F.);
#799=ORIENTED_EDGE('',*,*,#635,.T.);
#800=ORIENTED_EDGE('',*,*,#636,.F.);
#801=ORIENTED_EDGE('',*,*,#635,.F.);
#802=ORIENTED_EDGE('',*,*,#637,.F.);
#803=ORIENTED_EDGE('',*,*,#638,.T.);
#804=ORIENTED_EDGE('',*,*,#639,.F.);
#805=ORIENTED_EDGE('',*,*,#638,.F.);
#806=ORIENTED_EDGE('',*,*,#640,.F.);
#807=ORIENTED_EDGE('',*,*,#641,.T.);
#808=ORIENTED_EDGE('',*,*,#642,.F.);
#809=ORIENTED_EDGE('',*,*,#641,.F.);
#810=ORIENTED_EDGE('',*,*,#643,.F.);
#811=ORIENTED_EDGE('',*,*,#644,.T.);
#812=ORIENTED_EDGE('',*,*,#645,.F.);
#813=ORIENTED_EDGE('',*,*,#644,.F.);
#814=ORIENTED_EDGE('',*,*,#646,.F.);
#815=ORIENTED_EDGE('',*,*,#647,.T.);
#816=ORIENTED_EDGE('',*,*,#648,.F.);
#817=ORIENTED_EDGE('',*,*,#647,.F.);
#818=ORIENTED_EDGE('',*,*,#649,.F.);
#819=ORIENTED_EDGE('',*,*,#650,.F.);
#820=ORIENTED_EDGE('',*,*,#651,.F.);
#821=ORIENTED_EDGE('',*,*,#652,.F.);
#822=ORIENTED_EDGE('',*,*,#624,.T.);
#823=ORIENTED_EDGE('',*,*,#643,.T.);
#824=ORIENTED_EDGE('',*,*,#646,.T.);
#825=ORIENTED_EDGE('',*,*,#650,.T.);
#826=ORIENTED_EDGE('',*,*,#653,.F.);
#827=ORIENTED_EDGE('',*,*,#654,.F.);
#828=ORIENTED_EDGE('',*,*,#655,.F.);
#829=ORIENTED_EDGE('',*,*,#649,.T.);
#830=ORIENTED_EDGE('',*,*,#656,.T.);
#831=ORIENTED_EDGE('',*,*,#657,.F.);
#832=ORIENTED_EDGE('',*,*,#658,.T.);
#833=ORIENTED_EDGE('',*,*,#659,.F.);
#834=ORIENTED_EDGE('',*,*,#653,.T.);
#835=ORIENTED_EDGE('',*,*,#659,.T.);
#836=ORIENTED_EDGE('',*,*,#660,.T.);
#837=ORIENTED_EDGE('',*,*,#661,.T.);
#838=ORIENTED_EDGE('',*,*,#654,.T.);
#839=ORIENTED_EDGE('',*,*,#622,.T.);
#840=ORIENTED_EDGE('',*,*,#645,.T.);
#841=ORIENTED_EDGE('',*,*,#648,.T.);
#842=ORIENTED_EDGE('',*,*,#662,.F.);
#843=ORIENTED_EDGE('',*,*,#656,.F.);
#844=ORIENTED_EDGE('',*,*,#652,.T.);
#845=ORIENTED_EDGE('',*,*,#663,.F.);
#846=ORIENTED_EDGE('',*,*,#627,.T.);
#847=ORIENTED_EDGE('',*,*,#630,.T.);
#848=ORIENTED_EDGE('',*,*,#633,.T.);
#849=ORIENTED_EDGE('',*,*,#636,.T.);
#850=ORIENTED_EDGE('',*,*,#639,.T.);
#851=ORIENTED_EDGE('',*,*,#642,.T.);
#852=ORIENTED_EDGE('',*,*,#664,.T.);
#853=ORIENTED_EDGE('',*,*,#665,.T.);
#854=ORIENTED_EDGE('',*,*,#666,.T.);
#855=ORIENTED_EDGE('',*,*,#667,.T.);
#856=ORIENTED_EDGE('',*,*,#668,.T.);
#857=ORIENTED_EDGE('',*,*,#669,.T.);
#858=ORIENTED_EDGE('',*,*,#670,.T.);
#859=ORIENTED_EDGE('',*,*,#671,.T.);
#860=ORIENTED_EDGE('',*,*,#672,.T.);
#861=ORIENTED_EDGE('',*,*,#664,.F.);
#862=ORIENTED_EDGE('',*,*,#673,.F.);
#863=ORIENTED_EDGE('',*,*,#674,.F.);
#864=ORIENTED_EDGE('',*,*,#675,.T.);
#865=ORIENTED_EDGE('',*,*,#665,.F.);
#866=ORIENTED_EDGE('',*,*,#675,.F.);
#867=ORIENTED_EDGE('',*,*,#676,.F.);
#868=ORIENTED_EDGE('',*,*,#677,.F.);
#869=ORIENTED_EDGE('',*,*,#677,.T.);
#870=ORIENTED_EDGE('',*,*,#678,.F.);
#871=ORIENTED_EDGE('',*,*,#679,.T.);
#872=ORIENTED_EDGE('',*,*,#666,.F.);
#873=ORIENTED_EDGE('',*,*,#671,.F.);
#874=ORIENTED_EDGE('',*,*,#680,.F.);
#875=ORIENTED_EDGE('',*,*,#681,.F.);
#876=ORIENTED_EDGE('',*,*,#682,.F.);
#877=ORIENTED_EDGE('',*,*,#680,.T.);
#878=ORIENTED_EDGE('',*,*,#670,.F.);
#879=ORIENTED_EDGE('',*,*,#683,.T.);
#880=ORIENTED_EDGE('',*,*,#684,.F.);
#881=ORIENTED_EDGE('',*,*,#685,.F.);
#882=ORIENTED_EDGE('',*,*,#686,.F.);
#883=ORIENTED_EDGE('',*,*,#668,.F.);
#884=ORIENTED_EDGE('',*,*,#687,.T.);
#885=ORIENTED_EDGE('',*,*,#688,.F.);
#886=ORIENTED_EDGE('',*,*,#687,.F.);
#887=ORIENTED_EDGE('',*,*,#667,.F.);
#888=ORIENTED_EDGE('',*,*,#679,.F.);
#889=ORIENTED_EDGE('',*,*,#689,.F.);
#890=ORIENTED_EDGE('',*,*,#683,.F.);
#891=ORIENTED_EDGE('',*,*,#669,.F.);
#892=ORIENTED_EDGE('',*,*,#686,.T.);
#893=ORIENTED_EDGE('',*,*,#658,.F.);
#894=ORIENTED_EDGE('',*,*,#690,.F.);
#895=ORIENTED_EDGE('',*,*,#691,.T.);
#896=ORIENTED_EDGE('',*,*,#660,.F.);
#897=ORIENTED_EDGE('',*,*,#625,.T.);
#898=ORIENTED_EDGE('',*,*,#628,.T.);
#899=ORIENTED_EDGE('',*,*,#631,.T.);
#900=ORIENTED_EDGE('',*,*,#634,.T.);
#901=ORIENTED_EDGE('',*,*,#637,.T.);
#902=ORIENTED_EDGE('',*,*,#640,.T.);
#903=ORIENTED_EDGE('',*,*,#674,.T.);
#904=ORIENTED_EDGE('',*,*,#692,.T.);
#905=ORIENTED_EDGE('',*,*,#681,.T.);
#906=ORIENTED_EDGE('',*,*,#684,.T.);
#907=ORIENTED_EDGE('',*,*,#689,.T.);
#908=ORIENTED_EDGE('',*,*,#685,.T.);
#909=ORIENTED_EDGE('',*,*,#688,.T.);
#910=ORIENTED_EDGE('',*,*,#678,.T.);
#911=ORIENTED_EDGE('',*,*,#676,.T.);
#912=ORIENTED_EDGE('',*,*,#673,.T.);
#913=ORIENTED_EDGE('',*,*,#672,.F.);
#914=ORIENTED_EDGE('',*,*,#682,.T.);
#915=ORIENTED_EDGE('',*,*,#692,.F.);
#916=ORIENTED_EDGE('',*,*,#657,.T.);
#917=ORIENTED_EDGE('',*,*,#662,.T.);
#918=ORIENTED_EDGE('',*,*,#693,.T.);
#919=ORIENTED_EDGE('',*,*,#690,.T.);
#920=ORIENTED_EDGE('',*,*,#651,.T.);
#921=ORIENTED_EDGE('',*,*,#655,.T.);
#922=ORIENTED_EDGE('',*,*,#661,.F.);
#923=ORIENTED_EDGE('',*,*,#691,.F.);
#924=ORIENTED_EDGE('',*,*,#693,.F.);
#925=ORIENTED_EDGE('',*,*,#663,.T.);
#926=ORIENTED_EDGE('',*,*,#694,.F.);
#927=ORIENTED_EDGE('',*,*,#695,.T.);
#928=ORIENTED_EDGE('',*,*,#696,.F.);
#929=ORIENTED_EDGE('',*,*,#695,.F.);
#930=ORIENTED_EDGE('',*,*,#697,.F.);
#931=ORIENTED_EDGE('',*,*,#698,.T.);
#932=ORIENTED_EDGE('',*,*,#699,.F.);
#933=ORIENTED_EDGE('',*,*,#698,.F.);
#934=ORIENTED_EDGE('',*,*,#700,.F.);
#935=ORIENTED_EDGE('',*,*,#701,.T.);
#936=ORIENTED_EDGE('',*,*,#702,.F.);
#937=ORIENTED_EDGE('',*,*,#701,.F.);
#938=ORIENTED_EDGE('',*,*,#703,.F.);
#939=ORIENTED_EDGE('',*,*,#704,.T.);
#940=ORIENTED_EDGE('',*,*,#705,.F.);
#941=ORIENTED_EDGE('',*,*,#704,.F.);
#942=ORIENTED_EDGE('',*,*,#706,.F.);
#943=ORIENTED_EDGE('',*,*,#707,.T.);
#944=ORIENTED_EDGE('',*,*,#708,.F.);
#945=ORIENTED_EDGE('',*,*,#707,.F.);
#946=ORIENTED_EDGE('',*,*,#709,.F.);
#947=ORIENTED_EDGE('',*,*,#710,.T.);
#948=ORIENTED_EDGE('',*,*,#711,.F.);
#949=ORIENTED_EDGE('',*,*,#710,.F.);
#950=ORIENTED_EDGE('',*,*,#712,.F.);
#951=ORIENTED_EDGE('',*,*,#713,.T.);
#952=ORIENTED_EDGE('',*,*,#714,.F.);
#953=ORIENTED_EDGE('',*,*,#713,.F.);
#954=ORIENTED_EDGE('',*,*,#715,.F.);
#955=ORIENTED_EDGE('',*,*,#716,.T.);
#956=ORIENTED_EDGE('',*,*,#717,.F.);
#957=ORIENTED_EDGE('',*,*,#716,.F.);
#958=ORIENTED_EDGE('',*,*,#718,.F.);
#959=ORIENTED_EDGE('',*,*,#719,.T.);
#960=ORIENTED_EDGE('',*,*,#720,.F.);
#961=ORIENTED_EDGE('',*,*,#719,.F.);
#962=ORIENTED_EDGE('',*,*,#721,.F.);
#963=ORIENTED_EDGE('',*,*,#722,.F.);
#964=ORIENTED_EDGE('',*,*,#723,.F.);
#965=ORIENTED_EDGE('',*,*,#724,.F.);
#966=ORIENTED_EDGE('',*,*,#725,.F.);
#967=ORIENTED_EDGE('',*,*,#726,.F.);
#968=ORIENTED_EDGE('',*,*,#727,.F.);
#969=ORIENTED_EDGE('',*,*,#728,.F.);
#970=ORIENTED_EDGE('',*,*,#729,.F.);
#971=ORIENTED_EDGE('',*,*,#730,.F.);
#972=ORIENTED_EDGE('',*,*,#731,.F.);
#973=ORIENTED_EDGE('',*,*,#732,.F.);
#974=ORIENTED_EDGE('',*,*,#733,.F.);
#975=ORIENTED_EDGE('',*,*,#734,.F.);
#976=ORIENTED_EDGE('',*,*,#735,.F.);
#977=ORIENTED_EDGE('',*,*,#736,.F.);
#978=ORIENTED_EDGE('',*,*,#722,.T.);
#979=ORIENTED_EDGE('',*,*,#737,.F.);
#980=ORIENTED_EDGE('',*,*,#732,.T.);
#981=ORIENTED_EDGE('',*,*,#738,.F.);
#982=ORIENTED_EDGE('',*,*,#739,.T.);
#983=ORIENTED_EDGE('',*,*,#740,.T.);
#984=ORIENTED_EDGE('',*,*,#741,.T.);
#985=ORIENTED_EDGE('',*,*,#742,.T.);
#986=ORIENTED_EDGE('',*,*,#694,.T.);
#987=ORIENTED_EDGE('',*,*,#697,.T.);
#988=ORIENTED_EDGE('',*,*,#700,.T.);
#989=ORIENTED_EDGE('',*,*,#703,.T.);
#990=ORIENTED_EDGE('',*,*,#706,.T.);
#991=ORIENTED_EDGE('',*,*,#709,.T.);
#992=ORIENTED_EDGE('',*,*,#723,.T.);
#993=ORIENTED_EDGE('',*,*,#738,.T.);
#994=ORIENTED_EDGE('',*,*,#731,.T.);
#995=ORIENTED_EDGE('',*,*,#743,.T.);
#996=ORIENTED_EDGE('',*,*,#727,.T.);
#997=ORIENTED_EDGE('',*,*,#744,.T.);
#998=ORIENTED_EDGE('',*,*,#735,.T.);
#999=ORIENTED_EDGE('',*,*,#745,.T.);
#1000=ORIENTED_EDGE('',*,*,#726,.T.);
#1001=ORIENTED_EDGE('',*,*,#746,.F.);
#1002=ORIENTED_EDGE('',*,*,#736,.T.);
#1003=ORIENTED_EDGE('',*,*,#744,.F.);
#1004=ORIENTED_EDGE('',*,*,#747,.T.);
#1005=ORIENTED_EDGE('',*,*,#748,.F.);
#1006=ORIENTED_EDGE('',*,*,#749,.F.);
#1007=ORIENTED_EDGE('',*,*,#750,.T.);
#1008=ORIENTED_EDGE('',*,*,#751,.T.);
#1009=ORIENTED_EDGE('',*,*,#752,.T.);
#1010=ORIENTED_EDGE('',*,*,#696,.T.);
#1011=ORIENTED_EDGE('',*,*,#699,.T.);
#1012=ORIENTED_EDGE('',*,*,#702,.T.);
#1013=ORIENTED_EDGE('',*,*,#705,.T.);
#1014=ORIENTED_EDGE('',*,*,#708,.T.);
#1015=ORIENTED_EDGE('',*,*,#711,.T.);
#1016=ORIENTED_EDGE('',*,*,#721,.T.);
#1017=ORIENTED_EDGE('',*,*,#753,.T.);
#1018=ORIENTED_EDGE('',*,*,#733,.T.);
#1019=ORIENTED_EDGE('',*,*,#746,.T.);
#1020=ORIENTED_EDGE('',*,*,#725,.T.);
#1021=ORIENTED_EDGE('',*,*,#754,.T.);
#1022=ORIENTED_EDGE('',*,*,#729,.T.);
#1023=ORIENTED_EDGE('',*,*,#737,.T.);
#1024=ORIENTED_EDGE('',*,*,#724,.T.);
#1025=ORIENTED_EDGE('',*,*,#745,.F.);
#1026=ORIENTED_EDGE('',*,*,#734,.T.);
#1027=ORIENTED_EDGE('',*,*,#753,.F.);
#1028=ORIENTED_EDGE('',*,*,#728,.T.);
#1029=ORIENTED_EDGE('',*,*,#743,.F.);
#1030=ORIENTED_EDGE('',*,*,#730,.T.);
#1031=ORIENTED_EDGE('',*,*,#754,.F.);
#1032=ORIENTED_EDGE('',*,*,#741,.F.);
#1033=ORIENTED_EDGE('',*,*,#755,.T.);
#1034=ORIENTED_EDGE('',*,*,#752,.F.);
#1035=ORIENTED_EDGE('',*,*,#756,.F.);
#1036=ORIENTED_EDGE('',*,*,#742,.F.);
#1037=ORIENTED_EDGE('',*,*,#756,.T.);
#1038=ORIENTED_EDGE('',*,*,#751,.F.);
#1039=ORIENTED_EDGE('',*,*,#757,.F.);
#1040=ORIENTED_EDGE('',*,*,#758,.T.);
#1041=ORIENTED_EDGE('',*,*,#759,.T.);
#1042=ORIENTED_EDGE('',*,*,#760,.F.);
#1043=ORIENTED_EDGE('',*,*,#761,.F.);
#1044=ORIENTED_EDGE('',*,*,#762,.T.);
#1045=ORIENTED_EDGE('',*,*,#763,.F.);
#1046=ORIENTED_EDGE('',*,*,#761,.T.);
#1047=ORIENTED_EDGE('',*,*,#764,.F.);
#1048=ORIENTED_EDGE('',*,*,#765,.F.);
#1049=ORIENTED_EDGE('',*,*,#714,.T.);
#1050=ORIENTED_EDGE('',*,*,#715,.T.);
#1051=ORIENTED_EDGE('',*,*,#720,.T.);
#1052=ORIENTED_EDGE('',*,*,#766,.T.);
#1053=ORIENTED_EDGE('',*,*,#765,.T.);
#1054=ORIENTED_EDGE('',*,*,#767,.F.);
#1055=ORIENTED_EDGE('',*,*,#768,.F.);
#1056=ORIENTED_EDGE('',*,*,#769,.T.);
#1057=ORIENTED_EDGE('',*,*,#768,.T.);
#1058=ORIENTED_EDGE('',*,*,#770,.F.);
#1059=ORIENTED_EDGE('',*,*,#759,.F.);
#1060=ORIENTED_EDGE('',*,*,#771,.F.);
#1061=ORIENTED_EDGE('',*,*,#712,.T.);
#1062=ORIENTED_EDGE('',*,*,#717,.T.);
#1063=ORIENTED_EDGE('',*,*,#718,.T.);
#1064=ORIENTED_EDGE('',*,*,#760,.T.);
#1065=ORIENTED_EDGE('',*,*,#770,.T.);
#1066=ORIENTED_EDGE('',*,*,#767,.T.);
#1067=ORIENTED_EDGE('',*,*,#764,.T.);
#1068=ORIENTED_EDGE('',*,*,#771,.T.);
#1069=ORIENTED_EDGE('',*,*,#772,.T.);
#1070=ORIENTED_EDGE('',*,*,#773,.T.);
#1071=ORIENTED_EDGE('',*,*,#774,.T.);
#1072=ORIENTED_EDGE('',*,*,#749,.T.);
#1073=ORIENTED_EDGE('',*,*,#775,.T.);
#1074=ORIENTED_EDGE('',*,*,#763,.T.);
#1075=ORIENTED_EDGE('',*,*,#776,.T.);
#1076=ORIENTED_EDGE('',*,*,#748,.T.);
#1077=ORIENTED_EDGE('',*,*,#777,.F.);
#1078=ORIENTED_EDGE('',*,*,#778,.F.);
#1079=ORIENTED_EDGE('',*,*,#772,.F.);
#1080=ORIENTED_EDGE('',*,*,#758,.F.);
#1081=ORIENTED_EDGE('',*,*,#775,.F.);
#1082=ORIENTED_EDGE('',*,*,#773,.F.);
#1083=ORIENTED_EDGE('',*,*,#778,.T.);
#1084=ORIENTED_EDGE('',*,*,#779,.F.);
#1085=ORIENTED_EDGE('',*,*,#780,.F.);
#1086=ORIENTED_EDGE('',*,*,#774,.F.);
#1087=ORIENTED_EDGE('',*,*,#780,.T.);
#1088=ORIENTED_EDGE('',*,*,#781,.F.);
#1089=ORIENTED_EDGE('',*,*,#739,.F.);
#1090=ORIENTED_EDGE('',*,*,#757,.T.);
#1091=ORIENTED_EDGE('',*,*,#750,.F.);
#1092=ORIENTED_EDGE('',*,*,#776,.F.);
#1093=ORIENTED_EDGE('',*,*,#762,.F.);
#1094=ORIENTED_EDGE('',*,*,#766,.F.);
#1095=ORIENTED_EDGE('',*,*,#769,.F.);
#1096=ORIENTED_EDGE('',*,*,#781,.T.);
#1097=ORIENTED_EDGE('',*,*,#779,.T.);
#1098=ORIENTED_EDGE('',*,*,#777,.T.);
#1099=ORIENTED_EDGE('',*,*,#747,.F.);
#1100=ORIENTED_EDGE('',*,*,#755,.F.);
#1101=ORIENTED_EDGE('',*,*,#740,.F.);
#1102=CYLINDRICAL_SURFACE('',#1200,3.5);
#1103=CYLINDRICAL_SURFACE('',#1203,1.5);
#1104=CYLINDRICAL_SURFACE('',#1206,1.5);
#1105=CYLINDRICAL_SURFACE('',#1209,1.5);
#1106=CYLINDRICAL_SURFACE('',#1212,1.5);
#1107=CYLINDRICAL_SURFACE('',#1215,1.5);
#1108=CYLINDRICAL_SURFACE('',#1218,1.5);
#1109=CYLINDRICAL_SURFACE('',#1221,1.5);
#1110=CYLINDRICAL_SURFACE('',#1224,1.5);
#1111=CYLINDRICAL_SURFACE('',#1237,6.5);
#1112=CYLINDRICAL_SURFACE('',#1240,6.5);
#1113=CYLINDRICAL_SURFACE('',#1247,6.5);
#1114=CYLINDRICAL_SURFACE('',#1250,1.5);
#1115=CYLINDRICAL_SURFACE('',#1253,1.5);
#1116=CYLINDRICAL_SURFACE('',#1256,1.5);
#1117=CYLINDRICAL_SURFACE('',#1259,1.5);
#1118=CYLINDRICAL_SURFACE('',#1262,1.5);
#1119=CYLINDRICAL_SURFACE('',#1265,1.5);
#1120=CYLINDRICAL_SURFACE('',#1268,1.5);
#1121=CYLINDRICAL_SURFACE('',#1271,1.5);
#1122=CYLINDRICAL_SURFACE('',#1274,1.5);
#1123=CYLINDRICAL_SURFACE('',#1281,6.5);
#1124=CYLINDRICAL_SURFACE('',#1288,6.5);
#1125=CYLINDRICAL_SURFACE('',#1293,6.5);
#1126=CYLINDRICAL_SURFACE('',#1294,6.5);
#1127=ADVANCED_FACE('',(#90),#1102,.F.);
#1128=ADVANCED_FACE('',(#91),#1103,.F.);
#1129=ADVANCED_FACE('',(#92),#1104,.F.);
#1130=ADVANCED_FACE('',(#93),#1105,.F.);
#1131=ADVANCED_FACE('',(#94),#1106,.F.);
#1132=ADVANCED_FACE('',(#95),#1107,.F.);
#1133=ADVANCED_FACE('',(#96),#1108,.F.);
#1134=ADVANCED_FACE('',(#97),#1109,.F.);
#1135=ADVANCED_FACE('',(#98),#1110,.F.);
#1136=ADVANCED_FACE('',(#99,#17,#18,#19),#57,.F.);
#1137=ADVANCED_FACE('',(#100),#58,.T.);
#1138=ADVANCED_FACE('',(#101),#59,.T.);
#1139=ADVANCED_FACE('',(#102,#20,#21,#22),#60,.T.);
#1140=ADVANCED_FACE('',(#103,#23,#24,#25,#26,#27,#28,#29),#61,.T.);
#1141=ADVANCED_FACE('',(#104),#62,.F.);
#1142=ADVANCED_FACE('',(#105),#63,.F.);
#1143=ADVANCED_FACE('',(#106),#1111,.F.);
#1144=ADVANCED_FACE('',(#107),#64,.F.);
#1145=ADVANCED_FACE('',(#108),#1112,.F.);
#1146=ADVANCED_FACE('',(#109),#65,.F.);
#1147=ADVANCED_FACE('',(#110),#66,.F.);
#1148=ADVANCED_FACE('',(#111),#67,.F.);
#1149=ADVANCED_FACE('',(#112,#30,#31,#32,#33,#34,#35,#36),#68,.T.);
#1150=ADVANCED_FACE('',(#113),#1113,.F.);
#1151=ADVANCED_FACE('',(#114),#69,.T.);
#1152=ADVANCED_FACE('',(#115),#70,.T.);
#1153=ADVANCED_FACE('',(#116),#1114,.F.);
#1154=ADVANCED_FACE('',(#117),#1115,.F.);
#1155=ADVANCED_FACE('',(#118),#1116,.F.);
#1156=ADVANCED_FACE('',(#119),#1117,.F.);
#1157=ADVANCED_FACE('',(#120),#1118,.F.);
#1158=ADVANCED_FACE('',(#121),#1119,.F.);
#1159=ADVANCED_FACE('',(#122),#1120,.F.);
#1160=ADVANCED_FACE('',(#123),#1121,.F.);
#1161=ADVANCED_FACE('',(#124),#1122,.F.);
#1162=ADVANCED_FACE('',(#125),#71,.F.);
#1163=ADVANCED_FACE('',(#126),#72,.F.);
#1164=ADVANCED_FACE('',(#127),#73,.F.);
#1165=ADVANCED_FACE('',(#128),#74,.F.);
#1166=ADVANCED_FACE('',(#129),#1123,.F.);
#1167=ADVANCED_FACE('',(#130,#37,#38,#39,#40,#41,#42,#43),#75,.T.);
#1168=ADVANCED_FACE('',(#131),#1124,.F.);
#1169=ADVANCED_FACE('',(#132,#44,#45,#46,#47,#48,#49,#50),#76,.T.);
#1170=ADVANCED_FACE('',(#133),#1125,.F.);
#1171=ADVANCED_FACE('',(#134),#1126,.F.);
#1172=ADVANCED_FACE('',(#135),#77,.T.);
#1173=ADVANCED_FACE('',(#136),#78,.T.);
#1174=ADVANCED_FACE('',(#137),#79,.T.);
#1175=ADVANCED_FACE('',(#138,#51,#52,#53),#80,.T.);
#1176=ADVANCED_FACE('',(#139),#81,.T.);
#1177=ADVANCED_FACE('',(#140,#54,#55,#56),#82,.T.);
#1178=ADVANCED_FACE('',(#141),#83,.T.);
#1179=ADVANCED_FACE('',(#142),#84,.F.);
#1180=ADVANCED_FACE('',(#143),#85,.F.);
#1181=ADVANCED_FACE('',(#144),#86,.T.);
#1182=ADVANCED_FACE('',(#145),#87,.T.);
#1183=ADVANCED_FACE('',(#146),#88,.T.);
#1184=ADVANCED_FACE('',(#147),#89,.T.);
#1185=CLOSED_SHELL('',(#1127,#1128,#1129,#1130,#1131,#1132,#1133,#1134,
#1135,#1136,#1137,#1138,#1139,#1140,#1141,#1142,#1143,#1144,#1145,#1146,
#1147,#1148,#1149,#1150,#1151,#1152));
#1186=CLOSED_SHELL('',(#1153,#1154,#1155,#1156,#1157,#1158,#1159,#1160,
#1161,#1162,#1163,#1164,#1165,#1166,#1167,#1168,#1169,#1170,#1171,#1172,
#1173,#1174,#1175,#1176,#1177,#1178,#1179,#1180,#1181,#1182,#1183,#1184));
#1187=DERIVED_UNIT_ELEMENT(#1189,1.);
#1188=DERIVED_UNIT_ELEMENT(#1966,-3.);
#1189=(
MASS_UNIT()
NAMED_UNIT(*)
SI_UNIT(.KILO.,.GRAM.)
);
#1190=DERIVED_UNIT((#1187,#1188));
#1191=MEASURE_REPRESENTATION_ITEM('density measure',
POSITIVE_RATIO_MEASURE(7850.),#1190);
#1192=PROPERTY_DEFINITION_REPRESENTATION(#1197,#1194);
#1193=PROPERTY_DEFINITION_REPRESENTATION(#1198,#1195);
#1194=REPRESENTATION('material name',(#1196),#1963);
#1195=REPRESENTATION('density',(#1191),#1963);
#1196=DESCRIPTIVE_REPRESENTATION_ITEM('Acier','Acier');
#1197=PROPERTY_DEFINITION('material property','material name',#1973);
#1198=PROPERTY_DEFINITION('material property','density of part',#1973);
#1199=AXIS2_PLACEMENT_3D('',#1636,#1308,#1309);
#1200=AXIS2_PLACEMENT_3D('',#1637,#1310,#1311);
#1201=AXIS2_PLACEMENT_3D('',#1639,#1312,#1313);
#1202=AXIS2_PLACEMENT_3D('',#1642,#1315,#1316);
#1203=AXIS2_PLACEMENT_3D('',#1643,#1317,#1318);
#1204=AXIS2_PLACEMENT_3D('',#1645,#1319,#1320);
#1205=AXIS2_PLACEMENT_3D('',#1648,#1322,#1323);
#1206=AXIS2_PLACEMENT_3D('',#1649,#1324,#1325);
#1207=AXIS2_PLACEMENT_3D('',#1651,#1326,#1327);
#1208=AXIS2_PLACEMENT_3D('',#1654,#1329,#1330);
#1209=AXIS2_PLACEMENT_3D('',#1655,#1331,#1332);
#1210=AXIS2_PLACEMENT_3D('',#1657,#1333,#1334);
#1211=AXIS2_PLACEMENT_3D('',#1660,#1336,#1337);
#1212=AXIS2_PLACEMENT_3D('',#1661,#1338,#1339);
#1213=AXIS2_PLACEMENT_3D('',#1663,#1340,#1341);
#1214=AXIS2_PLACEMENT_3D('',#1666,#1343,#1344);
#1215=AXIS2_PLACEMENT_3D('',#1667,#1345,#1346);
#1216=AXIS2_PLACEMENT_3D('',#1669,#1347,#1348);
#1217=AXIS2_PLACEMENT_3D('',#1672,#1350,#1351);
#1218=AXIS2_PLACEMENT_3D('',#1673,#1352,#1353);
#1219=AXIS2_PLACEMENT_3D('',#1675,#1354,#1355);
#1220=AXIS2_PLACEMENT_3D('',#1678,#1357,#1358);
#1221=AXIS2_PLACEMENT_3D('',#1679,#1359,#1360);
#1222=AXIS2_PLACEMENT_3D('',#1681,#1361,#1362);
#1223=AXIS2_PLACEMENT_3D('',#1684,#1364,#1365);
#1224=AXIS2_PLACEMENT_3D('',#1685,#1366,#1367);
#1225=AXIS2_PLACEMENT_3D('',#1687,#1368,#1369);
#1226=AXIS2_PLACEMENT_3D('',#1690,#1371,#1372);
#1227=AXIS2_PLACEMENT_3D('',#1691,#1373,#1374);
#1228=AXIS2_PLACEMENT_3D('',#1700,#1379,#1380);
#1229=AXIS2_PLACEMENT_3D('',#1706,#1384,#1385);
#1230=AXIS2_PLACEMENT_3D('',#1714,#1390,#1391);
#1231=AXIS2_PLACEMENT_3D('',#1718,#1394,#1395);
#1232=AXIS2_PLACEMENT_3D('',#1728,#1400,#1401);
#1233=AXIS2_PLACEMENT_3D('',#1736,#1405,#1406);
#1234=AXIS2_PLACEMENT_3D('',#1739,#1408,#1409);
#1235=AXIS2_PLACEMENT_3D('',#1740,#1410,#1411);
#1236=AXIS2_PLACEMENT_3D('',#1746,#1415,#1416);
#1237=AXIS2_PLACEMENT_3D('',#1750,#1419,#1420);
#1238=AXIS2_PLACEMENT_3D('',#1752,#1421,#1422);
#1239=AXIS2_PLACEMENT_3D('',#1754,#1424,#1425);
#1240=AXIS2_PLACEMENT_3D('',#1760,#1429,#1430);
#1241=AXIS2_PLACEMENT_3D('',#1763,#1432,#1433);
#1242=AXIS2_PLACEMENT_3D('',#1764,#1434,#1435);
#1243=AXIS2_PLACEMENT_3D('',#1770,#1439,#1440);
#1244=AXIS2_PLACEMENT_3D('',#1772,#1442,#1443);
#1245=AXIS2_PLACEMENT_3D('',#1774,#1445,#1446);
#1246=AXIS2_PLACEMENT_3D('',#1778,#1449,#1450);
#1247=AXIS2_PLACEMENT_3D('',#1779,#1451,#1452);
#1248=AXIS2_PLACEMENT_3D('',#1780,#1453,#1454);
#1249=AXIS2_PLACEMENT_3D('',#1782,#1456,#1457);
#1250=AXIS2_PLACEMENT_3D('',#1783,#1458,#1459);
#1251=AXIS2_PLACEMENT_3D('',#1785,#1460,#1461);
#1252=AXIS2_PLACEMENT_3D('',#1788,#1463,#1464);
#1253=AXIS2_PLACEMENT_3D('',#1789,#1465,#1466);
#1254=AXIS2_PLACEMENT_3D('',#1791,#1467,#1468);
#1255=AXIS2_PLACEMENT_3D('',#1794,#1470,#1471);
#1256=AXIS2_PLACEMENT_3D('',#1795,#1472,#1473);
#1257=AXIS2_PLACEMENT_3D('',#1797,#1474,#1475);
#1258=AXIS2_PLACEMENT_3D('',#1800,#1477,#1478);
#1259=AXIS2_PLACEMENT_3D('',#1801,#1479,#1480);
#1260=AXIS2_PLACEMENT_3D('',#1803,#1481,#1482);
#1261=AXIS2_PLACEMENT_3D('',#1806,#1484,#1485);
#1262=AXIS2_PLACEMENT_3D('',#1807,#1486,#1487);
#1263=AXIS2_PLACEMENT_3D('',#1809,#1488,#1489);
#1264=AXIS2_PLACEMENT_3D('',#1812,#1491,#1492);
#1265=AXIS2_PLACEMENT_3D('',#1813,#1493,#1494);
#1266=AXIS2_PLACEMENT_3D('',#1815,#1495,#1496);
#1267=AXIS2_PLACEMENT_3D('',#1818,#1498,#1499);
#1268=AXIS2_PLACEMENT_3D('',#1819,#1500,#1501);
#1269=AXIS2_PLACEMENT_3D('',#1821,#1502,#1503);
#1270=AXIS2_PLACEMENT_3D('',#1824,#1505,#1506);
#1271=AXIS2_PLACEMENT_3D('',#1825,#1507,#1508);
#1272=AXIS2_PLACEMENT_3D('',#1827,#1509,#1510);
#1273=AXIS2_PLACEMENT_3D('',#1830,#1512,#1513);
#1274=AXIS2_PLACEMENT_3D('',#1831,#1514,#1515);
#1275=AXIS2_PLACEMENT_3D('',#1833,#1516,#1517);
#1276=AXIS2_PLACEMENT_3D('',#1836,#1519,#1520);
#1277=AXIS2_PLACEMENT_3D('',#1837,#1521,#1522);
#1278=AXIS2_PLACEMENT_3D('',#1846,#1527,#1528);
#1279=AXIS2_PLACEMENT_3D('',#1855,#1533,#1534);
#1280=AXIS2_PLACEMENT_3D('',#1864,#1539,#1540);
#1281=AXIS2_PLACEMENT_3D('',#1873,#1545,#1546);
#1282=AXIS2_PLACEMENT_3D('',#1874,#1547,#1548);
#1283=AXIS2_PLACEMENT_3D('',#1875,#1549,#1550);
#1284=AXIS2_PLACEMENT_3D('',#1876,#1551,#1552);
#1285=AXIS2_PLACEMENT_3D('',#1885,#1557,#1558);
#1286=AXIS2_PLACEMENT_3D('',#1886,#1559,#1560);
#1287=AXIS2_PLACEMENT_3D('',#1887,#1561,#1562);
#1288=AXIS2_PLACEMENT_3D('',#1888,#1563,#1564);
#1289=AXIS2_PLACEMENT_3D('',#1889,#1565,#1566);
#1290=AXIS2_PLACEMENT_3D('',#1890,#1567,#1568);
#1291=AXIS2_PLACEMENT_3D('',#1903,#1575,#1576);
#1292=AXIS2_PLACEMENT_3D('',#1904,#1577,#1578);
#1293=AXIS2_PLACEMENT_3D('',#1905,#1579,#1580);
#1294=AXIS2_PLACEMENT_3D('',#1906,#1581,#1582);
#1295=AXIS2_PLACEMENT_3D('',#1907,#1583,#1584);
#1296=AXIS2_PLACEMENT_3D('',#1910,#1587,#1588);
#1297=AXIS2_PLACEMENT_3D('',#1912,#1590,#1591);
#1298=AXIS2_PLACEMENT_3D('',#1921,#1596,#1597);
#1299=AXIS2_PLACEMENT_3D('',#1929,#1602,#1603);
#1300=AXIS2_PLACEMENT_3D('',#1935,#1607,#1608);
#1301=AXIS2_PLACEMENT_3D('',#1940,#1612,#1613);
#1302=AXIS2_PLACEMENT_3D('',#1941,#1614,#1615);
#1303=AXIS2_PLACEMENT_3D('',#1947,#1619,#1620);
#1304=AXIS2_PLACEMENT_3D('',#1950,#1623,#1624);
#1305=AXIS2_PLACEMENT_3D('',#1954,#1627,#1628);
#1306=AXIS2_PLACEMENT_3D('',#1958,#1631,#1632);
#1307=AXIS2_PLACEMENT_3D('',#1960,#1634,#1635);
#1308=DIRECTION('axis',(0.,0.,1.));
#1309=DIRECTION('refdir',(1.,0.,0.));
#1310=DIRECTION('center_axis',(-1.,0.,0.));
#1311=DIRECTION('ref_axis',(0.,1.,0.));
#1312=DIRECTION('center_axis',(-1.,0.,0.));
#1313=DIRECTION('ref_axis',(0.,1.,0.));
#1314=DIRECTION('',(-1.,0.,0.));
#1315=DIRECTION('center_axis',(1.,0.,0.));
#1316=DIRECTION('ref_axis',(0.,1.,0.));
#1317=DIRECTION('center_axis',(0.,-1.,0.));
#1318=DIRECTION('ref_axis',(0.,0.,1.));
#1319=DIRECTION('center_axis',(0.,-1.,0.));
#1320=DIRECTION('ref_axis',(0.,0.,1.));
#1321=DIRECTION('',(0.,-1.,0.));
#1322=DIRECTION('center_axis',(0.,1.,0.));
#1323=DIRECTION('ref_axis',(0.,0.,1.));
#1324=DIRECTION('center_axis',(0.,-1.,0.));
#1325=DIRECTION('ref_axis',(0.,0.,1.));
#1326=DIRECTION('center_axis',(0.,-1.,0.));
#1327=DIRECTION('ref_axis',(0.,0.,1.));
#1328=DIRECTION('',(0.,-1.,0.));
#1329=DIRECTION('center_axis',(0.,1.,0.));
#1330=DIRECTION('ref_axis',(0.,0.,1.));
#1331=DIRECTION('center_axis',(0.,-1.,0.));
#1332=DIRECTION('ref_axis',(0.,0.,1.));
#1333=DIRECTION('center_axis',(0.,-1.,0.));
#1334=DIRECTION('ref_axis',(0.,0.,1.));
#1335=DIRECTION('',(0.,-1.,0.));
#1336=DIRECTION('center_axis',(0.,1.,0.));
#1337=DIRECTION('ref_axis',(0.,0.,1.));
#1338=DIRECTION('center_axis',(0.,-1.,0.));
#1339=DIRECTION('ref_axis',(0.,0.,1.));
#1340=DIRECTION('center_axis',(0.,-1.,0.));
#1341=DIRECTION('ref_axis',(0.,0.,1.));
#1342=DIRECTION('',(0.,-1.,0.));
#1343=DIRECTION('center_axis',(0.,1.,0.));
#1344=DIRECTION('ref_axis',(0.,0.,1.));
#1345=DIRECTION('center_axis',(0.,-1.,0.));
#1346=DIRECTION('ref_axis',(0.,0.,1.));
#1347=DIRECTION('center_axis',(0.,-1.,0.));
#1348=DIRECTION('ref_axis',(0.,0.,1.));
#1349=DIRECTION('',(0.,-1.,0.));
#1350=DIRECTION('center_axis',(0.,1.,0.));
#1351=DIRECTION('ref_axis',(0.,0.,1.));
#1352=DIRECTION('center_axis',(0.,-1.,0.));
#1353=DIRECTION('ref_axis',(0.,0.,1.));
#1354=DIRECTION('center_axis',(0.,-1.,0.));
#1355=DIRECTION('ref_axis',(0.,0.,1.));
#1356=DIRECTION('',(0.,-1.,0.));
#1357=DIRECTION('center_axis',(0.,1.,0.));
#1358=DIRECTION('ref_axis',(0.,0.,1.));
#1359=DIRECTION('center_axis',(1.,0.,0.));
#1360=DIRECTION('ref_axis',(0.,-1.,0.));
#1361=DIRECTION('center_axis',(1.,0.,0.));
#1362=DIRECTION('ref_axis',(0.,-1.,0.));
#1363=DIRECTION('',(1.,0.,0.));
#1364=DIRECTION('center_axis',(-1.,0.,0.));
#1365=DIRECTION('ref_axis',(0.,-1.,0.));
#1366=DIRECTION('center_axis',(1.,0.,0.));
#1367=DIRECTION('ref_axis',(0.,-1.,0.));
#1368=DIRECTION('center_axis',(1.,0.,0.));
#1369=DIRECTION('ref_axis',(0.,-1.,0.));
#1370=DIRECTION('',(1.,0.,0.));
#1371=DIRECTION('center_axis',(-1.,0.,0.));
#1372=DIRECTION('ref_axis',(0.,-1.,0.));
#1373=DIRECTION('center_axis',(1.,0.,0.));
#1374=DIRECTION('ref_axis',(0.,0.,-1.));
#1375=DIRECTION('',(0.,1.,0.));
#1376=DIRECTION('',(0.,0.,-1.));
#1377=DIRECTION('',(0.,-1.,0.));
#1378=DIRECTION('',(0.,0.,1.));
#1379=DIRECTION('center_axis',(0.,-1.,0.));
#1380=DIRECTION('ref_axis',(0.,0.,1.));
#1381=DIRECTION('',(-1.,0.,0.));
#1382=DIRECTION('',(0.,0.,-1.));
#1383=DIRECTION('',(1.,0.,0.));
#1384=DIRECTION('center_axis',(0.,0.,-1.));
#1385=DIRECTION('ref_axis',(0.,-1.,0.));
#1386=DIRECTION('',(-1.,0.,0.));
#1387=DIRECTION('',(0.,-1.,0.));
#1388=DIRECTION('',(1.,0.,0.));
#1389=DIRECTION('',(0.,1.,0.));
#1390=DIRECTION('center_axis',(1.,0.,0.));
#1391=DIRECTION('ref_axis',(0.,0.,-1.));
#1392=DIRECTION('',(0.,0.,1.));
#1393=DIRECTION('',(0.,-1.,0.));
#1394=DIRECTION('center_axis',(0.,-1.,0.));
#1395=DIRECTION('ref_axis',(0.,0.,1.));
#1396=DIRECTION('',(0.,0.,1.));
#1397=DIRECTION('',(1.,0.,0.));
#1398=DIRECTION('',(1.,0.,0.));
#1399=DIRECTION('',(0.,0.,-1.));
#1400=DIRECTION('center_axis',(0.,1.,0.));
#1401=DIRECTION('ref_axis',(0.,0.,1.));
#1402=DIRECTION('',(0.475302636545352,0.,-0.879822370534551));
#1403=DIRECTION('',(-1.,0.,0.));
#1404=DIRECTION('',(0.776002619478337,0.,0.630729684225152));
#1405=DIRECTION('center_axis',(0.,1.,0.));
#1406=DIRECTION('ref_axis',(0.,0.,1.));
#1407=DIRECTION('',(0.999999980310216,0.,0.000198442857831736));
#1408=DIRECTION('center_axis',(0.,1.,0.));
#1409=DIRECTION('ref_axis',(0.,0.,1.));
#1410=DIRECTION('center_axis',(0.,0.,1.));
#1411=DIRECTION('ref_axis',(-1.,0.,0.));
#1412=DIRECTION('',(0.,-1.,0.));
#1413=DIRECTION('',(-1.,0.,0.));
#1414=DIRECTION('',(0.,-1.,0.));
#1415=DIRECTION('center_axis',(1.,0.,0.));
#1416=DIRECTION('ref_axis',(0.,0.,1.));
#1417=DIRECTION('',(0.,0.,1.));
#1418=DIRECTION('',(0.,1.,0.));
#1419=DIRECTION('center_axis',(0.,-1.,0.));
#1420=DIRECTION('ref_axis',(0.99999672439355,0.,-0.00255953163099409));
#1421=DIRECTION('center_axis',(0.,-1.,0.));
#1422=DIRECTION('ref_axis',(0.,0.,1.));
#1423=DIRECTION('',(0.,-1.,0.));
#1424=DIRECTION('center_axis',(-0.000198442857831736,0.,0.999999980310216));
#1425=DIRECTION('ref_axis',(-0.999999980310216,0.,-0.000198442857831736));
#1426=DIRECTION('',(0.,-1.,0.));
#1427=DIRECTION('',(-0.999999980310216,0.,-0.000198442857831736));
#1428=DIRECTION('',(0.,1.,0.));
#1429=DIRECTION('center_axis',(0.,-1.,0.));
#1430=DIRECTION('ref_axis',(-0.999982471393568,0.,-0.0059208872318764));
#1431=DIRECTION('',(0.,1.,0.));
#1432=DIRECTION('center_axis',(0.,-1.,0.));
#1433=DIRECTION('ref_axis',(0.,0.,1.));
#1434=DIRECTION('center_axis',(0.,0.,-1.));
#1435=DIRECTION('ref_axis',(-1.,0.,0.));
#1436=DIRECTION('',(1.,0.,0.));
#1437=DIRECTION('',(0.,1.,0.));
#1438=DIRECTION('',(0.,1.,0.));
#1439=DIRECTION('center_axis',(0.879822370534551,0.,0.475302636545352));
#1440=DIRECTION('ref_axis',(0.475302636545352,0.,-0.879822370534551));
#1441=DIRECTION('',(-0.475302636545352,0.,0.879822370534551));
#1442=DIRECTION('center_axis',(-0.630729684225152,0.,0.776002619478337));
#1443=DIRECTION('ref_axis',(0.776002619478337,0.,0.630729684225152));
#1444=DIRECTION('',(-0.776002619478337,0.,-0.630729684225152));
#1445=DIRECTION('center_axis',(0.,1.,0.));
#1446=DIRECTION('ref_axis',(0.,0.,-1.));
#1447=DIRECTION('',(0.,0.,-1.));
#1448=DIRECTION('',(1.,0.,0.));
#1449=DIRECTION('center_axis',(0.,-1.,0.));
#1450=DIRECTION('ref_axis',(0.,0.,1.));
#1451=DIRECTION('center_axis',(0.,-1.,0.));
#1452=DIRECTION('ref_axis',(0.,0.,1.));
#1453=DIRECTION('center_axis',(-1.,0.,0.));
#1454=DIRECTION('ref_axis',(0.,0.,1.));
#1455=DIRECTION('',(0.,1.,0.));
#1456=DIRECTION('center_axis',(0.,0.,1.));
#1457=DIRECTION('ref_axis',(0.,1.,0.));
#1458=DIRECTION('center_axis',(-1.,0.,0.));
#1459=DIRECTION('ref_axis',(0.,1.,0.));
#1460=DIRECTION('center_axis',(-1.,0.,0.));
#1461=DIRECTION('ref_axis',(0.,1.,0.));
#1462=DIRECTION('',(-1.,0.,0.));
#1463=DIRECTION('center_axis',(1.,0.,0.));
#1464=DIRECTION('ref_axis',(0.,1.,0.));
#1465=DIRECTION('center_axis',(-1.,0.,0.));
#1466=DIRECTION('ref_axis',(0.,1.,0.));
#1467=DIRECTION('center_axis',(-1.,0.,0.));
#1468=DIRECTION('ref_axis',(0.,1.,0.));
#1469=DIRECTION('',(-1.,0.,0.));
#1470=DIRECTION('center_axis',(1.,0.,0.));
#1471=DIRECTION('ref_axis',(0.,1.,0.));
#1472=DIRECTION('center_axis',(-1.,0.,0.));
#1473=DIRECTION('ref_axis',(0.,1.,0.));
#1474=DIRECTION('center_axis',(-1.,0.,0.));
#1475=DIRECTION('ref_axis',(0.,1.,0.));
#1476=DIRECTION('',(-1.,0.,0.));
#1477=DIRECTION('center_axis',(1.,0.,0.));
#1478=DIRECTION('ref_axis',(0.,1.,0.));
#1479=DIRECTION('center_axis',(-1.,0.,0.));
#1480=DIRECTION('ref_axis',(0.,1.,0.));
#1481=DIRECTION('center_axis',(-1.,0.,0.));
#1482=DIRECTION('ref_axis',(0.,1.,0.));
#1483=DIRECTION('',(-1.,0.,0.));
#1484=DIRECTION('center_axis',(1.,0.,0.));
#1485=DIRECTION('ref_axis',(0.,1.,0.));
#1486=DIRECTION('center_axis',(-1.,0.,0.));
#1487=DIRECTION('ref_axis',(0.,1.,0.));
#1488=DIRECTION('center_axis',(-1.,0.,0.));
#1489=DIRECTION('ref_axis',(0.,1.,0.));
#1490=DIRECTION('',(-1.,0.,0.));
#1491=DIRECTION('center_axis',(1.,0.,0.));
#1492=DIRECTION('ref_axis',(0.,1.,0.));
#1493=DIRECTION('center_axis',(-1.,0.,0.));
#1494=DIRECTION('ref_axis',(0.,1.,0.));
#1495=DIRECTION('center_axis',(-1.,0.,0.));
#1496=DIRECTION('ref_axis',(0.,1.,0.));
#1497=DIRECTION('',(-1.,0.,0.));
#1498=DIRECTION('center_axis',(1.,0.,0.));
#1499=DIRECTION('ref_axis',(0.,1.,0.));
#1500=DIRECTION('center_axis',(1.,0.,0.));
#1501=DIRECTION('ref_axis',(0.,-1.,0.));
#1502=DIRECTION('center_axis',(1.,0.,0.));
#1503=DIRECTION('ref_axis',(0.,-1.,0.));
#1504=DIRECTION('',(1.,0.,0.));
#1505=DIRECTION('center_axis',(-1.,0.,0.));
#1506=DIRECTION('ref_axis',(0.,-1.,0.));
#1507=DIRECTION('center_axis',(-1.,0.,0.));
#1508=DIRECTION('ref_axis',(0.,1.,0.));
#1509=DIRECTION('center_axis',(-1.,0.,0.));
#1510=DIRECTION('ref_axis',(0.,1.,0.));
#1511=DIRECTION('',(-1.,0.,0.));
#1512=DIRECTION('center_axis',(1.,0.,0.));
#1513=DIRECTION('ref_axis',(0.,1.,0.));
#1514=DIRECTION('center_axis',(1.,0.,0.));
#1515=DIRECTION('ref_axis',(0.,-1.,0.));
#1516=DIRECTION('center_axis',(1.,0.,0.));
#1517=DIRECTION('ref_axis',(0.,-1.,0.));
#1518=DIRECTION('',(1.,0.,0.));
#1519=DIRECTION('center_axis',(-1.,0.,0.));
#1520=DIRECTION('ref_axis',(0.,-1.,0.));
#1521=DIRECTION('center_axis',(0.,-1.,0.));
#1522=DIRECTION('ref_axis',(0.,0.,1.));
#1523=DIRECTION('',(0.,0.,-1.));
#1524=DIRECTION('',(-1.,0.,0.));
#1525=DIRECTION('',(0.,0.,1.));
#1526=DIRECTION('',(1.,0.,0.));
#1527=DIRECTION('center_axis',(0.,1.,0.));
#1528=DIRECTION('ref_axis',(0.,0.,-1.));
#1529=DIRECTION('',(0.,0.,1.));
#1530=DIRECTION('',(-1.,0.,0.));
#1531=DIRECTION('',(0.,0.,-1.));
#1532=DIRECTION('',(1.,0.,0.));
#1533=DIRECTION('center_axis',(0.,-1.,0.));
#1534=DIRECTION('ref_axis',(0.,0.,1.));
#1535=DIRECTION('',(0.,0.,-1.));
#1536=DIRECTION('',(-1.,0.,0.));
#1537=DIRECTION('',(0.,0.,1.));
#1538=DIRECTION('',(1.,0.,0.));
#1539=DIRECTION('center_axis',(0.,1.,0.));
#1540=DIRECTION('ref_axis',(0.,0.,-1.));
#1541=DIRECTION('',(0.,0.,1.));
#1542=DIRECTION('',(-1.,0.,0.));
#1543=DIRECTION('',(0.,0.,-1.));
#1544=DIRECTION('',(1.,0.,0.));
#1545=DIRECTION('center_axis',(-1.,0.,0.));
#1546=DIRECTION('ref_axis',(0.,-1.,-6.40713108983238E-14));
#1547=DIRECTION('center_axis',(1.,0.,0.));
#1548=DIRECTION('ref_axis',(0.,1.,0.));
#1549=DIRECTION('center_axis',(-1.,0.,0.));
#1550=DIRECTION('ref_axis',(0.,1.,0.));
#1551=DIRECTION('center_axis',(1.,0.,0.));
#1552=DIRECTION('ref_axis',(0.,1.,0.));
#1553=DIRECTION('',(0.,0.,1.));
#1554=DIRECTION('',(0.,-1.,0.));
#1555=DIRECTION('',(0.,0.,-1.));
#1556=DIRECTION('',(0.,1.,7.40030973439879E-17));
#1557=DIRECTION('center_axis',(-1.,0.,0.));
#1558=DIRECTION('ref_axis',(0.,1.,0.));
#1559=DIRECTION('center_axis',(-1.,0.,0.));
#1560=DIRECTION('ref_axis',(0.,1.,0.));
#1561=DIRECTION('center_axis',(-1.,0.,0.));
#1562=DIRECTION('ref_axis',(0.,1.,0.));
#1563=DIRECTION('center_axis',(-1.,0.,0.));
#1564=DIRECTION('ref_axis',(0.,1.,0.));
#1565=DIRECTION('center_axis',(1.,0.,0.));
#1566=DIRECTION('ref_axis',(0.,1.,0.));
#1567=DIRECTION('center_axis',(-1.,0.,0.));
#1568=DIRECTION('ref_axis',(0.,0.,1.));
#1569=DIRECTION('',(0.,1.,0.));
#1570=DIRECTION('',(0.,0.,1.));
#1571=DIRECTION('',(0.,-1.,0.));
#1572=DIRECTION('',(0.,0.,-1.));
#1573=DIRECTION('',(0.,-1.,-7.40030973439879E-17));
#1574=DIRECTION('',(0.,0.,1.));
#1575=DIRECTION('center_axis',(1.,0.,0.));
#1576=DIRECTION('ref_axis',(0.,1.,0.));
#1577=DIRECTION('center_axis',(1.,0.,0.));
#1578=DIRECTION('ref_axis',(0.,1.,0.));
#1579=DIRECTION('center_axis',(-1.,0.,0.));
#1580=DIRECTION('ref_axis',(0.,0.0859472614843262,-0.996299687967102));
#1581=DIRECTION('center_axis',(-1.,0.,0.));
#1582=DIRECTION('ref_axis',(0.,0.0859750034255956,0.996297294378525));
#1583=DIRECTION('center_axis',(0.,-1.,0.));
#1584=DIRECTION('ref_axis',(0.,0.,1.));
#1585=DIRECTION('',(-1.,0.,0.));
#1586=DIRECTION('',(-1.,0.,0.));
#1587=DIRECTION('center_axis',(0.,7.40030973439879E-17,-1.));
#1588=DIRECTION('ref_axis',(0.,-1.,-7.40030973439879E-17));
#1589=DIRECTION('',(-1.,0.,0.));
#1590=DIRECTION('center_axis',(0.,0.,1.));
#1591=DIRECTION('ref_axis',(-1.,0.,0.));
#1592=DIRECTION('',(-1.,0.,0.));
#1593=DIRECTION('',(0.,-1.,0.));
#1594=DIRECTION('',(-1.,0.,0.));
#1595=DIRECTION('',(0.,-1.,0.));
#1596=DIRECTION('center_axis',(1.,0.,0.));
#1597=DIRECTION('ref_axis',(0.,0.,1.));
#1598=DIRECTION('',(0.,0.,1.));
#1599=DIRECTION('',(0.,1.,0.));
#1600=DIRECTION('',(0.,0.,1.));
#1601=DIRECTION('',(0.,-1.,0.));
#1602=DIRECTION('center_axis',(0.,0.,-1.));
#1603=DIRECTION('ref_axis',(1.,0.,0.));
#1604=DIRECTION('',(1.,0.,0.));
#1605=DIRECTION('',(1.,0.,0.));
#1606=DIRECTION('',(0.,-1.,0.));
#1607=DIRECTION('center_axis',(-1.,0.,0.));
#1608=DIRECTION('ref_axis',(0.,0.,-1.));
#1609=DIRECTION('',(0.,0.,-1.));
#1610=DIRECTION('',(0.,0.,-1.));
#1611=DIRECTION('',(0.,-1.,0.));
#1612=DIRECTION('center_axis',(0.,-1.,0.));
#1613=DIRECTION('ref_axis',(0.,0.,-1.));
#1614=DIRECTION('center_axis',(0.,0.,1.));
#1615=DIRECTION('ref_axis',(-1.,0.,0.));
#1616=DIRECTION('',(-1.,0.,0.));
#1617=DIRECTION('',(0.,1.,0.));
#1618=DIRECTION('',(1.,0.,0.));
#1619=DIRECTION('center_axis',(0.,0.,1.));
#1620=DIRECTION('ref_axis',(-1.,0.,0.));
#1621=DIRECTION('',(-1.,0.,0.));
#1622=DIRECTION('',(1.,0.,0.));
#1623=DIRECTION('center_axis',(0.,-1.,0.));
#1624=DIRECTION('ref_axis',(1.,0.,0.));
#1625=DIRECTION('',(1.,0.,0.));
#1626=DIRECTION('',(0.,0.,1.));
#1627=DIRECTION('center_axis',(-1.,0.,0.));
#1628=DIRECTION('ref_axis',(0.,-1.,0.));
#1629=DIRECTION('',(0.,-1.,0.));
#1630=DIRECTION('',(0.,0.,1.));
#1631=DIRECTION('center_axis',(0.,1.,0.));
#1632=DIRECTION('ref_axis',(-1.,0.,0.));
#1633=DIRECTION('',(-1.,0.,0.));
#1634=DIRECTION('center_axis',(0.,0.,1.));
#1635=DIRECTION('ref_axis',(1.,0.,0.));
#1636=CARTESIAN_POINT('',(0.,0.,0.));
#1637=CARTESIAN_POINT('Origin',(0.5,-100.372474783392,49.984168445688));
#1638=CARTESIAN_POINT('',(2.,-103.872474783392,49.984168445688));
#1639=CARTESIAN_POINT('Origin',(2.,-100.372474783392,49.984168445688));
#1640=CARTESIAN_POINT('',(0.,-103.872474783392,49.984168445688));
#1641=CARTESIAN_POINT('',(0.5,-103.872474783392,49.984168445688));
#1642=CARTESIAN_POINT('Origin',(0.,-100.372474783392,49.984168445688));
#1643=CARTESIAN_POINT('Origin',(-15.0000002235174,0.640063005604589,65.0000009685755));
#1644=CARTESIAN_POINT('',(-15.0000002235174,2.14006300560459,63.5000009685755));
#1645=CARTESIAN_POINT('Origin',(-15.0000002235174,2.14006300560459,65.0000009685755));
#1646=CARTESIAN_POINT('',(-15.0000002235174,0.,63.5000009685755));
#1647=CARTESIAN_POINT('',(-15.0000002235174,0.640063005604589,63.5000009685755));
#1648=CARTESIAN_POINT('Origin',(-15.0000002235174,0.,65.0000009685755));
#1649=CARTESIAN_POINT('Origin',(-15.0000002235174,0.640063005604589,35.0000005215406));
#1650=CARTESIAN_POINT('',(-15.0000002235174,2.14006300560459,33.5000005215406));
#1651=CARTESIAN_POINT('Origin',(-15.0000002235174,2.14006300560459,35.0000005215406));
#1652=CARTESIAN_POINT('',(-15.0000002235174,0.,33.5000005215406));
#1653=CARTESIAN_POINT('',(-15.0000002235174,0.640063005604589,33.5000005215406));
#1654=CARTESIAN_POINT('Origin',(-15.0000002235174,0.,35.0000005215406));
#1655=CARTESIAN_POINT('Origin',(-4.54878374527715,0.640063005604589,39.2402565645357));
#1656=CARTESIAN_POINT('',(-4.54878374527715,2.14006300560459,37.7402565645357));
#1657=CARTESIAN_POINT('Origin',(-4.54878374527715,2.14006300560459,39.2402565645357));
#1658=CARTESIAN_POINT('',(-4.54878374527715,0.,37.7402565645357));
#1659=CARTESIAN_POINT('',(-4.54878374527715,0.640063005604589,37.7402565645357));
#1660=CARTESIAN_POINT('Origin',(-4.54878374527715,0.,39.2402565645357));
#1661=CARTESIAN_POINT('Origin',(-4.24025656453571,0.640063005604589,60.4512162547229));
#1662=CARTESIAN_POINT('',(-4.24025656453571,2.14006300560459,58.9512162547229));
#1663=CARTESIAN_POINT('Origin',(-4.24025656453571,2.14006300560459,60.4512162547229));
#1664=CARTESIAN_POINT('',(-4.24025656453571,0.,58.9512162547229));
#1665=CARTESIAN_POINT('',(-4.24025656453571,0.640063005604589,58.9512162547229));
#1666=CARTESIAN_POINT('Origin',(-4.24025656453571,0.,60.4512162547229));
#1667=CARTESIAN_POINT('Origin',(-25.666106100119,0.640063005604589,60.5467616196161));
#1668=CARTESIAN_POINT('',(-25.666106100119,2.14006300560459,59.0467616196161));
#1669=CARTESIAN_POINT('Origin',(-25.666106100119,2.14006300560459,60.5467616196161));
#1670=CARTESIAN_POINT('',(-25.666106100119,0.,59.0467616196161));
#1671=CARTESIAN_POINT('',(-25.666106100119,0.640063005604589,59.0467616196161));
#1672=CARTESIAN_POINT('Origin',(-25.666106100119,0.,60.5467616196161));
#1673=CARTESIAN_POINT('Origin',(-25.7597434354643,0.640063005604588,39.5487837452771));
#1674=CARTESIAN_POINT('',(-25.7597434354643,2.14006300560459,38.0487837452771));
#1675=CARTESIAN_POINT('Origin',(-25.7597434354643,2.14006300560459,39.5487837452771));
#1676=CARTESIAN_POINT('',(-25.7597434354643,0.,38.0487837452771));
#1677=CARTESIAN_POINT('',(-25.7597434354643,0.640063005604588,38.0487837452771));
#1678=CARTESIAN_POINT('Origin',(-25.7597434354643,0.,39.5487837452771));
#1679=CARTESIAN_POINT('Origin',(1.5,-100.,60.));
#1680=CARTESIAN_POINT('',(0.,-98.5,60.));
#1681=CARTESIAN_POINT('Origin',(0.,-100.,60.));
#1682=CARTESIAN_POINT('',(2.,-98.5,60.));
#1683=CARTESIAN_POINT('',(1.5,-98.5,60.));
#1684=CARTESIAN_POINT('Origin',(2.,-100.,60.));
#1685=CARTESIAN_POINT('Origin',(5.,-99.9937333979851,40.0781521348998));
#1686=CARTESIAN_POINT('',(0.,-98.4937333979851,40.0781521348998));
#1687=CARTESIAN_POINT('Origin',(0.,-99.9937333979851,40.0781521348998));
#1688=CARTESIAN_POINT('',(2.,-98.4937333979851,40.0781521348998));
#1689=CARTESIAN_POINT('',(5.,-98.4937333979851,40.0781521348998));
#1690=CARTESIAN_POINT('Origin',(2.,-99.9937333979851,40.0781521348998));
#1691=CARTESIAN_POINT('Origin',(0.,-65.,50.));
#1692=CARTESIAN_POINT('',(0.,-130.,20.));
#1693=CARTESIAN_POINT('',(0.,0.,20.));
#1694=CARTESIAN_POINT('',(0.,-32.5,20.));
#1695=CARTESIAN_POINT('',(0.,-130.,80.));
#1696=CARTESIAN_POINT('',(0.,-130.,35.));
#1697=CARTESIAN_POINT('',(0.,0.,80.));
#1698=CARTESIAN_POINT('',(0.,-97.5,80.));
#1699=CARTESIAN_POINT('',(0.,0.,80.));
#1700=CARTESIAN_POINT('Origin',(0.,-130.,20.));
#1701=CARTESIAN_POINT('',(2.,-130.,20.));
#1702=CARTESIAN_POINT('',(0.,-130.,20.));
#1703=CARTESIAN_POINT('',(2.,-130.,80.));
#1704=CARTESIAN_POINT('',(2.,-130.,20.));
#1705=CARTESIAN_POINT('',(0.,-130.,80.));
#1706=CARTESIAN_POINT('Origin',(0.,0.,20.));
#1707=CARTESIAN_POINT('',(-40.,0.,20.));
#1708=CARTESIAN_POINT('',(0.,0.,20.));
#1709=CARTESIAN_POINT('',(-40.,2.14006300560459,20.));
#1710=CARTESIAN_POINT('',(-40.,2.14006300560459,20.));
#1711=CARTESIAN_POINT('',(2.,2.14006300560459,20.));
#1712=CARTESIAN_POINT('',(0.,2.14006300560459,20.));
#1713=CARTESIAN_POINT('',(2.,2.14006300560459,20.));
#1714=CARTESIAN_POINT('Origin',(2.,-65.,50.));
#1715=CARTESIAN_POINT('',(2.,2.14006300560459,80.));
#1716=CARTESIAN_POINT('',(2.,2.14006300560459,80.));
#1717=CARTESIAN_POINT('',(2.,-130.,80.));
#1718=CARTESIAN_POINT('Origin',(0.,0.,20.));
#1719=CARTESIAN_POINT('',(-40.,0.,80.));
#1720=CARTESIAN_POINT('',(-40.,0.,20.));
#1721=CARTESIAN_POINT('',(-1.,0.,80.));
#1722=CARTESIAN_POINT('',(-12.8719599600027,0.,56.4979892601601));
#1723=CARTESIAN_POINT('',(-10.0000001490116,0.,56.4979892601601));
#1724=CARTESIAN_POINT('',(-5.00000007450581,0.,56.4979892601601));
#1725=CARTESIAN_POINT('',(-10.0000001490116,0.,56.4933069289754));
#1726=CARTESIAN_POINT('',(-10.0000001490116,0.,38.2466534644877));
#1727=CARTESIAN_POINT('',(-10.0332358252011,0.,43.508287748097));
#1728=CARTESIAN_POINT('Origin',(-9.70510164762603,0.,50.));
#1729=CARTESIAN_POINT('',(-10.0000001490116,0.,43.4467659109284));
#1730=CARTESIAN_POINT('',(-5.46793070327282,0.,35.0575507528579));
#1731=CARTESIAN_POINT('',(-19.8322848856805,0.,43.4467659109284));
#1732=CARTESIAN_POINT('',(-5.00000007450581,0.,43.4467659109284));
#1733=CARTESIAN_POINT('',(-19.7613999523481,0.,43.5043807056401));
#1734=CARTESIAN_POINT('',(-19.5989665982681,0.,43.6364054379733));
#1735=CARTESIAN_POINT('',(-19.8383349918986,0.,56.4979892601601));
#1736=CARTESIAN_POINT('Origin',(-20.,0.,50.));
#1737=CARTESIAN_POINT('',(-15.6527888477377,0.,56.4988198519149));
#1738=CARTESIAN_POINT('',(-7.83001619705702,-2.77555756156289E-16,56.5003722253064));
#1739=CARTESIAN_POINT('Origin',(-14.2642709179631,0.,50.1488578080366));
#1740=CARTESIAN_POINT('Origin',(-10.0000001490116,2.14006300560459,56.4979892601601));
#1741=CARTESIAN_POINT('',(-12.8719599600027,2.14006300560459,56.4979892601601));
#1742=CARTESIAN_POINT('',(-12.8719599600027,-7.85993699439541,56.4979892601601));
#1743=CARTESIAN_POINT('',(-10.0000001490116,2.14006300560459,56.4979892601601));
#1744=CARTESIAN_POINT('',(-5.00000007450581,2.14006300560459,56.4979892601601));
#1745=CARTESIAN_POINT('',(-10.0000001490116,2.14006300560459,56.4979892601601));
#1746=CARTESIAN_POINT('Origin',(-10.0000001490116,2.14006300560459,56.4933069289754));
#1747=CARTESIAN_POINT('',(-10.0000001490116,2.14006300560459,56.4933069289754));
#1748=CARTESIAN_POINT('',(-10.0000001490116,2.14006300560459,68.2466534644877));
#1749=CARTESIAN_POINT('',(-10.0000001490116,-7.85993699439541,56.4933069289754));
#1750=CARTESIAN_POINT('Origin',(-9.70510164762603,-7.85993699439541,50.));
#1751=CARTESIAN_POINT('',(-10.0332358252011,2.14006300560459,43.508287748097));
#1752=CARTESIAN_POINT('Origin',(-9.70510164762603,2.14006300560459,50.));
#1753=CARTESIAN_POINT('',(-10.0332358252011,-7.85993699439541,43.508287748097));
#1754=CARTESIAN_POINT('Origin',(-15.6527888477377,2.14006300560459,56.4988198519149));
#1755=CARTESIAN_POINT('',(-19.8383349918986,2.14006300560459,56.4979892601601));
#1756=CARTESIAN_POINT('',(-19.8383349918996,-7.85993699439541,56.4979892601601));
#1757=CARTESIAN_POINT('',(-15.6527888477377,2.14006300560459,56.4988198519149));
#1758=CARTESIAN_POINT('',(-7.82406291143929,2.14006300560459,56.5003734066934));
#1759=CARTESIAN_POINT('',(-15.6527888477377,-7.85993699439541,56.4988198519149));
#1760=CARTESIAN_POINT('Origin',(-20.,-7.85993699439541,50.));
#1761=CARTESIAN_POINT('',(-19.7613999523481,2.14006300560459,43.5043807056401));
#1762=CARTESIAN_POINT('',(-19.7613999523481,-7.85993699439541,43.5043807056401));
#1763=CARTESIAN_POINT('Origin',(-20.,2.14006300560459,50.));
#1764=CARTESIAN_POINT('Origin',(-10.0000001490116,0.,43.4467659109284));
#1765=CARTESIAN_POINT('',(-19.8322848856805,2.14006300560459,43.4467659109284));
#1766=CARTESIAN_POINT('',(-10.0000001490116,2.14006300560459,43.4467659109284));
#1767=CARTESIAN_POINT('',(-5.00000007450581,2.14006300560459,43.4467659109283));
#1768=CARTESIAN_POINT('',(-19.8322848856805,0.,43.4467659109284));
#1769=CARTESIAN_POINT('',(-10.0000001490116,0.,43.4467659109284));
#1770=CARTESIAN_POINT('Origin',(-13.0000001937151,0.,49.0000007301569));
#1771=CARTESIAN_POINT('',(-18.0133874754724,2.14006300560459,58.280172863649));
#1772=CARTESIAN_POINT('Origin',(-19.8322848856805,0.,43.4467659109284));
#1773=CARTESIAN_POINT('',(-4.91552998402425,2.14006300560459,55.5710034748561));
#1774=CARTESIAN_POINT('Origin',(0.,2.14006300560459,80.));
#1775=CARTESIAN_POINT('',(-40.,2.14006300560459,80.));
#1776=CARTESIAN_POINT('',(-40.,2.14006300560459,80.));
#1777=CARTESIAN_POINT('',(0.,2.14006300560459,80.));
#1778=CARTESIAN_POINT('Origin',(-14.2642709179631,2.14006300560459,50.1488578080366));
#1779=CARTESIAN_POINT('Origin',(-14.2642709179631,-7.85993699439541,50.1488578080366));
#1780=CARTESIAN_POINT('Origin',(-40.,1.07003150280229,50.));
#1781=CARTESIAN_POINT('',(-40.,0.,80.));
#1782=CARTESIAN_POINT('Origin',(0.,-130.,80.));
#1783=CARTESIAN_POINT('Origin',(-7.5,-115.365142822266,42.649188041687));
#1784=CARTESIAN_POINT('',(-5.,-116.865142822266,42.649188041687));
#1785=CARTESIAN_POINT('Origin',(-5.,-115.365142822266,42.649188041687));
#1786=CARTESIAN_POINT('',(-7.,-116.865142822266,42.649188041687));
#1787=CARTESIAN_POINT('',(-7.5,-116.865142822266,42.649188041687));
#1788=CARTESIAN_POINT('Origin',(-7.,-115.365142822266,42.649188041687));
#1789=CARTESIAN_POINT('Origin',(-7.5,-110.914011001587,31.8189430236816));
#1790=CARTESIAN_POINT('',(-5.,-112.414011001587,31.8189430236816));
#1791=CARTESIAN_POINT('Origin',(-5.,-110.914011001587,31.8189430236816));
#1792=CARTESIAN_POINT('',(-7.,-112.414011001587,31.8189430236816));
#1793=CARTESIAN_POINT('',(-7.5,-112.414011001587,31.8189430236816));
#1794=CARTESIAN_POINT('Origin',(-7.,-110.914011001587,31.8189430236816));
#1795=CARTESIAN_POINT('Origin',(-7.5,-89.9020385742188,31.7541217803955));
#1796=CARTESIAN_POINT('',(-5.,-91.4020385742188,31.7541217803955));
#1797=CARTESIAN_POINT('Origin',(-5.,-89.9020385742188,31.7541217803955));
#1798=CARTESIAN_POINT('',(-7.,-91.4020385742188,31.7541217803955));
#1799=CARTESIAN_POINT('',(-7.5,-91.4020385742188,31.7541217803955));
#1800=CARTESIAN_POINT('Origin',(-7.,-89.9020385742188,31.7541217803955));
#1801=CARTESIAN_POINT('Origin',(-7.5,-85.3683090209961,42.655086517334));
#1802=CARTESIAN_POINT('',(-5.,-86.8683090209961,42.655086517334));
#1803=CARTESIAN_POINT('Origin',(-5.,-85.3683090209961,42.655086517334));
#1804=CARTESIAN_POINT('',(-7.,-86.8683090209961,42.655086517334));
#1805=CARTESIAN_POINT('',(-7.5,-86.8683090209961,42.655086517334));
#1806=CARTESIAN_POINT('Origin',(-7.,-85.3683090209961,42.655086517334));
#1807=CARTESIAN_POINT('Origin',(-7.5,-89.9020290374756,53.2259035110474));
#1808=CARTESIAN_POINT('',(-5.,-91.4020290374756,53.2259035110474));
#1809=CARTESIAN_POINT('Origin',(-5.,-89.9020290374756,53.2259035110474));
#1810=CARTESIAN_POINT('',(-7.,-91.4020290374756,53.2259035110474));
#1811=CARTESIAN_POINT('',(-7.5,-91.4020290374756,53.2259035110474));
#1812=CARTESIAN_POINT('Origin',(-7.,-89.9020290374756,53.2259035110474));
#1813=CARTESIAN_POINT('Origin',(-7.5,-110.803508758545,53.2713842391968));
#1814=CARTESIAN_POINT('',(-5.,-112.303508758545,53.2713842391968));
#1815=CARTESIAN_POINT('Origin',(-5.,-110.803508758545,53.2713842391968));
#1816=CARTESIAN_POINT('',(-7.,-112.303508758545,53.2713842391968));
#1817=CARTESIAN_POINT('',(-7.5,-112.303508758545,53.2713842391968));
#1818=CARTESIAN_POINT('Origin',(-7.,-110.803508758545,53.2713842391968));
#1819=CARTESIAN_POINT('Origin',(-85.,-100.310934766966,64.2380320875224));
#1820=CARTESIAN_POINT('',(-95.,-98.8109347669658,64.2380320875224));
#1821=CARTESIAN_POINT('Origin',(-95.,-100.310934766966,64.2380320875224));
#1822=CARTESIAN_POINT('',(-93.,-98.8109347669658,64.2380320875224));
#1823=CARTESIAN_POINT('',(-85.,-98.8109347669658,64.2380320875224));
#1824=CARTESIAN_POINT('Origin',(-93.,-100.310934766966,64.2380320875224));
#1825=CARTESIAN_POINT('Origin',(-94.5,-100.363068581621,35.358243002503));
#1826=CARTESIAN_POINT('',(-93.,-101.863068581621,35.358243002503));
#1827=CARTESIAN_POINT('Origin',(-93.,-100.363068581621,35.358243002503));
#1828=CARTESIAN_POINT('',(-95.,-101.863068581621,35.358243002503));
#1829=CARTESIAN_POINT('',(-94.5,-101.863068581621,35.358243002503));
#1830=CARTESIAN_POINT('Origin',(-95.,-100.363068581621,35.358243002503));
#1831=CARTESIAN_POINT('Origin',(-93.5,-100.358289080703,50.));
#1832=CARTESIAN_POINT('',(-95.,-98.8582890807027,50.));
#1833=CARTESIAN_POINT('Origin',(-95.,-100.358289080703,50.));
#1834=CARTESIAN_POINT('',(-93.,-98.8582890807027,50.));
#1835=CARTESIAN_POINT('',(-93.5,-98.8582890807027,50.));
#1836=CARTESIAN_POINT('Origin',(-93.,-100.358289080703,50.));
#1837=CARTESIAN_POINT('Origin',(-5.,-106.862353208697,35.933186830121));
#1838=CARTESIAN_POINT('',(-7.,-106.862353208697,43.2695919521625));
#1839=CARTESIAN_POINT('',(-7.,-106.862353208697,35.933186830121));
#1840=CARTESIAN_POINT('',(-7.,-106.862353208697,43.5503209251068));
#1841=CARTESIAN_POINT('',(-5.,-106.862353208697,43.2695919521625));
#1842=CARTESIAN_POINT('',(-6.5,-106.862353208697,43.2695919521634));
#1843=CARTESIAN_POINT('',(-5.,-106.862353208697,35.933186830121));
#1844=CARTESIAN_POINT('',(-5.,-106.862353208697,57.9665934150605));
#1845=CARTESIAN_POINT('',(-6.5,-106.862353208697,35.9331868301205));
#1846=CARTESIAN_POINT('Origin',(-5.,-93.9762814954461,49.9595440465727));
#1847=CARTESIAN_POINT('',(-7.,-93.9762814954461,44.5735121665093));
#1848=CARTESIAN_POINT('',(-7.,-93.9762814954461,49.9595440465727));
#1849=CARTESIAN_POINT('',(-7.,-93.9762814954461,50.5634995333327));
#1850=CARTESIAN_POINT('',(-5.,-93.9762814954461,44.5735121665093));
#1851=CARTESIAN_POINT('',(-6.5,-93.9762814954461,44.5735121665093));
#1852=CARTESIAN_POINT('',(-5.,-93.9762814954461,49.9595440465727));
#1853=CARTESIAN_POINT('',(-5.,-93.9762814954461,64.9797720232863));
#1854=CARTESIAN_POINT('',(-6.5,-93.9762814954461,49.9595440465727));
#1855=CARTESIAN_POINT('Origin',(-5.,-106.862353208697,43.461626646743));
#1856=CARTESIAN_POINT('',(-7.,-106.862353208697,51.0715415055049));
#1857=CARTESIAN_POINT('',(-7.,-106.862353208697,43.4616266467429));
#1858=CARTESIAN_POINT('',(-7.,-106.862353208697,47.3145408334178));
#1859=CARTESIAN_POINT('',(-5.,-106.862353208697,51.0715415055049));
#1860=CARTESIAN_POINT('',(-6.5,-106.862353208697,51.0715415055041));
#1861=CARTESIAN_POINT('',(-5.,-106.862353208697,43.461626646743));
#1862=CARTESIAN_POINT('',(-5.,-106.862353208697,61.7308133233715));
#1863=CARTESIAN_POINT('',(-6.5,-106.862353208697,43.4616266467429));
#1864=CARTESIAN_POINT('Origin',(-5.,-93.9762814954461,42.157706432397));
#1865=CARTESIAN_POINT('',(-7.,-93.9762814954461,37.0448228051401));
#1866=CARTESIAN_POINT('',(-7.,-93.9762814954461,42.157706432397));
#1867=CARTESIAN_POINT('',(-7.,-93.9762814954461,46.6625807262449));
#1868=CARTESIAN_POINT('',(-5.,-93.9762814954461,37.0448228051401));
#1869=CARTESIAN_POINT('',(-6.5,-93.9762814954461,37.04482280514));
#1870=CARTESIAN_POINT('',(-5.,-93.9762814954461,42.157706432397));
#1871=CARTESIAN_POINT('',(-5.,-93.9762814954461,61.0788532161985));
#1872=CARTESIAN_POINT('',(-6.5,-93.9762814954461,42.157706432397));
#1873=CARTESIAN_POINT('Origin',(-6.5,-100.363062426694,43.3656092994532));
#1874=CARTESIAN_POINT('Origin',(-7.,-100.363062426694,43.3656092994532));
#1875=CARTESIAN_POINT('Origin',(-5.,-100.363062426694,43.3656092994532));
#1876=CARTESIAN_POINT('Origin',(-5.,-130.,80.));
#1877=CARTESIAN_POINT('',(-5.,-70.3582890807027,20.3349100401853));
#1878=CARTESIAN_POINT('',(-5.,-70.3582890807027,82.));
#1879=CARTESIAN_POINT('',(-5.,-70.3582890807027,20.3349100401853));
#1880=CARTESIAN_POINT('',(-5.,-130.367832706398,82.));
#1881=CARTESIAN_POINT('',(-5.,-70.3582890807027,82.));
#1882=CARTESIAN_POINT('',(-5.,-130.367832706398,20.3349100401853));
#1883=CARTESIAN_POINT('',(-5.,-130.367832706398,82.));
#1884=CARTESIAN_POINT('',(-5.,-130.367832706398,20.3349100401853));
#1885=CARTESIAN_POINT('Origin',(-5.,-100.36306089355,51.1674550200927));
#1886=CARTESIAN_POINT('Origin',(-5.,-100.363062426694,43.3656092994532));
#1887=CARTESIAN_POINT('Origin',(-5.,-100.363065850051,35.8369380392081));
#1888=CARTESIAN_POINT('Origin',(-6.5,-100.363062426694,43.3656092994532));
#1889=CARTESIAN_POINT('Origin',(-7.,-100.363062426694,43.3656092994532));
#1890=CARTESIAN_POINT('Origin',(-7.,-100.36306089355,51.1674550200927));
#1891=CARTESIAN_POINT('',(-7.,-130.367832706398,82.));
#1892=CARTESIAN_POINT('',(-7.,-130.,82.));
#1893=CARTESIAN_POINT('',(-7.,-70.3582890807027,82.));
#1894=CARTESIAN_POINT('',(-7.,-130.,80.));
#1895=CARTESIAN_POINT('',(-6.99999999999999,-130.,65.5837275100463));
#1896=CARTESIAN_POINT('',(-7.,-70.3582890807027,80.));
#1897=CARTESIAN_POINT('',(-7.,-100.271102716951,80.));
#1898=CARTESIAN_POINT('',(-7.,-70.3582890807027,20.3349100401853));
#1899=CARTESIAN_POINT('',(-7.,-70.3582890807027,20.3349100401853));
#1900=CARTESIAN_POINT('',(-7.,-130.367832706398,20.3349100401853));
#1901=CARTESIAN_POINT('',(-7.,-130.367832706398,20.3349100401853));
#1902=CARTESIAN_POINT('',(-7.,-130.367832706398,82.));
#1903=CARTESIAN_POINT('Origin',(-7.,-100.363065850051,35.8369380392081));
#1904=CARTESIAN_POINT('Origin',(-7.,-100.36306089355,51.1674550200927));
#1905=CARTESIAN_POINT('Origin',(-6.5,-100.363065850051,35.8369380392081));
#1906=CARTESIAN_POINT('Origin',(-6.5,-100.36306089355,51.1674550200927));
#1907=CARTESIAN_POINT('Origin',(-5.,-130.367832706398,20.3349100401853));
#1908=CARTESIAN_POINT('',(-5.,-130.367832706398,82.));
#1909=CARTESIAN_POINT('',(-5.,-130.367832706398,20.3349100401853));
#1910=CARTESIAN_POINT('Origin',(-5.,-70.3582890807027,20.3349100401853));
#1911=CARTESIAN_POINT('',(-5.,-70.3582890807027,20.3349100401853));
#1912=CARTESIAN_POINT('Origin',(-93.,-70.3582890807027,80.));
#1913=CARTESIAN_POINT('',(-93.,-130.,80.));
#1914=CARTESIAN_POINT('',(-95.,-130.,80.));
#1915=CARTESIAN_POINT('',(-5.,-130.,80.));
#1916=CARTESIAN_POINT('',(-95.,-130.358289080703,80.));
#1917=CARTESIAN_POINT('',(-95.,-70.3582890807027,80.));
#1918=CARTESIAN_POINT('',(-93.,-130.358289080703,80.));
#1919=CARTESIAN_POINT('',(-93.,-130.358289080703,80.));
#1920=CARTESIAN_POINT('',(-93.,-70.3582890807027,80.));
#1921=CARTESIAN_POINT('Origin',(-93.,-70.3582890807027,20.));
#1922=CARTESIAN_POINT('',(-93.,-70.3582890807027,20.));
#1923=CARTESIAN_POINT('',(-93.,-70.3582890807027,80.));
#1924=CARTESIAN_POINT('',(-93.,-70.3582890807027,20.));
#1925=CARTESIAN_POINT('',(-93.,-85.268716810527,80.));
#1926=CARTESIAN_POINT('',(-93.,-130.358289080703,20.));
#1927=CARTESIAN_POINT('',(-93.,-130.358289080703,20.));
#1928=CARTESIAN_POINT('',(-93.,-70.3582890807027,20.));
#1929=CARTESIAN_POINT('Origin',(-95.,-70.3582890807027,20.));
#1930=CARTESIAN_POINT('',(-95.,-70.3582890807027,20.));
#1931=CARTESIAN_POINT('',(-95.,-70.3582890807027,20.));
#1932=CARTESIAN_POINT('',(-95.,-130.358289080703,20.));
#1933=CARTESIAN_POINT('',(-95.,-130.358289080703,20.));
#1934=CARTESIAN_POINT('',(-95.,-70.3582890807027,20.));
#1935=CARTESIAN_POINT('Origin',(-95.,-70.3582890807027,80.));
#1936=CARTESIAN_POINT('',(-95.,-70.3582890807027,80.));
#1937=CARTESIAN_POINT('',(-95.,-70.3582890807027,80.));
#1938=CARTESIAN_POINT('',(-95.,-130.358289080703,80.));
#1939=CARTESIAN_POINT('',(-95.,-85.268716810527,80.));
#1940=CARTESIAN_POINT('Origin',(-94.,-130.358289080703,50.));
#1941=CARTESIAN_POINT('Origin',(-50.0648880515804,-100.179144540351,80.));
#1942=CARTESIAN_POINT('',(-95.1297761031609,-130.,80.));
#1943=CARTESIAN_POINT('',(-5.,-130.,80.));
#1944=CARTESIAN_POINT('',(-95.1297761031609,-70.3582890807027,80.));
#1945=CARTESIAN_POINT('',(-95.1297761031609,-130.,80.));
#1946=CARTESIAN_POINT('',(-95.1297761031609,-70.3582890807027,80.));
#1947=CARTESIAN_POINT('Origin',(-50.0648880515804,-100.179144540351,80.));
#1948=CARTESIAN_POINT('',(-5.,-130.,80.));
#1949=CARTESIAN_POINT('',(-95.1297761031609,-70.3582890807027,80.));
#1950=CARTESIAN_POINT('Origin',(-95.1297761031609,-130.,80.));
#1951=CARTESIAN_POINT('',(-95.1297761031609,-130.,82.));
#1952=CARTESIAN_POINT('',(-5.,-130.,82.));
#1953=CARTESIAN_POINT('',(-95.1297761031609,-130.,80.));
#1954=CARTESIAN_POINT('Origin',(-95.1297761031609,-70.3582890807027,80.));
#1955=CARTESIAN_POINT('',(-95.1297761031609,-70.3582890807027,82.));
#1956=CARTESIAN_POINT('',(-95.1297761031609,-130.,82.));
#1957=CARTESIAN_POINT('',(-95.1297761031609,-70.3582890807027,80.));
#1958=CARTESIAN_POINT('Origin',(-5.,-70.3582890807027,80.));
#1959=CARTESIAN_POINT('',(-95.1297761031609,-70.3582890807027,82.));
#1960=CARTESIAN_POINT('Origin',(-50.0648880515804,-100.179144540351,82.));
#1961=UNCERTAINTY_MEASURE_WITH_UNIT(LENGTH_MEASURE(0.01),#1965,
'DISTANCE_ACCURACY_VALUE',
'Maximum model space distance between geometric entities at asserted c
onnectivities');
#1962=UNCERTAINTY_MEASURE_WITH_UNIT(LENGTH_MEASURE(0.01),#1965,
'DISTANCE_ACCURACY_VALUE',
'Maximum model space distance between geometric entities at asserted c
onnectivities');
#1963=(
GEOMETRIC_REPRESENTATION_CONTEXT(3)
GLOBAL_UNCERTAINTY_ASSIGNED_CONTEXT((#1961))
GLOBAL_UNIT_ASSIGNED_CONTEXT((#1965,#1967,#1968))
REPRESENTATION_CONTEXT('','3D')
);
#1964=(
GEOMETRIC_REPRESENTATION_CONTEXT(3)
GLOBAL_UNCERTAINTY_ASSIGNED_CONTEXT((#1962))
GLOBAL_UNIT_ASSIGNED_CONTEXT((#1965,#1967,#1968))
REPRESENTATION_CONTEXT('','3D')
);
#1965=(
LENGTH_UNIT()
NAMED_UNIT(*)
SI_UNIT(.MILLI.,.METRE.)
);
#1966=(
LENGTH_UNIT()
NAMED_UNIT(*)
SI_UNIT($,.METRE.)
);
#1967=(
NAMED_UNIT(*)
PLANE_ANGLE_UNIT()
SI_UNIT($,.RADIAN.)
);
#1968=(
NAMED_UNIT(*)
SI_UNIT($,.STERADIAN.)
SOLID_ANGLE_UNIT()
);
#1969=SHAPE_DEFINITION_REPRESENTATION(#1970,#1971);
#1970=PRODUCT_DEFINITION_SHAPE('',$,#1973);
#1971=SHAPE_REPRESENTATION('',(#1199),#1963);
#1972=PRODUCT_DEFINITION_CONTEXT('part definition',#1977,'design');
#1973=PRODUCT_DEFINITION('SUPPORT','SUPPORT v38',#1974,#1972);
#1974=PRODUCT_DEFINITION_FORMATION('',$,#1979);
#1975=PRODUCT_RELATED_PRODUCT_CATEGORY('SUPPORT v38','SUPPORT v38',(#1979));
#1976=APPLICATION_PROTOCOL_DEFINITION('international standard',
'automotive_design',2009,#1977);
#1977=APPLICATION_CONTEXT(
'Core Data for Automotive Mechanical Design Process');
#1978=PRODUCT_CONTEXT('part definition',#1977,'mechanical');
#1979=PRODUCT('SUPPORT','SUPPORT v38',$,(#1978));
#1980=PRESENTATION_STYLE_ASSIGNMENT((#1981));
#1981=SURFACE_STYLE_USAGE(.BOTH.,#1982);
#1982=SURFACE_SIDE_STYLE('',(#1983));
#1983=SURFACE_STYLE_FILL_AREA(#1984);
#1984=FILL_AREA_STYLE('Acier - Satin\X\E9',(#1985));
#1985=FILL_AREA_STYLE_COLOUR('Acier - Satin\X\E9',#1986);
#1986=COLOUR_RGB('Acier - Satin\X\E9',0.627450980392157,0.627450980392157,
0.627450980392157);
ENDSEC;
END-ISO-10303-21;
