ISO-10303-21;
HEADER;
/* Generated by software containing ST-Developer
 * from STEP Tools, Inc. (www.steptools.com) 
 */

FILE_DESCRIPTION(
/* description */ (''),
/* implementation_level */ '2;1');

FILE_NAME(
/* name */ 'SUPPORT1.step',
/* time_stamp */ '2026-01-03T11:10:14+01:00',
/* author */ (''),
/* organization */ (''),
/* preprocessor_version */ 'ST-DEVELOPER v20.1',
/* originating_system */ 'Autodesk Translation Framework v14.21.0.0',
/* authorisation */ '');

FILE_SCHEMA (('AUTOMOTIVE_DESIGN { 1 0 10303 214 3 1 1 }'));
ENDSEC;

DATA;
#10=MECHANICAL_DESIGN_GEOMETRIC_PRESENTATION_REPRESENTATION('',(#13),#907);
#11=SHAPE_REPRESENTATION_RELATIONSHIP('SRR','None',#914,#12);
#12=ADVANCED_BREP_SHAPE_REPRESENTATION('',(#14),#906);
#13=STYLED_ITEM('',(#923),#14);
#14=MANIFOLD_SOLID_BREP('Corps1',#543);
#15=FACE_BOUND('',#85,.T.);
#16=FACE_BOUND('',#86,.T.);
#17=FACE_BOUND('',#87,.T.);
#18=FACE_BOUND('',#91,.T.);
#19=FACE_BOUND('',#92,.T.);
#20=FACE_BOUND('',#93,.T.);
#21=FACE_BOUND('',#95,.T.);
#22=FACE_BOUND('',#96,.T.);
#23=FACE_BOUND('',#97,.T.);
#24=FACE_BOUND('',#98,.T.);
#25=FACE_BOUND('',#99,.T.);
#26=FACE_BOUND('',#100,.T.);
#27=FACE_BOUND('',#101,.T.);
#28=FACE_BOUND('',#111,.T.);
#29=FACE_BOUND('',#112,.T.);
#30=FACE_BOUND('',#113,.T.);
#31=FACE_BOUND('',#114,.T.);
#32=FACE_BOUND('',#115,.T.);
#33=FACE_BOUND('',#116,.T.);
#34=FACE_BOUND('',#117,.T.);
#35=PLANE('',#584);
#36=PLANE('',#585);
#37=PLANE('',#586);
#38=PLANE('',#587);
#39=PLANE('',#588);
#40=PLANE('',#592);
#41=PLANE('',#593);
#42=PLANE('',#596);
#43=PLANE('',#599);
#44=PLANE('',#600);
#45=PLANE('',#601);
#46=PLANE('',#602);
#47=PLANE('',#605);
#48=PLANE('',#606);
#49=FACE_OUTER_BOUND('',#75,.T.);
#50=FACE_OUTER_BOUND('',#76,.T.);
#51=FACE_OUTER_BOUND('',#77,.T.);
#52=FACE_OUTER_BOUND('',#78,.T.);
#53=FACE_OUTER_BOUND('',#79,.T.);
#54=FACE_OUTER_BOUND('',#80,.T.);
#55=FACE_OUTER_BOUND('',#81,.T.);
#56=FACE_OUTER_BOUND('',#82,.T.);
#57=FACE_OUTER_BOUND('',#83,.T.);
#58=FACE_OUTER_BOUND('',#84,.T.);
#59=FACE_OUTER_BOUND('',#88,.T.);
#60=FACE_OUTER_BOUND('',#89,.T.);
#61=FACE_OUTER_BOUND('',#90,.T.);
#62=FACE_OUTER_BOUND('',#94,.T.);
#63=FACE_OUTER_BOUND('',#102,.T.);
#64=FACE_OUTER_BOUND('',#103,.T.);
#65=FACE_OUTER_BOUND('',#104,.T.);
#66=FACE_OUTER_BOUND('',#105,.T.);
#67=FACE_OUTER_BOUND('',#106,.T.);
#68=FACE_OUTER_BOUND('',#107,.T.);
#69=FACE_OUTER_BOUND('',#108,.T.);
#70=FACE_OUTER_BOUND('',#109,.T.);
#71=FACE_OUTER_BOUND('',#110,.T.);
#72=FACE_OUTER_BOUND('',#118,.T.);
#73=FACE_OUTER_BOUND('',#119,.T.);
#74=FACE_OUTER_BOUND('',#120,.T.);
#75=EDGE_LOOP('',(#361,#362,#363,#364));
#76=EDGE_LOOP('',(#365,#366,#367,#368));
#77=EDGE_LOOP('',(#369,#370,#371,#372));
#78=EDGE_LOOP('',(#373,#374,#375,#376));
#79=EDGE_LOOP('',(#377,#378,#379,#380));
#80=EDGE_LOOP('',(#381,#382,#383,#384));
#81=EDGE_LOOP('',(#385,#386,#387,#388));
#82=EDGE_LOOP('',(#389,#390,#391,#392));
#83=EDGE_LOOP('',(#393,#394,#395,#396));
#84=EDGE_LOOP('',(#397,#398,#399,#400));
#85=EDGE_LOOP('',(#401));
#86=EDGE_LOOP('',(#402));
#87=EDGE_LOOP('',(#403));
#88=EDGE_LOOP('',(#404,#405,#406,#407));
#89=EDGE_LOOP('',(#408,#409,#410,#411,#412,#413));
#90=EDGE_LOOP('',(#414,#415,#416,#417));
#91=EDGE_LOOP('',(#418));
#92=EDGE_LOOP('',(#419));
#93=EDGE_LOOP('',(#420));
#94=EDGE_LOOP('',(#421,#422,#423,#424));
#95=EDGE_LOOP('',(#425));
#96=EDGE_LOOP('',(#426));
#97=EDGE_LOOP('',(#427));
#98=EDGE_LOOP('',(#428));
#99=EDGE_LOOP('',(#429));
#100=EDGE_LOOP('',(#430));
#101=EDGE_LOOP('',(#431,#432,#433,#434,#435,#436,#437,#438,#439));
#102=EDGE_LOOP('',(#440,#441,#442,#443));
#103=EDGE_LOOP('',(#444,#445,#446,#447));
#104=EDGE_LOOP('',(#448,#449,#450,#451));
#105=EDGE_LOOP('',(#452,#453,#454,#455));
#106=EDGE_LOOP('',(#456,#457,#458,#459));
#107=EDGE_LOOP('',(#460,#461,#462,#463));
#108=EDGE_LOOP('',(#464,#465,#466,#467));
#109=EDGE_LOOP('',(#468,#469,#470,#471));
#110=EDGE_LOOP('',(#472,#473,#474,#475));
#111=EDGE_LOOP('',(#476));
#112=EDGE_LOOP('',(#477));
#113=EDGE_LOOP('',(#478));
#114=EDGE_LOOP('',(#479));
#115=EDGE_LOOP('',(#480));
#116=EDGE_LOOP('',(#481));
#117=EDGE_LOOP('',(#482,#483,#484,#485,#486,#487,#488,#489,#490));
#118=EDGE_LOOP('',(#491,#492,#493,#494));
#119=EDGE_LOOP('',(#495,#496,#497,#498));
#120=EDGE_LOOP('',(#499,#500,#501,#502,#503,#504));
#121=LINE('',#762,#169);
#122=LINE('',#768,#170);
#123=LINE('',#774,#171);
#124=LINE('',#780,#172);
#125=LINE('',#786,#173);
#126=LINE('',#792,#174);
#127=LINE('',#798,#175);
#128=LINE('',#804,#176);
#129=LINE('',#810,#177);
#130=LINE('',#815,#178);
#131=LINE('',#817,#179);
#132=LINE('',#819,#180);
#133=LINE('',#820,#181);
#134=LINE('',#823,#182);
#135=LINE('',#825,#183);
#136=LINE('',#826,#184);
#137=LINE('',#829,#185);
#138=LINE('',#831,#186);
#139=LINE('',#833,#187);
#140=LINE('',#834,#188);
#141=LINE('',#837,#189);
#142=LINE('',#838,#190);
#143=LINE('',#841,#191);
#144=LINE('',#842,#192);
#145=LINE('',#845,#193);
#146=LINE('',#847,#194);
#147=LINE('',#851,#195);
#148=LINE('',#853,#196);
#149=LINE('',#855,#197);
#150=LINE('',#859,#198);
#151=LINE('',#863,#199);
#152=LINE('',#865,#200);
#153=LINE('',#866,#201);
#154=LINE('',#869,#202);
#155=LINE('',#870,#203);
#156=LINE('',#874,#204);
#157=LINE('',#877,#205);
#158=LINE('',#879,#206);
#159=LINE('',#880,#207);
#160=LINE('',#883,#208);
#161=LINE('',#888,#209);
#162=LINE('',#889,#210);
#163=LINE('',#890,#211);
#164=LINE('',#892,#212);
#165=LINE('',#894,#213);
#166=LINE('',#897,#214);
#167=LINE('',#898,#215);
#168=LINE('',#902,#216);
#169=VECTOR('',#613,3.5);
#170=VECTOR('',#620,1.5);
#171=VECTOR('',#627,1.5);
#172=VECTOR('',#634,1.5);
#173=VECTOR('',#641,1.5);
#174=VECTOR('',#648,1.5);
#175=VECTOR('',#655,1.5);
#176=VECTOR('',#662,1.5);
#177=VECTOR('',#669,1.5);
#178=VECTOR('',#674,10.);
#179=VECTOR('',#675,10.);
#180=VECTOR('',#676,10.);
#181=VECTOR('',#677,10.);
#182=VECTOR('',#680,10.);
#183=VECTOR('',#681,10.);
#184=VECTOR('',#682,10.);
#185=VECTOR('',#685,10.);
#186=VECTOR('',#686,10.);
#187=VECTOR('',#687,10.);
#188=VECTOR('',#688,10.);
#189=VECTOR('',#691,10.);
#190=VECTOR('',#692,10.);
#191=VECTOR('',#695,10.);
#192=VECTOR('',#696,10.);
#193=VECTOR('',#697,10.);
#194=VECTOR('',#698,10.);
#195=VECTOR('',#701,10.);
#196=VECTOR('',#702,10.);
#197=VECTOR('',#703,10.);
#198=VECTOR('',#706,10.);
#199=VECTOR('',#711,10.);
#200=VECTOR('',#712,10.);
#201=VECTOR('',#713,10.);
#202=VECTOR('',#716,10.);
#203=VECTOR('',#717,10.);
#204=VECTOR('',#722,10.);
#205=VECTOR('',#725,10.);
#206=VECTOR('',#726,10.);
#207=VECTOR('',#727,10.);
#208=VECTOR('',#730,10.);
#209=VECTOR('',#735,10.);
#210=VECTOR('',#736,10.);
#211=VECTOR('',#737,10.);
#212=VECTOR('',#740,10.);
#213=VECTOR('',#743,10.);
#214=VECTOR('',#746,10.);
#215=VECTOR('',#747,10.);
#216=VECTOR('',#754,10.);
#217=CIRCLE('',#558,3.5);
#218=CIRCLE('',#559,3.5);
#219=CIRCLE('',#561,1.5);
#220=CIRCLE('',#562,1.5);
#221=CIRCLE('',#564,1.5);
#222=CIRCLE('',#565,1.5);
#223=CIRCLE('',#567,1.5);
#224=CIRCLE('',#568,1.5);
#225=CIRCLE('',#570,1.5);
#226=CIRCLE('',#571,1.5);
#227=CIRCLE('',#573,1.5);
#228=CIRCLE('',#574,1.5);
#229=CIRCLE('',#576,1.5);
#230=CIRCLE('',#577,1.5);
#231=CIRCLE('',#579,1.5);
#232=CIRCLE('',#580,1.5);
#233=CIRCLE('',#582,1.5);
#234=CIRCLE('',#583,1.5);
#235=CIRCLE('',#589,6.5);
#236=CIRCLE('',#590,6.5);
#237=CIRCLE('',#591,6.5);
#238=CIRCLE('',#595,6.5);
#239=CIRCLE('',#598,6.5);
#240=CIRCLE('',#603,6.5);
#241=VERTEX_POINT('',#759);
#242=VERTEX_POINT('',#761);
#243=VERTEX_POINT('',#765);
#244=VERTEX_POINT('',#767);
#245=VERTEX_POINT('',#771);
#246=VERTEX_POINT('',#773);
#247=VERTEX_POINT('',#777);
#248=VERTEX_POINT('',#779);
#249=VERTEX_POINT('',#783);
#250=VERTEX_POINT('',#785);
#251=VERTEX_POINT('',#789);
#252=VERTEX_POINT('',#791);
#253=VERTEX_POINT('',#795);
#254=VERTEX_POINT('',#797);
#255=VERTEX_POINT('',#801);
#256=VERTEX_POINT('',#803);
#257=VERTEX_POINT('',#807);
#258=VERTEX_POINT('',#809);
#259=VERTEX_POINT('',#813);
#260=VERTEX_POINT('',#814);
#261=VERTEX_POINT('',#816);
#262=VERTEX_POINT('',#818);
#263=VERTEX_POINT('',#822);
#264=VERTEX_POINT('',#824);
#265=VERTEX_POINT('',#828);
#266=VERTEX_POINT('',#830);
#267=VERTEX_POINT('',#832);
#268=VERTEX_POINT('',#836);
#269=VERTEX_POINT('',#840);
#270=VERTEX_POINT('',#843);
#271=VERTEX_POINT('',#844);
#272=VERTEX_POINT('',#846);
#273=VERTEX_POINT('',#848);
#274=VERTEX_POINT('',#850);
#275=VERTEX_POINT('',#852);
#276=VERTEX_POINT('',#854);
#277=VERTEX_POINT('',#856);
#278=VERTEX_POINT('',#858);
#279=VERTEX_POINT('',#862);
#280=VERTEX_POINT('',#864);
#281=VERTEX_POINT('',#868);
#282=VERTEX_POINT('',#872);
#283=VERTEX_POINT('',#876);
#284=VERTEX_POINT('',#878);
#285=VERTEX_POINT('',#882);
#286=VERTEX_POINT('',#886);
#287=VERTEX_POINT('',#887);
#288=VERTEX_POINT('',#896);
#289=EDGE_CURVE('',#241,#241,#217,.T.);
#290=EDGE_CURVE('',#241,#242,#121,.T.);
#291=EDGE_CURVE('',#242,#242,#218,.T.);
#292=EDGE_CURVE('',#243,#243,#219,.T.);
#293=EDGE_CURVE('',#243,#244,#122,.T.);
#294=EDGE_CURVE('',#244,#244,#220,.T.);
#295=EDGE_CURVE('',#245,#245,#221,.T.);
#296=EDGE_CURVE('',#245,#246,#123,.T.);
#297=EDGE_CURVE('',#246,#246,#222,.T.);
#298=EDGE_CURVE('',#247,#247,#223,.T.);
#299=EDGE_CURVE('',#247,#248,#124,.T.);
#300=EDGE_CURVE('',#248,#248,#224,.T.);
#301=EDGE_CURVE('',#249,#249,#225,.T.);
#302=EDGE_CURVE('',#249,#250,#125,.T.);
#303=EDGE_CURVE('',#250,#250,#226,.T.);
#304=EDGE_CURVE('',#251,#251,#227,.T.);
#305=EDGE_CURVE('',#251,#252,#126,.T.);
#306=EDGE_CURVE('',#252,#252,#228,.T.);
#307=EDGE_CURVE('',#253,#253,#229,.T.);
#308=EDGE_CURVE('',#253,#254,#127,.T.);
#309=EDGE_CURVE('',#254,#254,#230,.T.);
#310=EDGE_CURVE('',#255,#255,#231,.T.);
#311=EDGE_CURVE('',#255,#256,#128,.T.);
#312=EDGE_CURVE('',#256,#256,#232,.T.);
#313=EDGE_CURVE('',#257,#257,#233,.T.);
#314=EDGE_CURVE('',#257,#258,#129,.T.);
#315=EDGE_CURVE('',#258,#258,#234,.T.);
#316=EDGE_CURVE('',#259,#260,#130,.T.);
#317=EDGE_CURVE('',#261,#259,#131,.T.);
#318=EDGE_CURVE('',#262,#261,#132,.T.);
#319=EDGE_CURVE('',#260,#262,#133,.T.);
#320=EDGE_CURVE('',#263,#259,#134,.T.);
#321=EDGE_CURVE('',#264,#263,#135,.T.);
#322=EDGE_CURVE('',#261,#264,#136,.T.);
#323=EDGE_CURVE('',#260,#265,#137,.T.);
#324=EDGE_CURVE('',#266,#265,#138,.T.);
#325=EDGE_CURVE('',#266,#267,#139,.T.);
#326=EDGE_CURVE('',#263,#267,#140,.T.);
#327=EDGE_CURVE('',#267,#268,#141,.T.);
#328=EDGE_CURVE('',#268,#264,#142,.T.);
#329=EDGE_CURVE('',#265,#269,#143,.T.);
#330=EDGE_CURVE('',#269,#262,#144,.T.);
#331=EDGE_CURVE('',#270,#271,#145,.T.);
#332=EDGE_CURVE('',#271,#272,#146,.T.);
#333=EDGE_CURVE('',#272,#273,#235,.T.);
#334=EDGE_CURVE('',#273,#274,#147,.T.);
#335=EDGE_CURVE('',#274,#275,#148,.T.);
#336=EDGE_CURVE('',#275,#276,#149,.T.);
#337=EDGE_CURVE('',#276,#277,#236,.T.);
#338=EDGE_CURVE('',#277,#278,#150,.T.);
#339=EDGE_CURVE('',#278,#270,#237,.T.);
#340=EDGE_CURVE('',#279,#270,#151,.T.);
#341=EDGE_CURVE('',#280,#279,#152,.T.);
#342=EDGE_CURVE('',#280,#271,#153,.T.);
#343=EDGE_CURVE('',#281,#280,#154,.T.);
#344=EDGE_CURVE('',#272,#281,#155,.T.);
#345=EDGE_CURVE('',#282,#281,#238,.T.);
#346=EDGE_CURVE('',#282,#273,#156,.T.);
#347=EDGE_CURVE('',#283,#277,#157,.T.);
#348=EDGE_CURVE('',#284,#283,#158,.T.);
#349=EDGE_CURVE('',#278,#284,#159,.T.);
#350=EDGE_CURVE('',#276,#285,#160,.T.);
#351=EDGE_CURVE('',#283,#285,#239,.T.);
#352=EDGE_CURVE('',#286,#287,#161,.T.);
#353=EDGE_CURVE('',#275,#286,#162,.T.);
#354=EDGE_CURVE('',#274,#287,#163,.T.);
#355=EDGE_CURVE('',#287,#282,#164,.T.);
#356=EDGE_CURVE('',#285,#286,#165,.T.);
#357=EDGE_CURVE('',#288,#266,#166,.T.);
#358=EDGE_CURVE('',#288,#268,#167,.T.);
#359=EDGE_CURVE('',#279,#284,#240,.T.);
#360=EDGE_CURVE('',#269,#288,#168,.T.);
#361=ORIENTED_EDGE('',*,*,#289,.F.);
#362=ORIENTED_EDGE('',*,*,#290,.T.);
#363=ORIENTED_EDGE('',*,*,#291,.F.);
#364=ORIENTED_EDGE('',*,*,#290,.F.);
#365=ORIENTED_EDGE('',*,*,#292,.F.);
#366=ORIENTED_EDGE('',*,*,#293,.T.);
#367=ORIENTED_EDGE('',*,*,#294,.F.);
#368=ORIENTED_EDGE('',*,*,#293,.F.);
#369=ORIENTED_EDGE('',*,*,#295,.F.);
#370=ORIENTED_EDGE('',*,*,#296,.T.);
#371=ORIENTED_EDGE('',*,*,#297,.F.);
#372=ORIENTED_EDGE('',*,*,#296,.F.);
#373=ORIENTED_EDGE('',*,*,#298,.F.);
#374=ORIENTED_EDGE('',*,*,#299,.T.);
#375=ORIENTED_EDGE('',*,*,#300,.F.);
#376=ORIENTED_EDGE('',*,*,#299,.F.);
#377=ORIENTED_EDGE('',*,*,#301,.F.);
#378=ORIENTED_EDGE('',*,*,#302,.T.);
#379=ORIENTED_EDGE('',*,*,#303,.F.);
#380=ORIENTED_EDGE('',*,*,#302,.F.);
#381=ORIENTED_EDGE('',*,*,#304,.F.);
#382=ORIENTED_EDGE('',*,*,#305,.T.);
#383=ORIENTED_EDGE('',*,*,#306,.F.);
#384=ORIENTED_EDGE('',*,*,#305,.F.);
#385=ORIENTED_EDGE('',*,*,#307,.F.);
#386=ORIENTED_EDGE('',*,*,#308,.T.);
#387=ORIENTED_EDGE('',*,*,#309,.F.);
#388=ORIENTED_EDGE('',*,*,#308,.F.);
#389=ORIENTED_EDGE('',*,*,#310,.F.);
#390=ORIENTED_EDGE('',*,*,#311,.T.);
#391=ORIENTED_EDGE('',*,*,#312,.F.);
#392=ORIENTED_EDGE('',*,*,#311,.F.);
#393=ORIENTED_EDGE('',*,*,#313,.F.);
#394=ORIENTED_EDGE('',*,*,#314,.T.);
#395=ORIENTED_EDGE('',*,*,#315,.F.);
#396=ORIENTED_EDGE('',*,*,#314,.F.);
#397=ORIENTED_EDGE('',*,*,#316,.F.);
#398=ORIENTED_EDGE('',*,*,#317,.F.);
#399=ORIENTED_EDGE('',*,*,#318,.F.);
#400=ORIENTED_EDGE('',*,*,#319,.F.);
#401=ORIENTED_EDGE('',*,*,#291,.T.);
#402=ORIENTED_EDGE('',*,*,#310,.T.);
#403=ORIENTED_EDGE('',*,*,#313,.T.);
#404=ORIENTED_EDGE('',*,*,#317,.T.);
#405=ORIENTED_EDGE('',*,*,#320,.F.);
#406=ORIENTED_EDGE('',*,*,#321,.F.);
#407=ORIENTED_EDGE('',*,*,#322,.F.);
#408=ORIENTED_EDGE('',*,*,#316,.T.);
#409=ORIENTED_EDGE('',*,*,#323,.T.);
#410=ORIENTED_EDGE('',*,*,#324,.F.);
#411=ORIENTED_EDGE('',*,*,#325,.T.);
#412=ORIENTED_EDGE('',*,*,#326,.F.);
#413=ORIENTED_EDGE('',*,*,#320,.T.);
#414=ORIENTED_EDGE('',*,*,#326,.T.);
#415=ORIENTED_EDGE('',*,*,#327,.T.);
#416=ORIENTED_EDGE('',*,*,#328,.T.);
#417=ORIENTED_EDGE('',*,*,#321,.T.);
#418=ORIENTED_EDGE('',*,*,#289,.T.);
#419=ORIENTED_EDGE('',*,*,#312,.T.);
#420=ORIENTED_EDGE('',*,*,#315,.T.);
#421=ORIENTED_EDGE('',*,*,#329,.F.);
#422=ORIENTED_EDGE('',*,*,#323,.F.);
#423=ORIENTED_EDGE('',*,*,#319,.T.);
#424=ORIENTED_EDGE('',*,*,#330,.F.);
#425=ORIENTED_EDGE('',*,*,#294,.T.);
#426=ORIENTED_EDGE('',*,*,#297,.T.);
#427=ORIENTED_EDGE('',*,*,#300,.T.);
#428=ORIENTED_EDGE('',*,*,#303,.T.);
#429=ORIENTED_EDGE('',*,*,#306,.T.);
#430=ORIENTED_EDGE('',*,*,#309,.T.);
#431=ORIENTED_EDGE('',*,*,#331,.T.);
#432=ORIENTED_EDGE('',*,*,#332,.T.);
#433=ORIENTED_EDGE('',*,*,#333,.T.);
#434=ORIENTED_EDGE('',*,*,#334,.T.);
#435=ORIENTED_EDGE('',*,*,#335,.T.);
#436=ORIENTED_EDGE('',*,*,#336,.T.);
#437=ORIENTED_EDGE('',*,*,#337,.T.);
#438=ORIENTED_EDGE('',*,*,#338,.T.);
#439=ORIENTED_EDGE('',*,*,#339,.T.);
#440=ORIENTED_EDGE('',*,*,#331,.F.);
#441=ORIENTED_EDGE('',*,*,#340,.F.);
#442=ORIENTED_EDGE('',*,*,#341,.F.);
#443=ORIENTED_EDGE('',*,*,#342,.T.);
#444=ORIENTED_EDGE('',*,*,#332,.F.);
#445=ORIENTED_EDGE('',*,*,#342,.F.);
#446=ORIENTED_EDGE('',*,*,#343,.F.);
#447=ORIENTED_EDGE('',*,*,#344,.F.);
#448=ORIENTED_EDGE('',*,*,#344,.T.);
#449=ORIENTED_EDGE('',*,*,#345,.F.);
#450=ORIENTED_EDGE('',*,*,#346,.T.);
#451=ORIENTED_EDGE('',*,*,#333,.F.);
#452=ORIENTED_EDGE('',*,*,#338,.F.);
#453=ORIENTED_EDGE('',*,*,#347,.F.);
#454=ORIENTED_EDGE('',*,*,#348,.F.);
#455=ORIENTED_EDGE('',*,*,#349,.F.);
#456=ORIENTED_EDGE('',*,*,#347,.T.);
#457=ORIENTED_EDGE('',*,*,#337,.F.);
#458=ORIENTED_EDGE('',*,*,#350,.T.);
#459=ORIENTED_EDGE('',*,*,#351,.F.);
#460=ORIENTED_EDGE('',*,*,#352,.F.);
#461=ORIENTED_EDGE('',*,*,#353,.F.);
#462=ORIENTED_EDGE('',*,*,#335,.F.);
#463=ORIENTED_EDGE('',*,*,#354,.T.);
#464=ORIENTED_EDGE('',*,*,#355,.F.);
#465=ORIENTED_EDGE('',*,*,#354,.F.);
#466=ORIENTED_EDGE('',*,*,#334,.F.);
#467=ORIENTED_EDGE('',*,*,#346,.F.);
#468=ORIENTED_EDGE('',*,*,#356,.F.);
#469=ORIENTED_EDGE('',*,*,#350,.F.);
#470=ORIENTED_EDGE('',*,*,#336,.F.);
#471=ORIENTED_EDGE('',*,*,#353,.T.);
#472=ORIENTED_EDGE('',*,*,#325,.F.);
#473=ORIENTED_EDGE('',*,*,#357,.F.);
#474=ORIENTED_EDGE('',*,*,#358,.T.);
#475=ORIENTED_EDGE('',*,*,#327,.F.);
#476=ORIENTED_EDGE('',*,*,#292,.T.);
#477=ORIENTED_EDGE('',*,*,#295,.T.);
#478=ORIENTED_EDGE('',*,*,#298,.T.);
#479=ORIENTED_EDGE('',*,*,#301,.T.);
#480=ORIENTED_EDGE('',*,*,#304,.T.);
#481=ORIENTED_EDGE('',*,*,#307,.T.);
#482=ORIENTED_EDGE('',*,*,#341,.T.);
#483=ORIENTED_EDGE('',*,*,#359,.T.);
#484=ORIENTED_EDGE('',*,*,#348,.T.);
#485=ORIENTED_EDGE('',*,*,#351,.T.);
#486=ORIENTED_EDGE('',*,*,#356,.T.);
#487=ORIENTED_EDGE('',*,*,#352,.T.);
#488=ORIENTED_EDGE('',*,*,#355,.T.);
#489=ORIENTED_EDGE('',*,*,#345,.T.);
#490=ORIENTED_EDGE('',*,*,#343,.T.);
#491=ORIENTED_EDGE('',*,*,#340,.T.);
#492=ORIENTED_EDGE('',*,*,#339,.F.);
#493=ORIENTED_EDGE('',*,*,#349,.T.);
#494=ORIENTED_EDGE('',*,*,#359,.F.);
#495=ORIENTED_EDGE('',*,*,#324,.T.);
#496=ORIENTED_EDGE('',*,*,#329,.T.);
#497=ORIENTED_EDGE('',*,*,#360,.T.);
#498=ORIENTED_EDGE('',*,*,#357,.T.);
#499=ORIENTED_EDGE('',*,*,#318,.T.);
#500=ORIENTED_EDGE('',*,*,#322,.T.);
#501=ORIENTED_EDGE('',*,*,#328,.F.);
#502=ORIENTED_EDGE('',*,*,#358,.F.);
#503=ORIENTED_EDGE('',*,*,#360,.F.);
#504=ORIENTED_EDGE('',*,*,#330,.T.);
#505=CYLINDRICAL_SURFACE('',#557,3.5);
#506=CYLINDRICAL_SURFACE('',#560,1.5);
#507=CYLINDRICAL_SURFACE('',#563,1.5);
#508=CYLINDRICAL_SURFACE('',#566,1.5);
#509=CYLINDRICAL_SURFACE('',#569,1.5);
#510=CYLINDRICAL_SURFACE('',#572,1.5);
#511=CYLINDRICAL_SURFACE('',#575,1.5);
#512=CYLINDRICAL_SURFACE('',#578,1.5);
#513=CYLINDRICAL_SURFACE('',#581,1.5);
#514=CYLINDRICAL_SURFACE('',#594,6.5);
#515=CYLINDRICAL_SURFACE('',#597,6.5);
#516=CYLINDRICAL_SURFACE('',#604,6.5);
#517=ADVANCED_FACE('',(#49),#505,.F.);
#518=ADVANCED_FACE('',(#50),#506,.F.);
#519=ADVANCED_FACE('',(#51),#507,.F.);
#520=ADVANCED_FACE('',(#52),#508,.F.);
#521=ADVANCED_FACE('',(#53),#509,.F.);
#522=ADVANCED_FACE('',(#54),#510,.F.);
#523=ADVANCED_FACE('',(#55),#511,.F.);
#524=ADVANCED_FACE('',(#56),#512,.F.);
#525=ADVANCED_FACE('',(#57),#513,.F.);
#526=ADVANCED_FACE('',(#58,#15,#16,#17),#35,.F.);
#527=ADVANCED_FACE('',(#59),#36,.T.);
#528=ADVANCED_FACE('',(#60),#37,.T.);
#529=ADVANCED_FACE('',(#61,#18,#19,#20),#38,.T.);
#530=ADVANCED_FACE('',(#62,#21,#22,#23,#24,#25,#26,#27),#39,.T.);
#531=ADVANCED_FACE('',(#63),#40,.F.);
#532=ADVANCED_FACE('',(#64),#41,.F.);
#533=ADVANCED_FACE('',(#65),#514,.F.);
#534=ADVANCED_FACE('',(#66),#42,.F.);
#535=ADVANCED_FACE('',(#67),#515,.F.);
#536=ADVANCED_FACE('',(#68),#43,.F.);
#537=ADVANCED_FACE('',(#69),#44,.F.);
#538=ADVANCED_FACE('',(#70),#45,.F.);
#539=ADVANCED_FACE('',(#71,#28,#29,#30,#31,#32,#33,#34),#46,.T.);
#540=ADVANCED_FACE('',(#72),#516,.F.);
#541=ADVANCED_FACE('',(#73),#47,.T.);
#542=ADVANCED_FACE('',(#74),#48,.T.);
#543=CLOSED_SHELL('',(#517,#518,#519,#520,#521,#522,#523,#524,#525,#526,
#527,#528,#529,#530,#531,#532,#533,#534,#535,#536,#537,#538,#539,#540,#541,
#542));
#544=DERIVED_UNIT_ELEMENT(#546,1.);
#545=DERIVED_UNIT_ELEMENT(#909,-3.);
#546=(
MASS_UNIT()
NAMED_UNIT(*)
SI_UNIT(.KILO.,.GRAM.)
);
#547=DERIVED_UNIT((#544,#545));
#548=MEASURE_REPRESENTATION_ITEM('density measure',
POSITIVE_RATIO_MEASURE(7850.),#547);
#549=PROPERTY_DEFINITION_REPRESENTATION(#554,#551);
#550=PROPERTY_DEFINITION_REPRESENTATION(#555,#552);
#551=REPRESENTATION('material name',(#553),#906);
#552=REPRESENTATION('density',(#548),#906);
#553=DESCRIPTIVE_REPRESENTATION_ITEM('Acier','Acier');
#554=PROPERTY_DEFINITION('material property','material name',#916);
#555=PROPERTY_DEFINITION('material property','density of part',#916);
#556=AXIS2_PLACEMENT_3D('',#757,#607,#608);
#557=AXIS2_PLACEMENT_3D('',#758,#609,#610);
#558=AXIS2_PLACEMENT_3D('',#760,#611,#612);
#559=AXIS2_PLACEMENT_3D('',#763,#614,#615);
#560=AXIS2_PLACEMENT_3D('',#764,#616,#617);
#561=AXIS2_PLACEMENT_3D('',#766,#618,#619);
#562=AXIS2_PLACEMENT_3D('',#769,#621,#622);
#563=AXIS2_PLACEMENT_3D('',#770,#623,#624);
#564=AXIS2_PLACEMENT_3D('',#772,#625,#626);
#565=AXIS2_PLACEMENT_3D('',#775,#628,#629);
#566=AXIS2_PLACEMENT_3D('',#776,#630,#631);
#567=AXIS2_PLACEMENT_3D('',#778,#632,#633);
#568=AXIS2_PLACEMENT_3D('',#781,#635,#636);
#569=AXIS2_PLACEMENT_3D('',#782,#637,#638);
#570=AXIS2_PLACEMENT_3D('',#784,#639,#640);
#571=AXIS2_PLACEMENT_3D('',#787,#642,#643);
#572=AXIS2_PLACEMENT_3D('',#788,#644,#645);
#573=AXIS2_PLACEMENT_3D('',#790,#646,#647);
#574=AXIS2_PLACEMENT_3D('',#793,#649,#650);
#575=AXIS2_PLACEMENT_3D('',#794,#651,#652);
#576=AXIS2_PLACEMENT_3D('',#796,#653,#654);
#577=AXIS2_PLACEMENT_3D('',#799,#656,#657);
#578=AXIS2_PLACEMENT_3D('',#800,#658,#659);
#579=AXIS2_PLACEMENT_3D('',#802,#660,#661);
#580=AXIS2_PLACEMENT_3D('',#805,#663,#664);
#581=AXIS2_PLACEMENT_3D('',#806,#665,#666);
#582=AXIS2_PLACEMENT_3D('',#808,#667,#668);
#583=AXIS2_PLACEMENT_3D('',#811,#670,#671);
#584=AXIS2_PLACEMENT_3D('',#812,#672,#673);
#585=AXIS2_PLACEMENT_3D('',#821,#678,#679);
#586=AXIS2_PLACEMENT_3D('',#827,#683,#684);
#587=AXIS2_PLACEMENT_3D('',#835,#689,#690);
#588=AXIS2_PLACEMENT_3D('',#839,#693,#694);
#589=AXIS2_PLACEMENT_3D('',#849,#699,#700);
#590=AXIS2_PLACEMENT_3D('',#857,#704,#705);
#591=AXIS2_PLACEMENT_3D('',#860,#707,#708);
#592=AXIS2_PLACEMENT_3D('',#861,#709,#710);
#593=AXIS2_PLACEMENT_3D('',#867,#714,#715);
#594=AXIS2_PLACEMENT_3D('',#871,#718,#719);
#595=AXIS2_PLACEMENT_3D('',#873,#720,#721);
#596=AXIS2_PLACEMENT_3D('',#875,#723,#724);
#597=AXIS2_PLACEMENT_3D('',#881,#728,#729);
#598=AXIS2_PLACEMENT_3D('',#884,#731,#732);
#599=AXIS2_PLACEMENT_3D('',#885,#733,#734);
#600=AXIS2_PLACEMENT_3D('',#891,#738,#739);
#601=AXIS2_PLACEMENT_3D('',#893,#741,#742);
#602=AXIS2_PLACEMENT_3D('',#895,#744,#745);
#603=AXIS2_PLACEMENT_3D('',#899,#748,#749);
#604=AXIS2_PLACEMENT_3D('',#900,#750,#751);
#605=AXIS2_PLACEMENT_3D('',#901,#752,#753);
#606=AXIS2_PLACEMENT_3D('',#903,#755,#756);
#607=DIRECTION('axis',(0.,0.,1.));
#608=DIRECTION('refdir',(1.,0.,0.));
#609=DIRECTION('center_axis',(-1.,0.,0.));
#610=DIRECTION('ref_axis',(0.,1.,0.));
#611=DIRECTION('center_axis',(-1.,0.,0.));
#612=DIRECTION('ref_axis',(0.,1.,0.));
#613=DIRECTION('',(-1.,0.,0.));
#614=DIRECTION('center_axis',(1.,0.,0.));
#615=DIRECTION('ref_axis',(0.,1.,0.));
#616=DIRECTION('center_axis',(0.,-1.,0.));
#617=DIRECTION('ref_axis',(0.,0.,1.));
#618=DIRECTION('center_axis',(0.,-1.,0.));
#619=DIRECTION('ref_axis',(0.,0.,1.));
#620=DIRECTION('',(0.,-1.,0.));
#621=DIRECTION('center_axis',(0.,1.,0.));
#622=DIRECTION('ref_axis',(0.,0.,1.));
#623=DIRECTION('center_axis',(0.,-1.,0.));
#624=DIRECTION('ref_axis',(0.,0.,1.));
#625=DIRECTION('center_axis',(0.,-1.,0.));
#626=DIRECTION('ref_axis',(0.,0.,1.));
#627=DIRECTION('',(0.,-1.,0.));
#628=DIRECTION('center_axis',(0.,1.,0.));
#629=DIRECTION('ref_axis',(0.,0.,1.));
#630=DIRECTION('center_axis',(0.,-1.,0.));
#631=DIRECTION('ref_axis',(0.,0.,1.));
#632=DIRECTION('center_axis',(0.,-1.,0.));
#633=DIRECTION('ref_axis',(0.,0.,1.));
#634=DIRECTION('',(0.,-1.,0.));
#635=DIRECTION('center_axis',(0.,1.,0.));
#636=DIRECTION('ref_axis',(0.,0.,1.));
#637=DIRECTION('center_axis',(0.,-1.,0.));
#638=DIRECTION('ref_axis',(0.,0.,1.));
#639=DIRECTION('center_axis',(0.,-1.,0.));
#640=DIRECTION('ref_axis',(0.,0.,1.));
#641=DIRECTION('',(0.,-1.,0.));
#642=DIRECTION('center_axis',(0.,1.,0.));
#643=DIRECTION('ref_axis',(0.,0.,1.));
#644=DIRECTION('center_axis',(0.,-1.,0.));
#645=DIRECTION('ref_axis',(0.,0.,1.));
#646=DIRECTION('center_axis',(0.,-1.,0.));
#647=DIRECTION('ref_axis',(0.,0.,1.));
#648=DIRECTION('',(0.,-1.,0.));
#649=DIRECTION('center_axis',(0.,1.,0.));
#650=DIRECTION('ref_axis',(0.,0.,1.));
#651=DIRECTION('center_axis',(0.,-1.,0.));
#652=DIRECTION('ref_axis',(0.,0.,1.));
#653=DIRECTION('center_axis',(0.,-1.,0.));
#654=DIRECTION('ref_axis',(0.,0.,1.));
#655=DIRECTION('',(0.,-1.,0.));
#656=DIRECTION('center_axis',(0.,1.,0.));
#657=DIRECTION('ref_axis',(0.,0.,1.));
#658=DIRECTION('center_axis',(1.,0.,0.));
#659=DIRECTION('ref_axis',(0.,-1.,0.));
#660=DIRECTION('center_axis',(1.,0.,0.));
#661=DIRECTION('ref_axis',(0.,-1.,0.));
#662=DIRECTION('',(1.,0.,0.));
#663=DIRECTION('center_axis',(-1.,0.,0.));
#664=DIRECTION('ref_axis',(0.,-1.,0.));
#665=DIRECTION('center_axis',(1.,0.,0.));
#666=DIRECTION('ref_axis',(0.,-1.,0.));
#667=DIRECTION('center_axis',(1.,0.,0.));
#668=DIRECTION('ref_axis',(0.,-1.,0.));
#669=DIRECTION('',(1.,0.,0.));
#670=DIRECTION('center_axis',(-1.,0.,0.));
#671=DIRECTION('ref_axis',(0.,-1.,0.));
#672=DIRECTION('center_axis',(1.,0.,0.));
#673=DIRECTION('ref_axis',(0.,0.,-1.));
#674=DIRECTION('',(0.,1.,0.));
#675=DIRECTION('',(0.,0.,-1.));
#676=DIRECTION('',(0.,-1.,0.));
#677=DIRECTION('',(0.,0.,1.));
#678=DIRECTION('center_axis',(0.,-1.,0.));
#679=DIRECTION('ref_axis',(0.,0.,1.));
#680=DIRECTION('',(-1.,0.,0.));
#681=DIRECTION('',(0.,0.,-1.));
#682=DIRECTION('',(1.,0.,0.));
#683=DIRECTION('center_axis',(0.,0.,-1.));
#684=DIRECTION('ref_axis',(0.,-1.,0.));
#685=DIRECTION('',(-1.,0.,0.));
#686=DIRECTION('',(0.,-1.,0.));
#687=DIRECTION('',(1.,0.,0.));
#688=DIRECTION('',(0.,1.,0.));
#689=DIRECTION('center_axis',(1.,0.,0.));
#690=DIRECTION('ref_axis',(0.,0.,-1.));
#691=DIRECTION('',(0.,0.,1.));
#692=DIRECTION('',(0.,-1.,0.));
#693=DIRECTION('center_axis',(0.,-1.,0.));
#694=DIRECTION('ref_axis',(0.,0.,1.));
#695=DIRECTION('',(0.,0.,1.));
#696=DIRECTION('',(1.,0.,0.));
#697=DIRECTION('',(1.,0.,0.));
#698=DIRECTION('',(0.,0.,-1.));
#699=DIRECTION('center_axis',(0.,1.,0.));
#700=DIRECTION('ref_axis',(0.,0.,1.));
#701=DIRECTION('',(0.475302636545352,0.,-0.879822370534551));
#702=DIRECTION('',(-1.,0.,0.));
#703=DIRECTION('',(0.776002619478337,0.,0.630729684225152));
#704=DIRECTION('center_axis',(0.,1.,0.));
#705=DIRECTION('ref_axis',(0.,0.,1.));
#706=DIRECTION('',(0.999999980310216,0.,0.000198442857831736));
#707=DIRECTION('center_axis',(0.,1.,0.));
#708=DIRECTION('ref_axis',(0.,0.,1.));
#709=DIRECTION('center_axis',(0.,0.,1.));
#710=DIRECTION('ref_axis',(-1.,0.,0.));
#711=DIRECTION('',(0.,-1.,0.));
#712=DIRECTION('',(-1.,0.,0.));
#713=DIRECTION('',(0.,-1.,0.));
#714=DIRECTION('center_axis',(1.,0.,0.));
#715=DIRECTION('ref_axis',(0.,0.,1.));
#716=DIRECTION('',(0.,0.,1.));
#717=DIRECTION('',(0.,1.,0.));
#718=DIRECTION('center_axis',(0.,-1.,0.));
#719=DIRECTION('ref_axis',(0.99999672439355,0.,-0.00255953163099409));
#720=DIRECTION('center_axis',(0.,-1.,0.));
#721=DIRECTION('ref_axis',(0.,0.,1.));
#722=DIRECTION('',(0.,-1.,0.));
#723=DIRECTION('center_axis',(-0.000198442857831736,0.,0.999999980310216));
#724=DIRECTION('ref_axis',(-0.999999980310216,0.,-0.000198442857831736));
#725=DIRECTION('',(0.,-1.,0.));
#726=DIRECTION('',(-0.999999980310216,0.,-0.000198442857831736));
#727=DIRECTION('',(0.,1.,0.));
#728=DIRECTION('center_axis',(0.,-1.,0.));
#729=DIRECTION('ref_axis',(-0.999982471393568,0.,-0.0059208872318764));
#730=DIRECTION('',(0.,1.,0.));
#731=DIRECTION('center_axis',(0.,-1.,0.));
#732=DIRECTION('ref_axis',(0.,0.,1.));
#733=DIRECTION('center_axis',(0.,0.,-1.));
#734=DIRECTION('ref_axis',(-1.,0.,0.));
#735=DIRECTION('',(1.,0.,0.));
#736=DIRECTION('',(0.,1.,0.));
#737=DIRECTION('',(0.,1.,0.));
#738=DIRECTION('center_axis',(0.879822370534551,0.,0.475302636545352));
#739=DIRECTION('ref_axis',(0.475302636545352,0.,-0.879822370534551));
#740=DIRECTION('',(-0.475302636545352,0.,0.879822370534551));
#741=DIRECTION('center_axis',(-0.630729684225152,0.,0.776002619478337));
#742=DIRECTION('ref_axis',(0.776002619478337,0.,0.630729684225152));
#743=DIRECTION('',(-0.776002619478337,0.,-0.630729684225152));
#744=DIRECTION('center_axis',(0.,1.,0.));
#745=DIRECTION('ref_axis',(0.,0.,-1.));
#746=DIRECTION('',(0.,0.,-1.));
#747=DIRECTION('',(1.,0.,0.));
#748=DIRECTION('center_axis',(0.,-1.,0.));
#749=DIRECTION('ref_axis',(0.,0.,1.));
#750=DIRECTION('center_axis',(0.,-1.,0.));
#751=DIRECTION('ref_axis',(0.,0.,1.));
#752=DIRECTION('center_axis',(-1.,0.,0.));
#753=DIRECTION('ref_axis',(0.,0.,1.));
#754=DIRECTION('',(0.,1.,0.));
#755=DIRECTION('center_axis',(0.,0.,1.));
#756=DIRECTION('ref_axis',(0.,1.,0.));
#757=CARTESIAN_POINT('',(0.,0.,0.));
#758=CARTESIAN_POINT('Origin',(0.5,-100.372474783392,49.984168445688));
#759=CARTESIAN_POINT('',(2.,-103.872474783392,49.984168445688));
#760=CARTESIAN_POINT('Origin',(2.,-100.372474783392,49.984168445688));
#761=CARTESIAN_POINT('',(0.,-103.872474783392,49.984168445688));
#762=CARTESIAN_POINT('',(0.5,-103.872474783392,49.984168445688));
#763=CARTESIAN_POINT('Origin',(0.,-100.372474783392,49.984168445688));
#764=CARTESIAN_POINT('Origin',(-15.0000002235174,0.640063005604589,65.0000009685755));
#765=CARTESIAN_POINT('',(-15.0000002235174,-2.85993699439541,63.5000009685755));
#766=CARTESIAN_POINT('Origin',(-15.0000002235174,-2.85993699439541,65.0000009685755));
#767=CARTESIAN_POINT('',(-15.0000002235174,-5.,63.5000009685755));
#768=CARTESIAN_POINT('',(-15.0000002235174,0.640063005604589,63.5000009685755));
#769=CARTESIAN_POINT('Origin',(-15.0000002235174,-5.,65.0000009685755));
#770=CARTESIAN_POINT('Origin',(-15.0000002235174,0.640063005604589,35.0000005215406));
#771=CARTESIAN_POINT('',(-15.0000002235174,-2.85993699439541,33.5000005215406));
#772=CARTESIAN_POINT('Origin',(-15.0000002235174,-2.85993699439541,35.0000005215406));
#773=CARTESIAN_POINT('',(-15.0000002235174,-5.,33.5000005215406));
#774=CARTESIAN_POINT('',(-15.0000002235174,0.640063005604589,33.5000005215406));
#775=CARTESIAN_POINT('Origin',(-15.0000002235174,-5.,35.0000005215406));
#776=CARTESIAN_POINT('Origin',(-4.54878374527715,0.640063005604589,39.2402565645357));
#777=CARTESIAN_POINT('',(-4.54878374527715,-2.85993699439541,37.7402565645357));
#778=CARTESIAN_POINT('Origin',(-4.54878374527715,-2.85993699439541,39.2402565645357));
#779=CARTESIAN_POINT('',(-4.54878374527715,-5.,37.7402565645357));
#780=CARTESIAN_POINT('',(-4.54878374527715,0.640063005604589,37.7402565645357));
#781=CARTESIAN_POINT('Origin',(-4.54878374527715,-5.,39.2402565645357));
#782=CARTESIAN_POINT('Origin',(-4.24025656453571,0.640063005604589,60.4512162547229));
#783=CARTESIAN_POINT('',(-4.24025656453571,-2.85993699439541,58.9512162547229));
#784=CARTESIAN_POINT('Origin',(-4.24025656453571,-2.85993699439541,60.4512162547229));
#785=CARTESIAN_POINT('',(-4.24025656453571,-5.,58.9512162547229));
#786=CARTESIAN_POINT('',(-4.24025656453571,0.640063005604589,58.9512162547229));
#787=CARTESIAN_POINT('Origin',(-4.24025656453571,-5.,60.4512162547229));
#788=CARTESIAN_POINT('Origin',(-25.666106100119,0.640063005604589,60.5467616196161));
#789=CARTESIAN_POINT('',(-25.666106100119,-2.85993699439541,59.0467616196161));
#790=CARTESIAN_POINT('Origin',(-25.666106100119,-2.85993699439541,60.5467616196161));
#791=CARTESIAN_POINT('',(-25.666106100119,-5.,59.0467616196161));
#792=CARTESIAN_POINT('',(-25.666106100119,0.640063005604589,59.0467616196161));
#793=CARTESIAN_POINT('Origin',(-25.666106100119,-5.,60.5467616196161));
#794=CARTESIAN_POINT('Origin',(-25.7597434354643,0.640063005604588,39.5487837452771));
#795=CARTESIAN_POINT('',(-25.7597434354643,-2.85993699439541,38.0487837452771));
#796=CARTESIAN_POINT('Origin',(-25.7597434354643,-2.85993699439541,39.5487837452771));
#797=CARTESIAN_POINT('',(-25.7597434354643,-5.,38.0487837452771));
#798=CARTESIAN_POINT('',(-25.7597434354643,0.640063005604588,38.0487837452771));
#799=CARTESIAN_POINT('Origin',(-25.7597434354643,-5.,39.5487837452771));
#800=CARTESIAN_POINT('Origin',(1.5,-100.,60.));
#801=CARTESIAN_POINT('',(0.,-98.5,60.));
#802=CARTESIAN_POINT('Origin',(0.,-100.,60.));
#803=CARTESIAN_POINT('',(2.,-98.5,60.));
#804=CARTESIAN_POINT('',(1.5,-98.5,60.));
#805=CARTESIAN_POINT('Origin',(2.,-100.,60.));
#806=CARTESIAN_POINT('Origin',(5.,-99.9937333979851,40.0781521348998));
#807=CARTESIAN_POINT('',(0.,-98.4937333979851,40.0781521348998));
#808=CARTESIAN_POINT('Origin',(0.,-99.9937333979851,40.0781521348998));
#809=CARTESIAN_POINT('',(2.,-98.4937333979851,40.0781521348998));
#810=CARTESIAN_POINT('',(5.,-98.4937333979851,40.0781521348998));
#811=CARTESIAN_POINT('Origin',(2.,-99.9937333979851,40.0781521348998));
#812=CARTESIAN_POINT('Origin',(0.,-65.,50.));
#813=CARTESIAN_POINT('',(0.,-130.,20.));
#814=CARTESIAN_POINT('',(0.,-5.,20.));
#815=CARTESIAN_POINT('',(0.,-32.5,20.));
#816=CARTESIAN_POINT('',(0.,-130.,80.));
#817=CARTESIAN_POINT('',(0.,-130.,35.));
#818=CARTESIAN_POINT('',(0.,-5.,80.));
#819=CARTESIAN_POINT('',(0.,-97.5,80.));
#820=CARTESIAN_POINT('',(0.,-5.,80.));
#821=CARTESIAN_POINT('Origin',(0.,-130.,20.));
#822=CARTESIAN_POINT('',(2.,-130.,20.));
#823=CARTESIAN_POINT('',(0.,-130.,20.));
#824=CARTESIAN_POINT('',(2.,-130.,80.));
#825=CARTESIAN_POINT('',(2.,-130.,20.));
#826=CARTESIAN_POINT('',(0.,-130.,80.));
#827=CARTESIAN_POINT('Origin',(0.,0.,20.));
#828=CARTESIAN_POINT('',(-40.,-5.,20.));
#829=CARTESIAN_POINT('',(0.,-5.,20.));
#830=CARTESIAN_POINT('',(-40.,-2.85993699439541,20.));
#831=CARTESIAN_POINT('',(-40.,2.14006300560459,20.));
#832=CARTESIAN_POINT('',(2.,-2.85993699439541,20.));
#833=CARTESIAN_POINT('',(0.,-2.85993699439541,20.));
#834=CARTESIAN_POINT('',(2.,2.14006300560459,20.));
#835=CARTESIAN_POINT('Origin',(2.,-65.,50.));
#836=CARTESIAN_POINT('',(2.,-2.85993699439541,80.));
#837=CARTESIAN_POINT('',(2.,-2.85993699439541,80.));
#838=CARTESIAN_POINT('',(2.,-130.,80.));
#839=CARTESIAN_POINT('Origin',(0.,-5.,20.));
#840=CARTESIAN_POINT('',(-40.,-5.,80.));
#841=CARTESIAN_POINT('',(-40.,-5.,20.));
#842=CARTESIAN_POINT('',(-1.,-5.,80.));
#843=CARTESIAN_POINT('',(-12.8719599600027,-5.,56.4979892601601));
#844=CARTESIAN_POINT('',(-10.0000001490116,-5.,56.4979892601601));
#845=CARTESIAN_POINT('',(-5.00000007450581,-5.,56.4979892601601));
#846=CARTESIAN_POINT('',(-10.0000001490116,-5.,56.4933069289754));
#847=CARTESIAN_POINT('',(-10.0000001490116,-5.,38.2466534644877));
#848=CARTESIAN_POINT('',(-10.0332358252011,-5.,43.508287748097));
#849=CARTESIAN_POINT('Origin',(-9.70510164762603,-5.,50.));
#850=CARTESIAN_POINT('',(-10.0000001490116,-5.,43.4467659109284));
#851=CARTESIAN_POINT('',(-5.46793070327282,-5.,35.0575507528579));
#852=CARTESIAN_POINT('',(-19.8322848856805,-5.,43.4467659109284));
#853=CARTESIAN_POINT('',(-5.00000007450581,-5.,43.4467659109284));
#854=CARTESIAN_POINT('',(-19.7613999523481,-5.,43.5043807056401));
#855=CARTESIAN_POINT('',(-19.5989665982681,-5.,43.6364054379733));
#856=CARTESIAN_POINT('',(-19.8383349918986,-5.,56.4979892601601));
#857=CARTESIAN_POINT('Origin',(-20.,-5.,50.));
#858=CARTESIAN_POINT('',(-15.6527888477377,-5.,56.4988198519149));
#859=CARTESIAN_POINT('',(-7.83001619705702,-5.,56.5003722253064));
#860=CARTESIAN_POINT('Origin',(-14.2642709179631,-5.,50.1488578080366));
#861=CARTESIAN_POINT('Origin',(-10.0000001490116,2.14006300560459,56.4979892601601));
#862=CARTESIAN_POINT('',(-12.8719599600027,-2.85993699439541,56.4979892601601));
#863=CARTESIAN_POINT('',(-12.8719599600027,-7.85993699439541,56.4979892601601));
#864=CARTESIAN_POINT('',(-10.0000001490116,-2.85993699439541,56.4979892601601));
#865=CARTESIAN_POINT('',(-5.00000007450581,-2.85993699439541,56.4979892601601));
#866=CARTESIAN_POINT('',(-10.0000001490116,2.14006300560459,56.4979892601601));
#867=CARTESIAN_POINT('Origin',(-10.0000001490116,2.14006300560459,56.4933069289754));
#868=CARTESIAN_POINT('',(-10.0000001490116,-2.85993699439541,56.4933069289754));
#869=CARTESIAN_POINT('',(-10.0000001490116,-2.85993699439541,68.2466534644877));
#870=CARTESIAN_POINT('',(-10.0000001490116,-7.85993699439541,56.4933069289754));
#871=CARTESIAN_POINT('Origin',(-9.70510164762603,-7.85993699439541,50.));
#872=CARTESIAN_POINT('',(-10.0332358252011,-2.85993699439541,43.508287748097));
#873=CARTESIAN_POINT('Origin',(-9.70510164762603,-2.85993699439541,50.));
#874=CARTESIAN_POINT('',(-10.0332358252011,-7.85993699439541,43.508287748097));
#875=CARTESIAN_POINT('Origin',(-15.6527888477377,2.14006300560459,56.4988198519149));
#876=CARTESIAN_POINT('',(-19.8383349918986,-2.85993699439541,56.4979892601601));
#877=CARTESIAN_POINT('',(-19.8383349918996,-7.85993699439541,56.4979892601601));
#878=CARTESIAN_POINT('',(-15.6527888477377,-2.85993699439541,56.4988198519149));
#879=CARTESIAN_POINT('',(-7.82406291143929,-2.85993699439541,56.5003734066934));
#880=CARTESIAN_POINT('',(-15.6527888477377,-7.85993699439541,56.4988198519149));
#881=CARTESIAN_POINT('Origin',(-20.,-7.85993699439541,50.));
#882=CARTESIAN_POINT('',(-19.7613999523481,-2.85993699439541,43.5043807056401));
#883=CARTESIAN_POINT('',(-19.7613999523481,-7.85993699439541,43.5043807056401));
#884=CARTESIAN_POINT('Origin',(-20.,-2.85993699439541,50.));
#885=CARTESIAN_POINT('Origin',(-10.0000001490116,0.,43.4467659109284));
#886=CARTESIAN_POINT('',(-19.8322848856805,-2.85993699439541,43.4467659109284));
#887=CARTESIAN_POINT('',(-10.0000001490116,-2.85993699439541,43.4467659109284));
#888=CARTESIAN_POINT('',(-5.00000007450581,-2.85993699439541,43.4467659109283));
#889=CARTESIAN_POINT('',(-19.8322848856805,0.,43.4467659109284));
#890=CARTESIAN_POINT('',(-10.0000001490116,0.,43.4467659109284));
#891=CARTESIAN_POINT('Origin',(-13.0000001937151,0.,49.0000007301569));
#892=CARTESIAN_POINT('',(-18.0133874754724,-2.85993699439541,58.280172863649));
#893=CARTESIAN_POINT('Origin',(-19.8322848856805,0.,43.4467659109284));
#894=CARTESIAN_POINT('',(-4.91552998402425,-2.85993699439541,55.5710034748561));
#895=CARTESIAN_POINT('Origin',(0.,-2.85993699439541,80.));
#896=CARTESIAN_POINT('',(-40.,-2.85993699439541,80.));
#897=CARTESIAN_POINT('',(-40.,-2.85993699439541,80.));
#898=CARTESIAN_POINT('',(0.,-2.85993699439541,80.));
#899=CARTESIAN_POINT('Origin',(-14.2642709179631,-2.85993699439541,50.1488578080366));
#900=CARTESIAN_POINT('Origin',(-14.2642709179631,-7.85993699439541,50.1488578080366));
#901=CARTESIAN_POINT('Origin',(-40.,1.07003150280229,50.));
#902=CARTESIAN_POINT('',(-40.,0.,80.));
#903=CARTESIAN_POINT('Origin',(0.,-130.,80.));
#904=UNCERTAINTY_MEASURE_WITH_UNIT(LENGTH_MEASURE(0.01),#908,
'DISTANCE_ACCURACY_VALUE',
'Maximum model space distance between geometric entities at asserted c
onnectivities');
#905=UNCERTAINTY_MEASURE_WITH_UNIT(LENGTH_MEASURE(0.01),#908,
'DISTANCE_ACCURACY_VALUE',
'Maximum model space distance between geometric entities at asserted c
onnectivities');
#906=(
GEOMETRIC_REPRESENTATION_CONTEXT(3)
GLOBAL_UNCERTAINTY_ASSIGNED_CONTEXT((#904))
GLOBAL_UNIT_ASSIGNED_CONTEXT((#908,#910,#911))
REPRESENTATION_CONTEXT('','3D')
);
#907=(
GEOMETRIC_REPRESENTATION_CONTEXT(3)
GLOBAL_UNCERTAINTY_ASSIGNED_CONTEXT((#905))
GLOBAL_UNIT_ASSIGNED_CONTEXT((#908,#910,#911))
REPRESENTATION_CONTEXT('','3D')
);
#908=(
LENGTH_UNIT()
NAMED_UNIT(*)
SI_UNIT(.MILLI.,.METRE.)
);
#909=(
LENGTH_UNIT()
NAMED_UNIT(*)
SI_UNIT($,.METRE.)
);
#910=(
NAMED_UNIT(*)
PLANE_ANGLE_UNIT()
SI_UNIT($,.RADIAN.)
);
#911=(
NAMED_UNIT(*)
SI_UNIT($,.STERADIAN.)
SOLID_ANGLE_UNIT()
);
#912=SHAPE_DEFINITION_REPRESENTATION(#913,#914);
#913=PRODUCT_DEFINITION_SHAPE('',$,#916);
#914=SHAPE_REPRESENTATION('',(#556),#906);
#915=PRODUCT_DEFINITION_CONTEXT('part definition',#920,'design');
#916=PRODUCT_DEFINITION('SUPPORT1','SUPPORT1 v4',#917,#915);
#917=PRODUCT_DEFINITION_FORMATION('',$,#922);
#918=PRODUCT_RELATED_PRODUCT_CATEGORY('SUPPORT1 v4','SUPPORT1 v4',(#922));
#919=APPLICATION_PROTOCOL_DEFINITION('international standard',
'automotive_design',2009,#920);
#920=APPLICATION_CONTEXT(
'Core Data for Automotive Mechanical Design Process');
#921=PRODUCT_CONTEXT('part definition',#920,'mechanical');
#922=PRODUCT('SUPPORT1','SUPPORT1 v4',$,(#921));
#923=PRESENTATION_STYLE_ASSIGNMENT((#924));
#924=SURFACE_STYLE_USAGE(.BOTH.,#925);
#925=SURFACE_SIDE_STYLE('',(#926));
#926=SURFACE_STYLE_FILL_AREA(#927);
#927=FILL_AREA_STYLE('Acier - Satin\X\E9',(#928));
#928=FILL_AREA_STYLE_COLOUR('Acier - Satin\X\E9',#929);
#929=COLOUR_RGB('Acier - Satin\X\E9',0.627450980392157,0.627450980392157,
0.627450980392157);
ENDSEC;
END-ISO-10303-21;
